<svg xmlns="http://www.w3.org/2000/svg" xmlns:xlink="http://www.w3.org/1999/xlink" width="715" height="457.477" viewBox="0 0 715 457.477">
  <defs>
    <clipPath id="clip-path">
      <rect id="Rectángulo_362392" data-name="Rectángulo 362392" width="715" height="457.476" fill="none"/>
    </clipPath>
  </defs>
  <g id="Grupo_1022483" data-name="Grupo 1022483" transform="translate(-390 -2562.605)">
    <g id="Grupo_1020851" data-name="Grupo 1020851" transform="translate(390 2562.605)" clip-path="url(#clip-path)">
      <path id="Trazado_755406" data-name="Trazado 755406" d="M86.223,267.424a10.892,10.892,0,0,1-3.244.548,5.417,5.417,0,0,1-3.95-1.311,4.7,4.7,0,0,1-1.369-3.532c.014-3.228,2.363-5.074,5.55-5.074a6.69,6.69,0,0,1,2.695.476l-.461,1.76a5.382,5.382,0,0,0-2.263-.418,3.165,3.165,0,1,0,.922,6.184v-2.034H82.6v-1.715h3.619Zm1.681-4.282c0-1.038-.029-1.715-.058-2.32h1.889l.072,1.3h.058a2.07,2.07,0,0,1,1.9-1.456,2.264,2.264,0,0,1,.461.029v2.061a3.136,3.136,0,0,0-.591-.058,1.408,1.408,0,0,0-1.5,1.11,2.6,2.6,0,0,0-.043.492v3.574H87.9Zm9.327,4.729-.13-.706h-.043a2.54,2.54,0,0,1-2.019.865,2.16,2.16,0,0,1-2.277-2.162c0-1.83,1.643-2.711,4.138-2.7v-.1c0-.375-.2-.908-1.283-.908a3.965,3.965,0,0,0-1.947.533l-.4-1.412a5.82,5.82,0,0,1,2.74-.62c2.349,0,3.1,1.383,3.1,3.041v2.452a10.92,10.92,0,0,0,.1,1.715Zm-.259-3.329c-1.153-.014-2.048.259-2.048,1.11a.787.787,0,0,0,.866.836,1.2,1.2,0,0,0,1.139-.807,1.572,1.572,0,0,0,.043-.375Zm1.456-6.791-1.758,2.192H95.155l1.241-2.192Zm2.65,10.12v-5.435h-.922v-1.614h.922v-.3c0-1.947,1.513-3.042,3.691-3.042a4.722,4.722,0,0,1,2.075.432l-.418,1.659a3.45,3.45,0,0,0-1.6-.36c-1.153,0-1.556.591-1.556,1.369v.245h4.28v7.049H105.36v-5.435h-2.075v5.435Zm13.52-.173a5.343,5.343,0,0,1-1.96.317,3.419,3.419,0,0,1-3.734-3.6,3.676,3.676,0,0,1,4.037-3.749,5.08,5.08,0,0,1,1.672.274l-.346,1.628a3,3,0,0,0-1.225-.216,1.976,1.976,0,0,0,.043,3.95,3.378,3.378,0,0,0,1.254-.216Zm5.275.173-.13-.706H119.7a2.54,2.54,0,0,1-2.019.865,2.16,2.16,0,0,1-2.277-2.162c0-1.83,1.643-2.711,4.138-2.7v-.1c0-.375-.2-.908-1.283-.908a3.965,3.965,0,0,0-1.947.533l-.4-1.412a5.82,5.82,0,0,1,2.74-.62c2.349,0,3.1,1.383,3.1,3.041v2.452a10.921,10.921,0,0,0,.1,1.715Zm-.259-3.329c-1.153-.014-2.048.259-2.048,1.11a.788.788,0,0,0,.866.836,1.2,1.2,0,0,0,1.139-.807,1.571,1.571,0,0,0,.043-.375Zm6.5,3.329v-1.326l1.211-1.1c2.048-1.832,3.042-2.884,3.071-3.979,0-.764-.461-1.369-1.542-1.369a3.4,3.4,0,0,0-2,.778l-.62-1.571a5.187,5.187,0,0,1,3.071-.967c2.119,0,3.286,1.241,3.286,2.942,0,1.571-1.138,2.826-2.493,4.037l-.865.721v.029h3.531v1.8Zm8.114-5.809a1.29,1.29,0,1,1,1.283,1.311,1.256,1.256,0,0,1-1.283-1.311m0,4.656a1.29,1.29,0,1,1,1.283,1.311,1.264,1.264,0,0,1-1.283-1.311" transform="translate(46.694 154.815)" fill="#040504"/>
    </g>
    <path id="Trazado_762165" data-name="Trazado 762165" d="M4.16,0,7.293-8.762H6.084L4.6-4.433c-.39,1.144-.754,2.249-1,3.263H3.575C3.341-2.2,3.016-3.263,2.639-4.446L1.274-8.762H.052L2.912,0Zm8.671-2.938a4.315,4.315,0,0,0,.039-.533c0-1.157-.546-2.964-2.6-2.964-1.833,0-2.951,1.495-2.951,3.393A2.922,2.922,0,0,0,10.413.13a5.1,5.1,0,0,0,2.093-.39l-.195-.819a4.137,4.137,0,0,1-1.742.325A2.016,2.016,0,0,1,8.411-2.938ZM8.424-3.757a1.9,1.9,0,0,1,1.755-1.859,1.629,1.629,0,0,1,1.586,1.859ZM14.287,0h1.144V-3.783a1.645,1.645,0,0,1,.078-.533,1.625,1.625,0,0,1,1.534-1.17c1.079,0,1.456.845,1.456,1.859V0h1.144V-3.757c0-2.158-1.352-2.678-2.223-2.678a2.314,2.314,0,0,0-2.08,1.183h-.026l-.065-1.04H14.235c.039.52.052,1.053.052,1.7ZM21.71-7.8v1.508h-.975v.871h.975v3.432a2.331,2.331,0,0,0,.442,1.638A1.585,1.585,0,0,0,23.387.13,2.8,2.8,0,0,0,24.4-.026l-.052-.858a2.545,2.545,0,0,1-.663.078c-.637,0-.858-.442-.858-1.222V-5.421h1.638v-.871H22.828V-8.1ZM30.277,0a8.859,8.859,0,0,1-.1-1.508V-3.861c0-1.261-.468-2.574-2.392-2.574a3.9,3.9,0,0,0-2.067.559l.26.754a3.135,3.135,0,0,1,1.638-.468,1.3,1.3,0,0,1,1.43,1.456V-4c-2.431-.013-3.783.819-3.783,2.34A1.793,1.793,0,0,0,27.183.143a2.344,2.344,0,0,0,1.924-.936h.039L29.237,0ZM29.068-2.119A1.194,1.194,0,0,1,29-1.755,1.565,1.565,0,0,1,27.482-.7,1.012,1.012,0,0,1,26.4-1.794c0-1.222,1.417-1.443,2.665-1.417ZM31.577-.3A3.588,3.588,0,0,0,33.345.13C34.84.13,35.7-.65,35.7-1.755c0-.936-.559-1.482-1.651-1.9-.819-.312-1.2-.546-1.2-1.066,0-.468.377-.858,1.053-.858a2.449,2.449,0,0,1,1.287.364l.286-.832a3.14,3.14,0,0,0-1.547-.39,1.941,1.941,0,0,0-2.171,1.846c0,.754.533,1.378,1.664,1.781.845.312,1.17.611,1.17,1.157,0,.52-.39.936-1.222.936a3,3,0,0,1-1.508-.455Zm12.87.3a8.859,8.859,0,0,1-.1-1.508V-3.861c0-1.261-.468-2.574-2.392-2.574a3.9,3.9,0,0,0-2.067.559l.26.754a3.135,3.135,0,0,1,1.638-.468,1.3,1.3,0,0,1,1.43,1.456V-4c-2.431-.013-3.783.819-3.783,2.34A1.793,1.793,0,0,0,41.353.143a2.344,2.344,0,0,0,1.924-.936h.039L43.407,0ZM43.238-2.119a1.194,1.194,0,0,1-.065.364A1.565,1.565,0,0,1,41.652-.7a1.012,1.012,0,0,1-1.079-1.092c0-1.222,1.417-1.443,2.665-1.417ZM49.2-7.8v1.508H48.23v.871H49.2v3.432a2.331,2.331,0,0,0,.442,1.638A1.585,1.585,0,0,0,50.882.13,2.8,2.8,0,0,0,51.9-.026l-.052-.858a2.545,2.545,0,0,1-.663.078c-.637,0-.858-.442-.858-1.222V-5.421h1.638v-.871H50.323V-8.1ZM53.248,0h1.131V-3.354a3.22,3.22,0,0,1,.052-.533,1.6,1.6,0,0,1,1.534-1.469,1.718,1.718,0,0,1,.39.039V-6.4a1.237,1.237,0,0,0-.325-.039,1.888,1.888,0,0,0-1.742,1.378h-.052L54.2-6.292h-1c.039.585.052,1.222.052,1.963Zm8.71,0a8.859,8.859,0,0,1-.1-1.508V-3.861c0-1.261-.468-2.574-2.392-2.574a3.9,3.9,0,0,0-2.067.559l.26.754a3.135,3.135,0,0,1,1.638-.468,1.3,1.3,0,0,1,1.43,1.456V-4c-2.431-.013-3.783.819-3.783,2.34A1.793,1.793,0,0,0,58.864.143a2.344,2.344,0,0,0,1.924-.936h.039L60.918,0ZM60.749-2.119a1.194,1.194,0,0,1-.065.364A1.565,1.565,0,0,1,59.163-.7a1.012,1.012,0,0,1-1.079-1.092c0-1.222,1.417-1.443,2.665-1.417Zm2.067-4.173L65.208,0H66.3l2.47-6.292h-1.2L66.352-2.756c-.208.572-.39,1.092-.533,1.612H65.78a16.18,16.18,0,0,0-.507-1.612L64.038-6.292Zm11.96,3.354a4.315,4.315,0,0,0,.039-.533c0-1.157-.546-2.964-2.6-2.964-1.833,0-2.951,1.495-2.951,3.393A2.922,2.922,0,0,0,72.358.13a5.1,5.1,0,0,0,2.093-.39l-.195-.819a4.137,4.137,0,0,1-1.742.325,2.016,2.016,0,0,1-2.158-2.184Zm-4.407-.819a1.9,1.9,0,0,1,1.755-1.859A1.629,1.629,0,0,1,73.71-3.757Zm2.353-5.252L71.578-7.15H72.4l1.586-1.859ZM75.79-.3A3.588,3.588,0,0,0,77.558.13c1.495,0,2.353-.78,2.353-1.885,0-.936-.559-1.482-1.651-1.9-.819-.312-1.2-.546-1.2-1.066,0-.468.377-.858,1.053-.858a2.449,2.449,0,0,1,1.287.364l.286-.832a3.14,3.14,0,0,0-1.547-.39,1.941,1.941,0,0,0-2.171,1.846c0,.754.533,1.378,1.664,1.781.845.312,1.17.611,1.17,1.157,0,.52-.39.936-1.222.936a3,3,0,0,1-1.508-.455ZM88.426-9.23v3.757H88.4a2.1,2.1,0,0,0-1.9-.962c-1.534,0-2.834,1.287-2.821,3.38,0,1.911,1.17,3.2,2.691,3.2a2.327,2.327,0,0,0,2.145-1.235h.026L88.595,0h1.027c-.039-.429-.052-1.066-.052-1.625V-9.23Zm0,6.591a1.987,1.987,0,0,1-.052.494A1.72,1.72,0,0,1,86.7-.78c-1.235,0-1.859-1.053-1.859-2.327,0-1.391.7-2.431,1.885-2.431a1.682,1.682,0,0,1,1.651,1.326,2.019,2.019,0,0,1,.052.481Zm8.1-.3a4.315,4.315,0,0,0,.039-.533c0-1.157-.546-2.964-2.6-2.964-1.833,0-2.951,1.495-2.951,3.393A2.922,2.922,0,0,0,94.107.13,5.1,5.1,0,0,0,96.2-.26L96-1.079a4.137,4.137,0,0,1-1.742.325A2.016,2.016,0,0,1,92.1-2.938Zm-4.407-.819a1.9,1.9,0,0,1,1.755-1.859,1.629,1.629,0,0,1,1.586,1.859ZM97.981,0h1.144V-9.23H97.981Zm10.114-1.092a3.25,3.25,0,0,1-1.4.312,2.157,2.157,0,0,1-2.184-2.353,2.177,2.177,0,0,1,2.223-2.379,2.653,2.653,0,0,1,1.326.3l.26-.884a3.824,3.824,0,0,0-1.586-.325,3.2,3.2,0,0,0-3.38,3.341A2.989,2.989,0,0,0,106.483.13a4.214,4.214,0,0,0,1.807-.364Zm4.121-5.343a3.072,3.072,0,0,0-3.12,3.341A2.991,2.991,0,0,0,112.112.143,3.075,3.075,0,0,0,115.245-3.2,2.98,2.98,0,0,0,112.216-6.435Zm-.026.858c1.352,0,1.885,1.352,1.885,2.418,0,1.417-.819,2.444-1.911,2.444-1.118,0-1.911-1.04-1.911-2.418C110.253-4.329,110.838-5.577,112.19-5.577ZM116.688,0h1.118V-3.8a1.577,1.577,0,0,1,.091-.559A1.563,1.563,0,0,1,119.314-5.5c.871,0,1.313.728,1.313,1.729V0h1.118V-3.887a1.884,1.884,0,0,1,.091-.572,1.481,1.481,0,0,1,1.352-1.04c.923,0,1.365.728,1.365,1.937V0h1.118V-3.705c0-2.184-1.235-2.73-2.067-2.73a2.147,2.147,0,0,0-1.391.442,2.592,2.592,0,0,0-.7.819h-.026A1.86,1.86,0,0,0,119.7-6.435a2.169,2.169,0,0,0-1.976,1.157h-.039l-.052-1.014h-1c.039.52.052,1.053.052,1.7Zm15.9-2.938a4.315,4.315,0,0,0,.039-.533c0-1.157-.546-2.964-2.6-2.964-1.833,0-2.951,1.495-2.951,3.393A2.922,2.922,0,0,0,130.169.13a5.1,5.1,0,0,0,2.093-.39l-.2-.819a4.137,4.137,0,0,1-1.742.325,2.016,2.016,0,0,1-2.158-2.184Zm-4.407-.819a1.9,1.9,0,0,1,1.755-1.859,1.629,1.629,0,0,1,1.586,1.859ZM134.043,0h1.131V-3.354a3.22,3.22,0,0,1,.052-.533,1.6,1.6,0,0,1,1.534-1.469,1.718,1.718,0,0,1,.39.039V-6.4a1.237,1.237,0,0,0-.325-.039,1.888,1.888,0,0,0-1.742,1.378h-.052l-.039-1.235h-1c.039.585.052,1.222.052,1.963Zm8.411-1.092a3.25,3.25,0,0,1-1.4.312,2.157,2.157,0,0,1-2.184-2.353,2.177,2.177,0,0,1,2.223-2.379,2.653,2.653,0,0,1,1.326.3l.26-.884a3.824,3.824,0,0,0-1.586-.325,3.2,3.2,0,0,0-3.38,3.341A2.989,2.989,0,0,0,140.842.13a4.214,4.214,0,0,0,1.807-.364ZM145.132,0V-6.292h-1.144V0Zm-.572-8.775a.7.7,0,0,0-.715.715.68.68,0,0,0,.689.7.676.676,0,0,0,.728-.7A.679.679,0,0,0,144.56-8.775Zm5.135,2.34a3.072,3.072,0,0,0-3.12,3.341A2.991,2.991,0,0,0,149.591.143,3.075,3.075,0,0,0,152.724-3.2,2.98,2.98,0,0,0,149.7-6.435Zm-.026.858c1.352,0,1.885,1.352,1.885,2.418,0,1.417-.819,2.444-1.911,2.444-1.118,0-1.911-1.04-1.911-2.418C147.732-4.329,148.317-5.577,149.669-5.577ZM161.98-2.938a4.315,4.315,0,0,0,.039-.533c0-1.157-.546-2.964-2.6-2.964-1.833,0-2.951,1.495-2.951,3.393A2.922,2.922,0,0,0,159.562.13a5.1,5.1,0,0,0,2.093-.39l-.2-.819a4.137,4.137,0,0,1-1.742.325,2.016,2.016,0,0,1-2.158-2.184Zm-4.407-.819a1.9,1.9,0,0,1,1.755-1.859,1.629,1.629,0,0,1,1.586,1.859ZM163.436,0h1.144V-9.23h-1.144Zm8.125-2.938a4.315,4.315,0,0,0,.039-.533c0-1.157-.546-2.964-2.6-2.964-1.833,0-2.951,1.495-2.951,3.393A2.922,2.922,0,0,0,169.143.13a5.1,5.1,0,0,0,2.093-.39l-.2-.819a4.137,4.137,0,0,1-1.742.325,2.016,2.016,0,0,1-2.158-2.184Zm-4.407-.819a1.9,1.9,0,0,1,1.755-1.859,1.629,1.629,0,0,1,1.586,1.859Zm10.153,2.665a3.25,3.25,0,0,1-1.4.312,2.157,2.157,0,0,1-2.184-2.353,2.177,2.177,0,0,1,2.223-2.379,2.653,2.653,0,0,1,1.326.3l.26-.884a3.824,3.824,0,0,0-1.586-.325,3.2,3.2,0,0,0-3.38,3.341A2.989,2.989,0,0,0,175.695.13,4.214,4.214,0,0,0,177.5-.234ZM179.27-7.8v1.508h-.975v.871h.975v3.432a2.331,2.331,0,0,0,.442,1.638,1.585,1.585,0,0,0,1.235.481,2.8,2.8,0,0,0,1.014-.156l-.052-.858a2.545,2.545,0,0,1-.663.078c-.637,0-.858-.442-.858-1.222V-5.421h1.638v-.871h-1.638V-8.1ZM183.313,0h1.131V-3.354a3.22,3.22,0,0,1,.052-.533,1.6,1.6,0,0,1,1.534-1.469,1.718,1.718,0,0,1,.39.039V-6.4a1.237,1.237,0,0,0-.325-.039,1.888,1.888,0,0,0-1.742,1.378H184.3l-.039-1.235h-1c.039.585.052,1.222.052,1.963ZM190.1-6.435a3.072,3.072,0,0,0-3.12,3.341A2.991,2.991,0,0,0,189.995.143,3.075,3.075,0,0,0,193.128-3.2,2.98,2.98,0,0,0,190.1-6.435Zm-.026.858c1.352,0,1.885,1.352,1.885,2.418,0,1.417-.819,2.444-1.911,2.444-1.118,0-1.911-1.04-1.911-2.418C188.136-4.329,188.721-5.577,190.073-5.577Zm.429-3.432L189.358-7.15h.819l1.586-1.859ZM194.571,0h1.144V-3.783a1.645,1.645,0,0,1,.078-.533,1.625,1.625,0,0,1,1.534-1.17c1.079,0,1.456.845,1.456,1.859V0h1.144V-3.757c0-2.158-1.352-2.678-2.223-2.678a2.314,2.314,0,0,0-2.08,1.183H195.6l-.065-1.04h-1.014c.039.52.052,1.053.052,1.7Zm8.359,0V-6.292h-1.144V0Zm-.572-8.775a.7.7,0,0,0-.715.715.68.68,0,0,0,.689.7.676.676,0,0,0,.728-.7A.679.679,0,0,0,202.358-8.775Zm6.76,7.683a3.25,3.25,0,0,1-1.4.312,2.157,2.157,0,0,1-2.184-2.353,2.177,2.177,0,0,1,2.223-2.379,2.653,2.653,0,0,1,1.326.3l.26-.884a3.824,3.824,0,0,0-1.586-.325,3.2,3.2,0,0,0-3.38,3.341A2.989,2.989,0,0,0,207.506.13a4.214,4.214,0,0,0,1.807-.364Zm4.121-5.343a3.072,3.072,0,0,0-3.12,3.341A2.991,2.991,0,0,0,213.135.143,3.075,3.075,0,0,0,216.268-3.2,2.98,2.98,0,0,0,213.239-6.435Zm-.026.858c1.352,0,1.885,1.352,1.885,2.418,0,1.417-.819,2.444-1.911,2.444-1.118,0-1.911-1.04-1.911-2.418C211.276-4.329,211.861-5.577,213.213-5.577Zm12.311,2.639a4.315,4.315,0,0,0,.039-.533c0-1.157-.546-2.964-2.6-2.964-1.833,0-2.951,1.495-2.951,3.393A2.922,2.922,0,0,0,223.106.13,5.1,5.1,0,0,0,225.2-.26l-.2-.819a4.137,4.137,0,0,1-1.742.325A2.016,2.016,0,0,1,221.1-2.938Zm-4.407-.819a1.9,1.9,0,0,1,1.755-1.859,1.629,1.629,0,0,1,1.586,1.859ZM226.98,0h1.144V-3.783a1.645,1.645,0,0,1,.078-.533,1.625,1.625,0,0,1,1.534-1.17c1.079,0,1.456.845,1.456,1.859V0h1.144V-3.757c0-2.158-1.352-2.678-2.223-2.678a2.314,2.314,0,0,0-2.08,1.183h-.026l-.065-1.04h-1.014c.039.52.052,1.053.052,1.7ZM234.4-7.8v1.508h-.975v.871h.975v3.432a2.331,2.331,0,0,0,.442,1.638A1.585,1.585,0,0,0,236.08.13a2.8,2.8,0,0,0,1.014-.156l-.052-.858a2.545,2.545,0,0,1-.663.078c-.637,0-.858-.442-.858-1.222V-5.421h1.638v-.871h-1.638V-8.1ZM238.446,0h1.131V-3.354a3.22,3.22,0,0,1,.052-.533,1.6,1.6,0,0,1,1.534-1.469,1.718,1.718,0,0,1,.39.039V-6.4a1.237,1.237,0,0,0-.325-.039,1.888,1.888,0,0,0-1.742,1.378h-.052l-.039-1.235h-1c.039.585.052,1.222.052,1.963Zm9.178-2.938a4.315,4.315,0,0,0,.039-.533c0-1.157-.546-2.964-2.6-2.964-1.833,0-2.951,1.495-2.951,3.393A2.922,2.922,0,0,0,245.206.13,5.1,5.1,0,0,0,247.3-.26l-.195-.819a4.137,4.137,0,0,1-1.742.325A2.016,2.016,0,0,1,243.2-2.938Zm-4.407-.819a1.9,1.9,0,0,1,1.755-1.859,1.629,1.629,0,0,1,1.586,1.859Zm13.676.819a4.315,4.315,0,0,0,.039-.533c0-1.157-.546-2.964-2.6-2.964-1.833,0-2.951,1.495-2.951,3.393A2.922,2.922,0,0,0,254.475.13a5.1,5.1,0,0,0,2.093-.39l-.2-.819a4.137,4.137,0,0,1-1.742.325,2.016,2.016,0,0,1-2.158-2.184Zm-4.407-.819a1.9,1.9,0,0,1,1.755-1.859,1.629,1.629,0,0,1,1.586,1.859ZM258.349,0h1.144V-3.783a1.645,1.645,0,0,1,.078-.533,1.625,1.625,0,0,1,1.534-1.17c1.079,0,1.456.845,1.456,1.859V0H263.7V-3.757c0-2.158-1.352-2.678-2.223-2.678a2.314,2.314,0,0,0-2.08,1.183h-.026l-.065-1.04H258.3c.039.52.052,1.053.052,1.7Zm12.272-2.938a4.315,4.315,0,0,0,.039-.533c0-1.157-.546-2.964-2.6-2.964-1.833,0-2.951,1.495-2.951,3.393A2.922,2.922,0,0,0,268.2.13,5.1,5.1,0,0,0,270.3-.26l-.2-.819a4.137,4.137,0,0,1-1.742.325A2.016,2.016,0,0,1,266.2-2.938Zm-4.407-.819a1.9,1.9,0,0,1,1.755-1.859,1.629,1.629,0,0,1,1.586,1.859ZM272.077,0h1.131V-3.354a3.22,3.22,0,0,1,.052-.533,1.6,1.6,0,0,1,1.534-1.469,1.719,1.719,0,0,1,.39.039V-6.4a1.237,1.237,0,0,0-.325-.039,1.888,1.888,0,0,0-1.742,1.378h-.052l-.039-1.235h-1c.039.585.052,1.222.052,1.963Zm6.786-6.435a3.072,3.072,0,0,0-3.12,3.341A2.991,2.991,0,0,0,278.759.143,3.075,3.075,0,0,0,281.892-3.2,2.98,2.98,0,0,0,278.863-6.435Zm-.026.858c1.352,0,1.885,1.352,1.885,2.418,0,1.417-.819,2.444-1.911,2.444-1.118,0-1.911-1.04-1.911-2.418C276.9-4.329,277.485-5.577,278.837-5.577Zm6.422-.715,2.327,5.8a1,1,0,0,1,.078.3.821.821,0,0,1-.091.273,3.469,3.469,0,0,1-.962,1.274,3.026,3.026,0,0,1-1,.559l.286.962a3.1,3.1,0,0,0,1.4-.741c.78-.676,1.339-1.781,2.158-3.939l1.716-4.485h-1.209L288.717-2.6c-.156.455-.286.936-.4,1.313h-.026c-.1-.377-.26-.871-.4-1.287l-1.378-3.718ZM299.494,0a8.859,8.859,0,0,1-.1-1.508V-3.861c0-1.261-.468-2.574-2.392-2.574a3.9,3.9,0,0,0-2.067.559l.26.754a3.135,3.135,0,0,1,1.638-.468,1.3,1.3,0,0,1,1.43,1.456V-4c-2.431-.013-3.783.819-3.783,2.34A1.793,1.793,0,0,0,296.4.143a2.344,2.344,0,0,0,1.924-.936h.039l.091.793Zm-1.209-2.119a1.194,1.194,0,0,1-.065.364A1.565,1.565,0,0,1,296.7-.7a1.012,1.012,0,0,1-1.079-1.092c0-1.222,1.417-1.443,2.665-1.417Zm7.371-4.173-.052.949h-.026a2.093,2.093,0,0,0-1.963-1.092c-1.443,0-2.834,1.209-2.834,3.341a2.813,2.813,0,0,0,2.678,3.068,2.246,2.246,0,0,0,2-1.053h.026v.7c0,1.586-.858,2.2-2.028,2.2a3.548,3.548,0,0,1-1.846-.494l-.286.871a4.061,4.061,0,0,0,2.093.52,3.335,3.335,0,0,0,2.288-.754,3.618,3.618,0,0,0,.9-2.873V-4.563c0-.767.026-1.274.052-1.729Zm-.182,3.614a1.99,1.99,0,0,1-.091.611A1.672,1.672,0,0,1,303.8-.9c-1.235,0-1.859-1.027-1.859-2.262,0-1.456.78-2.379,1.872-2.379a1.648,1.648,0,0,1,1.6,1.209,1.629,1.629,0,0,1,.065.52Zm5.694-3.757a3.072,3.072,0,0,0-3.12,3.341A2.991,2.991,0,0,0,311.064.143,3.075,3.075,0,0,0,314.2-3.2,2.98,2.98,0,0,0,311.168-6.435Zm-.026.858c1.352,0,1.885,1.352,1.885,2.418,0,1.417-.819,2.444-1.911,2.444-1.118,0-1.911-1.04-1.911-2.418C309.2-4.329,309.79-5.577,311.142-5.577ZM315.2-.3a3.588,3.588,0,0,0,1.768.429c1.495,0,2.353-.78,2.353-1.885,0-.936-.559-1.482-1.651-1.9-.819-.312-1.2-.546-1.2-1.066,0-.468.377-.858,1.053-.858a2.449,2.449,0,0,1,1.287.364l.286-.832a3.141,3.141,0,0,0-1.547-.39,1.941,1.941,0,0,0-2.171,1.846c0,.754.533,1.378,1.664,1.781.845.312,1.17.611,1.17,1.157,0,.52-.39.936-1.222.936a3,3,0,0,1-1.508-.455Zm5.85-7.5v1.508h-.975v.871h.975v3.432a2.331,2.331,0,0,0,.442,1.638,1.585,1.585,0,0,0,1.235.481,2.8,2.8,0,0,0,1.014-.156l-.052-.858a2.545,2.545,0,0,1-.663.078c-.637,0-.858-.442-.858-1.222V-5.421H323.8v-.871h-1.638V-8.1Zm6.63,1.365a3.072,3.072,0,0,0-3.12,3.341A2.991,2.991,0,0,0,327.574.143,3.075,3.075,0,0,0,330.707-3.2,2.98,2.98,0,0,0,327.678-6.435Zm-.026.858c1.352,0,1.885,1.352,1.885,2.418,0,1.417-.819,2.444-1.911,2.444-1.118,0-1.911-1.04-1.911-2.418C325.715-4.329,326.3-5.577,327.652-5.577ZM339.2-9.23v3.757h-.026a2.1,2.1,0,0,0-1.9-.962c-1.534,0-2.834,1.287-2.821,3.38,0,1.911,1.17,3.2,2.691,3.2a2.327,2.327,0,0,0,2.145-1.235h.026L339.365,0h1.027c-.039-.429-.052-1.066-.052-1.625V-9.23Zm0,6.591a1.987,1.987,0,0,1-.052.494A1.72,1.72,0,0,1,337.467-.78c-1.235,0-1.859-1.053-1.859-2.327,0-1.391.7-2.431,1.885-2.431a1.682,1.682,0,0,1,1.651,1.326,2.019,2.019,0,0,1,.052.481Zm8.1-.3a4.315,4.315,0,0,0,.039-.533c0-1.157-.546-2.964-2.6-2.964-1.833,0-2.951,1.495-2.951,3.393A2.922,2.922,0,0,0,344.877.13a5.1,5.1,0,0,0,2.093-.39l-.2-.819a4.137,4.137,0,0,1-1.742.325,2.016,2.016,0,0,1-2.158-2.184Zm-4.407-.819a1.9,1.9,0,0,1,1.755-1.859,1.629,1.629,0,0,1,1.586,1.859ZM356.538,0V-.949h-3.8V-.975l.676-.624c1.781-1.716,2.912-2.977,2.912-4.537a2.378,2.378,0,0,0-2.587-2.457,3.708,3.708,0,0,0-2.392.858l.364.806a2.878,2.878,0,0,1,1.794-.715,1.508,1.508,0,0,1,1.677,1.651c-.013,1.274-.988,2.366-3.146,4.42l-.9.871V0Zm4.1-8.593c-1.716,0-2.938,1.56-2.938,4.394.026,2.8,1.144,4.342,2.8,4.342,1.872,0,2.938-1.586,2.938-4.459C363.428-7.007,362.414-8.593,360.633-8.593Zm-.065.884c1.183,0,1.716,1.365,1.716,3.445,0,2.158-.559,3.523-1.729,3.523-1.04,0-1.716-1.248-1.716-3.445C358.839-6.487,359.567-7.709,360.568-7.709ZM366.964,0h1.105V-8.45h-.975l-1.846.988.221.871,1.469-.793h.026Zm4.849.13a5.328,5.328,0,0,0,1.053-.065,4.224,4.224,0,0,0,2.457-1.131,5.339,5.339,0,0,0,1.456-3.965c0-2.158-1.066-3.562-2.795-3.562a2.9,2.9,0,0,0-2.886,3A2.448,2.448,0,0,0,373.594-3a2.48,2.48,0,0,0,1.989-.91h.039A3.708,3.708,0,0,1,374.5-1.664a3.187,3.187,0,0,1-1.768.819,4.773,4.773,0,0,1-.923.039Zm2.08-7.852c1.2,0,1.729,1.105,1.729,2.548a.755.755,0,0,1-.1.416,1.891,1.891,0,0,1-1.664.884,1.626,1.626,0,0,1-1.625-1.794C372.229-6.864,372.918-7.722,373.893-7.722Zm6.214,1.43,2.327,5.8a1,1,0,0,1,.078.3.821.821,0,0,1-.091.273,3.469,3.469,0,0,1-.962,1.274,3.026,3.026,0,0,1-1,.559l.286.962a3.1,3.1,0,0,0,1.4-.741c.78-.676,1.339-1.781,2.158-3.939l1.716-4.485h-1.209L383.565-2.6c-.156.455-.286.936-.4,1.313h-.026c-.1-.377-.26-.871-.4-1.287l-1.378-3.718ZM394.849,0V-.949h-3.8V-.975l.676-.624c1.781-1.716,2.912-2.977,2.912-4.537a2.378,2.378,0,0,0-2.587-2.457,3.708,3.708,0,0,0-2.392.858l.364.806a2.878,2.878,0,0,1,1.794-.715A1.508,1.508,0,0,1,393.5-5.993c-.013,1.274-.988,2.366-3.146,4.42l-.9.871V0Zm4.1-8.593c-1.716,0-2.938,1.56-2.938,4.394.026,2.8,1.144,4.342,2.8,4.342,1.872,0,2.938-1.586,2.938-4.459C401.739-7.007,400.725-8.593,398.944-8.593Zm-.065.884c1.183,0,1.716,1.365,1.716,3.445,0,2.158-.559,3.523-1.729,3.523-1.04,0-1.716-1.248-1.716-3.445C397.15-6.487,397.878-7.709,398.879-7.709ZM408.187,0V-.949h-3.8V-.975l.676-.624c1.781-1.716,2.912-2.977,2.912-4.537a2.378,2.378,0,0,0-2.587-2.457A3.708,3.708,0,0,0,403-7.735l.364.806a2.878,2.878,0,0,1,1.794-.715,1.508,1.508,0,0,1,1.677,1.651c-.013,1.274-.988,2.366-3.146,4.42l-.9.871V0Zm4.1-8.593c-1.716,0-2.938,1.56-2.938,4.394.026,2.8,1.144,4.342,2.8,4.342,1.872,0,2.938-1.586,2.938-4.459C415.077-7.007,414.063-8.593,412.282-8.593Zm-.065.884c1.183,0,1.716,1.365,1.716,3.445,0,2.158-.559,3.523-1.729,3.523-1.04,0-1.716-1.248-1.716-3.445C410.488-6.487,411.216-7.709,412.217-7.709Z" transform="translate(576.856 2984.083)" fill="#040504"/>
    <path id="Trazado_762166" data-name="Trazado 762166" d="M6.877-1.183a4.527,4.527,0,0,1-1.846.364A3.185,3.185,0,0,1,1.664-4.342c0-2.3,1.365-3.614,3.419-3.614a4.12,4.12,0,0,1,1.768.364l.273-.923a4.7,4.7,0,0,0-2.08-.39A4.36,4.36,0,0,0,.468-4.3,4.1,4.1,0,0,0,4.8.13,5.614,5.614,0,0,0,7.111-.286ZM8.45,0H9.581V-3.354a3.22,3.22,0,0,1,.052-.533,1.6,1.6,0,0,1,1.534-1.469,1.718,1.718,0,0,1,.39.039V-6.4a1.237,1.237,0,0,0-.325-.039A1.888,1.888,0,0,0,9.49-5.057H9.438L9.4-6.292h-1c.039.585.052,1.222.052,1.963Zm9.178-2.938a4.315,4.315,0,0,0,.039-.533c0-1.157-.546-2.964-2.6-2.964-1.833,0-2.951,1.495-2.951,3.393A2.922,2.922,0,0,0,15.21.13,5.1,5.1,0,0,0,17.3-.26l-.195-.819a4.137,4.137,0,0,1-1.742.325,2.016,2.016,0,0,1-2.158-2.184Zm-4.407-.819a1.9,1.9,0,0,1,1.755-1.859,1.629,1.629,0,0,1,1.586,1.859ZM23.374-9.23v3.757h-.026a2.1,2.1,0,0,0-1.9-.962c-1.534,0-2.834,1.287-2.821,3.38,0,1.911,1.17,3.2,2.691,3.2a2.327,2.327,0,0,0,2.145-1.235h.026L23.543,0H24.57c-.039-.429-.052-1.066-.052-1.625V-9.23Zm0,6.591a1.987,1.987,0,0,1-.052.494A1.72,1.72,0,0,1,21.645-.78c-1.235,0-1.859-1.053-1.859-2.327,0-1.391.7-2.431,1.885-2.431a1.682,1.682,0,0,1,1.651,1.326,2.019,2.019,0,0,1,.052.481ZM27.56,0V-6.292H26.416V0Zm-.572-8.775a.7.7,0,0,0-.715.715.68.68,0,0,0,.689.7.676.676,0,0,0,.728-.7A.679.679,0,0,0,26.988-8.775ZM30.394,0l.052-1.04h.039A2.241,2.241,0,0,0,32.591.143c1.4,0,2.821-1.118,2.821-3.367.013-1.911-1.092-3.211-2.652-3.211a2.344,2.344,0,0,0-2.145,1.157h-.026V-9.23H29.458v7.605c0,.559-.026,1.2-.052,1.625Zm.195-3.653a2.255,2.255,0,0,1,.065-.468,1.824,1.824,0,0,1,1.742-1.4c1.222,0,1.872,1.079,1.872,2.34,0,1.443-.715,2.418-1.911,2.418a1.765,1.765,0,0,1-1.716-1.339,2.142,2.142,0,0,1-.052-.416ZM41.379,0a8.859,8.859,0,0,1-.1-1.508V-3.861c0-1.261-.468-2.574-2.392-2.574a3.9,3.9,0,0,0-2.067.559l.26.754a3.135,3.135,0,0,1,1.638-.468,1.3,1.3,0,0,1,1.43,1.456V-4c-2.431-.013-3.783.819-3.783,2.34A1.793,1.793,0,0,0,38.285.143a2.344,2.344,0,0,0,1.924-.936h.039L40.339,0ZM40.17-2.119a1.194,1.194,0,0,1-.065.364A1.565,1.565,0,0,1,38.584-.7a1.012,1.012,0,0,1-1.079-1.092c0-1.222,1.417-1.443,2.665-1.417ZM43.121,0h1.144V-3.783a1.645,1.645,0,0,1,.078-.533,1.625,1.625,0,0,1,1.534-1.17c1.079,0,1.456.845,1.456,1.859V0h1.144V-3.757c0-2.158-1.352-2.678-2.223-2.678a2.314,2.314,0,0,0-2.08,1.183h-.026l-.065-1.04H43.069c.039.52.052,1.053.052,1.7Zm11.5-1.092a3.25,3.25,0,0,1-1.4.312,2.157,2.157,0,0,1-2.184-2.353,2.177,2.177,0,0,1,2.223-2.379,2.653,2.653,0,0,1,1.326.3l.26-.884a3.824,3.824,0,0,0-1.586-.325,3.2,3.2,0,0,0-3.38,3.341A2.989,2.989,0,0,0,53.014.13a4.214,4.214,0,0,0,1.807-.364Zm4.121-5.343a3.072,3.072,0,0,0-3.12,3.341A2.991,2.991,0,0,0,58.643.143,3.075,3.075,0,0,0,61.776-3.2,2.98,2.98,0,0,0,58.747-6.435Zm-.026.858c1.352,0,1.885,1.352,1.885,2.418,0,1.417-.819,2.444-1.911,2.444-1.118,0-1.911-1.04-1.911-2.418C56.784-4.329,57.369-5.577,58.721-5.577Zm4.264,7.1A15.849,15.849,0,0,0,64.22-1.638l-1.274.13a18.7,18.7,0,0,1-.78,3.107ZM68.393,0h1.131V-3.8H70.59c1.027.039,1.5.494,1.755,1.7A11.351,11.351,0,0,0,72.93,0H74.1a13.946,13.946,0,0,1-.676-2.4,2.184,2.184,0,0,0-1.287-1.768v-.039a2.3,2.3,0,0,0,1.651-2.236A2.182,2.182,0,0,0,73.1-8.112a3.583,3.583,0,0,0-2.535-.715,11.781,11.781,0,0,0-2.171.182Zm1.131-7.852a4.653,4.653,0,0,1,1.118-.1c1.2.013,2.015.507,2.015,1.638,0,1-.767,1.664-1.976,1.664H69.524ZM80.457-2.938a4.315,4.315,0,0,0,.039-.533c0-1.157-.546-2.964-2.6-2.964-1.833,0-2.951,1.495-2.951,3.393A2.922,2.922,0,0,0,78.039.13a5.1,5.1,0,0,0,2.093-.39l-.195-.819a4.137,4.137,0,0,1-1.742.325,2.016,2.016,0,0,1-2.158-2.184ZM76.05-3.757A1.9,1.9,0,0,1,77.8-5.616a1.629,1.629,0,0,1,1.586,1.859ZM86.2-9.23v3.757h-.026a2.1,2.1,0,0,0-1.9-.962c-1.534,0-2.834,1.287-2.821,3.38,0,1.911,1.17,3.2,2.691,3.2a2.327,2.327,0,0,0,2.145-1.235h.026L86.372,0H87.4c-.039-.429-.052-1.066-.052-1.625V-9.23Zm0,6.591a1.987,1.987,0,0,1-.052.494A1.72,1.72,0,0,1,84.474-.78c-1.235,0-1.859-1.053-1.859-2.327,0-1.391.7-2.431,1.885-2.431a1.682,1.682,0,0,1,1.651,1.326,2.02,2.02,0,0,1,.052.481Zm8.1-.3a4.315,4.315,0,0,0,.039-.533c0-1.157-.546-2.964-2.6-2.964-1.833,0-2.951,1.495-2.951,3.393A2.922,2.922,0,0,0,91.884.13a5.1,5.1,0,0,0,2.093-.39l-.195-.819a4.137,4.137,0,0,1-1.742.325,2.016,2.016,0,0,1-2.158-2.184Zm-4.407-.819A1.9,1.9,0,0,1,91.65-5.616a1.629,1.629,0,0,1,1.586,1.859ZM96.694,0l.052-1.04h.039A2.241,2.241,0,0,0,98.891.143c1.4,0,2.821-1.118,2.821-3.367.013-1.911-1.092-3.211-2.652-3.211a2.344,2.344,0,0,0-2.145,1.157h-.026V-9.23H95.758v7.605c0,.559-.026,1.2-.052,1.625Zm.195-3.653a2.255,2.255,0,0,1,.065-.468,1.824,1.824,0,0,1,1.742-1.4c1.222,0,1.872,1.079,1.872,2.34,0,1.443-.715,2.418-1.911,2.418a1.765,1.765,0,0,1-1.716-1.339,2.142,2.142,0,0,1-.052-.416ZM107.679,0a8.859,8.859,0,0,1-.1-1.508V-3.861c0-1.261-.468-2.574-2.392-2.574a3.9,3.9,0,0,0-2.067.559l.26.754a3.135,3.135,0,0,1,1.638-.468,1.3,1.3,0,0,1,1.43,1.456V-4c-2.431-.013-3.783.819-3.783,2.34A1.793,1.793,0,0,0,104.585.143a2.344,2.344,0,0,0,1.924-.936h.039l.091.793ZM106.47-2.119a1.194,1.194,0,0,1-.065.364A1.565,1.565,0,0,1,104.884-.7a1.012,1.012,0,0,1-1.079-1.092c0-1.222,1.417-1.443,2.665-1.417ZM109.421,0h1.144V-3.783a1.645,1.645,0,0,1,.078-.533,1.625,1.625,0,0,1,1.534-1.17c1.079,0,1.456.845,1.456,1.859V0h1.144V-3.757c0-2.158-1.352-2.678-2.223-2.678a2.314,2.314,0,0,0-2.08,1.183h-.026l-.065-1.04h-1.014c.039.52.052,1.053.052,1.7Zm7.293,1.521a15.849,15.849,0,0,0,1.235-3.159l-1.274.13a18.7,18.7,0,0,1-.78,3.107Zm9.932-4.277L127.582,0h1.209L125.8-8.762h-1.365L121.459,0h1.17l.91-2.756Zm-2.873-.884.858-2.535c.169-.533.312-1.066.442-1.586h.026c.13.507.26,1.027.455,1.6l.858,2.522Zm12,2.457a4.527,4.527,0,0,1-1.846.364,3.185,3.185,0,0,1-3.367-3.523c0-2.3,1.365-3.614,3.419-3.614a4.12,4.12,0,0,1,1.768.364l.273-.923a4.7,4.7,0,0,0-2.08-.39,4.36,4.36,0,0,0-4.576,4.6A4.1,4.1,0,0,0,133.692.13a5.614,5.614,0,0,0,2.314-.416Zm1.651-7.579V0h1.131V-4.108h4.238V0h1.144V-8.762h-1.144V-5.1h-4.238V-8.762ZM146.354.143a.761.761,0,0,0,.78-.819.759.759,0,0,0-.767-.819.769.769,0,0,0-.78.819A.766.766,0,0,0,146.354.143Zm9.529-5.187h-3.406V-7.813h3.6v-.949h-4.732V0h4.927V-.949h-3.8V-4.108h3.406ZM157.7,0h1.144V-9.23H157.7Zm7.592,0a8.859,8.859,0,0,1-.1-1.508V-3.861c0-1.261-.468-2.574-2.392-2.574a3.9,3.9,0,0,0-2.067.559l.26.754a3.135,3.135,0,0,1,1.638-.468,1.3,1.3,0,0,1,1.43,1.456V-4c-2.431-.013-3.783.819-3.783,2.34A1.793,1.793,0,0,0,162.2.143a2.344,2.344,0,0,0,1.924-.936h.039l.091.793Zm-1.209-2.119a1.194,1.194,0,0,1-.065.364A1.565,1.565,0,0,1,162.5-.7a1.012,1.012,0,0,1-1.079-1.092c0-1.222,1.417-1.443,2.665-1.417ZM167.973,0l.052-1.04h.039A2.241,2.241,0,0,0,170.17.143c1.4,0,2.821-1.118,2.821-3.367.013-1.911-1.092-3.211-2.652-3.211a2.344,2.344,0,0,0-2.145,1.157h-.026V-9.23h-1.131v7.605c0,.559-.026,1.2-.052,1.625Zm.2-3.653a2.255,2.255,0,0,1,.065-.468,1.824,1.824,0,0,1,1.742-1.4c1.222,0,1.872,1.079,1.872,2.34,0,1.443-.715,2.418-1.911,2.418a1.765,1.765,0,0,1-1.716-1.339,2.142,2.142,0,0,1-.052-.416ZM177.1-6.435a3.072,3.072,0,0,0-3.12,3.341A2.991,2.991,0,0,0,176.995.143,3.075,3.075,0,0,0,180.128-3.2,2.98,2.98,0,0,0,177.1-6.435Zm-.026.858c1.352,0,1.885,1.352,1.885,2.418,0,1.417-.819,2.444-1.911,2.444-1.118,0-1.911-1.04-1.911-2.418C175.136-4.329,175.721-5.577,177.073-5.577ZM181.571,0H182.7V-3.354a3.22,3.22,0,0,1,.052-.533,1.6,1.6,0,0,1,1.534-1.469,1.718,1.718,0,0,1,.39.039V-6.4a1.237,1.237,0,0,0-.325-.039,1.888,1.888,0,0,0-1.742,1.378h-.052l-.039-1.235h-1c.039.585.052,1.222.052,1.963Zm8.71,0a8.859,8.859,0,0,1-.1-1.508V-3.861c0-1.261-.468-2.574-2.392-2.574a3.9,3.9,0,0,0-2.067.559l.26.754a3.135,3.135,0,0,1,1.638-.468,1.3,1.3,0,0,1,1.43,1.456V-4c-2.431-.013-3.783.819-3.783,2.34A1.793,1.793,0,0,0,187.187.143a2.344,2.344,0,0,0,1.924-.936h.039l.091.793Zm-1.209-2.119a1.194,1.194,0,0,1-.065.364A1.565,1.565,0,0,1,187.486-.7a1.012,1.012,0,0,1-1.079-1.092c0-1.222,1.417-1.443,2.665-1.417Zm7.241,1.027a3.25,3.25,0,0,1-1.4.312,2.157,2.157,0,0,1-2.184-2.353,2.177,2.177,0,0,1,2.223-2.379,2.653,2.653,0,0,1,1.326.3l.26-.884a3.824,3.824,0,0,0-1.586-.325,3.2,3.2,0,0,0-3.38,3.341A2.989,2.989,0,0,0,194.7.13a4.214,4.214,0,0,0,1.807-.364ZM198.991,0V-6.292h-1.144V0Zm-.572-8.775a.7.7,0,0,0-.715.715.68.68,0,0,0,.689.7.676.676,0,0,0,.728-.7A.679.679,0,0,0,198.419-8.775Zm5.135,2.34a3.072,3.072,0,0,0-3.12,3.341A2.991,2.991,0,0,0,203.45.143,3.075,3.075,0,0,0,206.583-3.2,2.98,2.98,0,0,0,203.554-6.435Zm-.026.858c1.352,0,1.885,1.352,1.885,2.418,0,1.417-.819,2.444-1.911,2.444-1.118,0-1.911-1.04-1.911-2.418C201.591-4.329,202.176-5.577,203.528-5.577Zm.429-3.432L202.813-7.15h.819l1.586-1.859ZM208.026,0h1.144V-3.783a1.645,1.645,0,0,1,.078-.533,1.625,1.625,0,0,1,1.534-1.17c1.079,0,1.456.845,1.456,1.859V0h1.144V-3.757c0-2.158-1.352-2.678-2.223-2.678a2.314,2.314,0,0,0-2.08,1.183h-.026l-.065-1.04h-1.014c.039.52.052,1.053.052,1.7Zm14.261-9.23v3.757h-.026a2.1,2.1,0,0,0-1.9-.962c-1.534,0-2.834,1.287-2.821,3.38,0,1.911,1.17,3.2,2.691,3.2a2.327,2.327,0,0,0,2.145-1.235h.026L222.456,0h1.027c-.039-.429-.052-1.066-.052-1.625V-9.23Zm0,6.591a1.987,1.987,0,0,1-.052.494A1.72,1.72,0,0,1,220.558-.78c-1.235,0-1.859-1.053-1.859-2.327,0-1.391.7-2.431,1.885-2.431a1.682,1.682,0,0,1,1.651,1.326,2.019,2.019,0,0,1,.052.481Zm8.1-.3a4.315,4.315,0,0,0,.039-.533c0-1.157-.546-2.964-2.6-2.964-1.833,0-2.951,1.495-2.951,3.393A2.922,2.922,0,0,0,227.968.13a5.1,5.1,0,0,0,2.093-.39l-.2-.819a4.137,4.137,0,0,1-1.742.325,2.016,2.016,0,0,1-2.158-2.184Zm-4.407-.819a1.9,1.9,0,0,1,1.755-1.859,1.629,1.629,0,0,1,1.586,1.859ZM234.6,0h1.144V-9.23H234.6Zm7.592,0a8.859,8.859,0,0,1-.1-1.508V-3.861c0-1.261-.468-2.574-2.392-2.574a3.9,3.9,0,0,0-2.067.559l.26.754a3.135,3.135,0,0,1,1.638-.468,1.3,1.3,0,0,1,1.43,1.456V-4c-2.431-.013-3.783.819-3.783,2.34A1.793,1.793,0,0,0,239.1.143a2.344,2.344,0,0,0,1.924-.936h.039L241.15,0Zm-1.209-2.119a1.194,1.194,0,0,1-.065.364A1.565,1.565,0,0,1,239.395-.7a1.012,1.012,0,0,1-1.079-1.092c0-1.222,1.417-1.443,2.665-1.417Zm11.635.936a4.527,4.527,0,0,1-1.846.364A3.185,3.185,0,0,1,247.4-4.342c0-2.3,1.365-3.614,3.419-3.614a4.12,4.12,0,0,1,1.768.364l.273-.923a4.7,4.7,0,0,0-2.08-.39,4.36,4.36,0,0,0-4.576,4.6A4.1,4.1,0,0,0,250.536.13a5.614,5.614,0,0,0,2.314-.416Zm7.267,0a4.527,4.527,0,0,1-1.846.364,3.185,3.185,0,0,1-3.367-3.523c0-2.3,1.365-3.614,3.419-3.614a4.12,4.12,0,0,1,1.768.364l.273-.923a4.7,4.7,0,0,0-2.08-.39,4.36,4.36,0,0,0-4.576,4.6A4.1,4.1,0,0,0,257.8.13a5.614,5.614,0,0,0,2.314-.416Zm7.267,0a4.527,4.527,0,0,1-1.846.364,3.185,3.185,0,0,1-3.367-3.523c0-2.3,1.365-3.614,3.419-3.614a4.12,4.12,0,0,1,1.768.364l.273-.923a4.7,4.7,0,0,0-2.08-.39,4.36,4.36,0,0,0-4.576,4.6A4.1,4.1,0,0,0,265.07.13a5.614,5.614,0,0,0,2.314-.416Zm6.188-3.861h-3.406V-7.813h3.6v-.949H268.8V0h4.927V-.949h-3.8V-4.108h3.406ZM275.6.143a.761.761,0,0,0,.78-.819.759.759,0,0,0-.767-.819.769.769,0,0,0-.78.819A.766.766,0,0,0,275.6.143Z" transform="translate(643.871 3000)" fill="#040504"/>
    <path id="Trazado_762167" data-name="Trazado 762167" d="M.858,0H2.847V-3.523H5.993V-5.135H2.847v-2H6.214V-8.762H.858ZM13.273-6.357H11.284v3.783a1.1,1.1,0,0,1-.065.429,1.064,1.064,0,0,1-.988.689c-.689,0-.988-.559-.988-1.482V-6.357H7.254v3.731C7.254-.663,8.2.143,9.49.143A2.267,2.267,0,0,0,11.479-.9h.039l.091.9h1.716c-.026-.533-.052-1.209-.052-2.041Zm7.2,3.809a4.694,4.694,0,0,0,.065-.78c0-1.573-.78-3.172-2.834-3.172a3.184,3.184,0,0,0-3.211,3.393A3.051,3.051,0,0,0,17.888.13a6.275,6.275,0,0,0,2.3-.39L19.929-1.6a5.6,5.6,0,0,1-1.755.26c-.923,0-1.729-.39-1.794-1.209ZM16.367-3.9a1.3,1.3,0,0,1,1.222-1.287A1.148,1.148,0,0,1,18.707-3.9ZM21.723,0H23.7V-3.666a1.358,1.358,0,0,1,.078-.494,1.055,1.055,0,0,1,1-.741c.715,0,1,.559,1,1.378V0h1.976V-3.77c0-1.872-.975-2.73-2.275-2.73a2.327,2.327,0,0,0-1.963,1.014h-.039l-.091-.871H21.671c.026.559.052,1.235.052,2.028Zm7.813-7.735v1.378h-.845V-4.9h.845v2.6a2.634,2.634,0,0,0,.546,1.885A2.055,2.055,0,0,0,31.564.13a3.876,3.876,0,0,0,1.287-.169l-.013-1.5a3.227,3.227,0,0,1-.585.052c-.6,0-.78-.351-.78-1.118V-4.9H32.89V-6.357H31.473v-1.82ZM39.585-2.548a4.694,4.694,0,0,0,.065-.78c0-1.573-.78-3.172-2.834-3.172a3.184,3.184,0,0,0-3.211,3.393A3.051,3.051,0,0,0,37,.13a6.275,6.275,0,0,0,2.3-.39L39.039-1.6a5.6,5.6,0,0,1-1.755.26c-.923,0-1.729-.39-1.794-1.209ZM35.477-3.9A1.3,1.3,0,0,1,36.7-5.187,1.148,1.148,0,0,1,37.817-3.9Zm6.37-.156a1.13,1.13,0,0,0,1.17-1.183,1.123,1.123,0,0,0-1.157-1.2,1.133,1.133,0,0,0-1.17,1.2A1.134,1.134,0,0,0,41.847-4.056Zm0,4.2a1.13,1.13,0,0,0,1.17-1.183,1.13,1.13,0,0,0-1.157-1.2,1.14,1.14,0,0,0-1.17,1.2A1.134,1.134,0,0,0,41.847.143Z" transform="translate(596.629 3000)" fill="#040504"/>
    <path id="Trazado_762168" data-name="Trazado 762168" transform="translate(644.763 2997.677)" fill="#040504"/>
    <path id="Trazado_762171" data-name="Trazado 762171" d="M2.472,0V-2.436c0-1.32-.024-2.46-.072-3.528l.036-.012A30.043,30.043,0,0,0,3.84-3.12L5.568,0h1.92V-8.088H5.808v2.364a30.015,30.015,0,0,0,.156,3.372H5.928a23.449,23.449,0,0,0-1.32-2.772L2.928-8.088H.792V0Zm9.3-6A2.929,2.929,0,0,0,8.64-2.892,2.874,2.874,0,0,0,11.676.132,2.944,2.944,0,0,0,14.772-3,2.853,2.853,0,0,0,11.772-6Zm-.048,1.3c.828,0,1.164.888,1.164,1.764,0,1.056-.456,1.764-1.164,1.764-.78,0-1.2-.756-1.2-1.764C10.524-3.8,10.848-4.7,11.724-4.7ZM16.152-7.14v1.272h-.78v1.344h.78v2.4a2.431,2.431,0,0,0,.5,1.74,1.9,1.9,0,0,0,1.368.5,3.578,3.578,0,0,0,1.188-.156L19.2-1.416a2.979,2.979,0,0,1-.54.048c-.552,0-.72-.324-.72-1.032V-4.524h1.308V-5.868H17.94v-1.68ZM25.284,0A9.092,9.092,0,0,1,25.2-1.428v-2.04A2.282,2.282,0,0,0,22.62-6a4.844,4.844,0,0,0-2.28.516l.336,1.176a3.3,3.3,0,0,1,1.62-.444c.9,0,1.068.444,1.068.756v.084c-2.076-.012-3.444.72-3.444,2.244a1.8,1.8,0,0,0,1.9,1.8,2.114,2.114,0,0,0,1.68-.72h.036L23.64,0Zm-1.86-2.136a1.308,1.308,0,0,1-.036.312,1,1,0,0,1-.948.672.655.655,0,0,1-.72-.7c0-.708.744-.936,1.7-.924Zm4.152-1.608a1.043,1.043,0,0,0,1.08-1.092,1.037,1.037,0,0,0-1.068-1.1,1.046,1.046,0,0,0-1.08,1.1A1.047,1.047,0,0,0,27.576-3.744Zm0,3.876A1.043,1.043,0,0,0,28.656-.96a1.043,1.043,0,0,0-1.068-1.1,1.053,1.053,0,0,0-1.08,1.1A1.047,1.047,0,0,0,27.576.132Z" transform="translate(553.389 3015)" fill="#040504"/>
    <path id="Trazado_762169" data-name="Trazado 762169" transform="translate(575.112 3015.269)" fill="#040504"/>
    <path id="Trazado_762172" data-name="Trazado 762172" d="M.5-.4A4.18,4.18,0,0,0,2.568.12C4.476.12,5.4-.96,5.4-2.208c0-1.188-.7-1.848-2.064-2.376-1.116-.432-1.608-.8-1.608-1.56,0-.552.42-1.212,1.524-1.212a3.221,3.221,0,0,1,1.536.384l.288-.852a3.675,3.675,0,0,0-1.788-.4,2.329,2.329,0,0,0-2.616,2.2c0,1.14.816,1.824,2.136,2.292,1.092.42,1.524.852,1.524,1.608,0,.816-.624,1.38-1.692,1.38A3.7,3.7,0,0,1,.768-1.272ZM9.324-5.94a2.836,2.836,0,0,0-2.88,3.084A2.761,2.761,0,0,0,9.228.132,2.839,2.839,0,0,0,12.12-2.952,2.75,2.75,0,0,0,9.324-5.94ZM9.3-5.148c1.248,0,1.74,1.248,1.74,2.232,0,1.308-.756,2.256-1.764,2.256-1.032,0-1.764-.96-1.764-2.232C7.512-4,8.052-5.148,9.3-5.148ZM13.452,0h1.056V-8.52H13.452Zm5.292-5.94a2.836,2.836,0,0,0-2.88,3.084A2.761,2.761,0,0,0,18.648.132,2.839,2.839,0,0,0,21.54-2.952,2.75,2.75,0,0,0,18.744-5.94Zm-.024.792c1.248,0,1.74,1.248,1.74,2.232C20.46-1.608,19.7-.66,18.7-.66c-1.032,0-1.764-.96-1.764-2.232C16.932-4,17.472-5.148,18.72-5.148ZM25.008-.276a3.312,3.312,0,0,0,1.632.4c1.38,0,2.172-.72,2.172-1.74,0-.864-.516-1.368-1.524-1.752-.756-.288-1.1-.5-1.1-.984,0-.432.348-.792.972-.792a2.26,2.26,0,0,1,1.188.336l.264-.768a2.9,2.9,0,0,0-1.428-.36,1.791,1.791,0,0,0-2,1.7c0,.7.492,1.272,1.536,1.644.78.288,1.08.564,1.08,1.068,0,.48-.36.864-1.128.864a2.768,2.768,0,0,1-1.392-.42Zm9.828-2.436a3.983,3.983,0,0,0,.036-.492,2.461,2.461,0,0,0-2.4-2.736c-1.692,0-2.724,1.38-2.724,3.132A2.7,2.7,0,0,0,32.6.12a4.7,4.7,0,0,0,1.932-.36L34.356-1a3.819,3.819,0,0,1-1.608.3,1.861,1.861,0,0,1-1.992-2.016Zm-4.068-.756a1.75,1.75,0,0,1,1.62-1.716,1.5,1.5,0,0,1,1.464,1.716ZM39.78,0V-5.808H38.724V0Zm-.528-8.1a.643.643,0,0,0-.66.66.628.628,0,0,0,.636.648A.624.624,0,0,0,39.9-7.44.627.627,0,0,0,39.252-8.1ZM41.532,0h1.056V-3.492a1.518,1.518,0,0,1,.072-.492,1.5,1.5,0,0,1,1.416-1.08c1,0,1.344.78,1.344,1.716V0h1.056V-3.468c0-1.992-1.248-2.472-2.052-2.472A2.136,2.136,0,0,0,42.5-4.848H42.48l-.06-.96h-.936c.036.48.048.972.048,1.572Zm10.62-1.008a3,3,0,0,1-1.3.288A1.991,1.991,0,0,1,48.84-2.892a2.01,2.01,0,0,1,2.052-2.2,2.449,2.449,0,0,1,1.224.276l.24-.816a3.53,3.53,0,0,0-1.464-.3,2.951,2.951,0,0,0-3.12,3.084A2.759,2.759,0,0,0,50.664.12a3.89,3.89,0,0,0,1.668-.336ZM53.568,0h1.056V-8.52H53.568ZM61.26-5.808H60.2v3.564a1.544,1.544,0,0,1-.1.54,1.527,1.527,0,0,1-1.392.96c-.96,0-1.3-.744-1.3-1.848V-5.808H56.364v3.4c0,2.04,1.092,2.544,2,2.544a2.185,2.185,0,0,0,1.92-1.08h.024l.06.948h.936c-.036-.456-.048-.984-.048-1.584Zm.984,0L64.392-.456a.921.921,0,0,1,.072.276.758.758,0,0,1-.084.252,3.2,3.2,0,0,1-.888,1.176,2.793,2.793,0,0,1-.924.516l.264.888a2.861,2.861,0,0,0,1.3-.684c.72-.624,1.236-1.644,1.992-3.636L67.7-5.808H66.588L65.436-2.4c-.144.42-.264.864-.372,1.212H65.04c-.1-.348-.24-.8-.372-1.188L63.4-5.808Zm10.968,3.1a3.983,3.983,0,0,0,.036-.492,2.461,2.461,0,0,0-2.4-2.736c-1.692,0-2.724,1.38-2.724,3.132A2.7,2.7,0,0,0,70.98.12a4.7,4.7,0,0,0,1.932-.36L72.732-1a3.819,3.819,0,0,1-1.608.3,1.861,1.861,0,0,1-1.992-2.016Zm-4.068-.756a1.75,1.75,0,0,1,1.62-1.716,1.5,1.5,0,0,1,1.464,1.716ZM74.556,0h1.056V-3.492a1.518,1.518,0,0,1,.072-.492A1.5,1.5,0,0,1,77.1-5.064c1,0,1.344.78,1.344,1.716V0H79.5V-3.468c0-1.992-1.248-2.472-2.052-2.472a2.136,2.136,0,0,0-1.92,1.092H75.5l-.06-.96h-.936c.036.48.048.972.048,1.572ZM84.84,0H85.9V-7.2h2.472v-.888H82.38V-7.2h2.46ZM95.172,0l-2.52-4.152,2.46-3.936h-1.2l-1.1,1.9c-.3.516-.5.888-.732,1.368H92.04c-.216-.432-.444-.84-.744-1.368l-1.068-1.9H89.016l2.376,4L88.92,0h1.2l.972-1.776c.42-.708.648-1.14.876-1.608h.024c.252.468.516.912.936,1.6L93.96,0Zm7.68-8.52v3.468h-.024a1.942,1.942,0,0,0-1.752-.888c-1.416,0-2.616,1.188-2.6,3.12,0,1.764,1.08,2.952,2.484,2.952a2.148,2.148,0,0,0,1.98-1.14h.024L103.008,0h.948c-.036-.4-.048-.984-.048-1.5V-8.52Zm0,6.084a1.835,1.835,0,0,1-.048.456,1.587,1.587,0,0,1-1.548,1.26c-1.14,0-1.716-.972-1.716-2.148,0-1.284.648-2.244,1.74-2.244A1.553,1.553,0,0,1,102.8-3.888a1.864,1.864,0,0,1,.048.444Zm7.476-.276a3.983,3.983,0,0,0,.036-.492,2.461,2.461,0,0,0-2.4-2.736c-1.692,0-2.724,1.38-2.724,3.132A2.7,2.7,0,0,0,108.1.12a4.7,4.7,0,0,0,1.932-.36L109.848-1a3.819,3.819,0,0,1-1.608.3,1.861,1.861,0,0,1-1.992-2.016Zm-4.068-.756a1.75,1.75,0,0,1,1.62-1.716,1.5,1.5,0,0,1,1.464,1.716Zm11.916,2.46a3,3,0,0,1-1.3.288,1.991,1.991,0,0,1-2.016-2.172,2.01,2.01,0,0,1,2.052-2.2,2.449,2.449,0,0,1,1.224.276l.24-.816a3.53,3.53,0,0,0-1.464-.3,2.951,2.951,0,0,0-3.12,3.084A2.759,2.759,0,0,0,116.688.12a3.89,3.89,0,0,0,1.668-.336Zm3.8-4.932a2.836,2.836,0,0,0-2.88,3.084A2.761,2.761,0,0,0,121.884.132a2.839,2.839,0,0,0,2.892-3.084A2.75,2.75,0,0,0,121.98-5.94Zm-.024.792c1.248,0,1.74,1.248,1.74,2.232,0,1.308-.756,2.256-1.764,2.256-1.032,0-1.764-.96-1.764-2.232C120.168-4,120.708-5.148,121.956-5.148ZM126.108,0h1.032V-3.5a1.456,1.456,0,0,1,.084-.516,1.443,1.443,0,0,1,1.308-1.056c.8,0,1.212.672,1.212,1.6V0h1.032V-3.588a1.739,1.739,0,0,1,.084-.528,1.367,1.367,0,0,1,1.248-.96c.852,0,1.26.672,1.26,1.788V0H134.4V-3.42c0-2.016-1.14-2.52-1.908-2.52a1.982,1.982,0,0,0-1.284.408,2.393,2.393,0,0,0-.648.756h-.024a1.717,1.717,0,0,0-1.644-1.164,2,2,0,0,0-1.824,1.068h-.036l-.048-.936h-.924c.036.48.048.972.048,1.572Zm10.008,2.376h1.044V-.78h.024a2.037,2.037,0,0,0,1.788.912c1.368,0,2.64-1.032,2.64-3.12,0-1.764-1.056-2.952-2.46-2.952a2.283,2.283,0,0,0-2.064,1.128h-.024l-.048-1h-.948c.024.552.048,1.152.048,1.9ZM137.16-3.36a1.712,1.712,0,0,1,.072-.432,1.685,1.685,0,0,1,1.6-1.308c1.116,0,1.728,1,1.728,2.16,0,1.332-.648,2.244-1.764,2.244a1.629,1.629,0,0,1-1.584-1.236,2.378,2.378,0,0,1-.048-.432ZM142.944,0h1.044V-3.1a2.972,2.972,0,0,1,.048-.492,1.481,1.481,0,0,1,1.416-1.356,1.586,1.586,0,0,1,.36.036v-1a1.142,1.142,0,0,0-.3-.036A1.743,1.743,0,0,0,143.9-4.668h-.048l-.036-1.14H142.9c.036.54.048,1.128.048,1.812Zm8.04,0a8.177,8.177,0,0,1-.1-1.392V-3.564c0-1.164-.432-2.376-2.208-2.376a3.6,3.6,0,0,0-1.908.516l.24.7a2.894,2.894,0,0,1,1.512-.432,1.2,1.2,0,0,1,1.32,1.344v.12c-2.244-.012-3.492.756-3.492,2.16A1.655,1.655,0,0,0,148.128.132,2.163,2.163,0,0,0,149.9-.732h.036l.084.732Zm-1.116-1.956a1.1,1.1,0,0,1-.06.336,1.445,1.445,0,0,1-1.4.972.934.934,0,0,1-1-1.008c0-1.128,1.308-1.332,2.46-1.308ZM155.136,0h1.044V-3.1a2.972,2.972,0,0,1,.048-.492,1.481,1.481,0,0,1,1.416-1.356,1.586,1.586,0,0,1,.36.036v-1a1.142,1.142,0,0,0-.3-.036A1.743,1.743,0,0,0,156.1-4.668h-.048l-.036-1.14h-.924c.036.54.048,1.128.048,1.812Zm8.472-2.712a3.984,3.984,0,0,0,.036-.492,2.461,2.461,0,0,0-2.4-2.736c-1.692,0-2.724,1.38-2.724,3.132A2.7,2.7,0,0,0,161.376.12a4.7,4.7,0,0,0,1.932-.36L163.128-1a3.819,3.819,0,0,1-1.608.3,1.861,1.861,0,0,1-1.992-2.016Zm-4.068-.756a1.75,1.75,0,0,1,1.62-1.716,1.5,1.5,0,0,1,1.464,1.716ZM169.128,0a8.177,8.177,0,0,1-.1-1.392V-3.564c0-1.164-.432-2.376-2.208-2.376a3.6,3.6,0,0,0-1.908.516l.24.7a2.894,2.894,0,0,1,1.512-.432,1.2,1.2,0,0,1,1.32,1.344v.12c-2.244-.012-3.492.756-3.492,2.16A1.655,1.655,0,0,0,166.272.132a2.163,2.163,0,0,0,1.776-.864h.036l.084.732Zm-1.116-1.956a1.1,1.1,0,0,1-.06.336,1.445,1.445,0,0,1-1.4.972.934.934,0,0,1-1-1.008c0-1.128,1.308-1.332,2.46-1.308ZM170.736,0h1.056V-8.52h-1.056Zm3.888,0V-5.808h-1.056V0ZM174.1-8.1a.643.643,0,0,0-.66.66.628.628,0,0,0,.636.648.624.624,0,0,0,.672-.648A.627.627,0,0,0,174.1-8.1Zm1.62,8.1h4.716V-.84h-3.4V-.864c.264-.3.5-.588.744-.912l2.592-3.372.012-.66h-4.428v.852H179.1v.024c-.264.312-.5.588-.756.9l-2.628,3.42Zm9.972,0a8.177,8.177,0,0,1-.1-1.392V-3.564c0-1.164-.432-2.376-2.208-2.376a3.6,3.6,0,0,0-1.908.516l.24.7a2.894,2.894,0,0,1,1.512-.432,1.2,1.2,0,0,1,1.32,1.344v.12c-2.244-.012-3.492.756-3.492,2.16A1.655,1.655,0,0,0,182.832.132a2.163,2.163,0,0,0,1.776-.864h.036l.084.732Zm-1.116-1.956a1.1,1.1,0,0,1-.06.336,1.445,1.445,0,0,1-1.4.972.934.934,0,0,1-1-1.008c0-1.128,1.308-1.332,2.46-1.308Zm6.684-6.564v3.468h-.024a1.942,1.942,0,0,0-1.752-.888c-1.416,0-2.616,1.188-2.6,3.12,0,1.764,1.08,2.952,2.484,2.952a2.148,2.148,0,0,0,1.98-1.14h.024L191.412,0h.948c-.036-.4-.048-.984-.048-1.5V-8.52Zm0,6.084a1.834,1.834,0,0,1-.048.456A1.587,1.587,0,0,1,189.66-.72c-1.14,0-1.716-.972-1.716-2.148,0-1.284.648-2.244,1.74-2.244a1.553,1.553,0,0,1,1.524,1.224,1.864,1.864,0,0,1,.048.444ZM198.24,0a8.177,8.177,0,0,1-.1-1.392V-3.564c0-1.164-.432-2.376-2.208-2.376a3.6,3.6,0,0,0-1.908.516l.24.7a2.894,2.894,0,0,1,1.512-.432,1.2,1.2,0,0,1,1.32,1.344v.12c-2.244-.012-3.492.756-3.492,2.16A1.655,1.655,0,0,0,195.384.132a2.163,2.163,0,0,0,1.776-.864h.036L197.28,0Zm-1.116-1.956a1.1,1.1,0,0,1-.06.336,1.445,1.445,0,0,1-1.4.972.934.934,0,0,1-1-1.008c0-1.128,1.308-1.332,2.46-1.308Zm2.316,1.68a3.312,3.312,0,0,0,1.632.4c1.38,0,2.172-.72,2.172-1.74,0-.864-.516-1.368-1.524-1.752-.756-.288-1.1-.5-1.1-.984,0-.432.348-.792.972-.792a2.26,2.26,0,0,1,1.188.336l.264-.768a2.9,2.9,0,0,0-1.428-.36,1.791,1.791,0,0,0-2,1.7c0,.7.492,1.272,1.536,1.644.78.288,1.08.564,1.08,1.068,0,.48-.36.864-1.128.864a2.768,2.768,0,0,1-1.392-.42Zm6.936-5.532,2.148,5.352a.921.921,0,0,1,.072.276.758.758,0,0,1-.084.252,3.2,3.2,0,0,1-.888,1.176,2.793,2.793,0,0,1-.924.516l.264.888a2.861,2.861,0,0,0,1.3-.684c.72-.624,1.236-1.644,1.992-3.636l1.584-4.14H210.72L209.568-2.4c-.144.42-.264.864-.372,1.212h-.024c-.1-.348-.24-.8-.372-1.188l-1.272-3.432Zm8.964,8.184h1.044V-.78h.024A2.037,2.037,0,0,0,218.2.132c1.368,0,2.64-1.032,2.64-3.12,0-1.764-1.056-2.952-2.46-2.952a2.283,2.283,0,0,0-2.064,1.128h-.024l-.048-1h-.948c.024.552.048,1.152.048,1.9Zm1.044-5.736a1.712,1.712,0,0,1,.072-.432,1.685,1.685,0,0,1,1.6-1.308c1.116,0,1.728,1,1.728,2.16,0,1.332-.648,2.244-1.764,2.244a1.629,1.629,0,0,1-1.584-1.236,2.378,2.378,0,0,1-.048-.432ZM226.344,0a8.177,8.177,0,0,1-.1-1.392V-3.564c0-1.164-.432-2.376-2.208-2.376a3.6,3.6,0,0,0-1.908.516l.24.7a2.894,2.894,0,0,1,1.512-.432,1.2,1.2,0,0,1,1.32,1.344v.12c-2.244-.012-3.492.756-3.492,2.16A1.655,1.655,0,0,0,223.488.132a2.163,2.163,0,0,0,1.776-.864h.036l.084.732Zm-1.116-1.956a1.1,1.1,0,0,1-.06.336,1.445,1.445,0,0,1-1.4.972.934.934,0,0,1-1-1.008c0-1.128,1.308-1.332,2.46-1.308Zm6.8-3.852-.048.876h-.024a1.932,1.932,0,0,0-1.812-1.008,2.788,2.788,0,0,0-2.616,3.084A2.6,2.6,0,0,0,230-.024,2.073,2.073,0,0,0,231.852-1h.024v.648c0,1.464-.792,2.028-1.872,2.028a3.275,3.275,0,0,1-1.7-.456l-.264.8a3.749,3.749,0,0,0,1.932.48,3.079,3.079,0,0,0,2.112-.7,3.34,3.34,0,0,0,.828-2.652V-4.212c0-.708.024-1.176.048-1.6Zm-.168,3.336a1.837,1.837,0,0,1-.084.564,1.544,1.544,0,0,1-1.464,1.08c-1.14,0-1.716-.948-1.716-2.088,0-1.344.72-2.2,1.728-2.2A1.521,1.521,0,0,1,231.8-4a1.5,1.5,0,0,1,.06.48ZM238.836,0a8.177,8.177,0,0,1-.1-1.392V-3.564c0-1.164-.432-2.376-2.208-2.376a3.6,3.6,0,0,0-1.908.516l.24.7a2.894,2.894,0,0,1,1.512-.432,1.2,1.2,0,0,1,1.32,1.344v.12c-2.244-.012-3.492.756-3.492,2.16A1.655,1.655,0,0,0,235.98.132a2.163,2.163,0,0,0,1.776-.864h.036l.084.732ZM237.72-1.956a1.1,1.1,0,0,1-.06.336,1.445,1.445,0,0,1-1.4.972.934.934,0,0,1-1-1.008c0-1.128,1.308-1.332,2.46-1.308ZM244.4-8.52v3.468h-.024a1.942,1.942,0,0,0-1.752-.888c-1.416,0-2.616,1.188-2.6,3.12,0,1.764,1.08,2.952,2.484,2.952a2.148,2.148,0,0,0,1.98-1.14h.024L244.56,0h.948c-.036-.4-.048-.984-.048-1.5V-8.52Zm0,6.084a1.834,1.834,0,0,1-.048.456,1.587,1.587,0,0,1-1.548,1.26c-1.14,0-1.716-.972-1.716-2.148,0-1.284.648-2.244,1.74-2.244a1.553,1.553,0,0,1,1.524,1.224,1.864,1.864,0,0,1,.048.444ZM251.388,0a8.177,8.177,0,0,1-.1-1.392V-3.564c0-1.164-.432-2.376-2.208-2.376a3.6,3.6,0,0,0-1.908.516l.24.7a2.894,2.894,0,0,1,1.512-.432,1.2,1.2,0,0,1,1.32,1.344v.12c-2.244-.012-3.492.756-3.492,2.16A1.655,1.655,0,0,0,248.532.132a2.163,2.163,0,0,0,1.776-.864h.036l.084.732Zm-1.116-1.956a1.1,1.1,0,0,1-.06.336,1.445,1.445,0,0,1-1.4.972.934.934,0,0,1-1-1.008c0-1.128,1.308-1.332,2.46-1.308Zm2.316,1.68a3.312,3.312,0,0,0,1.632.4c1.38,0,2.172-.72,2.172-1.74,0-.864-.516-1.368-1.524-1.752-.756-.288-1.1-.5-1.1-.984,0-.432.348-.792.972-.792a2.26,2.26,0,0,1,1.188.336l.264-.768a2.9,2.9,0,0,0-1.428-.36,1.791,1.791,0,0,0-2,1.7c0,.7.492,1.272,1.536,1.644.78.288,1.08.564,1.08,1.068,0,.48-.36.864-1.128.864a2.768,2.768,0,0,1-1.392-.42ZM264.468,0a8.179,8.179,0,0,1-.1-1.392V-3.564c0-1.164-.432-2.376-2.208-2.376a3.6,3.6,0,0,0-1.908.516l.24.7a2.894,2.894,0,0,1,1.512-.432,1.2,1.2,0,0,1,1.32,1.344v.12c-2.244-.012-3.492.756-3.492,2.16A1.655,1.655,0,0,0,261.612.132a2.163,2.163,0,0,0,1.776-.864h.036l.084.732Zm-1.116-1.956a1.1,1.1,0,0,1-.06.336,1.445,1.445,0,0,1-1.4.972.934.934,0,0,1-1-1.008c0-1.128,1.308-1.332,2.46-1.308ZM268.86-7.2v1.392h-.9V-5h.9v3.168a2.152,2.152,0,0,0,.408,1.512,1.463,1.463,0,0,0,1.14.444,2.585,2.585,0,0,0,.936-.144L271.3-.816a2.349,2.349,0,0,1-.612.072c-.588,0-.792-.408-.792-1.128V-5H271.4v-.8h-1.512V-7.476ZM272.592,0h1.044V-3.1a2.974,2.974,0,0,1,.048-.492A1.481,1.481,0,0,1,275.1-4.944a1.586,1.586,0,0,1,.36.036v-1a1.142,1.142,0,0,0-.3-.036,1.743,1.743,0,0,0-1.608,1.272H273.5l-.036-1.14h-.924c.036.54.048,1.128.048,1.812Zm8.04,0a8.179,8.179,0,0,1-.1-1.392V-3.564c0-1.164-.432-2.376-2.208-2.376a3.6,3.6,0,0,0-1.908.516l.24.7a2.894,2.894,0,0,1,1.512-.432,1.2,1.2,0,0,1,1.32,1.344v.12C277.248-3.708,276-2.94,276-1.536A1.655,1.655,0,0,0,277.776.132a2.163,2.163,0,0,0,1.776-.864h.036l.084.732Zm-1.116-1.956a1.1,1.1,0,0,1-.06.336,1.445,1.445,0,0,1-1.4.972.934.934,0,0,1-1-1.008c0-1.128,1.308-1.332,2.46-1.308Zm1.908-3.852L283.632,0h1.008l2.28-5.808h-1.1l-1.128,3.264c-.192.528-.36,1.008-.492,1.488h-.036a14.938,14.938,0,0,0-.468-1.488l-1.14-3.264Zm11.04,3.1A3.985,3.985,0,0,0,292.5-3.2a2.461,2.461,0,0,0-2.4-2.736c-1.692,0-2.724,1.38-2.724,3.132A2.7,2.7,0,0,0,290.232.12a4.7,4.7,0,0,0,1.932-.36L291.984-1a3.819,3.819,0,0,1-1.608.3,1.861,1.861,0,0,1-1.992-2.016ZM288.4-3.468a1.75,1.75,0,0,1,1.62-1.716,1.5,1.5,0,0,1,1.464,1.716Zm2.172-4.848L289.512-6.6h.756l1.464-1.716ZM293.4-.276a3.312,3.312,0,0,0,1.632.4c1.38,0,2.172-.72,2.172-1.74,0-.864-.516-1.368-1.524-1.752-.756-.288-1.1-.5-1.1-.984,0-.432.348-.792.972-.792a2.26,2.26,0,0,1,1.188.336L297-5.58a2.9,2.9,0,0,0-1.428-.36,1.791,1.791,0,0,0-2,1.7c0,.7.492,1.272,1.536,1.644.78.288,1.08.564,1.08,1.068,0,.48-.36.864-1.128.864a2.768,2.768,0,0,1-1.392-.42ZM305.064-8.52v3.468h-.024a1.942,1.942,0,0,0-1.752-.888c-1.416,0-2.616,1.188-2.6,3.12,0,1.764,1.08,2.952,2.484,2.952a2.148,2.148,0,0,0,1.98-1.14h.024L305.22,0h.948c-.036-.4-.048-.984-.048-1.5V-8.52Zm0,6.084a1.834,1.834,0,0,1-.048.456,1.587,1.587,0,0,1-1.548,1.26c-1.14,0-1.716-.972-1.716-2.148,0-1.284.648-2.244,1.74-2.244a1.553,1.553,0,0,1,1.524,1.224,1.864,1.864,0,0,1,.048.444Zm7.476-.276a3.985,3.985,0,0,0,.036-.492,2.461,2.461,0,0,0-2.4-2.736c-1.692,0-2.724,1.38-2.724,3.132A2.7,2.7,0,0,0,310.308.12a4.7,4.7,0,0,0,1.932-.36L312.06-1a3.819,3.819,0,0,1-1.608.3,1.861,1.861,0,0,1-1.992-2.016Zm-4.068-.756a1.75,1.75,0,0,1,1.62-1.716,1.5,1.5,0,0,1,1.464,1.716ZM317.484,0V-5.808h-1.056V0Zm-.528-8.1a.643.643,0,0,0-.66.66.628.628,0,0,0,.636.648.624.624,0,0,0,.672-.648A.627.627,0,0,0,316.956-8.1Zm2.28,8.1h1.056V-3.492a1.518,1.518,0,0,1,.072-.492,1.5,1.5,0,0,1,1.416-1.08c1,0,1.344.78,1.344,1.716V0h1.056V-3.468c0-1.992-1.248-2.472-2.052-2.472a2.136,2.136,0,0,0-1.92,1.092h-.024l-.06-.96h-.936c.036.48.048.972.048,1.572Zm6.852-7.2v1.392h-.9V-5h.9v3.168A2.152,2.152,0,0,0,326.5-.324a1.463,1.463,0,0,0,1.14.444,2.585,2.585,0,0,0,.936-.144l-.048-.792a2.349,2.349,0,0,1-.612.072c-.588,0-.792-.408-.792-1.128V-5h1.512v-.8H327.12V-7.476Zm8.328,4.488a3.985,3.985,0,0,0,.036-.492,2.461,2.461,0,0,0-2.4-2.736c-1.692,0-2.724,1.38-2.724,3.132A2.7,2.7,0,0,0,332.184.12a4.7,4.7,0,0,0,1.932-.36L333.936-1a3.819,3.819,0,0,1-1.608.3,1.861,1.861,0,0,1-1.992-2.016Zm-4.068-.756a1.75,1.75,0,0,1,1.62-1.716,1.5,1.5,0,0,1,1.464,1.716ZM335.76,0H336.8V-3.1a2.974,2.974,0,0,1,.048-.492,1.481,1.481,0,0,1,1.416-1.356,1.586,1.586,0,0,1,.36.036v-1a1.142,1.142,0,0,0-.3-.036,1.743,1.743,0,0,0-1.608,1.272h-.048l-.036-1.14h-.924c.036.54.048,1.128.048,1.812Zm3.972,0h1.056V-3.492a1.518,1.518,0,0,1,.072-.492,1.5,1.5,0,0,1,1.416-1.08c1,0,1.344.78,1.344,1.716V0h1.056V-3.468c0-1.992-1.248-2.472-2.052-2.472a2.136,2.136,0,0,0-1.92,1.092h-.024l-.06-.96h-.936c.036.48.048.972.048,1.572ZM351.06-2.712A3.985,3.985,0,0,0,351.1-3.2a2.461,2.461,0,0,0-2.4-2.736c-1.692,0-2.724,1.38-2.724,3.132A2.7,2.7,0,0,0,348.828.12a4.7,4.7,0,0,0,1.932-.36L350.58-1a3.819,3.819,0,0,1-1.608.3,1.861,1.861,0,0,1-1.992-2.016Zm-4.068-.756a1.75,1.75,0,0,1,1.62-1.716,1.5,1.5,0,0,1,1.464,1.716ZM352.644-7.2v1.392h-.9V-5h.9v3.168a2.152,2.152,0,0,0,.408,1.512,1.463,1.463,0,0,0,1.14.444,2.585,2.585,0,0,0,.936-.144l-.048-.792a2.349,2.349,0,0,1-.612.072c-.588,0-.792-.408-.792-1.128V-5h1.512v-.8h-1.512V-7.476ZM356.8.132a.7.7,0,0,0,.72-.756.7.7,0,0,0-.708-.756.709.709,0,0,0-.72.756A.707.707,0,0,0,356.8.132Z" transform="translate(583.611 3015)" fill="#040504"/>
    <path id="Trazado_762170" data-name="Trazado 762170" transform="translate(677.722 3013.269)" fill="#040504"/>
    <path id="Trazado_762095" data-name="Trazado 762095" d="M0,0H621.037" transform="translate(483.964 2573.682)" fill="none" stroke="#8d8c8b" stroke-width="0.5"/>
    <path id="Trazado_762100" data-name="Trazado 762100" d="M0,0H621.037" transform="translate(483.964 2607.76)" fill="none" stroke="#8d8c8b" stroke-width="0.5"/>
    <path id="Trazado_762101" data-name="Trazado 762101" d="M0,0H621.037" transform="translate(483.964 2641.841)" fill="none" stroke="#8d8c8b" stroke-width="0.5"/>
    <path id="Trazado_762102" data-name="Trazado 762102" d="M0,0H621.037" transform="translate(483.964 2675.92)" fill="none" stroke="#8d8c8b" stroke-width="0.5"/>
    <path id="Trazado_762103" data-name="Trazado 762103" d="M0,0H621.037" transform="translate(483.964 2711.6)" fill="none" stroke="#8d8c8b" stroke-width="0.5"/>
    <path id="Trazado_762104" data-name="Trazado 762104" d="M0,0H621.037" transform="translate(483.964 2745.68)" fill="none" stroke="#8d8c8b" stroke-width="0.5"/>
    <path id="Trazado_762105" data-name="Trazado 762105" d="M0,0H621.037" transform="translate(483.964 2779.758)" fill="none" stroke="#8d8c8b" stroke-width="0.5"/>
    <path id="Trazado_762126" data-name="Trazado 762126" d="M0,0H621.037" transform="translate(483.964 2813.839)" fill="none" stroke="#8d8c8b" stroke-width="0.5"/>
    <path id="Trazado_762094" data-name="Trazado 762094" d="M0,0H715V457.476H0Z" transform="translate(390 2562.605)" fill="none"/>
    <path id="Trazado_762127" data-name="Trazado 762127" d="M7.105-3.113A1.728,1.728,0,0,0,6.57-4.4a4.789,4.789,0,0,0-1.805-.946A5.788,5.788,0,0,1,2.187-6.753a3.1,3.1,0,0,1-.809-2.2,3.191,3.191,0,0,1,.793-2.233A3.369,3.369,0,0,1,4.35-12.227v-1.818H5.586v1.826a3.2,3.2,0,0,1,2.171,1.17,4.206,4.206,0,0,1,.776,2.681H7.006a2.891,2.891,0,0,0-.556-1.865,1.827,1.827,0,0,0-1.5-.691,2.073,2.073,0,0,0-1.511.511,1.9,1.9,0,0,0-.523,1.426,1.739,1.739,0,0,0,.552,1.351,5.085,5.085,0,0,0,1.818.915,7.652,7.652,0,0,1,1.976.905A3.178,3.178,0,0,1,8.3-4.665a3.323,3.323,0,0,1,.336,1.536A3.077,3.077,0,0,1,7.8-.872,3.736,3.736,0,0,1,5.437.141V1.727H4.208V.141a3.579,3.579,0,0,1-2.42-1.1,3.711,3.711,0,0,1-.876-2.6H2.449a2.443,2.443,0,0,0,.606,1.776,2.288,2.288,0,0,0,1.718.623,2.577,2.577,0,0,0,1.71-.523A1.766,1.766,0,0,0,7.105-3.113Z" transform="translate(428.974 2817.318)" fill="#040504"/>
    <path id="Trazado_762128" data-name="Trazado 762128" d="M8.583-5.155a7.023,7.023,0,0,1-.921,4.009A3.277,3.277,0,0,1,4.781.166,3.3,3.3,0,0,1,1.917-1.116,6.666,6.666,0,0,1,.955-4.947V-7a6.867,6.867,0,0,1,.921-3.959,3.3,3.3,0,0,1,2.889-1.295A3.332,3.332,0,0,1,7.637-11a6.627,6.627,0,0,1,.946,3.856Zm-1.536-2.1A5.627,5.627,0,0,0,6.5-10.1a1.886,1.886,0,0,0-1.735-.892,1.861,1.861,0,0,0-1.718.888A5.494,5.494,0,0,0,2.49-7.371v2.457a5.717,5.717,0,0,0,.569,2.893,1.882,1.882,0,0,0,1.722.934,1.856,1.856,0,0,0,1.689-.88A5.51,5.51,0,0,0,7.047-4.74Z" transform="translate(439.237 2817.318)" fill="#040504"/>
    <path id="Trazado_762129" data-name="Trazado 762129" d="M.785,1.7.17,1.277A2.827,2.827,0,0,0,.744-.3v-.979H1.8v.85A2.669,2.669,0,0,1,1.515.75,2.771,2.771,0,0,1,.785,1.7Z" transform="translate(449.48 2812.318)" fill="#040504"/>
    <path id="Trazado_762130" data-name="Trazado 762130" d="M8.583-5.155a7.023,7.023,0,0,1-.921,4.009A3.277,3.277,0,0,1,4.781.166,3.3,3.3,0,0,1,1.917-1.116,6.666,6.666,0,0,1,.955-4.947V-7a6.867,6.867,0,0,1,.921-3.959,3.3,3.3,0,0,1,2.889-1.295A3.332,3.332,0,0,1,7.637-11a6.627,6.627,0,0,1,.946,3.856Zm-1.536-2.1A5.627,5.627,0,0,0,6.5-10.1a1.886,1.886,0,0,0-1.735-.892,1.861,1.861,0,0,0-1.718.888A5.494,5.494,0,0,0,2.49-7.371v2.457a5.717,5.717,0,0,0,.569,2.893,1.882,1.882,0,0,0,1.722.934,1.856,1.856,0,0,0,1.689-.88A5.51,5.51,0,0,0,7.047-4.74Z" transform="translate(452.826 2817.318)" fill="#040504"/>
    <path id="Trazado_762106" data-name="Trazado 762106" d="M7.105-3.113A1.728,1.728,0,0,0,6.57-4.4a4.789,4.789,0,0,0-1.805-.946A5.788,5.788,0,0,1,2.187-6.753a3.1,3.1,0,0,1-.809-2.2,3.191,3.191,0,0,1,.793-2.233A3.369,3.369,0,0,1,4.35-12.227v-1.818H5.586v1.826a3.2,3.2,0,0,1,2.171,1.17,4.206,4.206,0,0,1,.776,2.681H7.006a2.891,2.891,0,0,0-.556-1.865,1.827,1.827,0,0,0-1.5-.691,2.073,2.073,0,0,0-1.511.511,1.9,1.9,0,0,0-.523,1.426,1.739,1.739,0,0,0,.552,1.351,5.085,5.085,0,0,0,1.818.915,7.652,7.652,0,0,1,1.976.905A3.178,3.178,0,0,1,8.3-4.665a3.323,3.323,0,0,1,.336,1.536A3.077,3.077,0,0,1,7.8-.872,3.736,3.736,0,0,1,5.437.141V1.727H4.208V.141a3.579,3.579,0,0,1-2.42-1.1,3.711,3.711,0,0,1-.876-2.6H2.449a2.443,2.443,0,0,0,.606,1.776,2.288,2.288,0,0,0,1.718.623,2.577,2.577,0,0,0,1.71-.523A1.766,1.766,0,0,0,7.105-3.113Z" transform="translate(428.993 2782.524)" fill="#040504"/>
    <path id="Trazado_762107" data-name="Trazado 762107" d="M8.583-5.155a7.023,7.023,0,0,1-.921,4.009A3.277,3.277,0,0,1,4.781.166,3.3,3.3,0,0,1,1.917-1.116,6.666,6.666,0,0,1,.955-4.947V-7a6.867,6.867,0,0,1,.921-3.959,3.3,3.3,0,0,1,2.889-1.295A3.332,3.332,0,0,1,7.637-11a6.627,6.627,0,0,1,.946,3.856Zm-1.536-2.1A5.627,5.627,0,0,0,6.5-10.1a1.886,1.886,0,0,0-1.735-.892,1.861,1.861,0,0,0-1.718.888A5.494,5.494,0,0,0,2.49-7.371v2.457a5.717,5.717,0,0,0,.569,2.893,1.882,1.882,0,0,0,1.722.934,1.856,1.856,0,0,0,1.689-.88A5.51,5.51,0,0,0,7.047-4.74Z" transform="translate(439.256 2782.524)" fill="#040504"/>
    <path id="Trazado_762108" data-name="Trazado 762108" d="M.785,1.7.17,1.277A2.827,2.827,0,0,0,.744-.3v-.979H1.8v.85A2.669,2.669,0,0,1,1.515.75,2.771,2.771,0,0,1,.785,1.7Z" transform="translate(449.499 2777.524)" fill="#040504"/>
    <path id="Trazado_762109" data-name="Trazado 762109" d="M1.71-6.06l.614-6.026H8.517v1.419H3.627l-.365,3.3a3.9,3.9,0,0,1,2.017-.523A3.334,3.334,0,0,1,7.9-6.8a4.278,4.278,0,0,1,.971,2.951A4.129,4.129,0,0,1,7.865-.909,3.676,3.676,0,0,1,5.047.166,3.82,3.82,0,0,1,2.432-.722,3.545,3.545,0,0,1,1.278-3.179H2.731A2.439,2.439,0,0,0,3.47-1.615a2.3,2.3,0,0,0,1.577.527,2.072,2.072,0,0,0,1.681-.73,3.054,3.054,0,0,0,.61-2.017,2.8,2.8,0,0,0-.66-1.947,2.245,2.245,0,0,0-1.756-.735,2.532,2.532,0,0,0-1.577.44l-.407.332Z" transform="translate(452.845 2782.524)" fill="#040504"/>
    <path id="Trazado_762110" data-name="Trazado 762110" d="M7.105-3.113A1.728,1.728,0,0,0,6.57-4.4a4.789,4.789,0,0,0-1.805-.946A5.788,5.788,0,0,1,2.187-6.753a3.1,3.1,0,0,1-.809-2.2,3.191,3.191,0,0,1,.793-2.233A3.369,3.369,0,0,1,4.35-12.227v-1.818H5.586v1.826a3.2,3.2,0,0,1,2.171,1.17,4.206,4.206,0,0,1,.776,2.681H7.006a2.891,2.891,0,0,0-.556-1.865,1.827,1.827,0,0,0-1.5-.691,2.073,2.073,0,0,0-1.511.511,1.9,1.9,0,0,0-.523,1.426,1.739,1.739,0,0,0,.552,1.351,5.085,5.085,0,0,0,1.818.915,7.652,7.652,0,0,1,1.976.905A3.178,3.178,0,0,1,8.3-4.665a3.323,3.323,0,0,1,.336,1.536A3.077,3.077,0,0,1,7.8-.872,3.736,3.736,0,0,1,5.437.141V1.727H4.208V.141a3.579,3.579,0,0,1-2.42-1.1,3.711,3.711,0,0,1-.876-2.6H2.449a2.443,2.443,0,0,0,.606,1.776,2.288,2.288,0,0,0,1.718.623,2.577,2.577,0,0,0,1.71-.523A1.766,1.766,0,0,0,7.105-3.113Z" transform="translate(429.012 2749.318)" fill="#040504"/>
    <path id="Trazado_762111" data-name="Trazado 762111" d="M6.051,0H4.507V-10.235L1.411-9.1v-1.395l4.4-1.652h.241Z" transform="translate(439.274 2749.318)" fill="#040504"/>
    <path id="Trazado_762112" data-name="Trazado 762112" d="M.785,1.7.17,1.277A2.827,2.827,0,0,0,.744-.3v-.979H1.8v.85A2.669,2.669,0,0,1,1.515.75,2.771,2.771,0,0,1,.785,1.7Z" transform="translate(449.518 2744.318)" fill="#040504"/>
    <path id="Trazado_762113" data-name="Trazado 762113" d="M8.583-5.155a7.023,7.023,0,0,1-.921,4.009A3.277,3.277,0,0,1,4.781.166,3.3,3.3,0,0,1,1.917-1.116,6.666,6.666,0,0,1,.955-4.947V-7a6.867,6.867,0,0,1,.921-3.959,3.3,3.3,0,0,1,2.889-1.295A3.332,3.332,0,0,1,7.637-11a6.627,6.627,0,0,1,.946,3.856Zm-1.536-2.1A5.627,5.627,0,0,0,6.5-10.1a1.886,1.886,0,0,0-1.735-.892,1.861,1.861,0,0,0-1.718.888A5.494,5.494,0,0,0,2.49-7.371v2.457a5.717,5.717,0,0,0,.569,2.893,1.882,1.882,0,0,0,1.722.934,1.856,1.856,0,0,0,1.689-.88A5.51,5.51,0,0,0,7.047-4.74Z" transform="translate(452.863 2749.318)" fill="#040504"/>
    <path id="Trazado_762114" data-name="Trazado 762114" d="M7.105-3.113A1.728,1.728,0,0,0,6.57-4.4a4.789,4.789,0,0,0-1.805-.946A5.788,5.788,0,0,1,2.187-6.753a3.1,3.1,0,0,1-.809-2.2,3.191,3.191,0,0,1,.793-2.233A3.369,3.369,0,0,1,4.35-12.227v-1.818H5.586v1.826a3.2,3.2,0,0,1,2.171,1.17,4.206,4.206,0,0,1,.776,2.681H7.006a2.891,2.891,0,0,0-.556-1.865,1.827,1.827,0,0,0-1.5-.691,2.073,2.073,0,0,0-1.511.511,1.9,1.9,0,0,0-.523,1.426,1.739,1.739,0,0,0,.552,1.351,5.085,5.085,0,0,0,1.818.915,7.652,7.652,0,0,1,1.976.905A3.178,3.178,0,0,1,8.3-4.665a3.323,3.323,0,0,1,.336,1.536A3.077,3.077,0,0,1,7.8-.872,3.736,3.736,0,0,1,5.437.141V1.727H4.208V.141a3.579,3.579,0,0,1-2.42-1.1,3.711,3.711,0,0,1-.876-2.6H2.449a2.443,2.443,0,0,0,.606,1.776,2.288,2.288,0,0,0,1.718.623,2.577,2.577,0,0,0,1.71-.523A1.766,1.766,0,0,0,7.105-3.113Z" transform="translate(429.031 2715.486)" fill="#040504"/>
    <path id="Trazado_762115" data-name="Trazado 762115" d="M6.051,0H4.507V-10.235L1.411-9.1v-1.395l4.4-1.652h.241Z" transform="translate(439.293 2715.486)" fill="#040504"/>
    <path id="Trazado_762116" data-name="Trazado 762116" d="M.785,1.7.17,1.277A2.827,2.827,0,0,0,.744-.3v-.979H1.8v.85A2.669,2.669,0,0,1,1.515.75,2.771,2.771,0,0,1,.785,1.7Z" transform="translate(449.537 2710.486)" fill="#040504"/>
    <path id="Trazado_762117" data-name="Trazado 762117" d="M1.71-6.06l.614-6.026H8.517v1.419H3.627l-.365,3.3a3.9,3.9,0,0,1,2.017-.523A3.334,3.334,0,0,1,7.9-6.8a4.278,4.278,0,0,1,.971,2.951A4.129,4.129,0,0,1,7.865-.909,3.676,3.676,0,0,1,5.047.166,3.82,3.82,0,0,1,2.432-.722,3.545,3.545,0,0,1,1.278-3.179H2.731A2.439,2.439,0,0,0,3.47-1.615a2.3,2.3,0,0,0,1.577.527,2.072,2.072,0,0,0,1.681-.73,3.054,3.054,0,0,0,.61-2.017,2.8,2.8,0,0,0-.66-1.947,2.245,2.245,0,0,0-1.756-.735,2.532,2.532,0,0,0-1.577.44l-.407.332Z" transform="translate(452.882 2715.486)" fill="#040504"/>
    <path id="Trazado_762118" data-name="Trazado 762118" d="M7.105-3.113A1.728,1.728,0,0,0,6.57-4.4a4.789,4.789,0,0,0-1.805-.946A5.788,5.788,0,0,1,2.187-6.753a3.1,3.1,0,0,1-.809-2.2,3.191,3.191,0,0,1,.793-2.233A3.369,3.369,0,0,1,4.35-12.227v-1.818H5.586v1.826a3.2,3.2,0,0,1,2.171,1.17,4.206,4.206,0,0,1,.776,2.681H7.006a2.891,2.891,0,0,0-.556-1.865,1.827,1.827,0,0,0-1.5-.691,2.073,2.073,0,0,0-1.511.511,1.9,1.9,0,0,0-.523,1.426,1.739,1.739,0,0,0,.552,1.351,5.085,5.085,0,0,0,1.818.915,7.652,7.652,0,0,1,1.976.905A3.178,3.178,0,0,1,8.3-4.665a3.323,3.323,0,0,1,.336,1.536A3.077,3.077,0,0,1,7.8-.872,3.736,3.736,0,0,1,5.437.141V1.727H4.208V.141a3.579,3.579,0,0,1-2.42-1.1,3.711,3.711,0,0,1-.876-2.6H2.449a2.443,2.443,0,0,0,.606,1.776,2.288,2.288,0,0,0,1.718.623,2.577,2.577,0,0,0,1.71-.523A1.766,1.766,0,0,0,7.105-3.113Z" transform="translate(429.05 2645.577)" fill="#040504"/>
    <path id="Trazado_762119" data-name="Trazado 762119" d="M8.923,0H1V-1.1L5.188-5.752A9.939,9.939,0,0,0,6.47-7.467a2.861,2.861,0,0,0,.353-1.365,2.169,2.169,0,0,0-.573-1.552,2,2,0,0,0-1.527-.606,2.372,2.372,0,0,0-1.781.652,2.489,2.489,0,0,0-.635,1.814H.772a3.565,3.565,0,0,1,1.075-2.7,3.985,3.985,0,0,1,2.876-1.029,3.829,3.829,0,0,1,2.665.884,3.015,3.015,0,0,1,.979,2.353q0,1.785-2.274,4.25L2.855-1.253H8.923Z" transform="translate(439.312 2645.577)" fill="#040504"/>
    <path id="Trazado_762120" data-name="Trazado 762120" d="M.785,1.7.17,1.277A2.827,2.827,0,0,0,.744-.3v-.979H1.8v.85A2.669,2.669,0,0,1,1.515.75,2.771,2.771,0,0,1,.785,1.7Z" transform="translate(449.556 2640.577)" fill="#040504"/>
    <path id="Trazado_762121" data-name="Trazado 762121" d="M1.71-6.06l.614-6.026H8.517v1.419H3.627l-.365,3.3a3.9,3.9,0,0,1,2.017-.523A3.334,3.334,0,0,1,7.9-6.8a4.278,4.278,0,0,1,.971,2.951A4.129,4.129,0,0,1,7.865-.909,3.676,3.676,0,0,1,5.047.166,3.82,3.82,0,0,1,2.432-.722,3.545,3.545,0,0,1,1.278-3.179H2.731A2.439,2.439,0,0,0,3.47-1.615a2.3,2.3,0,0,0,1.577.527,2.072,2.072,0,0,0,1.681-.73,3.054,3.054,0,0,0,.61-2.017,2.8,2.8,0,0,0-.66-1.947,2.245,2.245,0,0,0-1.756-.735,2.532,2.532,0,0,0-1.577.44l-.407.332Z" transform="translate(452.901 2645.577)" fill="#040504"/>
    <path id="Trazado_762096" data-name="Trazado 762096" d="M7.105-3.113A1.728,1.728,0,0,0,6.57-4.4a4.789,4.789,0,0,0-1.805-.946A5.788,5.788,0,0,1,2.187-6.753a3.1,3.1,0,0,1-.809-2.2,3.191,3.191,0,0,1,.793-2.233A3.369,3.369,0,0,1,4.35-12.227v-1.818H5.586v1.826a3.2,3.2,0,0,1,2.171,1.17,4.206,4.206,0,0,1,.776,2.681H7.006a2.891,2.891,0,0,0-.556-1.865,1.827,1.827,0,0,0-1.5-.691,2.073,2.073,0,0,0-1.511.511,1.9,1.9,0,0,0-.523,1.426,1.739,1.739,0,0,0,.552,1.351,5.085,5.085,0,0,0,1.818.915,7.652,7.652,0,0,1,1.976.905A3.178,3.178,0,0,1,8.3-4.665a3.323,3.323,0,0,1,.336,1.536A3.077,3.077,0,0,1,7.8-.872,3.736,3.736,0,0,1,5.437.141V1.727H4.208V.141a3.579,3.579,0,0,1-2.42-1.1,3.711,3.711,0,0,1-.876-2.6H2.449a2.443,2.443,0,0,0,.606,1.776,2.288,2.288,0,0,0,1.718.623,2.577,2.577,0,0,0,1.71-.523A1.766,1.766,0,0,0,7.105-3.113Z" transform="translate(429.069 2610.858)" fill="#040504"/>
    <path id="Trazado_762097" data-name="Trazado 762097" d="M3.237-6.79H4.391A2.536,2.536,0,0,0,6.1-7.363a1.914,1.914,0,0,0,.623-1.5A1.875,1.875,0,0,0,4.607-10.99a2.2,2.2,0,0,0-1.59.569,1.99,1.99,0,0,0-.594,1.507H.888A3.083,3.083,0,0,1,1.938-11.3a3.825,3.825,0,0,1,2.669-.95,3.78,3.78,0,0,1,2.681.9,3.269,3.269,0,0,1,.971,2.515A2.653,2.653,0,0,1,7.749-7.3a3.082,3.082,0,0,1-1.39,1.1A2.97,2.97,0,0,1,7.9-5.155,2.9,2.9,0,0,1,8.442-3.37,3.3,3.3,0,0,1,7.379-.789,3.979,3.979,0,0,1,4.615.166,4.084,4.084,0,0,1,1.847-.755,3.056,3.056,0,0,1,.78-3.187H2.324A1.975,1.975,0,0,0,2.947-1.66a2.368,2.368,0,0,0,1.668.573,2.324,2.324,0,0,0,1.7-.581,2.239,2.239,0,0,0,.589-1.668,2.032,2.032,0,0,0-.647-1.619,2.821,2.821,0,0,0-1.868-.581H3.237Z" transform="translate(439.331 2610.858)" fill="#040504"/>
    <path id="Trazado_762098" data-name="Trazado 762098" d="M.785,1.7.17,1.277A2.827,2.827,0,0,0,.744-.3v-.979H1.8v.85A2.669,2.669,0,0,1,1.515.75,2.771,2.771,0,0,1,.785,1.7Z" transform="translate(449.575 2605.858)" fill="#040504"/>
    <path id="Trazado_762099" data-name="Trazado 762099" d="M8.583-5.155a7.023,7.023,0,0,1-.921,4.009A3.277,3.277,0,0,1,4.781.166,3.3,3.3,0,0,1,1.917-1.116,6.666,6.666,0,0,1,.955-4.947V-7a6.867,6.867,0,0,1,.921-3.959,3.3,3.3,0,0,1,2.889-1.295A3.332,3.332,0,0,1,7.637-11a6.627,6.627,0,0,1,.946,3.856Zm-1.536-2.1A5.627,5.627,0,0,0,6.5-10.1a1.886,1.886,0,0,0-1.735-.892,1.861,1.861,0,0,0-1.718.888A5.494,5.494,0,0,0,2.49-7.371v2.457a5.717,5.717,0,0,0,.569,2.893,1.882,1.882,0,0,0,1.722.934,1.856,1.856,0,0,0,1.689-.88A5.51,5.51,0,0,0,7.047-4.74Z" transform="translate(452.92 2610.858)" fill="#040504"/>
    <g id="Grupo_1020855" data-name="Grupo 1020855" transform="translate(390 2562.605)" clip-path="url(#clip-path)">
      <text id="_" data-name="$" transform="translate(38.974 14.555)" fill="#040504" font-size="17" font-family="Roboto-Regular, Roboto"><tspan x="0" y="0">$</tspan></text>
      <text id="_3" data-name="3" transform="translate(49.237 14.555)" fill="#040504" font-size="17" font-family="Roboto-Regular, Roboto"><tspan x="0" y="0">3</tspan></text>
      <text id="_2" data-name="," transform="translate(59.48 9.555)" fill="#040504" font-size="12" font-family="Roboto-Regular, Roboto"><tspan x="0" y="0">,</tspan></text>
      <text id="_5" data-name="5" transform="translate(62.826 14.555)" fill="#040504" font-size="17" font-family="Roboto-Regular, Roboto"><tspan x="0" y="0">5</tspan></text>
    </g>
    <path id="Trazado_762122" data-name="Trazado 762122" d="M7.105-3.113A1.728,1.728,0,0,0,6.57-4.4a4.789,4.789,0,0,0-1.805-.946A5.788,5.788,0,0,1,2.187-6.753a3.1,3.1,0,0,1-.809-2.2,3.191,3.191,0,0,1,.793-2.233A3.369,3.369,0,0,1,4.35-12.227v-1.818H5.586v1.826a3.2,3.2,0,0,1,2.171,1.17,4.206,4.206,0,0,1,.776,2.681H7.006a2.891,2.891,0,0,0-.556-1.865,1.827,1.827,0,0,0-1.5-.691,2.073,2.073,0,0,0-1.511.511,1.9,1.9,0,0,0-.523,1.426,1.739,1.739,0,0,0,.552,1.351,5.085,5.085,0,0,0,1.818.915,7.652,7.652,0,0,1,1.976.905A3.178,3.178,0,0,1,8.3-4.665a3.323,3.323,0,0,1,.336,1.536A3.077,3.077,0,0,1,7.8-.872,3.736,3.736,0,0,1,5.437.141V1.727H4.208V.141a3.579,3.579,0,0,1-2.42-1.1,3.711,3.711,0,0,1-.876-2.6H2.449a2.443,2.443,0,0,0,.606,1.776,2.288,2.288,0,0,0,1.718.623,2.577,2.577,0,0,0,1.71-.523A1.766,1.766,0,0,0,7.105-3.113Z" transform="translate(428.974 2681.053)" fill="#040504"/>
    <path id="Trazado_762123" data-name="Trazado 762123" d="M8.923,0H1V-1.1L5.188-5.752A9.939,9.939,0,0,0,6.47-7.467a2.861,2.861,0,0,0,.353-1.365,2.169,2.169,0,0,0-.573-1.552,2,2,0,0,0-1.527-.606,2.372,2.372,0,0,0-1.781.652,2.489,2.489,0,0,0-.635,1.814H.772a3.565,3.565,0,0,1,1.075-2.7,3.985,3.985,0,0,1,2.876-1.029,3.829,3.829,0,0,1,2.665.884,3.015,3.015,0,0,1,.979,2.353q0,1.785-2.274,4.25L2.855-1.253H8.923Z" transform="translate(439.237 2681.053)" fill="#040504"/>
    <path id="Trazado_762124" data-name="Trazado 762124" d="M.785,1.7.17,1.277A2.827,2.827,0,0,0,.744-.3v-.979H1.8v.85A2.669,2.669,0,0,1,1.515.75,2.771,2.771,0,0,1,.785,1.7Z" transform="translate(449.48 2676.053)" fill="#040504"/>
    <path id="Trazado_762125" data-name="Trazado 762125" d="M8.583-5.155a7.023,7.023,0,0,1-.921,4.009A3.277,3.277,0,0,1,4.781.166,3.3,3.3,0,0,1,1.917-1.116,6.666,6.666,0,0,1,.955-4.947V-7a6.867,6.867,0,0,1,.921-3.959,3.3,3.3,0,0,1,2.889-1.295A3.332,3.332,0,0,1,7.637-11a6.627,6.627,0,0,1,.946,3.856Zm-1.536-2.1A5.627,5.627,0,0,0,6.5-10.1a1.886,1.886,0,0,0-1.735-.892,1.861,1.861,0,0,0-1.718.888A5.494,5.494,0,0,0,2.49-7.371v2.457a5.717,5.717,0,0,0,.569,2.893,1.882,1.882,0,0,0,1.722.934,1.856,1.856,0,0,0,1.689-.88A5.51,5.51,0,0,0,7.047-4.74Z" transform="translate(452.826 2681.053)" fill="#040504"/>
    <path id="Trazado_762131" data-name="Trazado 762131" d="M6.3-4.272H2.292V-1H6.944V0H1.073V-9.242H6.881v1H2.292v2.977H6.3Z" transform="translate(489.204 2843.359)" fill="#0d2a5f"/>
    <path id="Trazado_762132" data-name="Trazado 762132" d="M6.918,0H5.881L1.944-6.026V0H.908V-7.82H1.944L5.892-1.767V-7.82H6.918Z" transform="translate(497.102 2841.359)" fill="#0d2a5f"/>
    <path id="Trazado_762133" data-name="Trazado 762133" d="M6.3-4.272H2.292V-1H6.944V0H1.073V-9.242H6.881v1H2.292v2.977H6.3Z" transform="translate(507.103 2843.359)" fill="#0d2a5f"/>
    <path id="Trazado_762134" data-name="Trazado 762134" d="M4.462-3.739H2.292V0H1.066V-9.242h3.06a3.621,3.621,0,0,1,2.4.711A2.558,2.558,0,0,1,7.37-6.462a2.488,2.488,0,0,1-.467,1.5A2.785,2.785,0,0,1,5.6-4L7.776-.076V0H6.468Zm-2.171-1H4.164a2.112,2.112,0,0,0,1.444-.471,1.591,1.591,0,0,0,.536-1.259,1.676,1.676,0,0,0-.511-1.316,2.164,2.164,0,0,0-1.476-.464H2.292Z" transform="translate(515 2843.359)" fill="#0d2a5f"/>
    <path id="Trazado_762135" data-name="Trazado 762135" d="M7.553-3.99A5.277,5.277,0,0,1,7.131-1.8a3.2,3.2,0,0,1-1.2,1.427,3.289,3.289,0,0,1-1.8.492,3.261,3.261,0,0,1-1.787-.5A3.272,3.272,0,0,1,1.134-1.79,5.064,5.064,0,0,1,.691-3.914v-.615A5.215,5.215,0,0,1,1.119-6.7a3.26,3.26,0,0,1,1.21-1.444,3.247,3.247,0,0,1,1.79-.5,3.307,3.307,0,0,1,1.808.5,3.19,3.19,0,0,1,1.2,1.436,5.3,5.3,0,0,1,.422,2.188ZM6.434-4.541A3.825,3.825,0,0,0,5.824-6.87a2.01,2.01,0,0,0-1.705-.812A1.988,1.988,0,0,0,2.44-6.87a3.747,3.747,0,0,0-.63,2.253v.627a3.831,3.831,0,0,0,.618,2.312,2,2,0,0,0,1.7.841,1.989,1.989,0,0,0,1.688-.794,3.809,3.809,0,0,0,.615-2.276Z" transform="translate(523.604 2842.359)" fill="#0d2a5f"/>
    <path id="Trazado_762136" data-name="Trazado 762136" d="M6.17-4.082H2.292V0H1.073V-9.242H6.8v1H2.292v3.167H6.17Zm7.078-.19H9.243V-1H13.9V0H8.024V-9.242h5.808v1H9.243v2.977h4.005Z" transform="translate(559.863 2843.359)" fill="#0d2a5f"/>
    <path id="Trazado_762137" data-name="Trazado 762137" d="M1.073,0V-9.242H4.094a3.507,3.507,0,0,1,2.263.622,2.242,2.242,0,0,1,.759,1.841,1.877,1.877,0,0,1-.368,1.146,2.387,2.387,0,0,1-1,.771,2.143,2.143,0,0,1,1.184.8,2.286,2.286,0,0,1,.435,1.4A2.472,2.472,0,0,1,6.557-.711,3.334,3.334,0,0,1,4.278,0ZM2.292-4.323V-1H4.3a1.938,1.938,0,0,0,1.343-.441,1.549,1.549,0,0,0,.492-1.216q0-1.669-1.815-1.669Zm0-.978H4.132a1.93,1.93,0,0,0,1.279-.4,1.344,1.344,0,0,0,.479-1.088A1.321,1.321,0,0,0,5.446-7.9a2.182,2.182,0,0,0-1.352-.347h-1.8Z" transform="translate(575.471 2843.359)" fill="#0d2a5f"/>
    <path id="Trazado_762138" data-name="Trazado 762138" d="M4.462-3.739H2.292V0H1.066V-9.242h3.06a3.621,3.621,0,0,1,2.4.711A2.558,2.558,0,0,1,7.37-6.462a2.488,2.488,0,0,1-.467,1.5A2.785,2.785,0,0,1,5.6-4L7.776-.076V0H6.468Zm-2.171-1H4.164a2.112,2.112,0,0,0,1.444-.471,1.591,1.591,0,0,0,.536-1.259,1.676,1.676,0,0,0-.511-1.316,2.164,2.164,0,0,0-1.476-.464H2.292Zm11.776.463H10.062V-1h4.653V0H8.843V-9.242h5.808v1H10.062v2.977h4.005Zm5.307.533H17.2V0H15.978V-9.242h3.06a3.621,3.621,0,0,1,2.4.711,2.558,2.558,0,0,1,.841,2.069,2.488,2.488,0,0,1-.467,1.5,2.785,2.785,0,0,1-1.3.958L22.688-.076V0H21.38Zm-2.171-1h1.873a2.112,2.112,0,0,0,1.444-.471,1.591,1.591,0,0,0,.536-1.259,1.676,1.676,0,0,0-.511-1.316,2.164,2.164,0,0,0-1.476-.464H17.2Z" transform="translate(584.161 2843.359)" fill="#0d2a5f"/>
    <path id="Trazado_762139" data-name="Trazado 762139" d="M7.553-3.99A5.277,5.277,0,0,1,7.131-1.8a3.2,3.2,0,0,1-1.2,1.427,3.289,3.289,0,0,1-1.8.492,3.261,3.261,0,0,1-1.787-.5A3.272,3.272,0,0,1,1.134-1.79,5.064,5.064,0,0,1,.691-3.914v-.615A5.215,5.215,0,0,1,1.119-6.7a3.26,3.26,0,0,1,1.21-1.444,3.247,3.247,0,0,1,1.79-.5,3.307,3.307,0,0,1,1.808.5,3.19,3.19,0,0,1,1.2,1.436,5.3,5.3,0,0,1,.422,2.188ZM6.434-4.541A3.825,3.825,0,0,0,5.824-6.87a2.01,2.01,0,0,0-1.705-.812A1.988,1.988,0,0,0,2.44-6.87a3.747,3.747,0,0,0-.63,2.253v.627a3.831,3.831,0,0,0,.618,2.312,2,2,0,0,0,1.7.841,1.989,1.989,0,0,0,1.688-.794,3.809,3.809,0,0,0,.615-2.276Z" transform="translate(609.28 2842.359)" fill="#0d2a5f"/>
    <path id="Trazado_762155" data-name="Trazado 762155" d="M6.176-2.418H2.3L1.435,0H.178L3.707-9.242H4.773L8.309,0H7.059Zm-3.5-1H5.814L4.24-7.738Zm13.458,2.2A2.815,2.815,0,0,1,14.819-.206a5.3,5.3,0,0,1-1.958.333A3.8,3.8,0,0,1,10.855-.4,3.531,3.531,0,0,1,9.5-1.911a5.207,5.207,0,0,1-.492-2.266v-.806A4.861,4.861,0,0,1,9.982-8.22a3.4,3.4,0,0,1,2.739-1.149,3.507,3.507,0,0,1,2.33.74,3.222,3.222,0,0,1,1.079,2.1H14.911a2.015,2.015,0,0,0-2.184-1.841,2.157,2.157,0,0,0-1.857.861,4.2,4.2,0,0,0-.638,2.494v.756a3.939,3.939,0,0,0,.711,2.474,2.3,2.3,0,0,0,1.923.918,4.248,4.248,0,0,0,1.2-.152,1.855,1.855,0,0,0,.851-.513V-3.605H12.778v-1H16.13Z" transform="translate(1039.045 2843.359)" fill="#0d2a5f"/>
    <path id="Trazado_762156" data-name="Trazado 762156" d="M7.553-3.99A5.277,5.277,0,0,1,7.131-1.8a3.2,3.2,0,0,1-1.2,1.427,3.289,3.289,0,0,1-1.8.492,3.261,3.261,0,0,1-1.787-.5A3.272,3.272,0,0,1,1.134-1.79,5.064,5.064,0,0,1,.691-3.914v-.615A5.215,5.215,0,0,1,1.119-6.7a3.26,3.26,0,0,1,1.21-1.444,3.247,3.247,0,0,1,1.79-.5,3.307,3.307,0,0,1,1.808.5,3.19,3.19,0,0,1,1.2,1.436,5.3,5.3,0,0,1,.422,2.188ZM6.434-4.541A3.825,3.825,0,0,0,5.824-6.87a2.01,2.01,0,0,0-1.705-.812A1.988,1.988,0,0,0,2.44-6.87a3.747,3.747,0,0,0-.63,2.253v.627a3.831,3.831,0,0,0,.618,2.312,2,2,0,0,0,1.7.841,1.989,1.989,0,0,0,1.688-.794,3.809,3.809,0,0,0,.615-2.276Z" transform="translate(1057.708 2842.359)" fill="#0d2a5f"/>
    <path id="Trazado_762157" data-name="Trazado 762157" d="M3.8-4.12A5.731,5.731,0,0,1,1.514-5.227,2.116,2.116,0,0,1,.8-6.849a2.236,2.236,0,0,1,.873-1.806,3.469,3.469,0,0,1,2.269-.714A3.786,3.786,0,0,1,5.64-9,2.792,2.792,0,0,1,6.8-7.985,2.6,2.6,0,0,1,7.2-6.57H5.979a1.69,1.69,0,0,0-.533-1.322,2.168,2.168,0,0,0-1.5-.481,2.22,2.22,0,0,0-1.406.4,1.326,1.326,0,0,0-.5,1.1,1.193,1.193,0,0,0,.479.957A4.7,4.7,0,0,0,4.142-5.2a7.569,7.569,0,0,1,1.8.715,2.736,2.736,0,0,1,.965.911,2.325,2.325,0,0,1,.314,1.225,2.159,2.159,0,0,1-.876,1.8A3.735,3.735,0,0,1,4.005.127,4.344,4.344,0,0,1,2.228-.238a2.991,2.991,0,0,1-1.273-1A2.44,2.44,0,0,1,.508-2.679H1.733a1.592,1.592,0,0,0,.619,1.323A2.606,2.606,0,0,0,4.005-.87a2.4,2.4,0,0,0,1.479-.394A1.278,1.278,0,0,0,6-2.336a1.255,1.255,0,0,0-.476-1.051A5.489,5.489,0,0,0,3.8-4.12ZM14.924-8.246H11.953V0H10.741V-8.246H7.776v-1h7.147Z" transform="translate(1067.335 2843.359)" fill="#0d2a5f"/>
    <path id="Trazado_762158" data-name="Trazado 762158" d="M7.553-3.99A5.277,5.277,0,0,1,7.131-1.8a3.2,3.2,0,0,1-1.2,1.427,3.289,3.289,0,0,1-1.8.492,3.261,3.261,0,0,1-1.787-.5A3.272,3.272,0,0,1,1.134-1.79,5.064,5.064,0,0,1,.691-3.914v-.615A5.215,5.215,0,0,1,1.119-6.7a3.26,3.26,0,0,1,1.21-1.444,3.247,3.247,0,0,1,1.79-.5,3.307,3.307,0,0,1,1.808.5,3.19,3.19,0,0,1,1.2,1.436,5.3,5.3,0,0,1,.422,2.188ZM6.434-4.541A3.825,3.825,0,0,0,5.824-6.87a2.01,2.01,0,0,0-1.705-.812A1.988,1.988,0,0,0,2.44-6.87a3.747,3.747,0,0,0-.63,2.253v.627a3.831,3.831,0,0,0,.618,2.312,2,2,0,0,0,1.7.841,1.989,1.989,0,0,0,1.688-.794,3.809,3.809,0,0,0,.615-2.276Z" transform="translate(1083.937 2842.359)" fill="#0d2a5f"/>
    <path id="Trazado_762140" data-name="Trazado 762140" d="M4.945-9.242H6.17V-2.7a2.711,2.711,0,0,1-.8,2.076A2.974,2.974,0,0,1,3.25.127,3.056,3.056,0,0,1,1.1-.578,2.544,2.544,0,0,1,.336-2.552H1.555A1.694,1.694,0,0,0,1.99-1.314,1.685,1.685,0,0,0,3.25-.87a1.634,1.634,0,0,0,1.222-.476,1.844,1.844,0,0,0,.473-1.333Zm9.573,0v6.284A2.948,2.948,0,0,1,13.7-.819a3.312,3.312,0,0,1-2.212.933L11.16.127A3.459,3.459,0,0,1,8.742-.692a2.929,2.929,0,0,1-.914-2.253v-6.3H9.034v6.259a2.114,2.114,0,0,0,.552,1.558A2.123,2.123,0,0,0,11.16-.87a2.137,2.137,0,0,0,1.584-.552,2.11,2.11,0,0,0,.549-1.555V-9.242Z" transform="translate(971.773 2843.359)" fill="#0d2a5f"/>
    <path id="Trazado_762141" data-name="Trazado 762141" d="M2.3-1h4.38V0h-5.6V-9.242H2.3Z" transform="translate(988.519 2843.359)" fill="#0d2a5f"/>
    <path id="Trazado_762142" data-name="Trazado 762142" d="M1.648,0H.8V-6.4h.844Z" transform="translate(995.984 2840.359)" fill="#0d2a5f"/>
    <path id="Trazado_762159" data-name="Trazado 762159" d="M7.553-3.99A5.277,5.277,0,0,1,7.131-1.8a3.2,3.2,0,0,1-1.2,1.427,3.289,3.289,0,0,1-1.8.492,3.261,3.261,0,0,1-1.787-.5A3.272,3.272,0,0,1,1.134-1.79,5.064,5.064,0,0,1,.691-3.914v-.615A5.215,5.215,0,0,1,1.119-6.7a3.26,3.26,0,0,1,1.21-1.444,3.247,3.247,0,0,1,1.79-.5,3.307,3.307,0,0,1,1.808.5,3.19,3.19,0,0,1,1.2,1.436,5.3,5.3,0,0,1,.422,2.188ZM6.434-4.541A3.825,3.825,0,0,0,5.824-6.87a2.01,2.01,0,0,0-1.705-.812A1.988,1.988,0,0,0,2.44-6.87a3.747,3.747,0,0,0-.63,2.253v.627a3.831,3.831,0,0,0,.618,2.312,2,2,0,0,0,1.7.841,1.989,1.989,0,0,0,1.688-.794,3.809,3.809,0,0,0,.615-2.276Z" transform="translate(999.629 2842.359)" fill="#0d2a5f"/>
    <path id="Trazado_762143" data-name="Trazado 762143" d="M4.945-9.242H6.17V-2.7a2.711,2.711,0,0,1-.8,2.076A2.974,2.974,0,0,1,3.25.127,3.056,3.056,0,0,1,1.1-.578,2.544,2.544,0,0,1,.336-2.552H1.555A1.694,1.694,0,0,0,1.99-1.314,1.685,1.685,0,0,0,3.25-.87a1.634,1.634,0,0,0,1.222-.476,1.844,1.844,0,0,0,.473-1.333Zm9.573,0v6.284A2.948,2.948,0,0,1,13.7-.819a3.312,3.312,0,0,1-2.212.933L11.16.127A3.459,3.459,0,0,1,8.742-.692a2.929,2.929,0,0,1-.914-2.253v-6.3H9.034v6.259a2.114,2.114,0,0,0,.552,1.558A2.123,2.123,0,0,0,11.16-.87a2.137,2.137,0,0,0,1.584-.552,2.11,2.11,0,0,0,.549-1.555V-9.242ZM23.3,0H22.072L17.419-7.122V0H16.194V-9.242h1.225l4.666,7.154V-9.242H23.3Zm3.238,0H25.317V-9.242h1.219Z" transform="translate(890.477 2843.359)" fill="#0d2a5f"/>
    <path id="Trazado_762144" data-name="Trazado 762144" d="M7.553-3.99A5.277,5.277,0,0,1,7.131-1.8a3.2,3.2,0,0,1-1.2,1.427,3.289,3.289,0,0,1-1.8.492,3.261,3.261,0,0,1-1.787-.5A3.272,3.272,0,0,1,1.134-1.79,5.064,5.064,0,0,1,.691-3.914v-.615A5.215,5.215,0,0,1,1.119-6.7a3.26,3.26,0,0,1,1.21-1.444,3.247,3.247,0,0,1,1.79-.5,3.307,3.307,0,0,1,1.808.5,3.19,3.19,0,0,1,1.2,1.436,5.3,5.3,0,0,1,.422,2.188ZM6.434-4.541A3.825,3.825,0,0,0,5.824-6.87a2.01,2.01,0,0,0-1.705-.812A1.988,1.988,0,0,0,2.44-6.87a3.747,3.747,0,0,0-.63,2.253v.627a3.831,3.831,0,0,0,.618,2.312,2,2,0,0,0,1.7.841,1.989,1.989,0,0,0,1.688-.794,3.809,3.809,0,0,0,.615-2.276Z" transform="translate(920.871 2842.359)" fill="#0d2a5f"/>
    <path id="Trazado_762145" data-name="Trazado 762145" d="M2.647-9.242,5.668-1.7,8.69-9.242h1.581V0H9.052V-3.6l.114-3.885L6.132,0H5.2L2.171-7.465,2.292-3.6V0H1.073V-9.242Z" transform="translate(813.001 2843.359)" fill="#0d2a5f"/>
    <path id="Trazado_762146" data-name="Trazado 762146" d="M6.176-2.418H2.3L1.435,0H.178L3.707-9.242H4.773L8.309,0H7.059Zm-3.5-1H5.814L4.24-7.738Z" transform="translate(825.309 2843.359)" fill="#0d2a5f"/>
    <path id="Trazado_762147" data-name="Trazado 762147" d="M3.592-4.248,5.818-8.531H7.1L4.154-3.182V0H3.029V-3.182L.088-8.531H1.377Z" transform="translate(833.364 2842.359)" fill="#0d2a5f"/>
    <path id="Trazado_762148" data-name="Trazado 762148" d="M7.553-3.99A5.277,5.277,0,0,1,7.131-1.8a3.2,3.2,0,0,1-1.2,1.427,3.289,3.289,0,0,1-1.8.492,3.261,3.261,0,0,1-1.787-.5A3.272,3.272,0,0,1,1.134-1.79,5.064,5.064,0,0,1,.691-3.914v-.615A5.215,5.215,0,0,1,1.119-6.7a3.26,3.26,0,0,1,1.21-1.444,3.247,3.247,0,0,1,1.79-.5,3.307,3.307,0,0,1,1.808.5,3.19,3.19,0,0,1,1.2,1.436,5.3,5.3,0,0,1,.422,2.188ZM6.434-4.541A3.825,3.825,0,0,0,5.824-6.87a2.01,2.01,0,0,0-1.705-.812A1.988,1.988,0,0,0,2.44-6.87a3.747,3.747,0,0,0-.63,2.253v.627a3.831,3.831,0,0,0,.618,2.312,2,2,0,0,0,1.7.841,1.989,1.989,0,0,0,1.688-.794,3.809,3.809,0,0,0,.615-2.276Z" transform="translate(841.752 2842.359)" fill="#0d2a5f"/>
    <path id="Trazado_762149" data-name="Trazado 762149" d="M6.176-2.418H2.3L1.435,0H.178L3.707-9.242H4.773L8.309,0H7.059Zm-3.5-1H5.814L4.24-7.738ZM9.306,0V-9.242h3.021a3.507,3.507,0,0,1,2.263.622,2.242,2.242,0,0,1,.759,1.841,1.877,1.877,0,0,1-.368,1.146,2.387,2.387,0,0,1-1,.771,2.143,2.143,0,0,1,1.184.8,2.286,2.286,0,0,1,.435,1.4,2.472,2.472,0,0,1-.806,1.955A3.334,3.334,0,0,1,12.512,0Zm1.219-4.323V-1h2.012a1.938,1.938,0,0,0,1.343-.441,1.549,1.549,0,0,0,.492-1.216q0-1.669-1.815-1.669Zm0-.978h1.841a1.93,1.93,0,0,0,1.279-.4,1.344,1.344,0,0,0,.479-1.088A1.321,1.321,0,0,0,13.68-7.9a2.182,2.182,0,0,0-1.352-.347h-1.8ZM20.542-3.739H18.371V0H17.146V-9.242h3.06a3.621,3.621,0,0,1,2.4.711,2.558,2.558,0,0,1,.841,2.069,2.488,2.488,0,0,1-.467,1.5,2.785,2.785,0,0,1-1.3.958L23.856-.076V0H22.548Zm-2.171-1h1.873a2.112,2.112,0,0,0,1.444-.471,1.591,1.591,0,0,0,.536-1.259,1.676,1.676,0,0,0-.511-1.316,2.164,2.164,0,0,0-1.476-.464H18.371ZM26.23,0H25.012V-9.242H26.23Z" transform="translate(739.301 2843.359)" fill="#0d2a5f"/>
    <path id="Trazado_762150" data-name="Trazado 762150" d="M2.3-1h4.38V0h-5.6V-9.242H2.3Z" transform="translate(769.371 2843.359)" fill="#0d2a5f"/>
    <path id="Trazado_762151" data-name="Trazado 762151" d="M2.647-9.242,5.668-1.7,8.69-9.242h1.581V0H9.052V-3.6l.114-3.885L6.132,0H5.2L2.171-7.465,2.292-3.6V0H1.073V-9.242Z" transform="translate(652.414 2843.359)" fill="#0d2a5f"/>
    <path id="Trazado_762152" data-name="Trazado 762152" d="M5.7-2.232H2.127L1.324,0H.164L3.422-8.531h.984L7.67,0H6.516Zm-3.234-.92h2.9L3.914-7.143Zm9.252-.3h-2V0H8.584V-8.531h2.824a3.343,3.343,0,0,1,2.218.656,2.361,2.361,0,0,1,.776,1.91,2.3,2.3,0,0,1-.431,1.389,2.571,2.571,0,0,1-1.2.885l2,3.621V0H13.571Zm-2-.92h1.729a1.95,1.95,0,0,0,1.333-.434,1.469,1.469,0,0,0,.5-1.162A1.547,1.547,0,0,0,12.8-7.183a2,2,0,0,0-1.362-.429H9.715Z" transform="translate(664.707 2842.359)" fill="#0d2a5f"/>
    <path id="Trazado_762153" data-name="Trazado 762153" d="M1.834-.92H6.715V0H.5V-.844L5.18-7.611H.58v-.92H6.527v.821Z" transform="translate(682.433 2842.359)" fill="#0d2a5f"/>
    <path id="Trazado_762154" data-name="Trazado 762154" d="M7.553-3.99A5.277,5.277,0,0,1,7.131-1.8a3.2,3.2,0,0,1-1.2,1.427,3.289,3.289,0,0,1-1.8.492,3.261,3.261,0,0,1-1.787-.5A3.272,3.272,0,0,1,1.134-1.79,5.064,5.064,0,0,1,.691-3.914v-.615A5.215,5.215,0,0,1,1.119-6.7a3.26,3.26,0,0,1,1.21-1.444,3.247,3.247,0,0,1,1.79-.5,3.307,3.307,0,0,1,1.808.5,3.19,3.19,0,0,1,1.2,1.436,5.3,5.3,0,0,1,.422,2.188ZM6.434-4.541A3.825,3.825,0,0,0,5.824-6.87a2.01,2.01,0,0,0-1.705-.812A1.988,1.988,0,0,0,2.44-6.87a3.747,3.747,0,0,0-.63,2.253v.627a3.831,3.831,0,0,0,.618,2.312,2,2,0,0,0,1.7.841,1.989,1.989,0,0,0,1.688-.794,3.809,3.809,0,0,0,.615-2.276Z" transform="translate(690.777 2842.359)" fill="#0d2a5f"/>
    <g id="Grupo_1020857" data-name="Grupo 1020857" transform="translate(390 2562.605)" clip-path="url(#clip-path)">
      <text id="BILLONES_DE_PESO" data-name="BILLONES DE PESO" transform="translate(14.554 234.508) rotate(-90)" fill="#0b2b61" font-size="17" font-family="Roboto-Regular, Roboto"><tspan x="0" y="0" letter-spacing="-0.019em">B</tspan><tspan y="0" letter-spacing="-0.018em">I</tspan><tspan y="0" letter-spacing="-0.019em">LL</tspan><tspan y="0" letter-spacing="-0.018em">ON</tspan><tspan y="0" letter-spacing="-0.019em">ES</tspan><tspan y="0" xml:space="preserve" letter-spacing="-0.018em"> D</tspan><tspan y="0" letter-spacing="-0.019em">E </tspan><tspan y="0" letter-spacing="-0.018em">P</tspan><tspan y="0" letter-spacing="-0.019em">ES</tspan><tspan y="0">O</tspan></text>
      <text id="S" transform="translate(14.554 75.22) rotate(-90)" fill="#0b2b61" font-size="17" font-family="Roboto-Regular, Roboto"><tspan x="0" y="0">S</tspan></text>
    </g>
    <path id="Trazado_762160" data-name="Trazado 762160" d="M10.5,0H1.182V-1.3L6.1-6.768A11.693,11.693,0,0,0,7.612-8.784a3.366,3.366,0,0,0,.415-1.606,2.551,2.551,0,0,0-.674-1.826,2.356,2.356,0,0,0-1.8-.713,2.79,2.79,0,0,0-2.095.767,2.928,2.928,0,0,0-.747,2.134H.908A4.194,4.194,0,0,1,2.173-13.2a4.688,4.688,0,0,1,3.384-1.211,4.5,4.5,0,0,1,3.135,1.04,3.548,3.548,0,0,1,1.152,2.769q0,2.1-2.676,5L3.359-1.475H10.5Zm10.43-6.064a8.263,8.263,0,0,1-1.084,4.717A3.855,3.855,0,0,1,16.455.2a3.883,3.883,0,0,1-3.369-1.509A7.843,7.843,0,0,1,11.954-5.82V-8.232a8.079,8.079,0,0,1,1.084-4.658,3.885,3.885,0,0,1,3.4-1.523,3.92,3.92,0,0,1,3.379,1.47,7.8,7.8,0,0,1,1.113,4.536ZM19.121-8.535a6.62,6.62,0,0,0-.645-3.345,2.218,2.218,0,0,0-2.041-1.05,2.189,2.189,0,0,0-2.021,1.045,6.464,6.464,0,0,0-.654,3.213v2.891a6.726,6.726,0,0,0,.669,3.4,2.214,2.214,0,0,0,2.026,1.1,2.184,2.184,0,0,0,1.987-1.035,6.483,6.483,0,0,0,.679-3.262Z" transform="translate(682.646 2916.944)" fill="#040504"/>
    <path id="Trazado_762161" data-name="Trazado 762161" d="M7.475,0H5.568V-12.643l-3.825,1.4v-1.723L7.178-15h.3Z" transform="translate(706.848 2917.944)" fill="#040504"/>
    <path id="Trazado_762162" data-name="Trazado 762162" d="M8.511-6.562a4.641,4.641,0,0,1-1.42,1.138,3.853,3.853,0,0,1-1.81.431A3.978,3.978,0,0,1,3.03-5.629,4.133,4.133,0,0,1,1.548-7.419a6.1,6.1,0,0,1-.523-2.548,6.215,6.215,0,0,1,.569-2.7A4.18,4.18,0,0,1,3.209-14.5a4.605,4.605,0,0,1,2.44-.636,4.169,4.169,0,0,1,3.491,1.656,7.223,7.223,0,0,1,1.277,4.517v.554q0,4.358-1.723,6.363A6.618,6.618,0,0,1,3.5.01H3.127V-1.6h.4A5.223,5.223,0,0,0,7.137-2.822,5.247,5.247,0,0,0,8.511-6.562Zm-2.922,0a2.929,2.929,0,0,0,1.759-.584A3.445,3.445,0,0,0,8.521-8.593v-.759a5.22,5.22,0,0,0-.81-3.035A2.417,2.417,0,0,0,5.66-13.556a2.436,2.436,0,0,0-2.01.959,3.955,3.955,0,0,0-.759,2.528,4.116,4.116,0,0,0,.733,2.517A2.321,2.321,0,0,0,5.588-6.562Z" transform="translate(718.965 2917.944)" fill="#040504"/>
    <path id="Trazado_762163" data-name="Trazado 762163" d="M11.023,0H1.241V-1.364L6.409-7.106A12.278,12.278,0,0,0,7.993-9.223a3.534,3.534,0,0,0,.436-1.687,2.679,2.679,0,0,0-.708-1.917,2.474,2.474,0,0,0-1.887-.749,2.93,2.93,0,0,0-2.2.8,3.075,3.075,0,0,0-.784,2.24H.954a4.4,4.4,0,0,1,1.328-3.333,4.923,4.923,0,0,1,3.553-1.271,4.73,4.73,0,0,1,3.292,1.092,3.725,3.725,0,0,1,1.21,2.907q0,2.2-2.81,5.25l-4,4.337h7.5ZM21.975-6.368a8.676,8.676,0,0,1-1.138,4.953A4.048,4.048,0,0,1,17.278.205a4.077,4.077,0,0,1-3.538-1.584,8.235,8.235,0,0,1-1.189-4.732V-8.644a8.483,8.483,0,0,1,1.138-4.891,4.079,4.079,0,0,1,3.568-1.6,4.116,4.116,0,0,1,3.548,1.543,8.186,8.186,0,0,1,1.169,4.763Zm-1.9-2.594a6.951,6.951,0,0,0-.677-3.512,2.329,2.329,0,0,0-2.143-1.1,2.3,2.3,0,0,0-2.123,1.1,6.787,6.787,0,0,0-.687,3.374V-6.07a7.062,7.062,0,0,0,.7,3.573,2.325,2.325,0,0,0,2.128,1.154A2.293,2.293,0,0,0,19.365-2.43a6.807,6.807,0,0,0,.713-3.425ZM33.788,0H24.006V-1.364l5.168-5.742a12.278,12.278,0,0,0,1.584-2.117,3.534,3.534,0,0,0,.436-1.687,2.679,2.679,0,0,0-.708-1.917,2.474,2.474,0,0,0-1.887-.749,2.93,2.93,0,0,0-2.2.8,3.075,3.075,0,0,0-.784,2.24h-1.9a4.4,4.4,0,0,1,1.328-3.333A4.923,4.923,0,0,1,28.6-15.135a4.73,4.73,0,0,1,3.292,1.092,3.725,3.725,0,0,1,1.21,2.907q0,2.2-2.81,5.25l-4,4.337h7.5Z" transform="translate(820.28 2917.944)" fill="#040504"/>
    <path id="Trazado_762164" data-name="Trazado 762164" d="M10.6-6.368A8.676,8.676,0,0,1,9.464-1.415,4.048,4.048,0,0,1,5.906.205,4.077,4.077,0,0,1,2.369-1.379,8.235,8.235,0,0,1,1.179-6.111V-8.644a8.483,8.483,0,0,1,1.138-4.891,4.079,4.079,0,0,1,3.568-1.6,4.116,4.116,0,0,1,3.548,1.543A8.186,8.186,0,0,1,10.6-8.829Zm-1.9-2.594a6.951,6.951,0,0,0-.677-3.512,2.329,2.329,0,0,0-2.143-1.1,2.3,2.3,0,0,0-2.123,1.1,6.787,6.787,0,0,0-.687,3.374V-6.07a7.062,7.062,0,0,0,.7,3.573A2.325,2.325,0,0,0,5.906-1.343,2.293,2.293,0,0,0,7.993-2.43a6.807,6.807,0,0,0,.713-3.425Z" transform="translate(856.576 2917.944)" fill="#040504"/>
    <path id="Trazado_762091" data-name="Trazado 762091" d="M28.282,0H0" transform="translate(641.777 2909.568)" fill="none" stroke="#9bc125" stroke-linecap="round" stroke-width="3"/>
    <path id="Trazado_762092" data-name="Trazado 762092" d="M28.282,0H0" transform="translate(784.989 2909.568)" fill="none" stroke="#007cc4" stroke-linecap="round" stroke-width="3"/>
    <path id="Trazado_755407" data-name="Trazado 755407" d="M81.389,95.7l79.26,4.881L239.006,82.1,316.8,93.1l79.116-14.373,77.452,4.8,78.744-10.65,75.258,7.452" transform="translate(438.937 2606.421)" fill="none" stroke="#9bc125" stroke-linecap="round" stroke-linejoin="round" stroke-width="2"/>
    <path id="Trazado_755408" data-name="Trazado 755408" d="M82.389,89.515l77.659.894,77.825,21.412,78.323-2.053,78.716-27.689,77.852-18.016,77.281-32.925L627.39,69.166" transform="translate(439.539 2581.327)" fill="none" stroke="#007cc4" stroke-linecap="round" stroke-linejoin="round" stroke-width="2"/>
    <path id="Trazado_762093" data-name="Trazado 762093" d="M0,0H715V457.476H0Z" transform="translate(390 2562.605)" fill="none"/>
  </g>
</svg>
