<svg xmlns="http://www.w3.org/2000/svg" width="173.841" height="173.841" viewBox="0 0 173.841 173.841">
  <g id="Grupo_1022487" data-name="Grupo 1022487" transform="translate(-450.609 -7061.191)">
    <g id="Grupo_1020700" data-name="Grupo 1020700" transform="translate(52.332 3904.86)">
      <circle id="Elipse_8508" data-name="Elipse 8508" cx="86.921" cy="86.921" r="86.921" transform="translate(398.277 3156.331)" fill="#fff"/>
      <g id="receiver" transform="translate(428.794 3193.293)">
        <path id="Trazado_749725" data-name="Trazado 749725" d="M314,44.246l1.417,1.975-2.269,1.629-1.418-1.975Zm0,0" transform="translate(-235.947 -33.54)"/>
        <path id="Trazado_749726" data-name="Trazado 749726" d="M108.348,252.767a7.682,7.682,0,0,0-7.116-.83l-.052.021-1.024.489a8.411,8.411,0,0,0-10.212-2.31l-.508.246a6.9,6.9,0,0,0-8.984-2.766L69.124,253.1a7.62,7.62,0,0,0-2.838-.546H42.614l-1.441.012a30.56,30.56,0,0,0-22.8,10.485H13.524V259.6H0v2.431H11.093v22.4H0v2.431H13.524V283.3H20l42.961,2.581q.285.017.57.017a9.588,9.588,0,0,0,4.149-.944l39.152-18.7a7.685,7.685,0,0,0,1.517-13.484Zm-18.935.87,1.8-.872a5.508,5.508,0,0,1,6.208.991L74.008,264.95H72.3a7.617,7.617,0,0,0,1.59-3.795Zm-7.69-3.395a3.975,3.975,0,0,1,5.074,1.419L73.63,258.036A7.652,7.652,0,0,0,71.893,255Zm25.651,12.236a4.74,4.74,0,0,1-1.651,1.073l-.052.02L66.419,282.321a6.666,6.666,0,0,1-3.284.645l-43-2.584-6.606,0V265.965h6.208l.438-.524A27.65,27.65,0,0,1,41.2,255.48l1.427-.012h23.66a4.741,4.741,0,0,1,.016,9.482H48.348l-7.071,2.319.909,2.772,6.628-2.174H74.67l27.664-13.228a4.769,4.769,0,0,1,5.04,7.839Zm0,0" transform="translate(0 -186.945)"/>
        <path id="Trazado_749727" data-name="Trazado 749727" d="M29.406,317.594h2.431v2.647H29.406Zm0,0" transform="translate(-22.258 -240.436)"/>
        <path id="Trazado_749728" data-name="Trazado 749728" d="M29.406,336.316h2.431v13.815H29.406Zm0,0" transform="translate(-22.258 -254.606)"/>
        <path id="Trazado_749729" data-name="Trazado 749729" d="M226.5,187.23v12.624l-2.566-2.567-1.719,1.72,5.5,5.5,5.53-5.53-1.719-1.719-2.6,2.6V187.23Zm0,0" transform="translate(-168.193 -141.764)"/>
        <path id="Trazado_749730" data-name="Trazado 749730" d="M124.21,49.574l-2.58-2.581-1.719,1.72,5.5,5.5,5.53-5.53-1.719-1.719-2.581,2.58V43.608h18.121v5.966l-2.581-2.581-1.718,1.72,5.5,5.5,5.53-5.53-1.719-1.719-2.581,2.581V43.608h23.563V.208H100.648v43.4H124.21Zm-18.812-8.4L127.033,24.3l-1.5-1.916L103.079,39.9V3.792l29.1,20.881a6.044,6.044,0,0,0,7.051,0l11.965-8.587-1.418-1.975L137.811,22.7a3.613,3.613,0,0,1-4.216,0L105.642,2.639h60.119L156.311,9.42l1.418,1.975,10.6-7.6V39.9l-22.46-17.513L144.372,24.3l21.635,16.872H147.193V37.713h-2.431v3.464H126.641V37.713H124.21v3.464Zm0,0" transform="translate(-76.18 -0.208)"/>
        <path id="Trazado_749731" data-name="Trazado 749731" d="M239.84,149.48h2.431v3.525H239.84Zm0,0" transform="translate(-181.533 -113.191)"/>
        <path id="Trazado_749732" data-name="Trazado 749732" d="M197.57,131.055H200v3.525H197.57Zm0,0" transform="translate(-149.54 -99.245)"/>
        <path id="Trazado_749733" data-name="Trazado 749733" d="M282.109,131.055h2.431v3.525h-2.431Zm0,0" transform="translate(-213.527 -99.245)"/>
      </g>
    </g>
  </g>
</svg>
