<svg xmlns="http://www.w3.org/2000/svg" width="400" height="525.289" viewBox="0 0 400 525.289">
  <g id="Grupo_1022497" data-name="Grupo 1022497" transform="translate(-810 -1658.867)">
    <g id="Layer_7" data-name="Layer 7" transform="translate(810 1658.867)">
      <g id="Grupo_1022380" data-name="Grupo 1022380" transform="translate(0)">
        <g id="Grupo_1022379" data-name="Grupo 1022379">
          <g id="Grupo_1022378" data-name="Grupo 1022378">
            <path id="Trazado_750510" data-name="Trazado 750510" d="M0,478.612c0,6.779,7.4,12.27,16.514,12.27H231.223V0H16.514C7.4,0,0,5.492,0,12.27V478.607Z" fill="#a7d3ff"/>
            <path id="Trazado_750511" data-name="Trazado 750511" d="M428.7,528.282c0,6.779-10.728,12.27-23.948,12.27H93.39V49.67H404.751c13.23,0,23.948,5.492,23.948,12.27V528.277Z" transform="translate(-28.699 -15.264)" fill="#f6f6f6"/>
          </g>
          <path id="Trazado_750512" data-name="Trazado 750512" d="M213.289,173.53H93.39V276.3H213.3a49.991,49.991,0,0,0,49.992-49.992v-2.778A49.991,49.991,0,0,0,213.3,173.537Z" transform="translate(-28.699 -68.134)" fill="#0082fe"/>
        </g>
        <path id="Trazado_750513" data-name="Trazado 750513" d="M93.39,34.406,259.929,0V34.406Z" transform="translate(-28.699)" fill="#0082fe"/>
      </g>
    </g>
    <text id="Far_far_away_behind" data-name="Far far away, behind" transform="translate(918 1770.81)" fill="#12263f" font-size="72" font-family="Roboto-Black, Roboto" font-weight="800"><tspan x="-20.848" y="68">2</tspan></text>
  </g>
</svg>
