<svg xmlns="http://www.w3.org/2000/svg" width="400.096" height="587" viewBox="0 0 400.096 587">
  <g id="Grupo_1022496" data-name="Grupo 1022496" transform="translate(-599.904 -8857.184)">
    <g id="Layer_7" data-name="Layer 7" transform="translate(599.904 8857.184)">
      <g id="Grupo_1022380" data-name="Grupo 1022380">
        <g id="Grupo_1022379" data-name="Grupo 1022379">
          <g id="Grupo_1022378" data-name="Grupo 1022378">
            <path id="Trazado_750510" data-name="Trazado 750510" d="M0,538.781c0,7.631,7.4,13.813,16.514,13.813H231.223V0H16.514C7.4,0,0,6.182,0,13.813V538.775Z" fill="#f8cdb5"/>
            <path id="Trazado_750511" data-name="Trazado 750511" d="M428.795,588.451c0,7.631-10.731,13.813-23.955,13.813H93.39V49.67H404.84c13.233,0,23.955,6.182,23.955,13.813V588.445Z" transform="translate(-28.699 -15.264)" fill="#f6f6f6"/>
          </g>
          <path id="Trazado_750512" data-name="Trazado 750512" d="M213.289,173.53H93.39V276.3H213.3a49.991,49.991,0,0,0,49.992-49.992v-2.778A49.991,49.991,0,0,0,213.3,173.537Z" transform="translate(-28.699 -76.555)" fill="#eb6f2d"/>
        </g>
        <path id="Trazado_750513" data-name="Trazado 750513" d="M93.39,34.406,259.929,0V34.406Z" transform="translate(-28.699)" fill="#eb6f2d"/>
      </g>
    </g>
    <path id="Far_far_away_behind" data-name="Far far away, behind" d="M54,68H18.281V60.266l16.453-17.3q6.082-6.926,6.082-11a7.654,7.654,0,0,0-1.441-5.027,5.146,5.146,0,0,0-4.184-1.723,5.211,5.211,0,0,0-4.395,2.3,9.464,9.464,0,0,0-1.687,5.748H17.227a16.81,16.81,0,0,1,2.355-8.7,16.518,16.518,0,0,1,6.539-6.24,19.424,19.424,0,0,1,9.352-2.25q8.3,0,12.779,3.832t4.482,11A15.979,15.979,0,0,1,51.609,36.8a25.825,25.825,0,0,1-3.5,6.012,88.116,88.116,0,0,1-7.646,8.42l-6.609,7.629H54Z" transform="translate(707.904 8961.678)" fill="#fff"/>
  </g>
</svg>
