<svg xmlns="http://www.w3.org/2000/svg" width="399.182" height="586.139" viewBox="0 0 399.182 586.139">
  <g id="Grupo_1022497" data-name="Grupo 1022497" transform="translate(-1020.818 -8857.184)">
    <g id="Layer_7" data-name="Layer 7" transform="translate(1020.818 8857.184)">
      <g id="Grupo_1022377" data-name="Grupo 1022377">
        <g id="Grupo_1022376" data-name="Grupo 1022376">
          <g id="Grupo_1022375" data-name="Grupo 1022375">
            <path id="Trazado_750506" data-name="Trazado 750506" d="M0,538.137c0,7.622,7.355,13.8,16.417,13.8H229.869V0H16.417C7.355,0,0,6.175,0,13.8V538.131Z" fill="#fce9df"/>
            <path id="Trazado_750507" data-name="Trazado 750507" d="M428.259,587.807c0,7.622-10.714,13.8-23.916,13.8H93.39V49.67H404.343c13.212,0,23.916,6.175,23.916,13.8V587.8Z" transform="translate(-29.078 -15.465)" fill="#f6f6f6"/>
          </g>
          <path id="Trazado_750508" data-name="Trazado 750508" d="M212.587,173.53H93.39V275.7h119.2a49.7,49.7,0,0,0,49.7-49.7v-2.761a49.7,49.7,0,0,0-49.7-49.7Z" transform="translate(-29.078 -76.467)" fill="#8d421b"/>
        </g>
        <path id="Trazado_750509" data-name="Trazado 750509" d="M93.39,34.2,258.954,0V34.2Z" transform="translate(-29.078)" fill="#8d421b"/>
      </g>
    </g>
    <path id="Far_far_away_behind" data-name="Far far away, behind" d="M29.109,37.449H34.7q6.645,0,6.645-6.5a5.624,5.624,0,0,0-1.582-4.131,6,6,0,0,0-4.465-1.6,6.422,6.422,0,0,0-4.1,1.371A4.183,4.183,0,0,0,29.461,30H17.613a12.128,12.128,0,0,1,2.25-7.207A14.859,14.859,0,0,1,26.1,17.85a21.335,21.335,0,0,1,8.771-1.775q8.543,0,13.43,3.9A12.973,12.973,0,0,1,53.191,30.7a10.812,10.812,0,0,1-2.021,6.24A14.408,14.408,0,0,1,45.281,41.7a13.762,13.762,0,0,1,6.4,4.482A11.8,11.8,0,0,1,54,53.621,13.208,13.208,0,0,1,48.727,64.59Q43.453,68.7,34.875,68.7a22.7,22.7,0,0,1-9.334-1.916,14.624,14.624,0,0,1-6.521-5.309A13.8,13.8,0,0,1,16.8,53.762H28.723a5.334,5.334,0,0,0,1.9,4.078A6.7,6.7,0,0,0,35.3,59.563a7.02,7.02,0,0,0,4.992-1.74,5.816,5.816,0,0,0,1.863-4.447q0-3.867-1.934-5.484a8.083,8.083,0,0,0-5.344-1.617H29.109Z" transform="translate(1125.818 8961.663)" fill="#fff"/>
  </g>
</svg>
