<svg xmlns="http://www.w3.org/2000/svg" width="605.756" height="386.447" viewBox="0 0 605.756 386.447">
  <g id="Grupo_1022500" data-name="Grupo 1022500" transform="translate(-499.244 -18000.02)">
    <path id="Trazado_762181" data-name="Trazado 762181" d="M12.276,13.99V19H9.346V4.781h5.547a6.417,6.417,0,0,1,2.817.586,4.318,4.318,0,0,1,1.87,1.665,4.643,4.643,0,0,1,.654,2.456,4.083,4.083,0,0,1-1.431,3.3,5.959,5.959,0,0,1-3.96,1.206Zm0-2.373h2.617a2.573,2.573,0,0,0,1.772-.547,1.989,1.989,0,0,0,.61-1.562,2.345,2.345,0,0,0-.615-1.689,2.3,2.3,0,0,0-1.7-.664H12.276ZM28,11.08A7.667,7.667,0,0,0,26.983,11a2.067,2.067,0,0,0-2.1,1.084V19H22.061V8.434h2.666l.078,1.26a2.615,2.615,0,0,1,2.354-1.455,2.957,2.957,0,0,1,.879.127ZM34.034,19.2A5.187,5.187,0,0,1,30.25,17.77a5.068,5.068,0,0,1-1.46-3.8V13.7a6.383,6.383,0,0,1,.615-2.847,4.515,4.515,0,0,1,1.743-1.934,4.893,4.893,0,0,1,2.573-.679,4.385,4.385,0,0,1,3.413,1.367,5.555,5.555,0,0,1,1.245,3.877v1.152H31.651a2.622,2.622,0,0,0,.825,1.66,2.5,2.5,0,0,0,1.743.625,3.046,3.046,0,0,0,2.549-1.182l1.387,1.553a4.237,4.237,0,0,1-1.719,1.4A5.639,5.639,0,0,1,34.034,19.2Zm-.322-8.682a1.764,1.764,0,0,0-1.362.569,2.946,2.946,0,0,0-.669,1.628h3.926v-.226a2.1,2.1,0,0,0-.508-1.457A1.819,1.819,0,0,0,33.712,10.514ZM44.376,16.92a1.851,1.851,0,0,0,1.27-.43,1.506,1.506,0,0,0,.508-1.143H48.8a3.62,3.62,0,0,1-.586,1.968A3.866,3.866,0,0,1,46.636,18.7a4.936,4.936,0,0,1-2.212.493,4.587,4.587,0,0,1-3.574-1.44,5.7,5.7,0,0,1-1.309-3.979V13.59a5.635,5.635,0,0,1,1.3-3.9A4.534,4.534,0,0,1,44.4,8.238a4.444,4.444,0,0,1,3.179,1.128,3.994,3.994,0,0,1,1.216,3H46.153a1.939,1.939,0,0,0-.508-1.34,1.887,1.887,0,0,0-2.778.2,4.166,4.166,0,0,0-.5,2.333v.293a4.219,4.219,0,0,0,.5,2.347A1.721,1.721,0,0,0,44.376,16.92ZM53.389,19H50.557V8.434h2.832Zm-3-13.3a1.39,1.39,0,0,1,.425-1.045,1.831,1.831,0,0,1,2.31,0,1.382,1.382,0,0,1,.43,1.045,1.386,1.386,0,0,1-.435,1.055,1.81,1.81,0,0,1-2.295,0A1.386,1.386,0,0,1,50.391,5.7Zm4.883,7.92a6.267,6.267,0,0,1,.605-2.8,4.432,4.432,0,0,1,1.743-1.9,5.086,5.086,0,0,1,2.642-.674,4.812,4.812,0,0,1,3.491,1.309A5.252,5.252,0,0,1,65.264,13.1l.02.723a5.523,5.523,0,0,1-1.357,3.9,5.261,5.261,0,0,1-7.29,0,5.62,5.62,0,0,1-1.362-3.984Zm2.822.2a3.95,3.95,0,0,0,.566,2.3,2.035,2.035,0,0,0,3.223.01,4.322,4.322,0,0,0,.576-2.518,3.91,3.91,0,0,0-.576-2.289,1.873,1.873,0,0,0-1.621-.812,1.842,1.842,0,0,0-1.6.807A4.395,4.395,0,0,0,58.1,13.819Z" transform="translate(495 18236.738) rotate(-90)" fill="#12263f"/>
    <path id="Trazado_762182" data-name="Trazado 762182" d="M73.122,12.213a8.584,8.584,0,0,1-.742,3.682,5.589,5.589,0,0,1-2.124,2.441,6.276,6.276,0,0,1-6.323.01,5.644,5.644,0,0,1-2.148-2.427,8.338,8.338,0,0,1-.771-3.628v-.7a8.538,8.538,0,0,1,.757-3.7A5.635,5.635,0,0,1,63.908,5.44a6.267,6.267,0,0,1,6.318,0,5.635,5.635,0,0,1,2.139,2.451,8.514,8.514,0,0,1,.757,3.687Zm-2.969-.645a5.984,5.984,0,0,0-.8-3.4,2.829,2.829,0,0,0-4.561-.015,5.915,5.915,0,0,0-.811,3.364v.693a6.058,6.058,0,0,0,.8,3.379,2.8,2.8,0,0,0,4.57.044,6.023,6.023,0,0,0,.8-3.374ZM79.46,16.92a1.851,1.851,0,0,0,1.27-.43,1.506,1.506,0,0,0,.508-1.143h2.646a3.62,3.62,0,0,1-.586,1.968A3.866,3.866,0,0,1,81.721,18.7a4.936,4.936,0,0,1-2.212.493,4.587,4.587,0,0,1-3.574-1.44,5.7,5.7,0,0,1-1.309-3.979V13.59a5.635,5.635,0,0,1,1.3-3.9,4.534,4.534,0,0,1,3.564-1.455,4.444,4.444,0,0,1,3.179,1.128,3.994,3.994,0,0,1,1.216,3H81.237a1.939,1.939,0,0,0-.508-1.34,1.887,1.887,0,0,0-2.778.2,4.166,4.166,0,0,0-.5,2.333v.293a4.219,4.219,0,0,0,.5,2.347A1.721,1.721,0,0,0,79.46,16.92Zm12.363,1.006a3.539,3.539,0,0,1-2.891,1.27,3.338,3.338,0,0,1-2.593-.977,4.169,4.169,0,0,1-.913-2.861V8.434h2.822v6.834q0,1.652,1.5,1.652a2.038,2.038,0,0,0,1.973-1V8.434h2.832V19H91.9ZM106.2,13.814a6.337,6.337,0,0,1-1.108,3.911A3.554,3.554,0,0,1,102.1,19.2a3.292,3.292,0,0,1-2.588-1.113v4.98H96.687V8.434H99.3l.1,1.035a3.317,3.317,0,0,1,2.676-1.23,3.578,3.578,0,0,1,3.037,1.445,6.509,6.509,0,0,1,1.084,3.984Zm-2.822-.205a4.159,4.159,0,0,0-.522-2.275,1.7,1.7,0,0,0-1.519-.8,1.848,1.848,0,0,0-1.826,1.016v4.326a1.879,1.879,0,0,0,1.846,1.045Q103.376,16.92,103.376,13.609ZM114.069,19a3.134,3.134,0,0,1-.283-.947A3.415,3.415,0,0,1,111.12,19.2a3.752,3.752,0,0,1-2.573-.9,2.89,2.89,0,0,1-1.021-2.266,2.986,2.986,0,0,1,1.245-2.578,6.144,6.144,0,0,1,3.6-.908h1.3v-.605a1.741,1.741,0,0,0-.376-1.172,1.479,1.479,0,0,0-1.187-.439,1.682,1.682,0,0,0-1.118.342,1.161,1.161,0,0,0-.405.938h-2.822a2.835,2.835,0,0,1,.566-1.7,3.744,3.744,0,0,1,1.6-1.226,5.837,5.837,0,0,1,2.324-.444,4.611,4.611,0,0,1,3.1.981,3.433,3.433,0,0,1,1.147,2.759v4.58a5.052,5.052,0,0,0,.42,2.275V19Zm-2.334-1.963a2.431,2.431,0,0,0,1.152-.278,1.828,1.828,0,0,0,.781-.747V14.2h-1.055q-2.119,0-2.256,1.465l-.01.166a1.13,1.13,0,0,0,.371.869A1.441,1.441,0,0,0,111.735,17.037Zm11.328-.117a1.851,1.851,0,0,0,1.27-.43,1.506,1.506,0,0,0,.508-1.143h2.646a3.62,3.62,0,0,1-.586,1.968,3.866,3.866,0,0,1-1.577,1.387,4.936,4.936,0,0,1-2.212.493,4.587,4.587,0,0,1-3.574-1.44,5.7,5.7,0,0,1-1.309-3.979V13.59a5.635,5.635,0,0,1,1.3-3.9,4.534,4.534,0,0,1,3.564-1.455,4.444,4.444,0,0,1,3.179,1.128,3.994,3.994,0,0,1,1.216,3h-2.646a1.939,1.939,0,0,0-.508-1.34,1.887,1.887,0,0,0-2.778.2,4.166,4.166,0,0,0-.5,2.333v.293a4.219,4.219,0,0,0,.5,2.347A1.721,1.721,0,0,0,123.063,16.92ZM132.077,19h-2.832V8.434h2.832Zm-3-13.3a1.39,1.39,0,0,1,.425-1.045,1.831,1.831,0,0,1,2.31,0,1.382,1.382,0,0,1,.43,1.045,1.386,1.386,0,0,1-.435,1.055,1.81,1.81,0,0,1-2.295,0A1.386,1.386,0,0,1,129.079,5.7Zm4.883,7.92a6.267,6.267,0,0,1,.605-2.8,4.432,4.432,0,0,1,1.743-1.9,5.086,5.086,0,0,1,2.642-.674,4.812,4.812,0,0,1,3.491,1.309,5.252,5.252,0,0,1,1.509,3.555l.02.723a5.523,5.523,0,0,1-1.357,3.9,5.261,5.261,0,0,1-7.29,0,5.62,5.62,0,0,1-1.362-3.984Zm2.822.2a3.95,3.95,0,0,0,.566,2.3,2.035,2.035,0,0,0,3.223.01,4.322,4.322,0,0,0,.576-2.518,3.91,3.91,0,0,0-.576-2.289,1.873,1.873,0,0,0-1.621-.812,1.842,1.842,0,0,0-1.6.807A4.395,4.395,0,0,0,136.784,13.819ZM139.509,4h3.076L139.88,7.027h-2.295Zm8.8,4.434.088,1.221a3.689,3.689,0,0,1,3.037-1.416,3.066,3.066,0,0,1,2.5.986,4.6,4.6,0,0,1,.84,2.949V19H151.95V12.242a1.831,1.831,0,0,0-.391-1.3,1.749,1.749,0,0,0-1.3-.405,1.942,1.942,0,0,0-1.787,1.016V19h-2.822V8.434Z" transform="translate(702.668 18363.404)" fill="#12263f"/>
    <path id="Trazado_762183" data-name="Trazado 762183" d="M0,0H41.648V157.962H0Z" transform="translate(533.114 18052.121)" fill="#ffe4b9"/>
    <path id="Trazado_762184" data-name="Trazado 762184" d="M0,0H51.876V78.981H0Z" transform="translate(569.012 18131.102)" fill="#ffe4b9"/>
    <path id="Trazado_762185" data-name="Trazado 762185" d="M0,0H183.5V130.459H0Z" transform="translate(533.118 18210.082)" fill="#ffb338"/>
    <path id="Trazado_762186" data-name="Trazado 762186" d="M0,0H107.336V76.825H0Z" transform="translate(712.901 18263.717)" fill="#cc8f2c"/>
    <path id="Trazado_762187" data-name="Trazado 762187" d="M0,0H246.239V38.413H0Z" transform="translate(820.236 18302.131)" fill="#cc8f2c"/>
    <path id="Trazado_762188" data-name="Trazado 762188" d="M-40.733-9.337v1.511h-.178a3.117,3.117,0,0,0-2,.647,2.631,2.631,0,0,0-.911,1.746,2.5,2.5,0,0,1,1.86-.749,2.354,2.354,0,0,1,1.917.863,3.461,3.461,0,0,1,.711,2.272,3.4,3.4,0,0,1-.39,1.631,2.8,2.8,0,0,1-1.1,1.136,3.209,3.209,0,0,1-1.615.406A3,3,0,0,1-44.8-.889a3.942,3.942,0,0,1-.9-2.71v-.66a5.933,5.933,0,0,1,.568-2.656A4.166,4.166,0,0,1-43.5-8.7a4.78,4.78,0,0,1,2.466-.638ZM-42.523-4.7a1.466,1.466,0,0,0-.806.231,1.393,1.393,0,0,0-.533.611V-3.3A2.47,2.47,0,0,0-43.5-1.868a1.169,1.169,0,0,0,1.016.516,1.156,1.156,0,0,0,.955-.466,1.9,1.9,0,0,0,.365-1.207,1.9,1.9,0,0,0-.368-1.216A1.2,1.2,0,0,0-42.523-4.7Zm10.493.882a4.682,4.682,0,0,1-.793,2.933A2.77,2.77,0,0,1-35.147.127a2.789,2.789,0,0,1-2.311-1,4.545,4.545,0,0,1-.819-2.856v-1.7a4.621,4.621,0,0,1,.8-2.939,2.79,2.79,0,0,1,2.314-1,2.793,2.793,0,0,1,2.311.993,4.531,4.531,0,0,1,.819,2.853Zm-1.834-1.87a3.384,3.384,0,0,0-.314-1.674,1.062,1.062,0,0,0-.981-.524,1.043,1.043,0,0,0-.955.5,3.167,3.167,0,0,0-.327,1.56v2.249A3.553,3.553,0,0,0-36.134-1.9a1.048,1.048,0,0,0,.987.55,1.03,1.03,0,0,0,.971-.527,3.468,3.468,0,0,0,.311-1.614Zm9.928,2.308h-1.517V0h-1.9V-9.242h3.434a3.882,3.882,0,0,1,2.526.73,2.519,2.519,0,0,1,.889,2.063,2.843,2.843,0,0,1-.409,1.577A2.792,2.792,0,0,1-22.16-3.866l2,3.777V0H-22.2Zm-1.517-1.542h1.536a1.573,1.573,0,0,0,1.111-.365A1.3,1.3,0,0,0-22.414-6.3a1.4,1.4,0,0,0-.371-1.028A1.543,1.543,0,0,0-23.924-7.7h-1.53ZM-11.546,0h-1.9l-3.707-6.081V0h-1.9V-9.242h1.9l3.713,6.094V-9.242h1.9Zm5.262-1.9a.591.591,0,0,0-.333-.53,3.785,3.785,0,0,0-1.07-.346q-2.45-.514-2.45-2.082a1.887,1.887,0,0,1,.759-1.527A3.06,3.06,0,0,1-7.4-7,3.293,3.293,0,0,1-5.3-6.379a1.94,1.94,0,0,1,.784,1.6H-6.354a.888.888,0,0,0-.254-.651A1.075,1.075,0,0,0-7.4-5.687a1.1,1.1,0,0,0-.717.209.661.661,0,0,0-.254.533.565.565,0,0,0,.289.492,2.971,2.971,0,0,0,.974.324,7.958,7.958,0,0,1,1.155.308A1.9,1.9,0,0,1-4.5-1.974a1.792,1.792,0,0,1-.806,1.52A3.478,3.478,0,0,1-7.389.127,3.632,3.632,0,0,1-8.922-.181a2.572,2.572,0,0,1-1.051-.844,1.962,1.962,0,0,1-.381-1.158h1.739a.958.958,0,0,0,.362.749,1.435,1.435,0,0,0,.9.26,1.328,1.328,0,0,0,.8-.2A.622.622,0,0,0-6.284-1.9Zm8.817-2.92,1.155-2.05H5.649L3.694-3.5,5.732,0H3.764L2.539-2.158,1.32,0H-.654L1.384-3.5-.565-6.868H1.4ZM14.149,0H12.314V-7.071l-2.19.679V-7.884l3.828-1.371h.2Zm9.223-3.821a4.682,4.682,0,0,1-.793,2.933A2.77,2.77,0,0,1,20.255.127a2.789,2.789,0,0,1-2.311-1,4.545,4.545,0,0,1-.819-2.856v-1.7a4.621,4.621,0,0,1,.8-2.939,2.79,2.79,0,0,1,2.314-1,2.793,2.793,0,0,1,2.311.993,4.531,4.531,0,0,1,.819,2.853Zm-1.834-1.87a3.384,3.384,0,0,0-.314-1.674,1.062,1.062,0,0,0-.981-.524,1.043,1.043,0,0,0-.955.5,3.167,3.167,0,0,0-.327,1.56v2.249A3.553,3.553,0,0,0,19.268-1.9a1.048,1.048,0,0,0,.987.55,1.03,1.03,0,0,0,.971-.527,3.468,3.468,0,0,0,.311-1.614Zm9.293,1.87a4.682,4.682,0,0,1-.793,2.933A2.77,2.77,0,0,1,27.714.127a2.789,2.789,0,0,1-2.311-1,4.545,4.545,0,0,1-.819-2.856v-1.7a4.621,4.621,0,0,1,.8-2.939,2.79,2.79,0,0,1,2.314-1,2.793,2.793,0,0,1,2.311.993,4.531,4.531,0,0,1,.819,2.853ZM29-5.692a3.384,3.384,0,0,0-.314-1.674A1.062,1.062,0,0,0,27.7-7.89a1.043,1.043,0,0,0-.955.5,3.167,3.167,0,0,0-.327,1.56v2.249A3.553,3.553,0,0,0,26.727-1.9a1.048,1.048,0,0,0,.987.55,1.03,1.03,0,0,0,.971-.527A3.468,3.468,0,0,0,29-3.493Zm8.119,2.416H34.988a2.015,2.015,0,0,0,.5,1.4,1.97,1.97,0,0,0,1.45.47,3.5,3.5,0,0,0,1.206-.2l.229,1.536a7.112,7.112,0,0,1-1.625.184,3.749,3.749,0,0,1-2.644-.9,3.383,3.383,0,0,1-1.025-2.5H32V-4.24h1.073v-.787H32v-.965H33.09A3.466,3.466,0,0,1,34.2-8.477a3.893,3.893,0,0,1,2.669-.885,6.571,6.571,0,0,1,1.5.2l-.229,1.542a3.629,3.629,0,0,0-1.174-.2A1.783,1.783,0,0,0,35-5.992h2.114v.965H34.988v.787h2.126Zm8.322-1.46H39.762v-1.5h5.675Zm0,2.749H39.762v-1.5h5.675ZM-14.93,13.663v1.511h-.178a3.117,3.117,0,0,0-2,.647,2.631,2.631,0,0,0-.911,1.746,2.5,2.5,0,0,1,1.86-.749,2.354,2.354,0,0,1,1.917.863,3.461,3.461,0,0,1,.711,2.272,3.4,3.4,0,0,1-.39,1.631,2.8,2.8,0,0,1-1.1,1.136,3.209,3.209,0,0,1-1.615.406A3,3,0,0,1-19,22.111a3.942,3.942,0,0,1-.9-2.71v-.66a5.933,5.933,0,0,1,.568-2.656A4.166,4.166,0,0,1-17.7,14.3a4.78,4.78,0,0,1,2.466-.638ZM-16.72,18.3a1.466,1.466,0,0,0-.806.231,1.393,1.393,0,0,0-.533.611V19.7a2.47,2.47,0,0,0,.362,1.435,1.169,1.169,0,0,0,1.016.516,1.156,1.156,0,0,0,.955-.466,1.9,1.9,0,0,0,.365-1.207,1.9,1.9,0,0,0-.368-1.216A1.2,1.2,0,0,0-16.72,18.3Zm4.443,3.8a.924.924,0,0,1,.3-.711,1.047,1.047,0,0,1,.74-.273,1.056,1.056,0,0,1,.746.273.924.924,0,0,1,.3.711.911.911,0,0,1-.292.7,1.06,1.06,0,0,1-.749.27,1.052,1.052,0,0,1-.743-.27A.911.911,0,0,1-12.276,22.1Zm9.826-2.92a4.682,4.682,0,0,1-.793,2.933,2.77,2.77,0,0,1-2.323,1.016,2.789,2.789,0,0,1-2.311-1A4.545,4.545,0,0,1-8.7,19.274v-1.7a4.621,4.621,0,0,1,.8-2.939,2.79,2.79,0,0,1,2.314-1,2.793,2.793,0,0,1,2.311.993,4.531,4.531,0,0,1,.819,2.853Zm-1.834-1.87A3.384,3.384,0,0,0-4.6,15.634a1.062,1.062,0,0,0-.981-.524,1.043,1.043,0,0,0-.955.5,3.167,3.167,0,0,0-.327,1.56v2.249A3.553,3.553,0,0,0-6.554,21.1a1.048,1.048,0,0,0,.987.55,1.03,1.03,0,0,0,.971-.527,3.468,3.468,0,0,0,.311-1.614Zm9.293,1.87a4.682,4.682,0,0,1-.793,2.933,2.77,2.77,0,0,1-2.323,1.016,2.789,2.789,0,0,1-2.311-1,4.545,4.545,0,0,1-.819-2.856v-1.7a4.621,4.621,0,0,1,.8-2.939,2.79,2.79,0,0,1,2.314-1,2.793,2.793,0,0,1,2.311.993,4.531,4.531,0,0,1,.819,2.853Zm-1.834-1.87a3.384,3.384,0,0,0-.314-1.674,1.062,1.062,0,0,0-.981-.524,1.043,1.043,0,0,0-.955.5A3.167,3.167,0,0,0,.6,17.168v2.249A3.553,3.553,0,0,0,.9,21.1a1.048,1.048,0,0,0,.987.55,1.03,1.03,0,0,0,.971-.527,3.468,3.468,0,0,0,.311-1.614Zm9.293,1.87a4.682,4.682,0,0,1-.793,2.933A2.77,2.77,0,0,1,9.35,23.127a2.789,2.789,0,0,1-2.311-1,4.545,4.545,0,0,1-.819-2.856v-1.7a4.621,4.621,0,0,1,.8-2.939,2.79,2.79,0,0,1,2.314-1,2.793,2.793,0,0,1,2.311.993,4.531,4.531,0,0,1,.819,2.853Zm-1.834-1.87a3.384,3.384,0,0,0-.314-1.674,1.062,1.062,0,0,0-.981-.524,1.043,1.043,0,0,0-.955.5,3.167,3.167,0,0,0-.327,1.56v2.249A3.553,3.553,0,0,0,8.363,21.1a1.048,1.048,0,0,0,.987.55,1.03,1.03,0,0,0,.971-.527,3.468,3.468,0,0,0,.311-1.614Zm8.119,2.416H16.625a2.015,2.015,0,0,0,.5,1.4,1.97,1.97,0,0,0,1.45.47,3.5,3.5,0,0,0,1.206-.2l.229,1.536a7.112,7.112,0,0,1-1.625.184,3.749,3.749,0,0,1-2.644-.9,3.383,3.383,0,0,1-1.025-2.5H13.641V18.76h1.073v-.787H13.641v-.965h1.085a3.466,3.466,0,0,1,1.114-2.485,3.893,3.893,0,0,1,2.669-.885,6.571,6.571,0,0,1,1.5.2l-.229,1.542a3.629,3.629,0,0,0-1.174-.2,1.783,1.783,0,0,0-1.968,1.834h2.114v.965H16.625v.787h2.126Z" transform="translate(621.522 18271.391)" fill="#12263f"/>
    <path id="Trazado_762189" data-name="Trazado 762189" d="M-35.645,0H-41.98V-1.257l2.99-3.187a7.376,7.376,0,0,0,.911-1.174,1.887,1.887,0,0,0,.3-.952,1.412,1.412,0,0,0-.311-.968,1.123,1.123,0,0,0-.889-.352,1.211,1.211,0,0,0-.981.428,1.7,1.7,0,0,0-.359,1.127h-1.841a3.03,3.03,0,0,1,.4-1.542,2.841,2.841,0,0,1,1.139-1.095,3.463,3.463,0,0,1,1.669-.4,3.279,3.279,0,0,1,2.219.686,2.425,2.425,0,0,1,.79,1.936,3.108,3.108,0,0,1-.355,1.4,7.761,7.761,0,0,1-1.219,1.657l-2.1,2.215h3.974ZM-28.3-3.821a4.682,4.682,0,0,1-.793,2.933A2.77,2.77,0,0,1-31.418.127a2.789,2.789,0,0,1-2.311-1,4.545,4.545,0,0,1-.819-2.856v-1.7a4.621,4.621,0,0,1,.8-2.939,2.79,2.79,0,0,1,2.314-1,2.793,2.793,0,0,1,2.311.993A4.531,4.531,0,0,1-28.3-5.522Zm-1.834-1.87a3.384,3.384,0,0,0-.314-1.674,1.062,1.062,0,0,0-.981-.524,1.043,1.043,0,0,0-.955.5,3.167,3.167,0,0,0-.327,1.56v2.249A3.553,3.553,0,0,0-32.4-1.9a1.048,1.048,0,0,0,.987.55,1.03,1.03,0,0,0,.971-.527,3.468,3.468,0,0,0,.311-1.614Zm9.928,2.308h-1.517V0h-1.9V-9.242H-20.2a3.882,3.882,0,0,1,2.526.73,2.519,2.519,0,0,1,.889,2.063,2.843,2.843,0,0,1-.409,1.577A2.792,2.792,0,0,1-18.43-3.866l2,3.777V0h-2.044Zm-1.517-1.542h1.536a1.573,1.573,0,0,0,1.111-.365A1.3,1.3,0,0,0-18.684-6.3a1.4,1.4,0,0,0-.371-1.028A1.543,1.543,0,0,0-20.2-7.7h-1.53ZM-7.817,0h-1.9l-3.707-6.081V0h-1.9V-9.242h1.9l3.713,6.094V-9.242h1.9Zm5.262-1.9a.591.591,0,0,0-.333-.53,3.785,3.785,0,0,0-1.07-.346q-2.45-.514-2.45-2.082a1.887,1.887,0,0,1,.759-1.527A3.06,3.06,0,0,1-3.666-7a3.293,3.293,0,0,1,2.092.616A1.94,1.94,0,0,1-.79-4.78H-2.625a.888.888,0,0,0-.254-.651,1.075,1.075,0,0,0-.793-.257,1.1,1.1,0,0,0-.717.209.661.661,0,0,0-.254.533.565.565,0,0,0,.289.492,2.971,2.971,0,0,0,.974.324,7.958,7.958,0,0,1,1.155.308A1.9,1.9,0,0,1-.771-1.974a1.792,1.792,0,0,1-.806,1.52A3.478,3.478,0,0,1-3.659.127,3.632,3.632,0,0,1-5.192-.181a2.572,2.572,0,0,1-1.051-.844,1.962,1.962,0,0,1-.381-1.158h1.739a.958.958,0,0,0,.362.749,1.435,1.435,0,0,0,.9.26,1.328,1.328,0,0,0,.8-.2A.622.622,0,0,0-2.555-1.9Zm8.817-2.92,1.155-2.05H9.379L7.424-3.5,9.461,0H7.493L6.268-2.158,5.05,0H3.075L5.113-3.5,3.164-6.868H5.132ZM18.4-9.337v1.511h-.178a3.117,3.117,0,0,0-2,.647,2.631,2.631,0,0,0-.911,1.746,2.5,2.5,0,0,1,1.86-.749,2.354,2.354,0,0,1,1.917.863A3.461,3.461,0,0,1,19.8-3.047a3.4,3.4,0,0,1-.39,1.631A2.8,2.8,0,0,1,18.3-.279a3.209,3.209,0,0,1-1.615.406A3,3,0,0,1,14.327-.889a3.942,3.942,0,0,1-.9-2.71v-.66A5.933,5.933,0,0,1,14-6.916,4.166,4.166,0,0,1,15.628-8.7a4.78,4.78,0,0,1,2.466-.638ZM16.609-4.7a1.466,1.466,0,0,0-.806.231,1.393,1.393,0,0,0-.533.611V-3.3a2.47,2.47,0,0,0,.362,1.435,1.169,1.169,0,0,0,1.016.516,1.156,1.156,0,0,0,.955-.466,1.9,1.9,0,0,0,.365-1.207A1.9,1.9,0,0,0,17.6-4.241,1.2,1.2,0,0,0,16.609-4.7ZM27.1-3.821a4.682,4.682,0,0,1-.793,2.933A2.77,2.77,0,0,1,23.985.127a2.789,2.789,0,0,1-2.311-1,4.545,4.545,0,0,1-.819-2.856v-1.7a4.621,4.621,0,0,1,.8-2.939,2.79,2.79,0,0,1,2.314-1,2.793,2.793,0,0,1,2.311.993A4.531,4.531,0,0,1,27.1-5.522Zm-1.834-1.87a3.384,3.384,0,0,0-.314-1.674,1.062,1.062,0,0,0-.981-.524,1.043,1.043,0,0,0-.955.5,3.167,3.167,0,0,0-.327,1.56v2.249A3.553,3.553,0,0,0,23-1.9a1.048,1.048,0,0,0,.987.55,1.03,1.03,0,0,0,.971-.527,3.468,3.468,0,0,0,.311-1.614Zm8.119,2.416H31.259a2.015,2.015,0,0,0,.5,1.4,1.97,1.97,0,0,0,1.45.47,3.5,3.5,0,0,0,1.206-.2l.229,1.536a7.112,7.112,0,0,1-1.625.184,3.749,3.749,0,0,1-2.644-.9,3.383,3.383,0,0,1-1.025-2.5H28.276V-4.24h1.073v-.787H28.276v-.965h1.085a3.466,3.466,0,0,1,1.114-2.485,3.893,3.893,0,0,1,2.669-.885,6.571,6.571,0,0,1,1.5.2l-.229,1.542a3.629,3.629,0,0,0-1.174-.2,1.783,1.783,0,0,0-1.968,1.834h2.114v.965H31.259v.787h2.126Zm8.322-1.46H36.032v-1.5h5.675Zm0,2.749H36.032v-1.5h5.675ZM-15.45,23h-1.834V15.929l-2.19.679V15.116l3.828-1.371h.2Zm3.174-.9a.924.924,0,0,1,.3-.711,1.047,1.047,0,0,1,.74-.273,1.056,1.056,0,0,1,.746.273.924.924,0,0,1,.3.711.911.911,0,0,1-.292.7,1.06,1.06,0,0,1-.749.27,1.052,1.052,0,0,1-.743-.27A.911.911,0,0,1-12.276,22.1Zm9.94.9H-8.671V21.743l2.99-3.187a7.376,7.376,0,0,0,.911-1.174,1.887,1.887,0,0,0,.3-.952,1.412,1.412,0,0,0-.311-.968,1.123,1.123,0,0,0-.889-.352,1.211,1.211,0,0,0-.981.428,1.7,1.7,0,0,0-.359,1.127H-8.855a3.03,3.03,0,0,1,.4-1.542,2.841,2.841,0,0,1,1.139-1.095,3.463,3.463,0,0,1,1.669-.4,3.279,3.279,0,0,1,2.219.686,2.425,2.425,0,0,1,.79,1.936,3.108,3.108,0,0,1-.355,1.4,7.76,7.76,0,0,1-1.219,1.657l-2.1,2.215h3.974Zm7.344-3.821a4.682,4.682,0,0,1-.793,2.933,2.77,2.77,0,0,1-2.323,1.016,2.789,2.789,0,0,1-2.311-1,4.545,4.545,0,0,1-.819-2.856v-1.7a4.621,4.621,0,0,1,.8-2.939,2.79,2.79,0,0,1,2.314-1,2.793,2.793,0,0,1,2.311.993,4.531,4.531,0,0,1,.819,2.853Zm-1.834-1.87a3.384,3.384,0,0,0-.314-1.674,1.062,1.062,0,0,0-.981-.524,1.043,1.043,0,0,0-.955.5A3.167,3.167,0,0,0,.6,17.168v2.249A3.553,3.553,0,0,0,.9,21.1a1.048,1.048,0,0,0,.987.55,1.03,1.03,0,0,0,.971-.527,3.468,3.468,0,0,0,.311-1.614Zm9.293,1.87a4.682,4.682,0,0,1-.793,2.933A2.77,2.77,0,0,1,9.35,23.127a2.789,2.789,0,0,1-2.311-1,4.545,4.545,0,0,1-.819-2.856v-1.7a4.621,4.621,0,0,1,.8-2.939,2.79,2.79,0,0,1,2.314-1,2.793,2.793,0,0,1,2.311.993,4.531,4.531,0,0,1,.819,2.853Zm-1.834-1.87a3.384,3.384,0,0,0-.314-1.674,1.062,1.062,0,0,0-.981-.524,1.043,1.043,0,0,0-.955.5,3.167,3.167,0,0,0-.327,1.56v2.249A3.553,3.553,0,0,0,8.363,21.1a1.048,1.048,0,0,0,.987.55,1.03,1.03,0,0,0,.971-.527,3.468,3.468,0,0,0,.311-1.614Zm8.119,2.416H16.625a2.015,2.015,0,0,0,.5,1.4,1.97,1.97,0,0,0,1.45.47,3.5,3.5,0,0,0,1.206-.2l.229,1.536a7.112,7.112,0,0,1-1.625.184,3.749,3.749,0,0,1-2.644-.9,3.383,3.383,0,0,1-1.025-2.5H13.641V18.76h1.073v-.787H13.641v-.965h1.085a3.466,3.466,0,0,1,1.114-2.485,3.893,3.893,0,0,1,2.669-.885,6.571,6.571,0,0,1,1.5.2l-.229,1.542a3.629,3.629,0,0,0-1.174-.2,1.783,1.783,0,0,0-1.968,1.834h2.114v.965H16.625v.787h2.126Z" transform="translate(763.264 18293.75)" fill="#12263f"/>
    <path id="Trazado_762190" data-name="Trazado 762190" d="M-67.371-3.739h-2.171V0h-1.225V-9.242h3.06a3.621,3.621,0,0,1,2.4.711,2.558,2.558,0,0,1,.841,2.069,2.488,2.488,0,0,1-.467,1.5,2.785,2.785,0,0,1-1.3.958l2.171,3.923V0h-1.308Zm-2.171-1h1.873a2.112,2.112,0,0,0,1.444-.471,1.591,1.591,0,0,0,.536-1.259A1.676,1.676,0,0,0-66.2-7.781a2.164,2.164,0,0,0-1.476-.464h-1.866ZM-60.09.127A3,3,0,0,1-62.363-.79a3.4,3.4,0,0,1-.876-2.453v-.216a4.121,4.121,0,0,1,.39-1.825,3.045,3.045,0,0,1,1.092-1.257A2.745,2.745,0,0,1-60.236-7a2.572,2.572,0,0,1,2.082.882,3.82,3.82,0,0,1,.743,2.526V-3.1h-4.653a2.441,2.441,0,0,0,.594,1.641,1.866,1.866,0,0,0,1.444.625,2.045,2.045,0,0,0,1.054-.254,2.648,2.648,0,0,0,.755-.673l.717.559A2.884,2.884,0,0,1-60.09.127Zm-.146-6.157a1.566,1.566,0,0,0-1.193.517,2.515,2.515,0,0,0-.6,1.45h3.44v-.089a2.237,2.237,0,0,0-.482-1.387A1.475,1.475,0,0,0-60.236-6.03Zm3.9,2.539a4.023,4.023,0,0,1,.749-2.542A2.369,2.369,0,0,1-53.628-7a2.382,2.382,0,0,1,1.911.825V-9.75h1.174V0h-1.079l-.057-.736a2.391,2.391,0,0,1-1.961.863,2.346,2.346,0,0,1-1.946-.978A4.069,4.069,0,0,1-56.339-3.4Zm1.174.133a3.046,3.046,0,0,0,.482,1.828,1.56,1.56,0,0,0,1.333.66,1.713,1.713,0,0,0,1.631-1V-5.027A1.726,1.726,0,0,0-53.336-6a1.567,1.567,0,0,0-1.346.667A3.354,3.354,0,0,0-55.164-3.358ZM-44.481-.679a2.494,2.494,0,0,1-2.012.806,2.135,2.135,0,0,1-1.673-.638A2.761,2.761,0,0,1-48.747-2.4V-6.868h1.174v4.437q0,1.562,1.27,1.562a1.758,1.758,0,0,0,1.79-1v-5h1.174V0h-1.117ZM-38.8-.832a1.692,1.692,0,0,0,1.1-.381,1.34,1.34,0,0,0,.521-.952h1.111a2.13,2.13,0,0,1-.406,1.124,2.676,2.676,0,0,1-1,.851A2.885,2.885,0,0,1-38.8.127a2.829,2.829,0,0,1-2.231-.936,3.729,3.729,0,0,1-.828-2.561v-.2a4.135,4.135,0,0,1,.368-1.784,2.8,2.8,0,0,1,1.057-1.212A3,3,0,0,1-38.806-7a2.755,2.755,0,0,1,1.92.692,2.473,2.473,0,0,1,.816,1.8h-1.111a1.618,1.618,0,0,0-.5-1.095,1.57,1.57,0,0,0-1.12-.428,1.644,1.644,0,0,0-1.387.644,3.026,3.026,0,0,0-.492,1.863V-3.3A2.965,2.965,0,0,0-40.2-1.473,1.651,1.651,0,0,0-38.8-.832ZM-33.474,0h-1.174V-6.868h1.174Zm-1.27-8.69a.7.7,0,0,1,.175-.482.655.655,0,0,1,.517-.2.666.666,0,0,1,.521.2.694.694,0,0,1,.178.482.671.671,0,0,1-.178.476.678.678,0,0,1-.521.19.667.667,0,0,1-.517-.19A.678.678,0,0,1-34.744-8.69Zm4.253,1.822.032.762A2.536,2.536,0,0,1-28.422-7a1.964,1.964,0,0,1,1.961,1.1,2.6,2.6,0,0,1,.892-.8,2.634,2.634,0,0,1,1.3-.3q2.26,0,2.3,2.393V0h-1.174V-4.532a1.577,1.577,0,0,0-.336-1.1A1.482,1.482,0,0,0-24.613-6a1.557,1.557,0,0,0-1.085.39,1.584,1.584,0,0,0-.5,1.051V0h-1.181V-4.5A1.31,1.31,0,0,0-28.847-6a1.571,1.571,0,0,0-1.581.984V0H-31.6V-6.868ZM-20.512-3.5a4.057,4.057,0,0,1,.4-1.815,2.96,2.96,0,0,1,1.1-1.244A3.007,3.007,0,0,1-17.4-7a2.9,2.9,0,0,1,2.269.971A3.736,3.736,0,0,1-14.26-3.44v.083a4.092,4.092,0,0,1-.384,1.8,2.916,2.916,0,0,1-1.1,1.241,3.041,3.041,0,0,1-1.641.444,2.889,2.889,0,0,1-2.263-.971,3.718,3.718,0,0,1-.866-2.571Zm1.181.14a2.938,2.938,0,0,0,.53,1.834,1.7,1.7,0,0,0,1.419.692,1.686,1.686,0,0,0,1.422-.7A3.213,3.213,0,0,0-15.434-3.5a2.933,2.933,0,0,0-.536-1.831,1.705,1.705,0,0,0-1.425-.7,1.686,1.686,0,0,0-1.4.692A3.189,3.189,0,0,0-19.332-3.358ZM-8.788-1.822a.865.865,0,0,0-.359-.74,3.452,3.452,0,0,0-1.25-.454,5.912,5.912,0,0,1-1.416-.457,2.014,2.014,0,0,1-.774-.635,1.518,1.518,0,0,1-.251-.876,1.782,1.782,0,0,1,.714-1.428A2.789,2.789,0,0,1-10.3-7a2.87,2.87,0,0,1,1.895.6A1.915,1.915,0,0,1-7.677-4.85H-8.858a1.06,1.06,0,0,0-.409-.832A1.534,1.534,0,0,0-10.3-6.03a1.605,1.605,0,0,0-1,.279.879.879,0,0,0-.362.73.712.712,0,0,0,.336.641,4.139,4.139,0,0,0,1.216.413,6.334,6.334,0,0,1,1.425.47,2.079,2.079,0,0,1,.809.657,1.615,1.615,0,0,1,.263.936A1.758,1.758,0,0,1-8.35-.428a3.089,3.089,0,0,1-1.911.555,3.459,3.459,0,0,1-1.46-.292,2.375,2.375,0,0,1-.993-.816,1.966,1.966,0,0,1-.359-1.133H-11.9a1.216,1.216,0,0,0,.473.936,1.835,1.835,0,0,0,1.165.346,1.894,1.894,0,0,0,1.07-.27A.829.829,0,0,0-8.788-1.822ZM-1.59,0H-2.764V-6.868H-1.59ZM-2.86-8.69a.7.7,0,0,1,.175-.482.655.655,0,0,1,.517-.2.666.666,0,0,1,.521.2.694.694,0,0,1,.178.482.671.671,0,0,1-.178.476.678.678,0,0,1-.521.19.667.667,0,0,1-.517-.19A.678.678,0,0,1-2.86-8.69ZM1.4-6.868,1.438-6A2.5,2.5,0,0,1,3.494-7q2.177,0,2.2,2.457V0H4.516V-4.545a1.581,1.581,0,0,0-.34-1.1A1.361,1.361,0,0,0,3.139-6a1.7,1.7,0,0,0-1,.3,2.069,2.069,0,0,0-.673.8V0H.289V-6.868Zm8.912,7A3,3,0,0,1,8.039-.79a3.4,3.4,0,0,1-.876-2.453v-.216a4.121,4.121,0,0,1,.39-1.825A3.045,3.045,0,0,1,8.646-6.541,2.745,2.745,0,0,1,10.166-7a2.572,2.572,0,0,1,2.082.882,3.82,3.82,0,0,1,.743,2.526V-3.1H8.338a2.441,2.441,0,0,0,.594,1.641,1.866,1.866,0,0,0,1.444.625,2.045,2.045,0,0,0,1.054-.254,2.648,2.648,0,0,0,.755-.673L12.9-1.2A2.884,2.884,0,0,1,10.312.127ZM10.166-6.03a1.566,1.566,0,0,0-1.193.517,2.515,2.515,0,0,0-.6,1.45h3.44v-.089a2.237,2.237,0,0,0-.482-1.387A1.475,1.475,0,0,0,10.166-6.03ZM14.742,0V-5.96H13.657v-.908h1.085v-.584a2.386,2.386,0,0,1,.657-1.79,2.548,2.548,0,0,1,1.857-.641,5.591,5.591,0,0,1,1.8.387l-.2.99a4.069,4.069,0,0,0-1.511-.317,1.478,1.478,0,0,0-1.089.34,1.4,1.4,0,0,0-.333,1.019v.6h1.4v.908h-1.4V0Zm4.894,0H18.456V-6.868h1.181ZM24.3-.832a1.692,1.692,0,0,0,1.1-.381,1.34,1.34,0,0,0,.521-.952h1.111a2.13,2.13,0,0,1-.406,1.124,2.676,2.676,0,0,1-1,.851A2.885,2.885,0,0,1,24.3.127a2.829,2.829,0,0,1-2.231-.936,3.729,3.729,0,0,1-.828-2.561v-.2a4.135,4.135,0,0,1,.368-1.784,2.8,2.8,0,0,1,1.057-1.212A3,3,0,0,1,24.3-7a2.755,2.755,0,0,1,1.92.692,2.473,2.473,0,0,1,.816,1.8H25.921a1.618,1.618,0,0,0-.5-1.095A1.57,1.57,0,0,0,24.3-6.03a1.644,1.644,0,0,0-1.387.644,3.026,3.026,0,0,0-.492,1.863V-3.3a2.965,2.965,0,0,0,.489,1.828A1.651,1.651,0,0,0,24.3-.832ZM29.628,0H28.453V-6.868h1.174Zm-1.27-8.69a.7.7,0,0,1,.175-.482.655.655,0,0,1,.517-.2.666.666,0,0,1,.521.2.694.694,0,0,1,.178.482.671.671,0,0,1-.178.476.678.678,0,0,1-.521.19.667.667,0,0,1-.517-.19A.678.678,0,0,1,28.358-8.69Zm6,8.817A3,3,0,0,1,32.084-.79a3.4,3.4,0,0,1-.876-2.453v-.216a4.121,4.121,0,0,1,.39-1.825A3.045,3.045,0,0,1,32.69-6.541,2.745,2.745,0,0,1,34.211-7a2.572,2.572,0,0,1,2.082.882,3.82,3.82,0,0,1,.743,2.526V-3.1H32.383a2.441,2.441,0,0,0,.594,1.641,1.866,1.866,0,0,0,1.444.625,2.045,2.045,0,0,0,1.054-.254,2.648,2.648,0,0,0,.755-.673l.717.559A2.884,2.884,0,0,1,34.357.127ZM34.211-6.03a1.566,1.566,0,0,0-1.193.517,2.515,2.515,0,0,0-.6,1.45h3.44v-.089a2.237,2.237,0,0,0-.482-1.387A1.475,1.475,0,0,0,34.211-6.03ZM39.5-6.868,39.543-6A2.5,2.5,0,0,1,41.6-7q2.177,0,2.2,2.457V0H42.621V-4.545a1.581,1.581,0,0,0-.34-1.1A1.361,1.361,0,0,0,41.244-6a1.7,1.7,0,0,0-1,.3,2.069,2.069,0,0,0-.673.8V0H38.394V-6.868ZM48.322-.832a1.692,1.692,0,0,0,1.1-.381,1.34,1.34,0,0,0,.521-.952h1.111a2.13,2.13,0,0,1-.406,1.124,2.676,2.676,0,0,1-1,.851,2.885,2.885,0,0,1-1.323.317A2.829,2.829,0,0,1,46.09-.809a3.729,3.729,0,0,1-.828-2.561v-.2a4.135,4.135,0,0,1,.368-1.784,2.8,2.8,0,0,1,1.057-1.212A3,3,0,0,1,48.315-7a2.755,2.755,0,0,1,1.92.692,2.473,2.473,0,0,1,.816,1.8H49.94a1.618,1.618,0,0,0-.5-1.095,1.57,1.57,0,0,0-1.12-.428,1.644,1.644,0,0,0-1.387.644,3.026,3.026,0,0,0-.492,1.863V-3.3a2.965,2.965,0,0,0,.489,1.828A1.651,1.651,0,0,0,48.322-.832ZM53.647,0H52.473V-6.868h1.174Zm-1.27-8.69a.7.7,0,0,1,.175-.482.655.655,0,0,1,.517-.2.666.666,0,0,1,.521.2.694.694,0,0,1,.178.482.671.671,0,0,1-.178.476.678.678,0,0,1-.521.19.667.667,0,0,1-.517-.19A.678.678,0,0,1,52.378-8.69ZM59.766,0A2.467,2.467,0,0,1,59.6-.724a2.62,2.62,0,0,1-1.955.851A2.424,2.424,0,0,1,55.98-.448,1.859,1.859,0,0,1,55.329-1.9a1.942,1.942,0,0,1,.816-1.666,3.846,3.846,0,0,1,2.295-.594h1.143V-4.7a1.319,1.319,0,0,0-.368-.981,1.48,1.48,0,0,0-1.085-.365,1.712,1.712,0,0,0-1.054.317.935.935,0,0,0-.425.768H55.469a1.621,1.621,0,0,1,.365-.993,2.491,2.491,0,0,1,.99-.759A3.331,3.331,0,0,1,58.2-7a2.715,2.715,0,0,1,1.86.594,2.141,2.141,0,0,1,.7,1.635v3.161A3.865,3.865,0,0,0,61-.1V0ZM57.818-.9a2.064,2.064,0,0,0,1.047-.286,1.728,1.728,0,0,0,.717-.743V-3.333h-.92q-2.158,0-2.158,1.263a1.069,1.069,0,0,0,.368.863A1.415,1.415,0,0,0,57.818-.9ZM66.6-1.822a.864.864,0,0,0-.359-.74,3.452,3.452,0,0,0-1.25-.454,5.912,5.912,0,0,1-1.416-.457,2.014,2.014,0,0,1-.774-.635,1.518,1.518,0,0,1-.251-.876,1.782,1.782,0,0,1,.714-1.428A2.789,2.789,0,0,1,65.086-7a2.87,2.87,0,0,1,1.895.6,1.915,1.915,0,0,1,.727,1.542H66.527a1.06,1.06,0,0,0-.409-.832,1.534,1.534,0,0,0-1.031-.349,1.606,1.606,0,0,0-1,.279.879.879,0,0,0-.362.73.712.712,0,0,0,.336.641,4.139,4.139,0,0,0,1.216.413A6.334,6.334,0,0,1,66.7-3.5a2.079,2.079,0,0,1,.809.657,1.615,1.615,0,0,1,.263.936,1.758,1.758,0,0,1-.736,1.476,3.089,3.089,0,0,1-1.911.555,3.459,3.459,0,0,1-1.46-.292,2.375,2.375,0,0,1-.993-.816,1.966,1.966,0,0,1-.359-1.133h1.174a1.216,1.216,0,0,0,.473.936,1.835,1.835,0,0,0,1.165.346,1.894,1.894,0,0,0,1.07-.27A.829.829,0,0,0,66.6-1.822ZM69.326-.616a.735.735,0,0,1,.181-.508.689.689,0,0,1,.543-.2.71.71,0,0,1,.549.2.721.721,0,0,1,.187.508.681.681,0,0,1-.187.489.723.723,0,0,1-.549.2.7.7,0,0,1-.543-.2A.7.7,0,0,1,69.326-.616Z" transform="translate(894.879 18192.369)" fill="#12263f"/>
    <path id="Trazado_762191" data-name="Trazado 762191" d="M151.785,0c83.828,0,151.785,32.177,151.785,71.87s-67.956,71.87-151.785,71.87S0,111.562,0,71.87,67.956,0,151.785,0Z" transform="translate(801.431 18000.02)" fill="#fff4e1"/>
    <path id="Trazado_762192" data-name="Trazado 762192" d="M21.454,0,42.907,37.544H0Z" transform="matrix(-0.966, -0.259, 0.259, -0.966, 913.836, 18175.49)" fill="#fff4e1"/>
    <path id="Trazado_762193" data-name="Trazado 762193" d="M16.13,3.113l-.19,2.272h-.7l.006-3.136h.889Zm1.714,0-.19,2.272h-.7l.006-3.136h.889ZM22.325,7.88a5.731,5.731,0,0,1-2.282-1.108,2.116,2.116,0,0,1-.714-1.622A2.236,2.236,0,0,1,20.2,3.345a3.469,3.469,0,0,1,2.269-.714,3.786,3.786,0,0,1,1.7.368,2.792,2.792,0,0,1,1.155,1.016,2.6,2.6,0,0,1,.409,1.416H24.509a1.69,1.69,0,0,0-.533-1.322,2.168,2.168,0,0,0-1.5-.481,2.22,2.22,0,0,0-1.406.4,1.326,1.326,0,0,0-.5,1.1,1.193,1.193,0,0,0,.479.957,4.7,4.7,0,0,0,1.631.715,7.569,7.569,0,0,1,1.8.715,2.736,2.736,0,0,1,.965.911,2.325,2.325,0,0,1,.314,1.225,2.159,2.159,0,0,1-.876,1.8,3.735,3.735,0,0,1-2.342.676,4.344,4.344,0,0,1-1.777-.365,2.991,2.991,0,0,1-1.273-1,2.44,2.44,0,0,1-.448-1.441h1.225a1.592,1.592,0,0,0,.619,1.323,2.606,2.606,0,0,0,1.654.486,2.4,2.4,0,0,0,1.479-.394,1.278,1.278,0,0,0,.514-1.073,1.255,1.255,0,0,0-.476-1.051A5.489,5.489,0,0,0,22.325,7.88ZM28.406,12H27.232V5.132h1.174Zm-1.27-8.69a.7.7,0,0,1,.175-.482.655.655,0,0,1,.517-.2.666.666,0,0,1,.521.2.694.694,0,0,1,.178.482.671.671,0,0,1-.178.476.678.678,0,0,1-.521.19.667.667,0,0,1-.517-.19A.678.678,0,0,1,27.136,3.31Zm7.96.159V5.132h1.282V6.04H35.1V10.3a.953.953,0,0,0,.171.62.721.721,0,0,0,.584.207,2.843,2.843,0,0,0,.559-.076V12a3.424,3.424,0,0,1-.9.126,1.462,1.462,0,0,1-1.187-.476,2.045,2.045,0,0,1-.4-1.352V6.04h-1.25V5.132h1.25V3.469Zm5.5,8.658a3,3,0,0,1-2.272-.917,3.4,3.4,0,0,1-.876-2.453V8.541a4.121,4.121,0,0,1,.39-1.825,3.045,3.045,0,0,1,1.092-1.257A2.745,2.745,0,0,1,40.454,5a2.572,2.572,0,0,1,2.082.882,3.82,3.82,0,0,1,.743,2.526V8.9H38.626a2.441,2.441,0,0,0,.594,1.641,1.866,1.866,0,0,0,1.444.625,2.045,2.045,0,0,0,1.054-.254,2.648,2.648,0,0,0,.755-.673l.717.559A2.884,2.884,0,0,1,40.6,12.127ZM40.454,5.97a1.566,1.566,0,0,0-1.193.517,2.515,2.515,0,0,0-.6,1.45H42.1V7.849a2.237,2.237,0,0,0-.482-1.387A1.475,1.475,0,0,0,40.454,5.97Zm5.294-.838L45.786,6A2.5,2.5,0,0,1,47.843,5q2.177,0,2.2,2.457V12H48.865V7.455a1.581,1.581,0,0,0-.34-1.1A1.361,1.361,0,0,0,47.487,6a1.7,1.7,0,0,0-1,.3,2.069,2.069,0,0,0-.673.8V12H44.637V5.132Zm5.783,3.377a4.037,4.037,0,0,1,.743-2.555,2.56,2.56,0,0,1,3.929-.06l.057-.762h1.073v6.7a2.794,2.794,0,0,1-.79,2.1,2.916,2.916,0,0,1-2.123.768,3.532,3.532,0,0,1-1.454-.317,2.5,2.5,0,0,1-1.085-.87l.609-.7a2.3,2.3,0,0,0,1.847.933,1.8,1.8,0,0,0,1.336-.482,1.844,1.844,0,0,0,.479-1.358v-.59a2.414,2.414,0,0,1-1.923.813,2.346,2.346,0,0,1-1.952-.971A4.244,4.244,0,0,1,51.531,8.509Zm1.181.133a3.08,3.08,0,0,0,.476,1.825,1.547,1.547,0,0,0,1.333.663,1.72,1.72,0,0,0,1.631-1.009V6.985A1.74,1.74,0,0,0,54.533,6a1.561,1.561,0,0,0-1.339.667A3.354,3.354,0,0,0,52.711,8.642Zm6.081-.14a4.057,4.057,0,0,1,.4-1.815,2.96,2.96,0,0,1,1.1-1.244A3.007,3.007,0,0,1,61.909,5a2.9,2.9,0,0,1,2.269.971,3.736,3.736,0,0,1,.866,2.583v.083a4.092,4.092,0,0,1-.384,1.8,2.916,2.916,0,0,1-1.1,1.241,3.041,3.041,0,0,1-1.641.444,2.889,2.889,0,0,1-2.263-.971,3.718,3.718,0,0,1-.866-2.571Zm1.181.14a2.938,2.938,0,0,0,.53,1.834,1.8,1.8,0,0,0,2.841-.01A3.213,3.213,0,0,0,63.87,8.5a2.933,2.933,0,0,0-.536-1.831,1.705,1.705,0,0,0-1.425-.7,1.686,1.686,0,0,0-1.4.692A3.189,3.189,0,0,0,59.973,8.642ZM73.474,12H72.294V4.173l-2.368.87V3.977L73.29,2.713h.184ZM82.71,8.058a5.371,5.371,0,0,1-.7,3.066,2.928,2.928,0,0,1-4.393.022,5.1,5.1,0,0,1-.736-2.929V6.649a5.251,5.251,0,0,1,.7-3.028,2.98,2.98,0,0,1,4.405-.035,5.068,5.068,0,0,1,.724,2.948ZM81.536,6.452a4.3,4.3,0,0,0-.419-2.174A1.442,1.442,0,0,0,79.79,3.6a1.423,1.423,0,0,0-1.314.679,4.2,4.2,0,0,0-.425,2.088V8.242a4.372,4.372,0,0,0,.435,2.212,1.439,1.439,0,0,0,1.317.714,1.42,1.42,0,0,0,1.292-.673,4.214,4.214,0,0,0,.441-2.12ZM90.01,8.058a5.371,5.371,0,0,1-.7,3.066,2.928,2.928,0,0,1-4.393.022,5.1,5.1,0,0,1-.736-2.929V6.649a5.251,5.251,0,0,1,.7-3.028,2.98,2.98,0,0,1,4.405-.035,5.068,5.068,0,0,1,.724,2.948ZM88.836,6.452a4.3,4.3,0,0,0-.419-2.174A1.442,1.442,0,0,0,87.09,3.6a1.423,1.423,0,0,0-1.314.679,4.2,4.2,0,0,0-.425,2.088V8.242a4.372,4.372,0,0,0,.435,2.212,1.439,1.439,0,0,0,1.317.714,1.42,1.42,0,0,0,1.292-.673,4.214,4.214,0,0,0,.441-2.12ZM99.094,12a2.467,2.467,0,0,1-.165-.724,2.62,2.62,0,0,1-1.955.851,2.424,2.424,0,0,1-1.666-.574,1.859,1.859,0,0,1-.651-1.457,1.942,1.942,0,0,1,.816-1.666,3.846,3.846,0,0,1,2.295-.594h1.143V7.3a1.319,1.319,0,0,0-.368-.981,1.48,1.48,0,0,0-1.085-.365,1.712,1.712,0,0,0-1.054.317.935.935,0,0,0-.425.768H94.8a1.621,1.621,0,0,1,.365-.993,2.491,2.491,0,0,1,.99-.759A3.331,3.331,0,0,1,97.526,5a2.715,2.715,0,0,1,1.86.594,2.141,2.141,0,0,1,.7,1.635v3.161a3.865,3.865,0,0,0,.241,1.5V12Zm-1.949-.9a2.064,2.064,0,0,0,1.047-.286,1.728,1.728,0,0,0,.717-.743V8.667h-.92q-2.158,0-2.158,1.263a1.069,1.069,0,0,0,.368.863A1.415,1.415,0,0,0,97.145,11.1Zm8.779-.927a.864.864,0,0,0-.359-.74,3.452,3.452,0,0,0-1.25-.454,5.912,5.912,0,0,1-1.416-.457,2.014,2.014,0,0,1-.774-.635,1.518,1.518,0,0,1-.251-.876,1.782,1.782,0,0,1,.714-1.428A2.789,2.789,0,0,1,104.413,5a2.87,2.87,0,0,1,1.895.6,1.915,1.915,0,0,1,.727,1.542h-1.181a1.06,1.06,0,0,0-.409-.832,1.534,1.534,0,0,0-1.031-.349,1.606,1.606,0,0,0-1,.279.879.879,0,0,0-.362.73.712.712,0,0,0,.336.641,4.139,4.139,0,0,0,1.216.413,6.334,6.334,0,0,1,1.425.47,2.079,2.079,0,0,1,.809.657,1.615,1.615,0,0,1,.263.936,1.758,1.758,0,0,1-.736,1.476,3.089,3.089,0,0,1-1.911.555,3.459,3.459,0,0,1-1.46-.292,2.375,2.375,0,0,1-.993-.816,1.966,1.966,0,0,1-.359-1.133h1.174a1.216,1.216,0,0,0,.473.936,1.835,1.835,0,0,0,1.165.346,1.894,1.894,0,0,0,1.07-.27A.829.829,0,0,0,105.924,10.178ZM109.9,12h-1.174V5.132H109.9Zm-1.27-8.69a.7.7,0,0,1,.175-.482.655.655,0,0,1,.517-.2.666.666,0,0,1,.521.2.694.694,0,0,1,.178.482.671.671,0,0,1-.178.476.678.678,0,0,1-.521.19.667.667,0,0,1-.517-.19A.678.678,0,0,1,108.634,3.31Zm6,8.817a3,3,0,0,1-2.272-.917,3.4,3.4,0,0,1-.876-2.453V8.541a4.121,4.121,0,0,1,.39-1.825,3.045,3.045,0,0,1,1.092-1.257A2.745,2.745,0,0,1,114.487,5a2.572,2.572,0,0,1,2.082.882,3.82,3.82,0,0,1,.743,2.526V8.9h-4.653a2.441,2.441,0,0,0,.594,1.641,1.866,1.866,0,0,0,1.444.625,2.045,2.045,0,0,0,1.054-.254,2.648,2.648,0,0,0,.755-.673l.717.559A2.884,2.884,0,0,1,114.633,12.127Zm-.146-6.157a1.566,1.566,0,0,0-1.193.517,2.515,2.515,0,0,0-.6,1.45h3.44V7.849a2.237,2.237,0,0,0-.482-1.387A1.475,1.475,0,0,0,114.487,5.97Zm5.294-.838.038.863A2.5,2.5,0,0,1,121.875,5q2.177,0,2.2,2.457V12H122.9V7.455a1.581,1.581,0,0,0-.34-1.1A1.361,1.361,0,0,0,121.52,6a1.7,1.7,0,0,0-1,.3,2.069,2.069,0,0,0-.673.8V12H118.67V5.132Zm7.655-1.663V5.132h1.282V6.04h-1.282V10.3a.953.953,0,0,0,.171.62.721.721,0,0,0,.584.207,2.843,2.843,0,0,0,.559-.076V12a3.424,3.424,0,0,1-.9.126,1.462,1.462,0,0,1-1.187-.476,2.045,2.045,0,0,1-.4-1.352V6.04h-1.25V5.132h1.25V3.469ZM129.651,8.5a4.057,4.057,0,0,1,.4-1.815,2.959,2.959,0,0,1,1.1-1.244A3.007,3.007,0,0,1,132.768,5a2.9,2.9,0,0,1,2.269.971A3.736,3.736,0,0,1,135.9,8.56v.083a4.092,4.092,0,0,1-.384,1.8,2.916,2.916,0,0,1-1.1,1.241,3.041,3.041,0,0,1-1.641.444,2.889,2.889,0,0,1-2.263-.971,3.718,3.718,0,0,1-.866-2.571Zm1.181.14a2.938,2.938,0,0,0,.53,1.834,1.8,1.8,0,0,0,2.841-.01,3.213,3.213,0,0,0,.527-1.965,2.933,2.933,0,0,0-.536-1.831,1.705,1.705,0,0,0-1.425-.7,1.686,1.686,0,0,0-1.4.692A3.189,3.189,0,0,0,130.832,8.642Zm10.543,1.536a.865.865,0,0,0-.359-.74,3.452,3.452,0,0,0-1.25-.454,5.912,5.912,0,0,1-1.416-.457,2.014,2.014,0,0,1-.774-.635,1.518,1.518,0,0,1-.251-.876,1.782,1.782,0,0,1,.714-1.428A2.789,2.789,0,0,1,139.865,5a2.87,2.87,0,0,1,1.895.6,1.915,1.915,0,0,1,.727,1.542h-1.181a1.06,1.06,0,0,0-.409-.832,1.534,1.534,0,0,0-1.031-.349,1.605,1.605,0,0,0-1,.279.879.879,0,0,0-.362.73.712.712,0,0,0,.336.641,4.139,4.139,0,0,0,1.216.413,6.334,6.334,0,0,1,1.425.47,2.079,2.079,0,0,1,.809.657,1.615,1.615,0,0,1,.263.936,1.758,1.758,0,0,1-.736,1.476,3.089,3.089,0,0,1-1.911.555,3.459,3.459,0,0,1-1.46-.292,2.375,2.375,0,0,1-.993-.816,1.966,1.966,0,0,1-.359-1.133h1.174a1.216,1.216,0,0,0,.473.936,1.835,1.835,0,0,0,1.165.346,1.894,1.894,0,0,0,1.07-.27A.829.829,0,0,0,141.375,10.178Zm8.772,1.949a3,3,0,0,1-2.272-.917A3.4,3.4,0,0,1,147,8.756V8.541a4.121,4.121,0,0,1,.39-1.825,3.045,3.045,0,0,1,1.092-1.257A2.745,2.745,0,0,1,150,5a2.572,2.572,0,0,1,2.082.882,3.82,3.82,0,0,1,.743,2.526V8.9h-4.653a2.441,2.441,0,0,0,.594,1.641,1.866,1.866,0,0,0,1.444.625,2.045,2.045,0,0,0,1.054-.254,2.647,2.647,0,0,0,.755-.673l.717.559A2.884,2.884,0,0,1,150.148,12.127ZM150,5.97a1.566,1.566,0,0,0-1.193.517,2.515,2.515,0,0,0-.6,1.45h3.44V7.849a2.237,2.237,0,0,0-.482-1.387A1.475,1.475,0,0,0,150,5.97Zm5.294-.838.038.863A2.5,2.5,0,0,1,157.39,5q2.177,0,2.2,2.457V12h-1.174V7.455a1.581,1.581,0,0,0-.34-1.1A1.361,1.361,0,0,0,157.035,6a1.7,1.7,0,0,0-1,.3,2.069,2.069,0,0,0-.673.8V12h-1.174V5.132Zm13.521,6.189a2.494,2.494,0,0,1-2.012.806,2.135,2.135,0,0,1-1.673-.638,2.761,2.761,0,0,1-.581-1.888V5.132h1.174V9.569q0,1.562,1.27,1.562a1.758,1.758,0,0,0,1.79-1v-5h1.174V12h-1.117Zm4.037-6.189.038.863A2.5,2.5,0,0,1,174.948,5q2.177,0,2.2,2.457V12H175.97V7.455a1.581,1.581,0,0,0-.34-1.1A1.361,1.361,0,0,0,174.593,6a1.7,1.7,0,0,0-1,.3,2.069,2.069,0,0,0-.673.8V12h-1.174V5.132ZM186.374,12a2.467,2.467,0,0,1-.165-.724,2.62,2.62,0,0,1-1.955.851,2.424,2.424,0,0,1-1.666-.574,1.859,1.859,0,0,1-.651-1.457,1.942,1.942,0,0,1,.816-1.666,3.846,3.846,0,0,1,2.295-.594h1.143V7.3a1.319,1.319,0,0,0-.368-.981,1.48,1.48,0,0,0-1.085-.365,1.712,1.712,0,0,0-1.054.317.935.935,0,0,0-.425.768h-1.181a1.621,1.621,0,0,1,.365-.993,2.491,2.491,0,0,1,.99-.759A3.331,3.331,0,0,1,184.806,5a2.715,2.715,0,0,1,1.86.594,2.141,2.141,0,0,1,.7,1.635v3.161a3.865,3.865,0,0,0,.241,1.5V12Zm-1.949-.9a2.064,2.064,0,0,0,1.047-.286,1.728,1.728,0,0,0,.717-.743V8.667h-.92q-2.158,0-2.158,1.263a1.069,1.069,0,0,0,.368.863A1.415,1.415,0,0,0,184.425,11.1Zm6.951-.7,1.7-5.275h1.2L191.814,12h-.9L188.43,5.132h1.2ZM196.682,12h-1.174V5.132h1.174Zm-1.27-8.69a.7.7,0,0,1,.175-.482.655.655,0,0,1,.517-.2.666.666,0,0,1,.521.2.694.694,0,0,1,.178.482.671.671,0,0,1-.178.476.678.678,0,0,1-.521.19.667.667,0,0,1-.517-.19A.678.678,0,0,1,195.413,3.31ZM198.25,8.5a4.057,4.057,0,0,1,.4-1.815,2.959,2.959,0,0,1,1.1-1.244A3.007,3.007,0,0,1,201.367,5a2.9,2.9,0,0,1,2.269.971A3.736,3.736,0,0,1,204.5,8.56v.083a4.092,4.092,0,0,1-.384,1.8,2.916,2.916,0,0,1-1.1,1.241,3.041,3.041,0,0,1-1.641.444,2.889,2.889,0,0,1-2.263-.971,3.718,3.718,0,0,1-.866-2.571Zm1.181.14a2.938,2.938,0,0,0,.53,1.834,1.8,1.8,0,0,0,2.841-.01,3.213,3.213,0,0,0,.527-1.965,2.933,2.933,0,0,0-.536-1.831,1.705,1.705,0,0,0-1.425-.7,1.686,1.686,0,0,0-1.4.692A3.189,3.189,0,0,0,199.431,8.642ZM201.9,2.25h1.422l-1.7,1.866-.946,0Zm5.186,2.882.038.863A2.5,2.5,0,0,1,209.181,5q2.177,0,2.2,2.457V12H210.2V7.455a1.581,1.581,0,0,0-.34-1.1A1.361,1.361,0,0,0,208.825,6a1.7,1.7,0,0,0-1,.3,2.069,2.069,0,0,0-.673.8V12h-1.174V5.132Zm11.527,5.148,1.6-5.148h1.257l-2.761,7.928q-.641,1.714-2.038,1.714l-.222-.019-.438-.083V13.72l.317.025a1.563,1.563,0,0,0,.93-.241,1.746,1.746,0,0,0,.549-.882l.26-.7-2.45-6.792H216.9ZM8.074,26.469v1.663H9.357v.908H8.074V33.3a.953.953,0,0,0,.171.62.721.721,0,0,0,.584.207,2.843,2.843,0,0,0,.559-.076V35a3.424,3.424,0,0,1-.9.126A1.462,1.462,0,0,1,7.3,34.651,2.045,2.045,0,0,1,6.9,33.3V29.04H5.65v-.908H6.9V26.469Zm5.5,8.658a3,3,0,0,1-2.272-.917,3.4,3.4,0,0,1-.876-2.453v-.216a4.121,4.121,0,0,1,.39-1.825,3.045,3.045,0,0,1,1.092-1.257A2.745,2.745,0,0,1,13.432,28a2.572,2.572,0,0,1,2.082.882,3.82,3.82,0,0,1,.743,2.526V31.9H11.6a2.441,2.441,0,0,0,.594,1.641,1.866,1.866,0,0,0,1.444.625,2.045,2.045,0,0,0,1.054-.254,2.648,2.648,0,0,0,.755-.673l.717.559A2.884,2.884,0,0,1,13.578,35.127Zm-.146-6.157a1.566,1.566,0,0,0-1.193.517,2.515,2.515,0,0,0-.6,1.45h3.44v-.089a2.237,2.237,0,0,0-.482-1.387A1.475,1.475,0,0,0,13.432,28.97Zm5.294-.838.038.863A2.5,2.5,0,0,1,20.821,28q2.177,0,2.2,2.457V35H21.843V30.455a1.581,1.581,0,0,0-.34-1.1A1.361,1.361,0,0,0,20.465,29a1.7,1.7,0,0,0-1,.3,2.069,2.069,0,0,0-.673.8V35H17.615V28.132Zm5.783,3.377a4.037,4.037,0,0,1,.743-2.555,2.56,2.56,0,0,1,3.929-.06l.057-.762H30.31v6.7a2.794,2.794,0,0,1-.79,2.1A2.916,2.916,0,0,1,27.4,37.7a3.532,3.532,0,0,1-1.454-.317,2.5,2.5,0,0,1-1.085-.87l.609-.7a2.3,2.3,0,0,0,1.847.933,1.8,1.8,0,0,0,1.336-.482A1.844,1.844,0,0,0,29.13,34.9v-.59a2.414,2.414,0,0,1-1.923.813,2.346,2.346,0,0,1-1.952-.971A4.244,4.244,0,0,1,24.509,31.509Zm1.181.133a3.08,3.08,0,0,0,.476,1.825,1.547,1.547,0,0,0,1.333.663,1.72,1.72,0,0,0,1.631-1.009V29.985A1.74,1.74,0,0,0,27.511,29a1.561,1.561,0,0,0-1.339.667A3.354,3.354,0,0,0,25.689,31.642Zm6.081-.14a4.057,4.057,0,0,1,.4-1.815,2.96,2.96,0,0,1,1.1-1.244A3.007,3.007,0,0,1,34.887,28a2.9,2.9,0,0,1,2.269.971,3.736,3.736,0,0,1,.866,2.583v.083a4.092,4.092,0,0,1-.384,1.8,2.916,2.916,0,0,1-1.1,1.241,3.041,3.041,0,0,1-1.641.444,2.889,2.889,0,0,1-2.263-.971,3.718,3.718,0,0,1-.866-2.571Zm1.181.14a2.938,2.938,0,0,0,.53,1.834,1.8,1.8,0,0,0,2.841-.01,3.213,3.213,0,0,0,.527-1.965,2.933,2.933,0,0,0-.536-1.831,1.705,1.705,0,0,0-1.425-.7,1.686,1.686,0,0,0-1.4.692A3.189,3.189,0,0,0,32.951,31.642ZM48.649,35H42.593v-.844l3.2-3.555a7.6,7.6,0,0,0,.981-1.311,2.188,2.188,0,0,0,.27-1.044,1.658,1.658,0,0,0-.438-1.187,1.531,1.531,0,0,0-1.168-.463,1.814,1.814,0,0,0-1.362.5,1.9,1.9,0,0,0-.486,1.387H42.415a2.726,2.726,0,0,1,.822-2.063,3.047,3.047,0,0,1,2.2-.787,2.928,2.928,0,0,1,2.038.676,2.306,2.306,0,0,1,.749,1.8,5.287,5.287,0,0,1-1.739,3.25l-2.476,2.685h4.64Zm7.04-3.942a5.371,5.371,0,0,1-.7,3.066,2.928,2.928,0,0,1-4.393.022,5.1,5.1,0,0,1-.736-2.929V29.649a5.251,5.251,0,0,1,.7-3.028,2.98,2.98,0,0,1,4.405-.035,5.068,5.068,0,0,1,.724,2.948Zm-1.174-1.606a4.3,4.3,0,0,0-.419-2.174,1.442,1.442,0,0,0-1.327-.682,1.423,1.423,0,0,0-1.314.679,4.2,4.2,0,0,0-.425,2.088v1.879a4.372,4.372,0,0,0,.435,2.212,1.439,1.439,0,0,0,1.317.714,1.42,1.42,0,0,0,1.292-.673,4.214,4.214,0,0,0,.441-2.12Zm11.819,2.19a4.113,4.113,0,0,1-.717,2.526,2.3,2.3,0,0,1-1.942.958,2.519,2.519,0,0,1-1.968-.793v3.307H60.531V28.132H61.6l.057.762A2.419,2.419,0,0,1,63.655,28a2.342,2.342,0,0,1,1.958.933,4.157,4.157,0,0,1,.72,2.6Zm-1.174-.133a3.035,3.035,0,0,0-.5-1.834A1.6,1.6,0,0,0,63.305,29a1.726,1.726,0,0,0-1.6.946v3.282a1.73,1.73,0,0,0,1.612.939,1.587,1.587,0,0,0,1.343-.67A3.313,3.313,0,0,0,65.159,31.509Zm5.986-2.323a3.519,3.519,0,0,0-.578-.044A1.547,1.547,0,0,0,69,30.125V35H67.825V28.132h1.143l.019.793A1.829,1.829,0,0,1,70.624,28a1.2,1.2,0,0,1,.521.089Zm3.809,5.941a3,3,0,0,1-2.272-.917,3.4,3.4,0,0,1-.876-2.453v-.216a4.121,4.121,0,0,1,.39-1.825,3.045,3.045,0,0,1,1.092-1.257A2.745,2.745,0,0,1,74.807,28a2.572,2.572,0,0,1,2.082.882,3.82,3.82,0,0,1,.743,2.526V31.9H72.979a2.441,2.441,0,0,0,.594,1.641,1.866,1.866,0,0,0,1.444.625,2.045,2.045,0,0,0,1.054-.254,2.648,2.648,0,0,0,.755-.673l.717.559A2.884,2.884,0,0,1,74.953,35.127Zm-.146-6.157a1.566,1.566,0,0,0-1.193.517,2.515,2.515,0,0,0-.6,1.45h3.44v-.089a2.237,2.237,0,0,0-.482-1.387A1.475,1.475,0,0,0,74.807,28.97Zm6.938,5.2a1.691,1.691,0,0,0,1.1-.381,1.34,1.34,0,0,0,.521-.952h1.111a2.13,2.13,0,0,1-.406,1.124,2.676,2.676,0,0,1-1,.851,2.885,2.885,0,0,1-1.323.317,2.829,2.829,0,0,1-2.231-.936,3.729,3.729,0,0,1-.828-2.561v-.2a4.135,4.135,0,0,1,.368-1.784,2.8,2.8,0,0,1,1.057-1.212A3,3,0,0,1,81.739,28a2.755,2.755,0,0,1,1.92.692,2.473,2.473,0,0,1,.816,1.8H83.364a1.618,1.618,0,0,0-.5-1.095,1.57,1.57,0,0,0-1.12-.428,1.644,1.644,0,0,0-1.387.644,3.026,3.026,0,0,0-.492,1.863V31.7a2.966,2.966,0,0,0,.489,1.828A1.651,1.651,0,0,0,81.745,34.168ZM87.071,35H85.9V28.132h1.174ZM85.8,26.31a.7.7,0,0,1,.175-.482.655.655,0,0,1,.517-.2.666.666,0,0,1,.521.2.694.694,0,0,1,.178.482.671.671,0,0,1-.178.476.678.678,0,0,1-.521.19.667.667,0,0,1-.517-.19A.678.678,0,0,1,85.8,26.31ZM88.639,31.5a4.057,4.057,0,0,1,.4-1.815,2.96,2.96,0,0,1,1.1-1.244A3.007,3.007,0,0,1,91.756,28a2.9,2.9,0,0,1,2.269.971,3.736,3.736,0,0,1,.866,2.583v.083a4.092,4.092,0,0,1-.384,1.8,2.916,2.916,0,0,1-1.1,1.241,3.041,3.041,0,0,1-1.641.444,2.889,2.889,0,0,1-2.263-.971,3.718,3.718,0,0,1-.866-2.571Zm1.181.14a2.938,2.938,0,0,0,.53,1.834,1.8,1.8,0,0,0,2.841-.01,3.213,3.213,0,0,0,.527-1.965,2.933,2.933,0,0,0-.536-1.831,1.705,1.705,0,0,0-1.425-.7,1.686,1.686,0,0,0-1.4.692A3.189,3.189,0,0,0,89.82,31.642Zm10.543,1.536a.864.864,0,0,0-.359-.74,3.452,3.452,0,0,0-1.25-.454,5.912,5.912,0,0,1-1.416-.457,2.014,2.014,0,0,1-.774-.635,1.518,1.518,0,0,1-.251-.876,1.782,1.782,0,0,1,.714-1.428A2.789,2.789,0,0,1,98.852,28a2.87,2.87,0,0,1,1.895.6,1.915,1.915,0,0,1,.727,1.542h-1.181a1.06,1.06,0,0,0-.409-.832,1.534,1.534,0,0,0-1.031-.349,1.606,1.606,0,0,0-1,.279.879.879,0,0,0-.362.73.712.712,0,0,0,.336.641,4.139,4.139,0,0,0,1.216.413,6.334,6.334,0,0,1,1.425.47,2.079,2.079,0,0,1,.809.657,1.615,1.615,0,0,1,.263.936,1.758,1.758,0,0,1-.736,1.476,3.089,3.089,0,0,1-1.911.555,3.459,3.459,0,0,1-1.46-.292,2.374,2.374,0,0,1-.993-.816,1.966,1.966,0,0,1-.359-1.133h1.174a1.216,1.216,0,0,0,.473.936,1.835,1.835,0,0,0,1.165.346,1.894,1.894,0,0,0,1.07-.27A.829.829,0,0,0,100.363,33.178Zm2.666,3.663-.667-.457a3.063,3.063,0,0,0,.622-1.714V33.61h1.149v.92a2.891,2.891,0,0,1-.314,1.282A3,3,0,0,1,103.029,36.841Zm6.913-8.709.032.762A2.536,2.536,0,0,1,112.011,28a1.964,1.964,0,0,1,1.961,1.1,2.6,2.6,0,0,1,.892-.8,2.634,2.634,0,0,1,1.3-.3q2.26,0,2.3,2.393V35h-1.174V30.468a1.577,1.577,0,0,0-.336-1.1A1.482,1.482,0,0,0,115.82,29a1.557,1.557,0,0,0-1.085.39,1.584,1.584,0,0,0-.5,1.051V35h-1.181V30.5a1.31,1.31,0,0,0-1.466-1.5,1.571,1.571,0,0,0-1.581.984V35h-1.174V28.132Zm13.14,7a3,3,0,0,1-2.272-.917,3.4,3.4,0,0,1-.876-2.453v-.216a4.121,4.121,0,0,1,.39-1.825,3.045,3.045,0,0,1,1.092-1.257,2.745,2.745,0,0,1,1.52-.454,2.572,2.572,0,0,1,2.082.882,3.82,3.82,0,0,1,.743,2.526V31.9h-4.653a2.441,2.441,0,0,0,.594,1.641,1.866,1.866,0,0,0,1.444.625,2.045,2.045,0,0,0,1.054-.254,2.648,2.648,0,0,0,.755-.673l.717.559A2.884,2.884,0,0,1,123.081,35.127Zm-.146-6.157a1.566,1.566,0,0,0-1.193.517,2.515,2.515,0,0,0-.6,1.45h3.44v-.089a2.237,2.237,0,0,0-.482-1.387A1.475,1.475,0,0,0,122.935,28.97ZM130.914,35V29.04h-1.085v-.908h1.085v-.7a2.339,2.339,0,0,1,.59-1.708,2.23,2.23,0,0,1,1.669-.6,3.1,3.1,0,0,1,.806.107l-.063.946a3.373,3.373,0,0,0-.635-.057,1.146,1.146,0,0,0-.882.334,1.356,1.356,0,0,0-.311.958v.726h1.466v.908h-1.466V35Zm8.176,0a2.467,2.467,0,0,1-.165-.724,2.62,2.62,0,0,1-1.955.851,2.424,2.424,0,0,1-1.666-.574,1.859,1.859,0,0,1-.651-1.457,1.942,1.942,0,0,1,.816-1.666,3.846,3.846,0,0,1,2.295-.594h1.143V30.3a1.319,1.319,0,0,0-.368-.981,1.48,1.48,0,0,0-1.085-.365,1.712,1.712,0,0,0-1.054.317.935.935,0,0,0-.425.768h-1.181a1.621,1.621,0,0,1,.365-.993,2.491,2.491,0,0,1,.99-.759A3.331,3.331,0,0,1,137.522,28a2.715,2.715,0,0,1,1.86.594,2.141,2.141,0,0,1,.7,1.635v3.161a3.865,3.865,0,0,0,.241,1.5V35Zm-1.949-.9a2.064,2.064,0,0,0,1.047-.286,1.728,1.728,0,0,0,.717-.743V31.667h-.92q-2.158,0-2.158,1.263a1.069,1.069,0,0,0,.368.863A1.415,1.415,0,0,0,137.141,34.1Zm6.056.9h-1.174V25.25H143.2Zm3.472-8.531v1.663h1.282v.908h-1.282V33.3a.953.953,0,0,0,.171.62.721.721,0,0,0,.584.207,2.843,2.843,0,0,0,.559-.076V35a3.424,3.424,0,0,1-.9.126,1.462,1.462,0,0,1-1.187-.476,2.045,2.045,0,0,1-.4-1.352V29.04h-1.25v-.908h1.25V26.469ZM153.563,35a2.467,2.467,0,0,1-.165-.724,2.62,2.62,0,0,1-1.955.851,2.424,2.424,0,0,1-1.666-.574,1.859,1.859,0,0,1-.651-1.457,1.942,1.942,0,0,1,.816-1.666,3.846,3.846,0,0,1,2.295-.594h1.143V30.3a1.319,1.319,0,0,0-.368-.981,1.48,1.48,0,0,0-1.085-.365,1.712,1.712,0,0,0-1.054.317.935.935,0,0,0-.425.768h-1.181a1.621,1.621,0,0,1,.365-.993,2.491,2.491,0,0,1,.99-.759A3.331,3.331,0,0,1,151.995,28a2.715,2.715,0,0,1,1.86.594,2.141,2.141,0,0,1,.7,1.635v3.161a3.865,3.865,0,0,0,.241,1.5V35Zm-1.949-.9a2.064,2.064,0,0,0,1.047-.286,1.728,1.728,0,0,0,.717-.743V31.667h-.92q-2.158,0-2.158,1.263a1.069,1.069,0,0,0,.368.863A1.415,1.415,0,0,0,151.614,34.1Zm5.891-5.973.038.863A2.5,2.5,0,0,1,159.6,28q2.177,0,2.2,2.457V35h-1.174V30.455a1.581,1.581,0,0,0-.34-1.1A1.361,1.361,0,0,0,159.244,29a1.7,1.7,0,0,0-1,.3,2.069,2.069,0,0,0-.673.8V35h-1.174V28.132Zm14.765.038A2.146,2.146,0,0,1,171.9,29.4a2.483,2.483,0,0,1-.987.844,2.649,2.649,0,0,1,1.146.908,2.284,2.284,0,0,1,.422,1.352,2.415,2.415,0,0,1-.809,1.911,3.548,3.548,0,0,1-4.266,0,2.426,2.426,0,0,1-.8-1.907,2.352,2.352,0,0,1,.409-1.352,2.548,2.548,0,0,1,1.133-.914,2.422,2.422,0,0,1-.971-.844,2.177,2.177,0,0,1-.355-1.225,2.389,2.389,0,0,1,.749-1.854,3.181,3.181,0,0,1,3.945,0A2.384,2.384,0,0,1,172.269,28.17Zm-.958,4.31a1.7,1.7,0,0,0-.492-1.263,1.745,1.745,0,0,0-1.285-.489,1.653,1.653,0,0,0-1.752,1.752,1.641,1.641,0,0,0,.467,1.238,2.084,2.084,0,0,0,2.593,0A1.637,1.637,0,0,0,171.311,32.48ZM169.546,26.6a1.515,1.515,0,0,0-1.12.428,1.773,1.773,0,0,0-.006,2.3,1.677,1.677,0,0,0,2.253,0,1.737,1.737,0,0,0-.016-2.288A1.494,1.494,0,0,0,169.546,26.6Zm10.213,4.462a5.371,5.371,0,0,1-.7,3.066,2.928,2.928,0,0,1-4.393.022,5.1,5.1,0,0,1-.736-2.929V29.649a5.251,5.251,0,0,1,.7-3.028,2.98,2.98,0,0,1,4.405-.035,5.068,5.068,0,0,1,.724,2.948Zm-1.174-1.606a4.3,4.3,0,0,0-.419-2.174,1.442,1.442,0,0,0-1.327-.682,1.423,1.423,0,0,0-1.314.679,4.2,4.2,0,0,0-.425,2.088v1.879a4.372,4.372,0,0,0,.435,2.212,1.439,1.439,0,0,0,1.317.714,1.42,1.42,0,0,0,1.292-.673,4.214,4.214,0,0,0,.441-2.12Zm11.819,2.19a4.112,4.112,0,0,1-.717,2.526,2.3,2.3,0,0,1-1.942.958,2.519,2.519,0,0,1-1.968-.793v3.307H184.6V28.132h1.073l.057.762A2.419,2.419,0,0,1,187.726,28a2.342,2.342,0,0,1,1.958.933,4.157,4.157,0,0,1,.72,2.6Zm-1.174-.133a3.035,3.035,0,0,0-.5-1.834A1.6,1.6,0,0,0,187.377,29a1.726,1.726,0,0,0-1.6.946v3.282a1.73,1.73,0,0,0,1.612.939,1.587,1.587,0,0,0,1.343-.67A3.312,3.312,0,0,0,189.23,31.509Zm5.986-2.323a3.519,3.519,0,0,0-.578-.044,1.547,1.547,0,0,0-1.568.984V35H191.9V28.132h1.143l.019.793A1.829,1.829,0,0,1,194.7,28a1.2,1.2,0,0,1,.521.089Zm3.809,5.941a3,3,0,0,1-2.272-.917,3.4,3.4,0,0,1-.876-2.453v-.216a4.121,4.121,0,0,1,.39-1.825,3.045,3.045,0,0,1,1.092-1.257,2.745,2.745,0,0,1,1.52-.454,2.572,2.572,0,0,1,2.082.882,3.82,3.82,0,0,1,.743,2.526V31.9h-4.653a2.441,2.441,0,0,0,.594,1.641,1.866,1.866,0,0,0,1.444.625,2.045,2.045,0,0,0,1.054-.254,2.647,2.647,0,0,0,.755-.673l.717.559A2.884,2.884,0,0,1,199.025,35.127Zm-.146-6.157a1.566,1.566,0,0,0-1.193.517,2.515,2.515,0,0,0-.6,1.45h3.44v-.089a2.237,2.237,0,0,0-.482-1.387A1.475,1.475,0,0,0,198.879,28.97Zm6.938,5.2a1.692,1.692,0,0,0,1.1-.381,1.34,1.34,0,0,0,.521-.952h1.111a2.13,2.13,0,0,1-.406,1.124,2.676,2.676,0,0,1-1,.851,2.885,2.885,0,0,1-1.323.317,2.829,2.829,0,0,1-2.231-.936,3.729,3.729,0,0,1-.828-2.561v-.2a4.135,4.135,0,0,1,.368-1.784,2.8,2.8,0,0,1,1.057-1.212A3,3,0,0,1,205.81,28a2.755,2.755,0,0,1,1.92.692,2.473,2.473,0,0,1,.816,1.8h-1.111a1.618,1.618,0,0,0-.5-1.095,1.57,1.57,0,0,0-1.12-.428,1.644,1.644,0,0,0-1.387.644,3.026,3.026,0,0,0-.492,1.863V31.7a2.965,2.965,0,0,0,.489,1.828A1.651,1.651,0,0,0,205.817,34.168Zm5.326.832h-1.174V28.132h1.174Zm-1.27-8.69a.7.7,0,0,1,.175-.482.655.655,0,0,1,.517-.2.666.666,0,0,1,.521.2.694.694,0,0,1,.178.482.671.671,0,0,1-.178.476.678.678,0,0,1-.521.19.667.667,0,0,1-.517-.19A.678.678,0,0,1,209.873,26.31ZM212.71,31.5a4.057,4.057,0,0,1,.4-1.815,2.959,2.959,0,0,1,1.1-1.244A3.007,3.007,0,0,1,215.827,28a2.9,2.9,0,0,1,2.269.971,3.736,3.736,0,0,1,.866,2.583v.083a4.092,4.092,0,0,1-.384,1.8,2.916,2.916,0,0,1-1.1,1.241,3.041,3.041,0,0,1-1.641.444,2.889,2.889,0,0,1-2.263-.971,3.718,3.718,0,0,1-.866-2.571Zm1.181.14a2.938,2.938,0,0,0,.53,1.834,1.8,1.8,0,0,0,2.841-.01,3.213,3.213,0,0,0,.527-1.965,2.933,2.933,0,0,0-.536-1.831,1.705,1.705,0,0,0-1.425-.7,1.686,1.686,0,0,0-1.4.692A3.189,3.189,0,0,0,213.891,31.642Zm10.543,1.536a.865.865,0,0,0-.359-.74,3.452,3.452,0,0,0-1.25-.454,5.912,5.912,0,0,1-1.416-.457,2.014,2.014,0,0,1-.774-.635,1.518,1.518,0,0,1-.251-.876,1.782,1.782,0,0,1,.714-1.428A2.789,2.789,0,0,1,222.924,28a2.87,2.87,0,0,1,1.895.6,1.915,1.915,0,0,1,.727,1.542h-1.181a1.06,1.06,0,0,0-.409-.832,1.534,1.534,0,0,0-1.031-.349,1.605,1.605,0,0,0-1,.279.879.879,0,0,0-.362.73.712.712,0,0,0,.336.641,4.139,4.139,0,0,0,1.216.413,6.334,6.334,0,0,1,1.425.47,2.079,2.079,0,0,1,.809.657,1.615,1.615,0,0,1,.263.936,1.758,1.758,0,0,1-.736,1.476,3.089,3.089,0,0,1-1.911.555,3.459,3.459,0,0,1-1.46-.292,2.374,2.374,0,0,1-.993-.816,1.966,1.966,0,0,1-.359-1.133h1.174a1.216,1.216,0,0,0,.473.936,1.835,1.835,0,0,0,1.165.346,1.894,1.894,0,0,0,1.07-.27A.829.829,0,0,0,224.434,33.178Zm3.574-7.065-.19,2.272h-.7l.006-3.136h.889Zm1.714,0-.19,2.272h-.7l.006-3.136h.889ZM78.54,54.268H76.407L75.76,58h-1.2l1.606-9.242,2.78.006a3.1,3.1,0,0,1,2.215.737A2.3,2.3,0,0,1,81.8,51.49a2.633,2.633,0,0,1-.632,1.532,3.45,3.45,0,0,1-1.495,1l1.435,3.9L81.1,58h-1.27Zm-1.961-1,1.752.006a2.447,2.447,0,0,0,1.542-.486,1.89,1.89,0,0,0,.736-1.3,1.493,1.493,0,0,0-.317-1.244,1.7,1.7,0,0,0-1.257-.476l-1.847-.006ZM86.03,51a2.476,2.476,0,0,1,1.479.47,2.669,2.669,0,0,1,.911,1.26,3.9,3.9,0,0,1,.2,1.755l-.013.14a4.619,4.619,0,0,1-.6,1.812,3.5,3.5,0,0,1-1.231,1.26,3,3,0,0,1-1.657.425,2.48,2.48,0,0,1-1.476-.47,2.608,2.608,0,0,1-.9-1.244,4.006,4.006,0,0,1-.2-1.733,4.68,4.68,0,0,1,.578-1.917,3.582,3.582,0,0,1,1.241-1.317A2.967,2.967,0,0,1,86.03,51Zm-2.336,3.682a3.9,3.9,0,0,0,0,.832,2.037,2.037,0,0,0,.448,1.193,1.343,1.343,0,0,0,1.025.463,1.83,1.83,0,0,0,1.054-.282,2.372,2.372,0,0,0,.813-.911,3.836,3.836,0,0,0,.425-1.352,6.09,6.09,0,0,0,.019-.984,2.114,2.114,0,0,0-.463-1.212,1.373,1.373,0,0,0-1.028-.47,1.872,1.872,0,0,0-1.511.7,3.449,3.449,0,0,0-.768,1.879ZM95.7,54.6a5.351,5.351,0,0,1-.578,1.9,3.235,3.235,0,0,1-1.092,1.25,2.485,2.485,0,0,1-1.422.387,2.12,2.12,0,0,1-1.847-.933l-.235.8H89.47l1.695-9.75h1.149l-.692,3.644A2.525,2.525,0,0,1,93.628,51a1.916,1.916,0,0,1,1.542.73,3.213,3.213,0,0,1,.584,1.942,5.981,5.981,0,0,1-.038.787Zm-1.092-.663a2.444,2.444,0,0,0-.311-1.417A1.19,1.19,0,0,0,93.292,52a2.091,2.091,0,0,0-1.815,1.078l-.514,2.986a1.462,1.462,0,0,0,1.428,1.071,1.669,1.669,0,0,0,1.177-.4,2.61,2.61,0,0,0,.765-1.189A5.345,5.345,0,0,0,94.612,53.935Zm4.97,4.192a2.476,2.476,0,0,1-2.006-.946,3.255,3.255,0,0,1-.609-2.355L97,54.553a4.57,4.57,0,0,1,.606-1.866,3.526,3.526,0,0,1,1.216-1.273A2.836,2.836,0,0,1,100.369,51a2.184,2.184,0,0,1,1.663.7,2.9,2.9,0,0,1,.66,1.841,5.379,5.379,0,0,1-.025.825l-.07.527H98.11a2.32,2.32,0,0,0,.308,1.587,1.458,1.458,0,0,0,1.26.679,2.443,2.443,0,0,0,1.879-.914l.66.559a3.021,3.021,0,0,1-1.114.974A3.157,3.157,0,0,1,99.582,58.127Zm.73-6.164a1.678,1.678,0,0,0-1.241.482,3.429,3.429,0,0,0-.841,1.492l3.339.006.025-.1a1.879,1.879,0,0,0-.257-1.33A1.209,1.209,0,0,0,100.312,51.963Zm7.313.216-.54-.057a1.966,1.966,0,0,0-1.739,1L104.5,58h-1.149l1.193-6.868,1.111-.006-.171.8a2.054,2.054,0,0,1,1.72-.933,2.107,2.107,0,0,1,.546.1Zm3.409-2.71-.292,1.663h1.25l-.159.908h-1.244l-.717,4.272a1.49,1.49,0,0,0-.006.3.484.484,0,0,0,.54.5,3.291,3.291,0,0,0,.559-.063l-.089.958a3.126,3.126,0,0,1-.838.114,1.2,1.2,0,0,1-1.028-.5,1.952,1.952,0,0,1-.267-1.323l.7-4.253h-1.212l.159-.908H109.6l.292-1.663Zm11.559,5.586a3.684,3.684,0,0,1-1.3,2.272,3.637,3.637,0,0,1-2.472.8,2.879,2.879,0,0,1-1.5-.422,2.667,2.667,0,0,1-1-1.162,4.339,4.339,0,0,1-.394-1.679,5.381,5.381,0,0,1,.044-1.016l.108-.762a5.749,5.749,0,0,1,1.463-3.285,3.692,3.692,0,0,1,2.834-1.171,2.765,2.765,0,0,1,2.063.841,3.345,3.345,0,0,1,.806,2.263h-1.187q-.083-1.942-1.523-2.095l-.209-.013a2.453,2.453,0,0,0-2,.892,4.828,4.828,0,0,0-1.038,2.523l-.14.958-.038.559a3.142,3.142,0,0,0,.416,1.857,1.568,1.568,0,0,0,1.349.714,2.376,2.376,0,0,0,1.6-.463,3.083,3.083,0,0,0,.962-1.593Zm5.319-2.875-.54-.057a1.966,1.966,0,0,0-1.739,1L124.789,58H123.64l1.193-6.868,1.111-.006-.171.8a2.054,2.054,0,0,1,1.72-.933,2.107,2.107,0,0,1,.546.1ZM131.917,58a1.539,1.539,0,0,1-.044-.362l.019-.362a2.816,2.816,0,0,1-2.006.851,2.052,2.052,0,0,1-1.476-.574,1.739,1.739,0,0,1-.517-1.406,2.114,2.114,0,0,1,.955-1.7,4.067,4.067,0,0,1,2.345-.613l1.2.006.076-.546a1.255,1.255,0,0,0-.238-.974,1.149,1.149,0,0,0-.9-.371,1.772,1.772,0,0,0-1.044.289,1.229,1.229,0,0,0-.555.8l-1.155.006a1.841,1.841,0,0,1,.47-1.07,2.733,2.733,0,0,1,1.06-.724A3.424,3.424,0,0,1,131.441,51a2.277,2.277,0,0,1,1.669.651,2.018,2.018,0,0,1,.5,1.66l-.559,3.4-.032.489a2.4,2.4,0,0,0,.076.692l-.013.108Zm-1.8-.889a2,2,0,0,0,1.044-.263,2.644,2.644,0,0,0,.847-.765l.248-1.416-.87-.006a3.294,3.294,0,0,0-1.663.343,1.262,1.262,0,0,0-.654.971.983.983,0,0,0,.225.8A1.073,1.073,0,0,0,130.115,57.111Zm6.8-5.986-.165.87a2.708,2.708,0,0,1,2.107-.99,1.7,1.7,0,0,1,1.435.673,2.614,2.614,0,0,1,.343,1.822L139.89,58h-1.149l.755-4.515a2.406,2.406,0,0,0,.006-.577A.949.949,0,0,0,138.455,52a2.162,2.162,0,0,0-1.815,1.1l-.851,4.9H134.64l1.193-6.868Zm5.072,3.428a5.344,5.344,0,0,1,.578-1.892,3.275,3.275,0,0,1,1.111-1.263,2.54,2.54,0,0,1,1.454-.4,2.145,2.145,0,0,1,1.765.838l.66-3.586h1.149L147.018,58h-1.047l.121-.736a2.532,2.532,0,0,1-2.006.863,1.9,1.9,0,0,1-1.517-.746,3.25,3.25,0,0,1-.609-1.933A6.172,6.172,0,0,1,141.991,54.553Zm1.1.656a2.38,2.38,0,0,0,.324,1.407,1.168,1.168,0,0,0,1,.514,2.075,2.075,0,0,0,1.771-1l.546-3.17A1.425,1.425,0,0,0,145.355,52a1.741,1.741,0,0,0-1.2.409,2.645,2.645,0,0,0-.787,1.2A4.941,4.941,0,0,0,143.1,55.209ZM153.036,58a1.539,1.539,0,0,1-.044-.362l.019-.362a2.816,2.816,0,0,1-2.006.851,2.052,2.052,0,0,1-1.476-.574,1.739,1.739,0,0,1-.517-1.406,2.114,2.114,0,0,1,.955-1.7,4.067,4.067,0,0,1,2.345-.613l1.2.006.076-.546a1.255,1.255,0,0,0-.238-.974,1.149,1.149,0,0,0-.9-.371,1.772,1.772,0,0,0-1.044.289,1.229,1.229,0,0,0-.555.8l-1.155.006a1.841,1.841,0,0,1,.47-1.07,2.733,2.733,0,0,1,1.06-.724A3.424,3.424,0,0,1,152.56,51a2.277,2.277,0,0,1,1.669.651,2.018,2.018,0,0,1,.5,1.66l-.559,3.4-.032.489a2.4,2.4,0,0,0,.076.692L154.2,58Zm-1.8-.889a2,2,0,0,0,1.044-.263,2.644,2.644,0,0,0,.847-.765l.248-1.416-.87-.006A3.294,3.294,0,0,0,150.84,55a1.262,1.262,0,0,0-.654.971.983.983,0,0,0,.225.8A1.073,1.073,0,0,0,151.233,57.111ZM157,58h-1.143l1.688-9.75H158.7Zm3.123,0h-1.143l1.688-9.75h1.149Z" transform="translate(835.668 18041.404)" fill="#12263f"/>
    <path id="Trazado_762194" data-name="Trazado 762194" d="M16.638,6.566h.978a1.377,1.377,0,0,0,1.035-.349,1.279,1.279,0,0,0,.336-.927,1.131,1.131,0,0,0-.333-.87,1.292,1.292,0,0,0-.917-.311,1.354,1.354,0,0,0-.882.289.923.923,0,0,0-.355.752H14.664a2.256,2.256,0,0,1,.39-1.3,2.6,2.6,0,0,1,1.092-.9,3.644,3.644,0,0,1,1.546-.324,3.456,3.456,0,0,1,2.3.7,2.393,2.393,0,0,1,.832,1.933,1.945,1.945,0,0,1-.387,1.168,2.516,2.516,0,0,1-1.016.819,2.3,2.3,0,0,1,1.165.838,2.273,2.273,0,0,1,.384,1.32,2.433,2.433,0,0,1-.9,1.974,3.611,3.611,0,0,1-2.377.743,3.424,3.424,0,0,1-2.263-.73,2.384,2.384,0,0,1-.879-1.93h1.834a1.063,1.063,0,0,0,.39.851,1.629,1.629,0,0,0,1.987-.016,1.194,1.194,0,0,0,.371-.917Q19.132,8,17.609,8h-.971ZM28.451,8.179a4.682,4.682,0,0,1-.793,2.933,2.77,2.77,0,0,1-2.323,1.016,2.789,2.789,0,0,1-2.311-1A4.545,4.545,0,0,1,22.2,8.274v-1.7a4.621,4.621,0,0,1,.8-2.939,2.79,2.79,0,0,1,2.314-1,2.793,2.793,0,0,1,2.311.993,4.531,4.531,0,0,1,.819,2.853Zm-1.834-1.87A3.384,3.384,0,0,0,26.3,4.634a1.062,1.062,0,0,0-.981-.524,1.043,1.043,0,0,0-.955.5,3.167,3.167,0,0,0-.327,1.56V8.418a3.553,3.553,0,0,0,.308,1.681,1.048,1.048,0,0,0,.987.55,1.03,1.03,0,0,0,.971-.527,3.468,3.468,0,0,0,.311-1.614Zm9.928,2.308H35.027V12h-1.9V2.758h3.434a3.882,3.882,0,0,1,2.526.73,2.519,2.519,0,0,1,.889,2.063,2.843,2.843,0,0,1-.409,1.577,2.792,2.792,0,0,1-1.241,1.006l2,3.777V12H38.277ZM35.027,7.074h1.536a1.573,1.573,0,0,0,1.111-.365A1.3,1.3,0,0,0,38.067,5.7,1.4,1.4,0,0,0,37.7,4.675,1.543,1.543,0,0,0,36.557,4.3h-1.53ZM48.935,12h-1.9L43.323,5.919V12h-1.9V2.758h1.9l3.713,6.094V2.758h1.9ZM54.2,10.1a.591.591,0,0,0-.333-.53,3.785,3.785,0,0,0-1.07-.346q-2.45-.514-2.45-2.082A1.887,1.887,0,0,1,51.1,5.617,3.06,3.06,0,0,1,53.086,5a3.293,3.293,0,0,1,2.092.616,1.94,1.94,0,0,1,.784,1.6H54.127a.888.888,0,0,0-.254-.651,1.075,1.075,0,0,0-.793-.257,1.1,1.1,0,0,0-.717.209.661.661,0,0,0-.254.533.565.565,0,0,0,.289.492,2.971,2.971,0,0,0,.974.324,7.958,7.958,0,0,1,1.155.308,1.9,1.9,0,0,1,1.454,1.847,1.792,1.792,0,0,1-.806,1.52,3.478,3.478,0,0,1-2.082.581,3.632,3.632,0,0,1-1.533-.308,2.572,2.572,0,0,1-1.051-.844,1.962,1.962,0,0,1-.381-1.158h1.739a.958.958,0,0,0,.362.749,1.435,1.435,0,0,0,.9.26,1.328,1.328,0,0,0,.8-.2A.622.622,0,0,0,54.2,10.1Zm8.817-2.92,1.155-2.05H66.13L64.175,8.5,66.213,12H64.245L63.02,9.842,61.8,12H59.827l2.038-3.5L59.916,5.132h1.968ZM4.085,26.242a9.742,9.742,0,0,1,.387-2.768,7.3,7.3,0,0,1,1.143-2.326,4.266,4.266,0,0,1,1.638-1.406l.355.99a4.418,4.418,0,0,0-1.447,2.12A9.817,9.817,0,0,0,5.64,26.2v.2a10,10,0,0,0,.514,3.364,4.5,4.5,0,0,0,1.454,2.152l-.355.971A4.268,4.268,0,0,1,5.644,31.52,7.181,7.181,0,0,1,4.5,29.257a9.684,9.684,0,0,1-.419-2.679ZM12.947,30H11.112V22.929l-2.19.679V22.116l3.828-1.371h.2Zm9.337,0H15.949V28.743l2.99-3.187a7.376,7.376,0,0,0,.911-1.174,1.887,1.887,0,0,0,.3-.952,1.412,1.412,0,0,0-.311-.968,1.123,1.123,0,0,0-.889-.352,1.211,1.211,0,0,0-.981.428,1.7,1.7,0,0,0-.359,1.127H15.765a3.03,3.03,0,0,1,.4-1.542,2.841,2.841,0,0,1,1.139-1.095,3.463,3.463,0,0,1,1.669-.4,3.279,3.279,0,0,1,2.219.686,2.425,2.425,0,0,1,.79,1.936,3.108,3.108,0,0,1-.355,1.4,7.76,7.76,0,0,1-1.219,1.657l-2.1,2.215h3.974Zm7.344-3.821a4.682,4.682,0,0,1-.793,2.933,2.77,2.77,0,0,1-2.323,1.016,2.789,2.789,0,0,1-2.311-1,4.545,4.545,0,0,1-.819-2.856v-1.7a4.621,4.621,0,0,1,.8-2.939,2.79,2.79,0,0,1,2.314-1,2.793,2.793,0,0,1,2.311.993,4.531,4.531,0,0,1,.819,2.853Zm-1.834-1.87a3.384,3.384,0,0,0-.314-1.674,1.062,1.062,0,0,0-.981-.524,1.043,1.043,0,0,0-.955.5,3.167,3.167,0,0,0-.327,1.56v2.249a3.553,3.553,0,0,0,.308,1.681,1.048,1.048,0,0,0,.987.55,1.03,1.03,0,0,0,.971-.527,3.468,3.468,0,0,0,.311-1.614Zm8.119,2.416H33.786a2.015,2.015,0,0,0,.5,1.4,1.97,1.97,0,0,0,1.45.47,3.5,3.5,0,0,0,1.206-.2l.229,1.536a7.112,7.112,0,0,1-1.625.184,3.749,3.749,0,0,1-2.644-.9,3.383,3.383,0,0,1-1.025-2.5H30.8V25.76h1.073v-.787H30.8v-.965h1.085A3.466,3.466,0,0,1,33,21.523a3.893,3.893,0,0,1,2.669-.885,6.571,6.571,0,0,1,1.5.2l-.229,1.542a3.629,3.629,0,0,0-1.174-.2A1.783,1.783,0,0,0,33.8,24.008h2.114v.965H33.786v.787h2.126Zm6.056.057H38.394V25.3h3.574ZM47.821,30H45.986V22.929l-2.19.679V22.116l3.828-1.371h.2Zm9.223-3.821a4.682,4.682,0,0,1-.793,2.933,3.171,3.171,0,0,1-4.634.019,4.545,4.545,0,0,1-.819-2.856v-1.7a4.621,4.621,0,0,1,.8-2.939,3.177,3.177,0,0,1,4.624-.01,4.531,4.531,0,0,1,.819,2.853Zm-1.834-1.87a3.384,3.384,0,0,0-.314-1.674,1.062,1.062,0,0,0-.981-.524,1.043,1.043,0,0,0-.955.5,3.167,3.167,0,0,0-.327,1.56v2.249A3.553,3.553,0,0,0,52.94,28.1a1.048,1.048,0,0,0,.987.55,1.03,1.03,0,0,0,.971-.527,3.468,3.468,0,0,0,.311-1.614Zm9.293,1.87a4.682,4.682,0,0,1-.793,2.933,3.171,3.171,0,0,1-4.634.019,4.545,4.545,0,0,1-.819-2.856v-1.7a4.621,4.621,0,0,1,.8-2.939,3.177,3.177,0,0,1,4.624-.01,4.531,4.531,0,0,1,.819,2.853Zm-1.834-1.87a3.384,3.384,0,0,0-.314-1.674,1.062,1.062,0,0,0-.981-.524,1.043,1.043,0,0,0-.955.5,3.167,3.167,0,0,0-.327,1.56v2.249A3.553,3.553,0,0,0,60.4,28.1a1.048,1.048,0,0,0,.987.55,1.03,1.03,0,0,0,.971-.527,3.468,3.468,0,0,0,.311-1.614Zm8.119,2.416H68.66a2.015,2.015,0,0,0,.5,1.4,1.97,1.97,0,0,0,1.45.47,3.5,3.5,0,0,0,1.206-.2l.229,1.536a7.112,7.112,0,0,1-1.625.184,3.749,3.749,0,0,1-2.644-.9,3.383,3.383,0,0,1-1.025-2.5H65.677V25.76h1.073v-.787H65.677v-.965h1.085a3.466,3.466,0,0,1,1.114-2.485,3.893,3.893,0,0,1,2.669-.885,6.571,6.571,0,0,1,1.5.2l-.229,1.542a3.629,3.629,0,0,0-1.174-.2,1.783,1.783,0,0,0-1.968,1.834h2.114v.965H68.66v.787h2.126Zm5.649-.336a9.244,9.244,0,0,1-.413,2.761,7.5,7.5,0,0,1-1.187,2.342,4.277,4.277,0,0,1-1.657,1.4l-.355-.971a4.464,4.464,0,0,0,1.422-2.095,9.7,9.7,0,0,0,.54-3.256v-.336a9.919,9.919,0,0,0-.517-3.345,4.653,4.653,0,0,0-1.444-2.171l.355-.971A4.278,4.278,0,0,1,74.808,21.1a7.4,7.4,0,0,1,1.187,2.292,9.178,9.178,0,0,1,.441,2.71ZM28.127,43.265H22.452v-1.5h5.675Zm0,2.749H22.452v-1.5h5.675Zm6.506-7.351v1.511h-.178a3.117,3.117,0,0,0-2,.647,2.631,2.631,0,0,0-.911,1.746,2.5,2.5,0,0,1,1.86-.749,2.354,2.354,0,0,1,1.917.863,3.461,3.461,0,0,1,.711,2.272,3.4,3.4,0,0,1-.39,1.631,2.8,2.8,0,0,1-1.1,1.136,3.209,3.209,0,0,1-1.615.406,3,3,0,0,1-2.358-1.016,3.942,3.942,0,0,1-.9-2.71v-.66a5.933,5.933,0,0,1,.568-2.656A4.166,4.166,0,0,1,31.863,39.3a4.78,4.78,0,0,1,2.466-.638ZM32.843,43.3a1.466,1.466,0,0,0-.806.231,1.393,1.393,0,0,0-.533.611V44.7a2.47,2.47,0,0,0,.362,1.435,1.169,1.169,0,0,0,1.016.516,1.156,1.156,0,0,0,.955-.466,2.186,2.186,0,0,0,0-2.423A1.2,1.2,0,0,0,32.843,43.3Zm10.493.882a4.682,4.682,0,0,1-.793,2.933,3.171,3.171,0,0,1-4.634.019,4.545,4.545,0,0,1-.819-2.856v-1.7a4.621,4.621,0,0,1,.8-2.939,3.177,3.177,0,0,1,4.624-.01,4.531,4.531,0,0,1,.819,2.853ZM41.5,42.308a3.384,3.384,0,0,0-.314-1.674,1.062,1.062,0,0,0-.981-.524,1.043,1.043,0,0,0-.955.5,3.167,3.167,0,0,0-.327,1.56v2.249a3.553,3.553,0,0,0,.308,1.681,1.048,1.048,0,0,0,.987.55,1.03,1.03,0,0,0,.971-.527,3.468,3.468,0,0,0,.311-1.614Zm9.293,1.87A4.682,4.682,0,0,1,50,47.111a3.171,3.171,0,0,1-4.634.019,4.545,4.545,0,0,1-.819-2.856v-1.7a4.621,4.621,0,0,1,.8-2.939,3.177,3.177,0,0,1,4.624-.01,4.531,4.531,0,0,1,.819,2.853Zm-1.834-1.87a3.384,3.384,0,0,0-.314-1.674,1.062,1.062,0,0,0-.981-.524,1.043,1.043,0,0,0-.955.5,3.167,3.167,0,0,0-.327,1.56v2.249a3.553,3.553,0,0,0,.308,1.681,1.048,1.048,0,0,0,.987.55,1.03,1.03,0,0,0,.971-.527,3.468,3.468,0,0,0,.311-1.614Zm8.119,2.416H54.952a2.015,2.015,0,0,0,.5,1.4,1.97,1.97,0,0,0,1.45.47,3.5,3.5,0,0,0,1.206-.2l.229,1.536a7.112,7.112,0,0,1-1.625.184,3.749,3.749,0,0,1-2.644-.9,3.383,3.383,0,0,1-1.025-2.5H51.969V43.76h1.073v-.787H51.969v-.965h1.085a3.466,3.466,0,0,1,1.114-2.485,3.893,3.893,0,0,1,2.669-.885,6.571,6.571,0,0,1,1.5.2l-.229,1.542a3.629,3.629,0,0,0-1.174-.2,1.783,1.783,0,0,0-1.968,1.834h2.114v.965H54.952v.787h2.126Z" transform="translate(537.851 18145.023)" fill="#12263f"/>
    <path id="Trazado_750538" data-name="Trazado 750538" d="M-16089.5,5416.946s65.445,289.831,531.852,286.813" transform="translate(16649.041 12591.599)" fill="none" stroke="#eb6f2d" stroke-width="3"/>
    <path id="Trazado_750536" data-name="Trazado 750536" d="M-16319,4561.376v301.3h558.113" transform="translate(16852.117 13477.336)" fill="none" stroke="#12263f" stroke-width="2"/>
    <path id="Trazado_762195" data-name="Trazado 762195" d="M8.578,0l8.578,14.3H0Z" transform="translate(524.54 18026.916)" fill="#12263f"/>
    <path id="Trazado_762196" data-name="Trazado 762196" d="M8.578,0l8.578,14.3H0Z" transform="translate(1105 18331.574) rotate(90)" fill="#12263f"/>
  </g>
</svg>
