<svg xmlns="http://www.w3.org/2000/svg" width="295" height="351" viewBox="0 0 295 351">
  <g id="Grupo_1022497" data-name="Grupo 1022497" transform="translate(-810 -1232)">
    <path id="Trazado_750346" data-name="Trazado 750346" d="M16.253,0H278.747A16.271,16.271,0,0,1,295,16.288V334.712A16.271,16.271,0,0,1,278.747,351H16.253A16.271,16.271,0,0,1,0,334.712V16.288A16.271,16.271,0,0,1,16.253,0Z" transform="translate(810 1232)" fill="#ffecbe"/>
    <path id="Trazado_762256" data-name="Trazado 762256" d="M74.148,0A74.148,74.148,0,1,1,0,74.148,74.148,74.148,0,0,1,74.148,0Z" transform="translate(883 1287)" fill="#fff"/>
    <path id="Trazado_762257" data-name="Trazado 762257" d="M36.539,10.172H32.227v2.719H37.32V15H29.484V3.625h7.852V5.742H32.227v2.4h4.313ZM41.094,15H38.453V3h2.641Zm9.18-1.875a1.171,1.171,0,0,0,.859-.3,1.1,1.1,0,0,0,.3-.84H53.9a2.922,2.922,0,0,1-1,2.281,3.705,3.705,0,0,1-2.566.891A3.751,3.751,0,0,1,47.43,14a4.556,4.556,0,0,1-1.062-3.2v-.109a5.149,5.149,0,0,1,.473-2.262A3.441,3.441,0,0,1,48.2,6.918a4.065,4.065,0,0,1,2.109-.527A3.658,3.658,0,0,1,52.93,7.3,3.242,3.242,0,0,1,53.9,9.781H51.43a1.445,1.445,0,0,0-.32-1.008,1.106,1.106,0,0,0-.859-.352q-1.023,0-1.2,1.3A9.206,9.206,0,0,0,49,10.867a3.616,3.616,0,0,0,.3,1.766A1.055,1.055,0,0,0,50.273,13.125ZM57.789,15H55.148V3h2.641Zm4.4,0H59.547V6.547h2.641Zm-2.8-10.633a1.175,1.175,0,0,1,.406-.922,1.727,1.727,0,0,1,2.109,0,1.175,1.175,0,0,1,.406.922,1.175,1.175,0,0,1-.406.922,1.727,1.727,0,0,1-2.109,0A1.175,1.175,0,0,1,59.391,4.367ZM67.9,15.156A4.345,4.345,0,0,1,64.75,14a4.006,4.006,0,0,1-1.2-3.02v-.219a5.191,5.191,0,0,1,.48-2.289,3.516,3.516,0,0,1,1.4-1.535,4.233,4.233,0,0,1,2.188-.543A3.659,3.659,0,0,1,70.43,7.5a4.344,4.344,0,0,1,1.031,3.082V11.6H66.227a1.9,1.9,0,0,0,.617,1.117,1.836,1.836,0,0,0,1.234.406,2.366,2.366,0,0,0,1.953-.875l1.2,1.422a3.363,3.363,0,0,1-1.395,1.082A4.713,4.713,0,0,1,67.9,15.156Zm-.3-6.734q-1.156,0-1.375,1.531h2.656v-.2a1.3,1.3,0,0,0-.32-.98A1.275,1.275,0,0,0,67.6,8.422Zm7.336-1.875.086.992a2.867,2.867,0,0,1,2.414-1.148,2.412,2.412,0,0,1,1.973.789,3.757,3.757,0,0,1,.676,2.375V15H77.445V9.664a1.426,1.426,0,0,0-.258-.941,1.193,1.193,0,0,0-.937-.3,1.256,1.256,0,0,0-1.148.609V15H72.469V6.547Zm9.672-2.1v2.1H86V8.375H84.609v3.867a.987.987,0,0,0,.172.664.922.922,0,0,0,.68.188,3.862,3.862,0,0,0,.656-.047V14.93a4.859,4.859,0,0,1-1.484.227,2.758,2.758,0,0,1-2.008-.641,2.626,2.626,0,0,1-.648-1.945v-4.2H80.9V6.547h1.078v-2.1Zm6.516,10.711A4.345,4.345,0,0,1,87.977,14a4.006,4.006,0,0,1-1.2-3.02v-.219a5.191,5.191,0,0,1,.48-2.289,3.516,3.516,0,0,1,1.4-1.535,4.233,4.233,0,0,1,2.188-.543A3.659,3.659,0,0,1,93.656,7.5a4.344,4.344,0,0,1,1.031,3.082V11.6H89.453a1.9,1.9,0,0,0,.617,1.117,1.836,1.836,0,0,0,1.234.406,2.366,2.366,0,0,0,1.953-.875l1.2,1.422a3.363,3.363,0,0,1-1.395,1.082A4.713,4.713,0,0,1,91.125,15.156Zm-.3-6.734q-1.156,0-1.375,1.531h2.656v-.2a1.3,1.3,0,0,0-.32-.98A1.275,1.275,0,0,0,90.828,8.422Zm8.57,2.289a5.164,5.164,0,0,1,.867-3.164,2.854,2.854,0,0,1,2.422-1.156,2.428,2.428,0,0,1,1.906.891V3h2.641V15h-2.367l-.133-.906a2.493,2.493,0,0,1-2.062,1.063A2.849,2.849,0,0,1,100.281,14,5.327,5.327,0,0,1,99.4,10.711Zm2.633.164q0,2.25,1.313,2.25a1.3,1.3,0,0,0,1.25-.734V9.172a1.261,1.261,0,0,0-1.234-.75q-1.219,0-1.32,1.969ZM111.508,15h-2.641V6.547h2.641Zm-2.8-10.633a1.175,1.175,0,0,1,.406-.922,1.727,1.727,0,0,1,2.109,0,1.175,1.175,0,0,1,.406.922,1.175,1.175,0,0,1-.406.922,1.727,1.727,0,0,1-2.109,0A1.175,1.175,0,0,1,108.711,4.367Zm4.109,6.344a5.708,5.708,0,0,1,.422-2.266,3.4,3.4,0,0,1,1.211-1.52,3.192,3.192,0,0,1,1.836-.535,2.538,2.538,0,0,1,2.063.891l.094-.734h2.391V14.68a3.564,3.564,0,0,1-.52,1.941,3.334,3.334,0,0,1-1.5,1.266,5.528,5.528,0,0,1-2.281.441,4.769,4.769,0,0,1-1.8-.352,3.251,3.251,0,0,1-1.332-.914l1.1-1.547a2.414,2.414,0,0,0,1.938.867,1.568,1.568,0,0,0,1.75-1.8V14.32a2.472,2.472,0,0,1-1.914.836,3.055,3.055,0,0,1-2.5-1.184,4.9,4.9,0,0,1-.953-3.168Zm2.641.164a3.007,3.007,0,0,0,.391,1.645,1.232,1.232,0,0,0,1.094.605,1.4,1.4,0,0,0,1.242-.57V9a1.363,1.363,0,0,0-1.227-.578,1.241,1.241,0,0,0-1.1.629A3.429,3.429,0,0,0,115.461,10.875ZM125.109,15h-2.641V6.547h2.641Zm-2.8-10.633a1.175,1.175,0,0,1,.406-.922,1.727,1.727,0,0,1,2.109,0,1.175,1.175,0,0,1,.406.922,1.175,1.175,0,0,1-.406.922,1.727,1.727,0,0,1-2.109,0A1.175,1.175,0,0,1,122.313,4.367Zm7.484.078v2.1h1.391V8.375H129.8v3.867a.987.987,0,0,0,.172.664.922.922,0,0,0,.68.188,3.862,3.862,0,0,0,.656-.047V14.93a4.859,4.859,0,0,1-1.484.227,2.758,2.758,0,0,1-2.008-.641,2.626,2.626,0,0,1-.648-1.945v-4.2h-1.078V6.547h1.078v-2.1ZM136.984,15a2.973,2.973,0,0,1-.25-.758,2.448,2.448,0,0,1-2.031.914,3,3,0,0,1-2.031-.723,2.3,2.3,0,0,1-.836-1.816,2.364,2.364,0,0,1,1.016-2.078,5.174,5.174,0,0,1,2.953-.7h.813V9.388q0-1.17-1.008-1.17a.824.824,0,0,0-.937.926h-2.633a2.36,2.36,0,0,1,1.043-1.99,4.383,4.383,0,0,1,2.66-.765,3.843,3.843,0,0,1,2.555.789,2.743,2.743,0,0,1,.961,2.164v3.742a3.832,3.832,0,0,0,.359,1.781V15Zm-1.648-1.719a1.469,1.469,0,0,0,.816-.211,1.322,1.322,0,0,0,.465-.477V11.242h-.766q-1.375,0-1.375,1.234a.754.754,0,0,0,.242.582A.876.876,0,0,0,135.336,13.281ZM143.492,15h-2.641V3h2.641ZM10.652,42a2.973,2.973,0,0,1-.25-.758,2.448,2.448,0,0,1-2.031.914,3,3,0,0,1-2.031-.723A2.3,2.3,0,0,1,5.5,39.617,2.364,2.364,0,0,1,6.52,37.539a5.174,5.174,0,0,1,2.953-.7h.813v-.448q0-1.17-1.008-1.17a.824.824,0,0,0-.937.926H5.707a2.36,2.36,0,0,1,1.043-1.99,4.383,4.383,0,0,1,2.66-.765,3.843,3.843,0,0,1,2.555.789,2.743,2.743,0,0,1,.961,2.164v3.742a3.832,3.832,0,0,0,.359,1.781V42ZM9,40.281a1.469,1.469,0,0,0,.816-.211,1.322,1.322,0,0,0,.465-.477V38.242H9.52q-1.375,0-1.375,1.234a.754.754,0,0,0,.242.582A.876.876,0,0,0,9,40.281ZM22.23,37.836a5.1,5.1,0,0,1-.887,3.145,2.843,2.843,0,0,1-2.395,1.176,2.437,2.437,0,0,1-1.914-.852V45.25H14.4v-11.7h2.461l.078.781a2.437,2.437,0,0,1,1.992-.937,2.866,2.866,0,0,1,2.43,1.152,5.16,5.16,0,0,1,.867,3.168ZM19.6,37.672q0-2.25-1.312-2.25a1.239,1.239,0,0,0-1.25.672v3.328a1.279,1.279,0,0,0,1.266.7q1.258,0,1.3-2.172ZM28.5,35.93l-.867-.062a1.558,1.558,0,0,0-1.594.781V42H23.41V33.547h2.469l.086,1.086a2.039,2.039,0,0,1,1.852-1.242,2.567,2.567,0,0,1,.734.094ZM28.84,37.7a4.989,4.989,0,0,1,.492-2.254,3.52,3.52,0,0,1,1.414-1.52,4.259,4.259,0,0,1,2.164-.531A3.887,3.887,0,0,1,35.9,34.566,4.512,4.512,0,0,1,37,37.766v.094A4.378,4.378,0,0,1,35.9,41a3.9,3.9,0,0,1-2.973,1.16,3.942,3.942,0,0,1-2.9-1.082,4.232,4.232,0,0,1-1.18-2.934Zm2.633.164a3.145,3.145,0,0,0,.367,1.719,1.223,1.223,0,0,0,1.086.547q1.406,0,1.438-2.164V37.7q0-2.273-1.453-2.273-1.32,0-1.43,1.961Zm9.938,1.008,1.336-5.32H45.52L42.762,42H40.074l-2.758-8.453H40.1Zm8.883,3.289A4.345,4.345,0,0,1,47.145,41a4.006,4.006,0,0,1-1.2-3.02v-.219a5.191,5.191,0,0,1,.48-2.289,3.516,3.516,0,0,1,1.4-1.535,4.233,4.233,0,0,1,2.188-.543A3.659,3.659,0,0,1,52.824,34.5a4.344,4.344,0,0,1,1.031,3.082V38.6H48.621a1.9,1.9,0,0,0,.617,1.117,1.836,1.836,0,0,0,1.234.406,2.366,2.366,0,0,0,1.953-.875l1.2,1.422a3.363,3.363,0,0,1-1.395,1.082A4.713,4.713,0,0,1,50.293,42.156ZM50,35.422q-1.156,0-1.375,1.531h2.656v-.2a1.3,1.3,0,0,0-.32-.98A1.275,1.275,0,0,0,50,35.422Zm8.492,4.7a1.171,1.171,0,0,0,.859-.3,1.1,1.1,0,0,0,.3-.84h2.469a2.923,2.923,0,0,1-1,2.281,3.705,3.705,0,0,1-2.566.891A3.751,3.751,0,0,1,55.645,41a4.556,4.556,0,0,1-1.062-3.2v-.109a5.149,5.149,0,0,1,.473-2.262,3.441,3.441,0,0,1,1.363-1.508,4.065,4.065,0,0,1,2.109-.527,3.658,3.658,0,0,1,2.617.914,3.242,3.242,0,0,1,.969,2.477H59.645a1.445,1.445,0,0,0-.32-1.008,1.106,1.106,0,0,0-.859-.352q-1.023,0-1.2,1.3a9.206,9.206,0,0,0-.055,1.141,3.616,3.616,0,0,0,.3,1.766A1.055,1.055,0,0,0,58.488,40.125ZM65.8,34.453a2.89,2.89,0,0,1,4.266-.234,3.721,3.721,0,0,1,.727,2.445V42H68.152V36.727a1.488,1.488,0,0,0-.273-.988,1.175,1.175,0,0,0-.93-.316,1.266,1.266,0,0,0-1.148.516V42H63.168V30H65.8ZM77.02,42a2.973,2.973,0,0,1-.25-.758,2.448,2.448,0,0,1-2.031.914,3,3,0,0,1-2.031-.723,2.3,2.3,0,0,1-.836-1.816,2.364,2.364,0,0,1,1.016-2.078,5.174,5.174,0,0,1,2.953-.7h.813v-.448q0-1.17-1.008-1.17a.824.824,0,0,0-.937.926H72.074a2.36,2.36,0,0,1,1.043-1.99,4.383,4.383,0,0,1,2.66-.765,3.843,3.843,0,0,1,2.555.789,2.743,2.743,0,0,1,.961,2.164v3.742a3.832,3.832,0,0,0,.359,1.781V42Zm-1.648-1.719a1.469,1.469,0,0,0,.816-.211,1.322,1.322,0,0,0,.465-.477V38.242h-.766q-1.375,0-1.375,1.234a.754.754,0,0,0,.242.582A.876.876,0,0,0,75.371,40.281Zm13.789-.656a.608.608,0,0,0-.352-.539,5.347,5.347,0,0,0-1.336-.422,6.092,6.092,0,0,1-1.625-.574,2.722,2.722,0,0,1-.977-.863,2.061,2.061,0,0,1-.336-1.164,2.336,2.336,0,0,1,.961-1.918,3.958,3.958,0,0,1,2.516-.754,4.386,4.386,0,0,1,2.688.758,2.37,2.37,0,0,1,1.016,1.992H89.074q0-1.016-1.07-1.016a1.061,1.061,0,0,0-.7.23.714.714,0,0,0-.281.574.655.655,0,0,0,.344.57,3.248,3.248,0,0,0,1.1.359,9.486,9.486,0,0,1,1.324.336A2.406,2.406,0,0,1,91.7,39.547a2.214,2.214,0,0,1-1.027,1.883,4.505,4.505,0,0,1-2.66.727,4.6,4.6,0,0,1-1.937-.391A3.24,3.24,0,0,1,84.746,40.7a2.406,2.406,0,0,1-.477-1.414H86.73a1.017,1.017,0,0,0,.391.855,1.607,1.607,0,0,0,.961.27,1.264,1.264,0,0,0,.809-.219A.7.7,0,0,0,89.16,39.625Zm8.8,1.461a2.714,2.714,0,0,1-2.258,1.07,2.662,2.662,0,0,1-2.105-.809,3.4,3.4,0,0,1-.715-2.324V33.547H95.52v5.492a.946.946,0,0,0,1.055,1.086,1.376,1.376,0,0,0,1.289-.648v-5.93h2.648V42H98.043ZM109,31.445v2.1h1.391v1.828H109v3.867a.987.987,0,0,0,.172.664.922.922,0,0,0,.68.188,3.862,3.862,0,0,0,.656-.047V41.93a4.859,4.859,0,0,1-1.484.227,2.758,2.758,0,0,1-2.008-.641,2.626,2.626,0,0,1-.648-1.945v-4.2h-1.078V33.547h1.078v-2.1ZM114.207,42h-2.641V33.547h2.641Zm-2.8-10.633a1.175,1.175,0,0,1,.406-.922,1.727,1.727,0,0,1,2.109,0,1.249,1.249,0,0,1,0,1.844,1.727,1.727,0,0,1-2.109,0A1.175,1.175,0,0,1,111.41,31.367Zm8.508,10.789A4.345,4.345,0,0,1,116.77,41a4.006,4.006,0,0,1-1.2-3.02v-.219a5.191,5.191,0,0,1,.48-2.289,3.516,3.516,0,0,1,1.4-1.535,4.233,4.233,0,0,1,2.188-.543,3.659,3.659,0,0,1,2.813,1.105,4.344,4.344,0,0,1,1.031,3.082V38.6h-5.234a1.9,1.9,0,0,0,.617,1.117,1.836,1.836,0,0,0,1.234.406,2.366,2.366,0,0,0,1.953-.875l1.2,1.422a3.363,3.363,0,0,1-1.395,1.082A4.713,4.713,0,0,1,119.918,42.156Zm-.3-6.734q-1.156,0-1.375,1.531H120.9v-.2a1.3,1.3,0,0,0-.32-.98A1.275,1.275,0,0,0,119.621,35.422Zm7.406-1.875.086.992a2.906,2.906,0,0,1,2.414-1.148,2.14,2.14,0,0,1,2.164,1.273,2.813,2.813,0,0,1,2.484-1.273q2.57,0,2.641,3.109V42h-2.641V36.664a1.612,1.612,0,0,0-.219-.945.931.931,0,0,0-.8-.3,1.247,1.247,0,0,0-1.164.7l.008.109V42h-2.641V36.68a1.694,1.694,0,0,0-.211-.961.929.929,0,0,0-.8-.3,1.263,1.263,0,0,0-1.156.7V42h-2.633V33.547Zm19.141,4.289a5.1,5.1,0,0,1-.887,3.145,2.843,2.843,0,0,1-2.395,1.176,2.437,2.437,0,0,1-1.914-.852V45.25H138.34v-11.7H140.8l.078.781a2.437,2.437,0,0,1,1.992-.937,2.866,2.866,0,0,1,2.43,1.152,5.16,5.16,0,0,1,.867,3.168Zm-2.633-.164q0-2.25-1.312-2.25a1.239,1.239,0,0,0-1.25.672v3.328a1.279,1.279,0,0,0,1.266.7q1.258,0,1.3-2.172ZM147,37.7a4.989,4.989,0,0,1,.492-2.254,3.52,3.52,0,0,1,1.414-1.52,4.259,4.259,0,0,1,2.164-.531,3.887,3.887,0,0,1,2.992,1.176,4.512,4.512,0,0,1,1.094,3.2v.094a4.378,4.378,0,0,1-1.1,3.137,3.9,3.9,0,0,1-2.973,1.16,3.942,3.942,0,0,1-2.9-1.082A4.232,4.232,0,0,1,147,38.141Zm2.633.164A3.145,3.145,0,0,0,150,39.578a1.223,1.223,0,0,0,1.086.547q1.406,0,1.438-2.164V37.7q0-2.273-1.453-2.273-1.32,0-1.43,1.961Zm14.047.453,1.406-4.766h2.82l-3.445,9.867-.148.359a2.617,2.617,0,0,1-2.594,1.641,4.126,4.126,0,0,1-1.086-.156V43.383h.344a1.8,1.8,0,0,0,.848-.16.973.973,0,0,0,.434-.575l.211-.563-2.937-8.538h2.813ZM24.793,69H22.152V57h2.641Zm5.711.156A4.345,4.345,0,0,1,27.355,68a4.006,4.006,0,0,1-1.2-3.02v-.219a5.191,5.191,0,0,1,.48-2.289,3.516,3.516,0,0,1,1.4-1.535,4.233,4.233,0,0,1,2.188-.543A3.659,3.659,0,0,1,33.035,61.5a4.344,4.344,0,0,1,1.031,3.082V65.6H28.832a1.9,1.9,0,0,0,.617,1.117,1.836,1.836,0,0,0,1.234.406,2.366,2.366,0,0,0,1.953-.875l1.2,1.422a3.363,3.363,0,0,1-1.395,1.082A4.713,4.713,0,0,1,30.5,69.156Zm-.3-6.734q-1.156,0-1.375,1.531h2.656v-.2a1.3,1.3,0,0,0-.32-.98A1.275,1.275,0,0,0,30.207,62.422ZM38.8,64.711a5.708,5.708,0,0,1,.422-2.266,3.4,3.4,0,0,1,1.211-1.52,3.192,3.192,0,0,1,1.836-.535,2.538,2.538,0,0,1,2.063.891l.094-.734h2.391V68.68a3.564,3.564,0,0,1-.52,1.941,3.334,3.334,0,0,1-1.5,1.266,5.528,5.528,0,0,1-2.281.441,4.769,4.769,0,0,1-1.8-.352,3.251,3.251,0,0,1-1.332-.914l1.1-1.547a2.414,2.414,0,0,0,1.938.867,1.568,1.568,0,0,0,1.75-1.8V68.32a2.472,2.472,0,0,1-1.914.836,3.055,3.055,0,0,1-2.5-1.184A4.9,4.9,0,0,1,38.8,64.8Zm2.641.164a3.007,3.007,0,0,0,.391,1.645,1.232,1.232,0,0,0,1.094.605,1.4,1.4,0,0,0,1.242-.57V63a1.363,1.363,0,0,0-1.227-.578,1.241,1.241,0,0,0-1.1.629A3.429,3.429,0,0,0,41.441,64.875Zm11.906,3.211a2.714,2.714,0,0,1-2.258,1.07,2.662,2.662,0,0,1-2.105-.809,3.4,3.4,0,0,1-.715-2.324V60.547H50.9v5.492a.946.946,0,0,0,1.055,1.086,1.376,1.376,0,0,0,1.289-.648v-5.93h2.648V69H53.426Zm8.414-1.461a.608.608,0,0,0-.352-.539,5.348,5.348,0,0,0-1.336-.422,6.092,6.092,0,0,1-1.625-.574,2.722,2.722,0,0,1-.977-.863,2.061,2.061,0,0,1-.336-1.164,2.336,2.336,0,0,1,.961-1.918,3.958,3.958,0,0,1,2.516-.754,4.386,4.386,0,0,1,2.688.758,2.37,2.37,0,0,1,1.016,1.992H61.676q0-1.016-1.07-1.016a1.061,1.061,0,0,0-.7.23.714.714,0,0,0-.281.574.655.655,0,0,0,.344.57,3.248,3.248,0,0,0,1.1.359,9.485,9.485,0,0,1,1.324.336A2.406,2.406,0,0,1,64.3,66.547a2.214,2.214,0,0,1-1.027,1.883,4.505,4.505,0,0,1-2.66.727,4.6,4.6,0,0,1-1.937-.391A3.24,3.24,0,0,1,57.348,67.7a2.406,2.406,0,0,1-.477-1.414h2.461a1.017,1.017,0,0,0,.391.855,1.607,1.607,0,0,0,.961.27,1.264,1.264,0,0,0,.809-.219A.7.7,0,0,0,61.762,66.625Zm6.836-8.18v2.1h1.391v1.828H68.6v3.867a.987.987,0,0,0,.172.664.922.922,0,0,0,.68.188,3.862,3.862,0,0,0,.656-.047V68.93a4.859,4.859,0,0,1-1.484.227,2.758,2.758,0,0,1-2.008-.641,2.626,2.626,0,0,1-.648-1.945v-4.2H64.887V60.547h1.078v-2.1ZM75.785,69a2.973,2.973,0,0,1-.25-.758,2.448,2.448,0,0,1-2.031.914,3,3,0,0,1-2.031-.723,2.3,2.3,0,0,1-.836-1.816,2.364,2.364,0,0,1,1.016-2.078,5.174,5.174,0,0,1,2.953-.7h.813v-.448q0-1.17-1.008-1.17a.824.824,0,0,0-.937.926H70.84a2.36,2.36,0,0,1,1.043-1.99,4.383,4.383,0,0,1,2.66-.765,3.843,3.843,0,0,1,2.555.789,2.743,2.743,0,0,1,.961,2.164v3.742a3.832,3.832,0,0,0,.359,1.781V69Zm-1.648-1.719a1.469,1.469,0,0,0,.816-.211,1.322,1.322,0,0,0,.465-.477V65.242h-.766q-1.375,0-1.375,1.234a.754.754,0,0,0,.242.582A.876.876,0,0,0,74.137,67.281Zm12.938-.156a1.171,1.171,0,0,0,.859-.3,1.1,1.1,0,0,0,.3-.84H90.7a2.922,2.922,0,0,1-1,2.281,3.705,3.705,0,0,1-2.566.891A3.751,3.751,0,0,1,84.23,68a4.556,4.556,0,0,1-1.062-3.2v-.109a5.149,5.149,0,0,1,.473-2.262A3.441,3.441,0,0,1,85,60.918a4.065,4.065,0,0,1,2.109-.527,3.658,3.658,0,0,1,2.617.914,3.242,3.242,0,0,1,.969,2.477H88.23a1.445,1.445,0,0,0-.32-1.008,1.106,1.106,0,0,0-.859-.352q-1.023,0-1.2,1.3a9.206,9.206,0,0,0-.055,1.141,3.616,3.616,0,0,0,.3,1.766A1.055,1.055,0,0,0,87.074,67.125ZM91.48,64.7a4.989,4.989,0,0,1,.492-2.254,3.52,3.52,0,0,1,1.414-1.52,4.259,4.259,0,0,1,2.164-.531,3.887,3.887,0,0,1,2.992,1.176,4.512,4.512,0,0,1,1.094,3.2v.094A4.378,4.378,0,0,1,98.539,68a3.9,3.9,0,0,1-2.973,1.16,3.942,3.942,0,0,1-2.9-1.082,4.232,4.232,0,0,1-1.18-2.934Zm2.633.164a3.145,3.145,0,0,0,.367,1.719,1.223,1.223,0,0,0,1.086.547q1.406,0,1.438-2.164V64.7q0-2.273-1.453-2.273-1.32,0-1.43,1.961Zm9.172-4.312.086.992a2.906,2.906,0,0,1,2.414-1.148,2.14,2.14,0,0,1,2.164,1.273,2.813,2.813,0,0,1,2.484-1.273q2.57,0,2.641,3.109V69h-2.641V63.664a1.611,1.611,0,0,0-.219-.945.931.931,0,0,0-.8-.3,1.247,1.247,0,0,0-1.164.7l.008.109V69h-2.641V63.68a1.694,1.694,0,0,0-.211-.961.928.928,0,0,0-.8-.3,1.263,1.263,0,0,0-1.156.7V69h-2.633V60.547Zm19.141,4.289a5.1,5.1,0,0,1-.887,3.145,2.843,2.843,0,0,1-2.395,1.176,2.437,2.437,0,0,1-1.914-.852V72.25H114.6v-11.7h2.461l.078.781a2.437,2.437,0,0,1,1.992-.937,2.866,2.866,0,0,1,2.43,1.152,5.16,5.16,0,0,1,.867,3.168Zm-2.633-.164q0-2.25-1.312-2.25a1.239,1.239,0,0,0-1.25.672v3.328a1.279,1.279,0,0,0,1.266.7q1.258,0,1.3-2.172ZM128.348,69a2.973,2.973,0,0,1-.25-.758,2.448,2.448,0,0,1-2.031.914,3,3,0,0,1-2.031-.723,2.3,2.3,0,0,1-.836-1.816,2.364,2.364,0,0,1,1.016-2.078,5.174,5.174,0,0,1,2.953-.7h.813v-.448q0-1.17-1.008-1.17a.824.824,0,0,0-.937.926H123.4a2.36,2.36,0,0,1,1.043-1.99,4.383,4.383,0,0,1,2.66-.765,3.843,3.843,0,0,1,2.555.789,2.743,2.743,0,0,1,.961,2.164v3.742a3.832,3.832,0,0,0,.359,1.781V69ZM126.7,67.281a1.469,1.469,0,0,0,.816-.211,1.322,1.322,0,0,0,.465-.477V65.242h-.766q-1.375,0-1.375,1.234a.754.754,0,0,0,.242.582A.876.876,0,0,0,126.7,67.281Zm10.492-4.352-.867-.062a1.558,1.558,0,0,0-1.594.781V69H132.1V60.547h2.469l.086,1.086a2.039,2.039,0,0,1,1.852-1.242,2.567,2.567,0,0,1,.734.094ZM142.668,69a2.973,2.973,0,0,1-.25-.758,2.448,2.448,0,0,1-2.031.914,3,3,0,0,1-2.031-.723,2.3,2.3,0,0,1-.836-1.816,2.364,2.364,0,0,1,1.016-2.078,5.174,5.174,0,0,1,2.953-.7h.813v-.448q0-1.17-1.008-1.17a.824.824,0,0,0-.937.926h-2.633a2.36,2.36,0,0,1,1.043-1.99,4.383,4.383,0,0,1,2.66-.765,3.843,3.843,0,0,1,2.555.789,2.743,2.743,0,0,1,.961,2.164v3.742a3.832,3.832,0,0,0,.359,1.781V69Zm-1.648-1.719a1.469,1.469,0,0,0,.816-.211,1.322,1.322,0,0,0,.465-.477V65.242h-.766q-1.375,0-1.375,1.234a.754.754,0,0,0,.242.582A.876.876,0,0,0,141.02,67.281Zm10.492-4.352-.867-.062a1.558,1.558,0,0,0-1.594.781V69h-2.633V60.547h2.469l.086,1.086a2.039,2.039,0,0,1,1.852-1.242,2.567,2.567,0,0,1,.734.094Z" transform="translate(871 1459.863)" fill="#12263f"/>
    <g id="time-manager" transform="translate(915.704 1318.704)">
      <path id="Trazado_750589" data-name="Trazado 750589" d="M303.256,290.593a12.663,12.663,0,1,0,4.642,24.448,1.237,1.237,0,0,0-.907-2.3,10.2,10.2,0,1,1,3.661-2.475,1.237,1.237,0,0,0,1.8,1.7,12.663,12.663,0,0,0-9.192-21.373Z" transform="translate(-242.749 -242.749)"/>
      <path id="Trazado_750590" data-name="Trazado 750590" d="M82.082,56.539l-2.964-.446a18.878,18.878,0,0,0-2.331-5.625l1.781-2.412a2.586,2.586,0,0,0-.253-3.385L76.342,42.7a2.628,2.628,0,0,0-.674-.486,38.327,38.327,0,0,0,.24-4.258A37.955,37.955,0,0,0,13.495,8.932a1.237,1.237,0,0,0,1.6,1.891A35.48,35.48,0,0,1,73.434,37.954a35.876,35.876,0,0,1-.267,4.351c-.071.043-.141.089-.21.14l-2.412,1.782q-.707-.437-1.445-.807a31.894,31.894,0,0,0,.473-5.465,31.476,31.476,0,0,0-5.285-17.507,1.237,1.237,0,0,0-2.059,1.372A29.011,29.011,0,0,1,67.1,37.954a29.447,29.447,0,0,1-.342,4.477A18.965,18.965,0,0,0,64.92,41.9l-.446-2.964A2.586,2.586,0,0,0,61.9,36.717H59.111a2.586,2.586,0,0,0-2.573,2.215L56.093,41.9a18.876,18.876,0,0,0-5.625,2.331l-2.412-1.782a2.586,2.586,0,0,0-3.385.253L42.7,44.671a2.586,2.586,0,0,0-.253,3.385l1.782,2.412A18.873,18.873,0,0,0,41.9,56.093l-2.964.446a2.586,2.586,0,0,0-2.215,2.573V61.9a2.586,2.586,0,0,0,2.215,2.572l2.964.446a18.963,18.963,0,0,0,.535,1.837,29.447,29.447,0,0,1-4.477.342,29.033,29.033,0,0,1-19.7-7.691l16.995-17a5.219,5.219,0,1,0,3.947-9.529V8.837a29.04,29.04,0,0,1,20.093,9.256A1.237,1.237,0,0,0,61.1,16.407,31.62,31.62,0,1,0,37.954,69.574a31.892,31.892,0,0,0,5.465-.473q.372.737.807,1.445l-1.782,2.412c-.05.068-.1.138-.14.21a35.881,35.881,0,0,1-4.351.267A35.48,35.48,0,0,1,11.645,14.15a1.237,1.237,0,0,0-1.834-1.661,37.955,37.955,0,0,0,28.144,63.42,38.328,38.328,0,0,0,4.258-.24,2.627,2.627,0,0,0,.486.673l1.973,1.974a2.586,2.586,0,0,0,3.385.253l2.412-1.782a18.875,18.875,0,0,0,5.625,2.331l.446,2.964A2.586,2.586,0,0,0,59.111,84.3H61.9a2.586,2.586,0,0,0,2.572-2.215l.446-2.964a18.871,18.871,0,0,0,5.625-2.331l2.412,1.781a2.586,2.586,0,0,0,3.385-.253l1.973-1.973a2.586,2.586,0,0,0,.253-3.385l-1.782-2.412a18.872,18.872,0,0,0,2.331-5.625l2.964-.446A2.586,2.586,0,0,0,84.3,61.9V59.111a2.585,2.585,0,0,0-2.214-2.573ZM40.7,37.954a2.745,2.745,0,1,1-2.745-2.745A2.748,2.748,0,0,1,40.7,37.954ZM8.837,39.191h4.481a1.237,1.237,0,1,0,0-2.475H8.837A29.034,29.034,0,0,1,16.5,18.249l3.159,3.159a1.237,1.237,0,0,0,1.75-1.75L18.25,16.5A29.033,29.033,0,0,1,36.717,8.837V32.884a5.217,5.217,0,0,0-3.222,7.779l-16.995,17A29.034,29.034,0,0,1,8.837,39.191ZM81.822,61.9a.126.126,0,0,1-.108.125L77.9,62.6a1.237,1.237,0,0,0-1.032,1,16.463,16.463,0,0,1-2.609,6.3,1.237,1.237,0,0,0,.026,1.433l2.291,3.1a.126.126,0,0,1-.012.165l-1.973,1.973a.126.126,0,0,1-.165.012l-3.1-2.291a1.238,1.238,0,0,0-1.433-.026,16.461,16.461,0,0,1-6.3,2.609,1.237,1.237,0,0,0-1,1.032l-.573,3.813a.126.126,0,0,1-.125.108H59.112a.126.126,0,0,1-.125-.108L58.413,77.9a1.237,1.237,0,0,0-1-1.032,16.465,16.465,0,0,1-6.3-2.609,1.237,1.237,0,0,0-1.433.026l-3.1,2.291a.128.128,0,0,1-.165-.012l-1.973-1.974a.126.126,0,0,1-.013-.165l2.291-3.1a1.237,1.237,0,0,0,.026-1.433,16.464,16.464,0,0,1-2.609-6.3,1.237,1.237,0,0,0-1.032-1L39.3,62.027a.128.128,0,0,1-.108-.125V59.111a.126.126,0,0,1,.108-.125l3.812-.573a1.237,1.237,0,0,0,1.032-1,16.464,16.464,0,0,1,2.609-6.3,1.237,1.237,0,0,0-.026-1.433l-2.291-3.1a.127.127,0,0,1,.012-.165l1.973-1.973a.128.128,0,0,1,.165-.013l3.1,2.291a1.237,1.237,0,0,0,1.433.026,16.464,16.464,0,0,1,6.3-2.609,1.237,1.237,0,0,0,1-1.032l.573-3.812a.126.126,0,0,1,.125-.108H61.9a.126.126,0,0,1,.125.108l.573,3.812a1.237,1.237,0,0,0,1,1.032,16.464,16.464,0,0,1,6.3,2.609,1.237,1.237,0,0,0,1.433-.026l3.1-2.291a.126.126,0,0,1,.165.012l1.973,1.973a.127.127,0,0,1,.012.165l-2.291,3.1a1.237,1.237,0,0,0-.026,1.433,16.463,16.463,0,0,1,2.609,6.3,1.237,1.237,0,0,0,1.032,1l3.813.573a.126.126,0,0,1,.108.125V61.9Z" transform="translate(0)"/>
      <path id="Trazado_750591" data-name="Trazado 750591" d="M343.282,343.284l-4.622,4.74-2.006-1.951a1.237,1.237,0,1,0-1.725,1.774l2.892,2.812a1.237,1.237,0,0,0,1.748-.023l5.484-5.624a1.237,1.237,0,0,0-1.772-1.728Z" transform="translate(-279.473 -286.454)"/>
    </g>
  </g>
</svg>
