<svg xmlns="http://www.w3.org/2000/svg" width="295" height="351" viewBox="0 0 295 351">
  <g id="Grupo_1022495" data-name="Grupo 1022495" transform="translate(-180 -1232)">
    <path id="Trazado_750342" data-name="Trazado 750342" d="M16.253,0H278.747A16.271,16.271,0,0,1,295,16.288V334.712A16.271,16.271,0,0,1,278.747,351H16.253A16.271,16.271,0,0,1,0,334.712V16.288A16.271,16.271,0,0,1,16.253,0Z" transform="translate(180 1232)" fill="#e6f4b7"/>
    <path id="Trazado_762252" data-name="Trazado 762252" d="M74.148,0A74.148,74.148,0,1,1,0,74.148,74.148,74.148,0,0,1,74.148,0Z" transform="translate(253 1287)" fill="#fff"/>
    <path id="Trazado_762253" data-name="Trazado 762253" d="M25.426,10.172H21.113v2.719h5.094V15H18.371V3.625h7.852V5.742H21.113v2.4h4.313ZM29.98,15H27.34V3H29.98Zm9.18-1.875a1.171,1.171,0,0,0,.859-.3,1.1,1.1,0,0,0,.3-.84h2.469a2.922,2.922,0,0,1-1,2.281,3.705,3.705,0,0,1-2.566.891A3.751,3.751,0,0,1,36.316,14a4.556,4.556,0,0,1-1.062-3.2v-.109a5.149,5.149,0,0,1,.473-2.262A3.441,3.441,0,0,1,37.09,6.918,4.065,4.065,0,0,1,39.2,6.391a3.658,3.658,0,0,1,2.617.914,3.242,3.242,0,0,1,.969,2.477H40.316A1.445,1.445,0,0,0,40,8.773a1.106,1.106,0,0,0-.859-.352q-1.023,0-1.2,1.3a9.206,9.206,0,0,0-.055,1.141,3.616,3.616,0,0,0,.3,1.766A1.055,1.055,0,0,0,39.16,13.125Zm4.406-2.43a4.989,4.989,0,0,1,.492-2.254,3.52,3.52,0,0,1,1.414-1.52,4.259,4.259,0,0,1,2.164-.531,3.887,3.887,0,0,1,2.992,1.176,4.512,4.512,0,0,1,1.094,3.2v.094A4.378,4.378,0,0,1,50.625,14a3.9,3.9,0,0,1-2.973,1.16,3.942,3.942,0,0,1-2.9-1.082,4.232,4.232,0,0,1-1.18-2.934Zm2.633.164a3.145,3.145,0,0,0,.367,1.719,1.223,1.223,0,0,0,1.086.547q1.406,0,1.438-2.164V10.7q0-2.273-1.453-2.273-1.32,0-1.43,1.961Zm9.1-4.312.086.992A2.867,2.867,0,0,1,57.8,6.391a2.412,2.412,0,0,1,1.973.789,3.757,3.757,0,0,1,.676,2.375V15H57.809V9.664a1.426,1.426,0,0,0-.258-.941,1.193,1.193,0,0,0-.937-.3,1.256,1.256,0,0,0-1.148.609V15H52.832V6.547Zm11.031,6.078a.608.608,0,0,0-.352-.539,5.348,5.348,0,0,0-1.336-.422,6.092,6.092,0,0,1-1.625-.574,2.722,2.722,0,0,1-.977-.863,2.061,2.061,0,0,1-.336-1.164,2.336,2.336,0,0,1,.961-1.918,3.958,3.958,0,0,1,2.516-.754,4.386,4.386,0,0,1,2.688.758,2.37,2.37,0,0,1,1.016,1.992H66.246q0-1.016-1.07-1.016a1.061,1.061,0,0,0-.7.23.714.714,0,0,0-.281.574.655.655,0,0,0,.344.57,3.248,3.248,0,0,0,1.1.359,9.486,9.486,0,0,1,1.324.336,2.406,2.406,0,0,1,1.906,2.352,2.214,2.214,0,0,1-1.027,1.883,4.505,4.505,0,0,1-2.66.727,4.6,4.6,0,0,1-1.937-.391A3.24,3.24,0,0,1,61.918,13.7a2.406,2.406,0,0,1-.477-1.414H63.9a1.017,1.017,0,0,0,.391.855,1.607,1.607,0,0,0,.961.27,1.264,1.264,0,0,0,.809-.219A.7.7,0,0,0,66.332,12.625Zm8.8,1.461a2.714,2.714,0,0,1-2.258,1.07,2.662,2.662,0,0,1-2.105-.809,3.4,3.4,0,0,1-.715-2.324V6.547h2.633v5.492a.946.946,0,0,0,1.055,1.086,1.376,1.376,0,0,0,1.289-.648V6.547h2.648V15H75.215Zm6.477-7.539.086.992a2.906,2.906,0,0,1,2.414-1.148,2.14,2.14,0,0,1,2.164,1.273,2.813,2.813,0,0,1,2.484-1.273q2.57,0,2.641,3.109V15H88.762V9.664a1.611,1.611,0,0,0-.219-.945.931.931,0,0,0-.8-.3,1.247,1.247,0,0,0-1.164.7l.008.109V15H83.949V9.68a1.694,1.694,0,0,0-.211-.961.928.928,0,0,0-.8-.3,1.263,1.263,0,0,0-1.156.7V15H79.145V6.547ZM95.684,15H93.043V6.547h2.641Zm-2.8-10.633a1.175,1.175,0,0,1,.406-.922,1.727,1.727,0,0,1,2.109,0,1.175,1.175,0,0,1,.406.922,1.175,1.175,0,0,1-.406.922,1.727,1.727,0,0,1-2.109,0A1.175,1.175,0,0,1,92.887,4.367Zm4.086,6.344a5.164,5.164,0,0,1,.867-3.164,2.854,2.854,0,0,1,2.422-1.156,2.428,2.428,0,0,1,1.906.891V3h2.641V15h-2.367l-.133-.906a2.493,2.493,0,0,1-2.062,1.063A2.849,2.849,0,0,1,97.855,14,5.327,5.327,0,0,1,96.973,10.711Zm2.633.164q0,2.25,1.313,2.25a1.3,1.3,0,0,0,1.25-.734V9.172a1.261,1.261,0,0,0-1.234-.75q-1.219,0-1.32,1.969Zm6.367-.18a4.989,4.989,0,0,1,.492-2.254,3.52,3.52,0,0,1,1.414-1.52,4.259,4.259,0,0,1,2.164-.531,3.887,3.887,0,0,1,2.992,1.176,4.512,4.512,0,0,1,1.094,3.2v.094a4.378,4.378,0,0,1-1.1,3.137,3.9,3.9,0,0,1-2.973,1.16,3.942,3.942,0,0,1-2.9-1.082,4.232,4.232,0,0,1-1.18-2.934Zm2.633.164a3.145,3.145,0,0,0,.367,1.719,1.223,1.223,0,0,0,1.086.547q1.406,0,1.438-2.164V10.7q0-2.273-1.453-2.273-1.32,0-1.43,1.961Zm11.8-1.93-.867-.062a1.558,1.558,0,0,0-1.594.781V15h-2.633V6.547h2.469l.086,1.086a2.039,2.039,0,0,1,1.852-1.242,2.567,2.567,0,0,1,.734.094Zm9.023,6.227A4.345,4.345,0,0,1,126.277,14a4.006,4.006,0,0,1-1.2-3.02v-.219a5.191,5.191,0,0,1,.48-2.289,3.516,3.516,0,0,1,1.4-1.535,4.233,4.233,0,0,1,2.188-.543A3.659,3.659,0,0,1,131.957,7.5a4.344,4.344,0,0,1,1.031,3.082V11.6h-5.234a1.9,1.9,0,0,0,.617,1.117,1.836,1.836,0,0,0,1.234.406,2.366,2.366,0,0,0,1.953-.875l1.2,1.422a3.363,3.363,0,0,1-1.395,1.082A4.713,4.713,0,0,1,129.426,15.156Zm-.3-6.734q-1.156,0-1.375,1.531h2.656v-.2a1.3,1.3,0,0,0-.32-.98A1.275,1.275,0,0,0,129.129,8.422Zm9.344,4.2a.608.608,0,0,0-.352-.539,5.348,5.348,0,0,0-1.336-.422,6.092,6.092,0,0,1-1.625-.574,2.722,2.722,0,0,1-.977-.863,2.061,2.061,0,0,1-.336-1.164,2.336,2.336,0,0,1,.961-1.918,3.958,3.958,0,0,1,2.516-.754,4.386,4.386,0,0,1,2.688.758,2.37,2.37,0,0,1,1.016,1.992h-2.641q0-1.016-1.07-1.016a1.061,1.061,0,0,0-.7.23.714.714,0,0,0-.281.574.655.655,0,0,0,.344.57,3.248,3.248,0,0,0,1.1.359,9.485,9.485,0,0,1,1.324.336,2.406,2.406,0,0,1,1.906,2.352,2.214,2.214,0,0,1-1.027,1.883,4.505,4.505,0,0,1-2.66.727,4.6,4.6,0,0,1-1.937-.391,3.24,3.24,0,0,1-1.328-1.062,2.406,2.406,0,0,1-.477-1.414h2.461a1.017,1.017,0,0,0,.391.855,1.607,1.607,0,0,0,.961.27,1.264,1.264,0,0,0,.809-.219A.7.7,0,0,0,138.473,12.625Zm6.836-8.18v2.1H146.7V8.375h-1.391v3.867a.987.987,0,0,0,.172.664.922.922,0,0,0,.68.188,3.862,3.862,0,0,0,.656-.047V14.93a4.859,4.859,0,0,1-1.484.227,2.758,2.758,0,0,1-2.008-.641,2.626,2.626,0,0,1-.648-1.945v-4.2H141.6V6.547h1.078v-2.1ZM152.5,15a2.973,2.973,0,0,1-.25-.758,2.448,2.448,0,0,1-2.031.914,3,3,0,0,1-2.031-.723,2.3,2.3,0,0,1-.836-1.816,2.364,2.364,0,0,1,1.016-2.078,5.174,5.174,0,0,1,2.953-.7h.813V9.388q0-1.17-1.008-1.17a.824.824,0,0,0-.937.926h-2.633a2.36,2.36,0,0,1,1.043-1.99,4.383,4.383,0,0,1,2.66-.765,3.843,3.843,0,0,1,2.555.789,2.743,2.743,0,0,1,.961,2.164v3.742a3.832,3.832,0,0,0,.359,1.781V15Zm-1.648-1.719a1.469,1.469,0,0,0,.816-.211,1.322,1.322,0,0,0,.465-.477V11.242h-.766q-1.375,0-1.375,1.234a.754.754,0,0,0,.242.582A.876.876,0,0,0,150.848,13.281ZM151.5,3h2.781l-2.172,2.453-2.148,0ZM40.262,37.844a5.152,5.152,0,0,1-.859,3.2,2.878,2.878,0,0,1-2.422,1.117A2.5,2.5,0,0,1,34.9,41.133L34.793,42H32.434V30h2.633v4.227a2.41,2.41,0,0,1,1.9-.836A2.879,2.879,0,0,1,39.4,34.523a5.179,5.179,0,0,1,.859,3.188Zm-2.641-.168a3.437,3.437,0,0,0-.324-1.735,1.093,1.093,0,0,0-1-.519,1.261,1.261,0,0,0-1.234.679v3.354a1.268,1.268,0,0,0,1.25.671,1.118,1.118,0,0,0,1.18-.9A6.5,6.5,0,0,0,37.621,37.676ZM44.2,42H41.559V33.547H44.2ZM41.4,31.367a1.175,1.175,0,0,1,.406-.922,1.727,1.727,0,0,1,2.109,0,1.249,1.249,0,0,1,0,1.844,1.727,1.727,0,0,1-2.109,0A1.175,1.175,0,0,1,41.4,31.367ZM49.91,42.156A4.345,4.345,0,0,1,46.762,41a4.006,4.006,0,0,1-1.2-3.02v-.219a5.191,5.191,0,0,1,.48-2.289,3.516,3.516,0,0,1,1.4-1.535,4.233,4.233,0,0,1,2.188-.543A3.659,3.659,0,0,1,52.441,34.5a4.344,4.344,0,0,1,1.031,3.082V38.6H48.238a1.9,1.9,0,0,0,.617,1.117,1.836,1.836,0,0,0,1.234.406,2.366,2.366,0,0,0,1.953-.875l1.2,1.422a3.363,3.363,0,0,1-1.395,1.082A4.713,4.713,0,0,1,49.91,42.156Zm-.3-6.734q-1.156,0-1.375,1.531h2.656v-.2a1.3,1.3,0,0,0-.32-.98A1.275,1.275,0,0,0,49.613,35.422Zm7.336-1.875.086.992a2.867,2.867,0,0,1,2.414-1.148,2.412,2.412,0,0,1,1.973.789,3.757,3.757,0,0,1,.676,2.375V42H59.457V36.664a1.426,1.426,0,0,0-.258-.941,1.193,1.193,0,0,0-.937-.3,1.256,1.256,0,0,0-1.148.609V42H54.48V33.547ZM70.316,42H67.676V33.547h2.641Zm-2.8-10.633a1.175,1.175,0,0,1,.406-.922,1.727,1.727,0,0,1,2.109,0,1.249,1.249,0,0,1,0,1.844,1.727,1.727,0,0,1-2.109,0A1.175,1.175,0,0,1,67.52,31.367Zm6.836,2.18.086.992a2.867,2.867,0,0,1,2.414-1.148,2.412,2.412,0,0,1,1.973.789,3.757,3.757,0,0,1,.676,2.375V42H76.863V36.664a1.426,1.426,0,0,0-.258-.941,1.193,1.193,0,0,0-.937-.3,1.256,1.256,0,0,0-1.148.609V42H71.887V33.547ZM81.543,42V35.375H80.316V33.547h1.227v-.672a2.921,2.921,0,0,1,.852-2.242,3.364,3.364,0,0,1,2.391-.8A5.235,5.235,0,0,1,86.02,30l.008,1.938a2.4,2.4,0,0,0-.648-.07q-1.2,0-1.2,1.031v.648h1.648v1.828H84.184V42Zm4.883-4.3a4.989,4.989,0,0,1,.492-2.254,3.52,3.52,0,0,1,1.414-1.52,4.259,4.259,0,0,1,2.164-.531,3.887,3.887,0,0,1,2.992,1.176,4.512,4.512,0,0,1,1.094,3.2v.094A4.378,4.378,0,0,1,93.484,41a3.9,3.9,0,0,1-2.973,1.16,3.942,3.942,0,0,1-2.9-1.082,4.232,4.232,0,0,1-1.18-2.934Zm2.633.164a3.145,3.145,0,0,0,.367,1.719,1.223,1.223,0,0,0,1.086.547q1.406,0,1.438-2.164V37.7q0-2.273-1.453-2.273-1.32,0-1.43,1.961Zm11.8-1.93-.867-.062a1.558,1.558,0,0,0-1.594.781V42H95.762V33.547H98.23l.086,1.086a2.039,2.039,0,0,1,1.852-1.242,2.567,2.567,0,0,1,.734.094Zm3.438-2.383.086.992a2.906,2.906,0,0,1,2.414-1.148,2.14,2.14,0,0,1,2.164,1.273,2.813,2.813,0,0,1,2.484-1.273q2.57,0,2.641,3.109V42h-2.641V36.664a1.611,1.611,0,0,0-.219-.945.931.931,0,0,0-.8-.3,1.247,1.247,0,0,0-1.164.7l.008.109V42h-2.641V36.68a1.694,1.694,0,0,0-.211-.961.928.928,0,0,0-.8-.3,1.263,1.263,0,0,0-1.156.7V42h-2.633V33.547ZM120.348,42a2.973,2.973,0,0,1-.25-.758,2.448,2.448,0,0,1-2.031.914,3,3,0,0,1-2.031-.723,2.3,2.3,0,0,1-.836-1.816,2.364,2.364,0,0,1,1.016-2.078,5.174,5.174,0,0,1,2.953-.7h.813v-.448q0-1.17-1.008-1.17a.824.824,0,0,0-.937.926H115.4a2.36,2.36,0,0,1,1.043-1.99,4.383,4.383,0,0,1,2.66-.765,3.843,3.843,0,0,1,2.555.789,2.743,2.743,0,0,1,.961,2.164v3.742a3.832,3.832,0,0,0,.359,1.781V42ZM118.7,40.281a1.469,1.469,0,0,0,.816-.211,1.322,1.322,0,0,0,.465-.477V38.242h-.766q-1.375,0-1.375,1.234a.754.754,0,0,0,.242.582A.876.876,0,0,0,118.7,40.281Zm5.047-2.57a5.164,5.164,0,0,1,.867-3.164,2.854,2.854,0,0,1,2.422-1.156,2.428,2.428,0,0,1,1.906.891V30h2.641V42h-2.367l-.133-.906a2.493,2.493,0,0,1-2.062,1.063A2.849,2.849,0,0,1,124.629,41,5.327,5.327,0,0,1,123.746,37.711Zm2.633.164q0,2.25,1.313,2.25a1.3,1.3,0,0,0,1.25-.734V36.172a1.261,1.261,0,0,0-1.234-.75q-1.219,0-1.32,1.969Zm6.367-.18a4.989,4.989,0,0,1,.492-2.254,3.52,3.52,0,0,1,1.414-1.52,4.259,4.259,0,0,1,2.164-.531,3.887,3.887,0,0,1,2.992,1.176,4.512,4.512,0,0,1,1.094,3.2v.094A4.378,4.378,0,0,1,139.8,41a3.9,3.9,0,0,1-2.973,1.16,3.942,3.942,0,0,1-2.9-1.082,4.232,4.232,0,0,1-1.18-2.934Zm2.633.164a3.145,3.145,0,0,0,.367,1.719,1.223,1.223,0,0,0,1.086.547q1.406,0,1.438-2.164V37.7q0-2.273-1.453-2.273-1.32,0-1.43,1.961Z" transform="translate(241 1459.863)" fill="#12263f"/>
    <path id="Trazado_762052" data-name="Trazado 762052" d="M14.517,12.033H17.55A1.517,1.517,0,0,0,17.55,9H14.517a1.517,1.517,0,0,0,0,3.033Z" transform="translate(288.717 1320.649)"/>
    <path id="Trazado_762053" data-name="Trazado 762053" d="M35.517,12.033H38.55A1.517,1.517,0,0,0,38.55,9H35.517a1.517,1.517,0,0,0,0,3.033Z" transform="translate(299.566 1320.649)"/>
    <path id="Trazado_762054" data-name="Trazado 762054" d="M20.517,12.033H37.2A1.517,1.517,0,0,0,37.2,9H20.517a1.517,1.517,0,0,0,0,3.033Z" transform="translate(291.816 1320.649)"/>
    <path id="Trazado_762055" data-name="Trazado 762055" d="M14.517,17.033H47.883a1.517,1.517,0,0,0,0-3.033H14.517a1.517,1.517,0,0,0,0,3.033Z" transform="translate(288.717 1323.232)"/>
    <path id="Trazado_762056" data-name="Trazado 762056" d="M14.517,22.033H26.65a1.517,1.517,0,1,0,0-3.033H14.517a1.517,1.517,0,0,0,0,3.033Z" transform="translate(288.717 1325.816)"/>
    <path id="Trazado_762057" data-name="Trazado 762057" d="M14.517,27.033H22.1A1.517,1.517,0,0,0,22.1,24H14.517a1.517,1.517,0,0,0,0,3.033Z" transform="translate(288.717 1328.399)"/>
    <path id="Trazado_762058" data-name="Trazado 762058" d="M31.2,44.517A1.517,1.517,0,0,0,29.683,43H14.517a1.517,1.517,0,0,0,0,3.033H29.683A1.517,1.517,0,0,0,31.2,44.517Z" transform="translate(288.717 1338.216)"/>
    <path id="Trazado_762059" data-name="Trazado 762059" d="M14.517,41.033h6.067a1.517,1.517,0,0,0,0-3.033H14.517a1.517,1.517,0,0,0,0,3.033Z" transform="translate(288.717 1335.633)"/>
    <path id="Trazado_762060" data-name="Trazado 762060" d="M86.45,37.917H83.784a11.339,11.339,0,0,1-4.917-4.865V7.583A7.592,7.592,0,0,0,71.283,0H7.584A7.744,7.744,0,0,0,0,7.844V13.65a3.033,3.033,0,0,0,3.033,3.033h9.1V83.416A7.547,7.547,0,0,0,19.717,91h63.7A7.592,7.592,0,0,0,91,83.416V75.833a1.517,1.517,0,0,0-1.517-1.517H78.867V66.733H86.45A4.55,4.55,0,0,0,91,62.183V42.467a4.55,4.55,0,0,0-4.55-4.55ZM12.134,13.65h-9.1V7.844a4.69,4.69,0,0,1,4.55-4.811,4.55,4.55,0,0,1,4.55,4.55ZM24.267,75.833v7.583a4.55,4.55,0,0,1-9.1,0V7.583a7.583,7.583,0,0,0-1.536-4.55H71.283a4.55,4.55,0,0,1,4.55,4.55V29.546c-1.539-1.276-3.033-2.284-3.033-3.763V15.03A5.792,5.792,0,0,0,66.733,9.1a6.1,6.1,0,0,0-5.117,2.531c-2.882,3.928-1.993,11.467-.7,15.584A8.891,8.891,0,0,1,61.1,31.85H43.225a8.342,8.342,0,0,0-4.083,15.608,5.242,5.242,0,0,0,1.3,7.849,5.258,5.258,0,0,0,1.517,7.583,5.29,5.29,0,0,0,4.3,8.393H63.7A20.09,20.09,0,0,0,75.833,67.2v7.119H25.783A1.517,1.517,0,0,0,24.267,75.833ZM52.325,60.667H44.742a2.275,2.275,0,0,1,0-4.55h7.583a2.275,2.275,0,1,1,0,4.55ZM54.6,65.975a2.275,2.275,0,0,1-2.275,2.275H46.258a2.275,2.275,0,0,1,0-4.55h6.067A2.275,2.275,0,0,1,54.6,65.975ZM52.325,53.083h-9.1a2.275,2.275,0,1,1,0-4.55h9.1a2.275,2.275,0,1,1,0,4.55ZM87.967,77.35v6.067a4.55,4.55,0,0,1-4.55,4.55H25.783a7.553,7.553,0,0,0,1.517-4.55V77.35Zm0-15.167A1.517,1.517,0,0,1,86.45,63.7H76.956a4.512,4.512,0,0,0-2.806.971A17.053,17.053,0,0,1,63.7,68.25H57.1a5.226,5.226,0,0,0-1.072-6.067,5.283,5.283,0,0,0,0-7.583,5.276,5.276,0,0,0-.91-8.29,5.29,5.29,0,0,0-4.31-8.393H43.983a1.517,1.517,0,0,0,0,3.033h6.825a2.275,2.275,0,1,1,0,4.55H43.225a5.308,5.308,0,0,1,0-10.617H60.283a20.833,20.833,0,0,0-1.133,6.2c0,6.227,7.28,10.14,7.583,10.3a1.517,1.517,0,0,0,1.418-2.681c-.053-.024-5.968-3.229-5.968-7.623a27.653,27.653,0,0,1,1.57-7.291,12.625,12.625,0,0,0,.059-7.5c-1.148-3.64-1.829-10.036.25-12.872a3.058,3.058,0,0,1,2.671-1.292,2.772,2.772,0,0,1,3.033,2.9V25.783c0,2.73,1.913,4.285,3.6,5.656a9.675,9.675,0,0,1,2.882,3.117,14.853,14.853,0,0,0,6.522,6.25,1.517,1.517,0,0,0,.648.144H86.45a1.517,1.517,0,0,1,1.517,1.517Z" transform="translate(282 1316)"/>
  </g>
</svg>
