<svg xmlns="http://www.w3.org/2000/svg" width="295" height="351" viewBox="0 0 295 351">
  <g id="Grupo_1022498" data-name="Grupo 1022498" transform="translate(-1125 -1232)">
    <path id="Trazado_750348" data-name="Trazado 750348" d="M16.253,0H278.747A16.271,16.271,0,0,1,295,16.288V334.712A16.271,16.271,0,0,1,278.747,351H16.253A16.271,16.271,0,0,1,0,334.712V16.288A16.271,16.271,0,0,1,16.253,0Z" transform="translate(1125 1232)" fill="#b6e1fd"/>
    <path id="Trazado_762258" data-name="Trazado 762258" d="M74.148,0A74.148,74.148,0,1,1,0,74.148,74.148,74.148,0,0,1,74.148,0Z" transform="translate(1198 1287)" fill="#fff"/>
    <path id="Trazado_762259" data-name="Trazado 762259" d="M9.742,12.172H5.43v2.719h5.094V17H2.688V5.625h7.852V7.742H5.43v2.4H9.742ZM14.3,17H11.656V5H14.3Zm9.18-1.875a1.171,1.171,0,0,0,.859-.3,1.1,1.1,0,0,0,.3-.84H27.1a2.922,2.922,0,0,1-1,2.281,3.705,3.705,0,0,1-2.566.891A3.751,3.751,0,0,1,20.633,16a4.556,4.556,0,0,1-1.062-3.2v-.109a5.149,5.149,0,0,1,.473-2.262,3.441,3.441,0,0,1,1.363-1.508,4.065,4.065,0,0,1,2.109-.527,3.658,3.658,0,0,1,2.617.914,3.242,3.242,0,0,1,.969,2.477H24.633a1.445,1.445,0,0,0-.32-1.008,1.106,1.106,0,0,0-.859-.352q-1.023,0-1.2,1.3a9.206,9.206,0,0,0-.055,1.141,3.616,3.616,0,0,0,.3,1.766A1.055,1.055,0,0,0,23.477,15.125ZM30.992,17H28.352V5h2.641Zm4.4,0H32.75V8.547h2.641Zm-2.8-10.633A1.175,1.175,0,0,1,33,5.445a1.727,1.727,0,0,1,2.109,0,1.175,1.175,0,0,1,.406.922,1.175,1.175,0,0,1-.406.922,1.727,1.727,0,0,1-2.109,0A1.175,1.175,0,0,1,32.594,6.367ZM41.1,17.156A4.345,4.345,0,0,1,37.953,16a4.006,4.006,0,0,1-1.2-3.02v-.219a5.191,5.191,0,0,1,.48-2.289,3.516,3.516,0,0,1,1.4-1.535,4.233,4.233,0,0,1,2.188-.543A3.659,3.659,0,0,1,43.633,9.5a4.344,4.344,0,0,1,1.031,3.082V13.6H39.43a1.9,1.9,0,0,0,.617,1.117,1.836,1.836,0,0,0,1.234.406,2.366,2.366,0,0,0,1.953-.875l1.2,1.422a3.363,3.363,0,0,1-1.395,1.082A4.713,4.713,0,0,1,41.1,17.156Zm-.3-6.734q-1.156,0-1.375,1.531h2.656v-.2a1.3,1.3,0,0,0-.32-.98A1.275,1.275,0,0,0,40.8,10.422Zm7.336-1.875.086.992a2.867,2.867,0,0,1,2.414-1.148,2.412,2.412,0,0,1,1.973.789,3.757,3.757,0,0,1,.676,2.375V17H50.648V11.664a1.426,1.426,0,0,0-.258-.941,1.193,1.193,0,0,0-.937-.3,1.256,1.256,0,0,0-1.148.609V17H45.672V8.547Zm9.672-2.1v2.1H59.2v1.828H57.813v3.867a.987.987,0,0,0,.172.664.922.922,0,0,0,.68.188,3.862,3.862,0,0,0,.656-.047V16.93a4.859,4.859,0,0,1-1.484.227,2.758,2.758,0,0,1-2.008-.641,2.626,2.626,0,0,1-.648-1.945v-4.2H54.1V8.547H55.18v-2.1Zm6.516,10.711A4.345,4.345,0,0,1,61.18,16a4.006,4.006,0,0,1-1.2-3.02v-.219a5.191,5.191,0,0,1,.48-2.289,3.516,3.516,0,0,1,1.4-1.535,4.233,4.233,0,0,1,2.188-.543A3.659,3.659,0,0,1,66.859,9.5a4.344,4.344,0,0,1,1.031,3.082V13.6H62.656a1.9,1.9,0,0,0,.617,1.117,1.836,1.836,0,0,0,1.234.406,2.366,2.366,0,0,0,1.953-.875l1.2,1.422a3.363,3.363,0,0,1-1.395,1.082A4.713,4.713,0,0,1,64.328,17.156Zm-.3-6.734q-1.156,0-1.375,1.531h2.656v-.2a1.3,1.3,0,0,0-.32-.98A1.275,1.275,0,0,0,64.031,10.422ZM77.023,8.391a3.55,3.55,0,0,1,1.961.566A3.191,3.191,0,0,1,80.2,10.492a4.737,4.737,0,0,1,.277,2.188l-.016.172a5.01,5.01,0,0,1-1.445,3.141,4.067,4.067,0,0,1-3.031,1.164,3.535,3.535,0,0,1-1.945-.559,3.211,3.211,0,0,1-1.215-1.52,4.6,4.6,0,0,1-.285-2.172,5.211,5.211,0,0,1,1.426-3.312A4.041,4.041,0,0,1,77.023,8.391ZM75.109,12.91l-.023.46q-.109,1.739,1.063,1.771,1.516.047,1.758-2.457l.031-.71a1.916,1.916,0,0,0-.262-1.119.954.954,0,0,0-.816-.433A1.344,1.344,0,0,0,75.691,11,3.8,3.8,0,0,0,75.109,12.91ZM84.7,8.539l-.18,1.016a3,3,0,0,1,2.445-1.172,2.018,2.018,0,0,1,1.746.871,3.646,3.646,0,0,1,.418,2.426L88.242,17H85.664l.9-5.342a2.763,2.763,0,0,0,.016-.5q-.055-.743-.875-.743a1.606,1.606,0,0,0-1.242.6L83.406,17h-2.57L82.3,8.547ZM92.43,17H89.852L91.93,5h2.578Zm4.344,0H94.2l1.469-8.453h2.578ZM95.891,6.414a1.192,1.192,0,0,1,.4-.953A1.444,1.444,0,0,1,97.3,5.078a1.491,1.491,0,0,1,1,.344,1.172,1.172,0,0,1,.418.9,1.194,1.194,0,0,1-.4.957,1.449,1.449,0,0,1-1.016.379,1.51,1.51,0,0,1-1-.34A1.158,1.158,0,0,1,95.891,6.414Zm6.328,2.125-.18,1.016a3,3,0,0,1,2.445-1.172,2.018,2.018,0,0,1,1.746.871,3.646,3.646,0,0,1,.418,2.426L105.758,17H103.18l.9-5.342a2.763,2.763,0,0,0,.016-.5q-.055-.743-.875-.743a1.606,1.606,0,0,0-1.242.6L100.922,17h-2.57L99.82,8.547Zm9.219,8.617a3.929,3.929,0,0,1-2.02-.535,3.372,3.372,0,0,1-1.34-1.469,3.946,3.946,0,0,1-.359-2.074l.023-.219a5.182,5.182,0,0,1,1.449-3.3,4.009,4.009,0,0,1,3.035-1.168,3.269,3.269,0,0,1,1.859.552,3.082,3.082,0,0,1,1.133,1.479,4.529,4.529,0,0,1,.234,2.117l-.148,1.072h-5.031a1.648,1.648,0,0,0,.375,1.078,1.377,1.377,0,0,0,1.047.438,2.66,2.66,0,0,0,2.008-.859l1.078,1.426a3.181,3.181,0,0,1-1.332,1.064,4.678,4.678,0,0,1-1.871.4Zm.625-6.734a1.322,1.322,0,0,0-.949.342,2.87,2.87,0,0,0-.7,1.2h2.57l.047-.225a1.715,1.715,0,0,0,.016-.513A.9.9,0,0,0,112.063,10.422Zm12.578,6.734A4.345,4.345,0,0,1,121.492,16a4.006,4.006,0,0,1-1.2-3.02v-.219a5.191,5.191,0,0,1,.48-2.289,3.516,3.516,0,0,1,1.4-1.535,4.233,4.233,0,0,1,2.188-.543A3.659,3.659,0,0,1,127.172,9.5a4.344,4.344,0,0,1,1.031,3.082V13.6h-5.234a1.9,1.9,0,0,0,.617,1.117,1.836,1.836,0,0,0,1.234.406,2.366,2.366,0,0,0,1.953-.875l1.2,1.422a3.363,3.363,0,0,1-1.395,1.082A4.713,4.713,0,0,1,124.641,17.156Zm-.3-6.734q-1.156,0-1.375,1.531h2.656v-.2a1.3,1.3,0,0,0-.32-.98A1.275,1.275,0,0,0,124.344,10.422Zm9.344,4.2a.608.608,0,0,0-.352-.539A5.348,5.348,0,0,0,132,13.664a6.092,6.092,0,0,1-1.625-.574,2.722,2.722,0,0,1-.977-.863,2.061,2.061,0,0,1-.336-1.164,2.336,2.336,0,0,1,.961-1.918,3.958,3.958,0,0,1,2.516-.754,4.386,4.386,0,0,1,2.688.758,2.37,2.37,0,0,1,1.016,1.992H133.6q0-1.016-1.07-1.016a1.061,1.061,0,0,0-.7.23.714.714,0,0,0-.281.574.655.655,0,0,0,.344.57,3.248,3.248,0,0,0,1.1.359,9.485,9.485,0,0,1,1.324.336,2.406,2.406,0,0,1,1.906,2.352A2.214,2.214,0,0,1,135.2,16.43a4.505,4.505,0,0,1-2.66.727,4.6,4.6,0,0,1-1.937-.391,3.24,3.24,0,0,1-1.328-1.062,2.406,2.406,0,0,1-.477-1.414h2.461a1.017,1.017,0,0,0,.391.855,1.607,1.607,0,0,0,.961.27,1.264,1.264,0,0,0,.809-.219A.7.7,0,0,0,133.688,14.625ZM143.93,8.547l.086.992a2.906,2.906,0,0,1,2.414-1.148,2.14,2.14,0,0,1,2.164,1.273,2.813,2.813,0,0,1,2.484-1.273q2.57,0,2.641,3.109V17h-2.641V11.664a1.612,1.612,0,0,0-.219-.945.931.931,0,0,0-.8-.3,1.247,1.247,0,0,0-1.164.7l.008.109V17h-2.641V11.68a1.694,1.694,0,0,0-.211-.961.929.929,0,0,0-.8-.3,1.263,1.263,0,0,0-1.156.7V17h-2.633V8.547ZM159.984,17a2.973,2.973,0,0,1-.25-.758,2.448,2.448,0,0,1-2.031.914,3,3,0,0,1-2.031-.723,2.3,2.3,0,0,1-.836-1.816,2.364,2.364,0,0,1,1.016-2.078,5.174,5.174,0,0,1,2.953-.7h.813v-.448q0-1.17-1.008-1.17a.824.824,0,0,0-.937.926h-2.633a2.36,2.36,0,0,1,1.043-1.99,4.383,4.383,0,0,1,2.66-.765,3.843,3.843,0,0,1,2.555.789,2.743,2.743,0,0,1,.961,2.164v3.742a3.832,3.832,0,0,0,.359,1.781V17Zm-1.648-1.719a1.469,1.469,0,0,0,.816-.211,1.322,1.322,0,0,0,.465-.477V13.242h-.766q-1.375,0-1.375,1.234a.754.754,0,0,0,.242.582A.876.876,0,0,0,158.336,15.281ZM158.992,5h2.781L159.6,7.453l-2.148,0Zm9.148,9.625a.608.608,0,0,0-.352-.539,5.348,5.348,0,0,0-1.336-.422,6.092,6.092,0,0,1-1.625-.574,2.722,2.722,0,0,1-.977-.863,2.061,2.061,0,0,1-.336-1.164,2.336,2.336,0,0,1,.961-1.918,3.958,3.958,0,0,1,2.516-.754,4.386,4.386,0,0,1,2.688.758,2.37,2.37,0,0,1,1.016,1.992h-2.641q0-1.016-1.07-1.016a1.061,1.061,0,0,0-.7.23.714.714,0,0,0-.281.574.655.655,0,0,0,.344.57,3.248,3.248,0,0,0,1.1.359,9.485,9.485,0,0,1,1.324.336,2.406,2.406,0,0,1,1.906,2.352,2.214,2.214,0,0,1-1.027,1.883,4.505,4.505,0,0,1-2.66.727,4.6,4.6,0,0,1-1.937-.391,3.24,3.24,0,0,1-1.328-1.062,2.406,2.406,0,0,1-.477-1.414h2.461a1.017,1.017,0,0,0,.391.855,1.607,1.607,0,0,0,.961.27,1.264,1.264,0,0,0,.809-.219A.7.7,0,0,0,168.141,14.625ZM61.262,39.836a5.1,5.1,0,0,1-.887,3.145,2.843,2.843,0,0,1-2.395,1.176,2.437,2.437,0,0,1-1.914-.852V47.25H53.434v-11.7h2.461l.078.781a2.437,2.437,0,0,1,1.992-.937,2.866,2.866,0,0,1,2.43,1.152,5.16,5.16,0,0,1,.867,3.168Zm-2.633-.164q0-2.25-1.312-2.25a1.239,1.239,0,0,0-1.25.672v3.328a1.279,1.279,0,0,0,1.266.7q1.258,0,1.3-2.172Zm3.461.023a4.989,4.989,0,0,1,.492-2.254A3.52,3.52,0,0,1,64,35.922a4.259,4.259,0,0,1,2.164-.531,3.887,3.887,0,0,1,2.992,1.176,4.512,4.512,0,0,1,1.094,3.2v.094A4.378,4.378,0,0,1,69.148,43a3.9,3.9,0,0,1-2.973,1.16,3.942,3.942,0,0,1-2.9-1.082,4.232,4.232,0,0,1-1.18-2.934Zm2.633.164a3.145,3.145,0,0,0,.367,1.719,1.223,1.223,0,0,0,1.086.547q1.406,0,1.438-2.164V39.7q0-2.273-1.453-2.273-1.32,0-1.43,1.961Zm6.352-.148a5.164,5.164,0,0,1,.867-3.164,2.854,2.854,0,0,1,2.422-1.156,2.428,2.428,0,0,1,1.906.891V32H78.91V44H76.543l-.133-.906a2.493,2.493,0,0,1-2.062,1.063A2.849,2.849,0,0,1,71.957,43,5.327,5.327,0,0,1,71.074,39.711Zm2.633.164q0,2.25,1.313,2.25a1.3,1.3,0,0,0,1.25-.734V38.172a1.261,1.261,0,0,0-1.234-.75q-1.219,0-1.32,1.969ZM84.5,44.156A4.345,4.345,0,0,1,81.348,43a4.006,4.006,0,0,1-1.2-3.02v-.219a5.191,5.191,0,0,1,.48-2.289,3.516,3.516,0,0,1,1.4-1.535,4.233,4.233,0,0,1,2.188-.543A3.659,3.659,0,0,1,87.027,36.5a4.344,4.344,0,0,1,1.031,3.082V40.6H82.824a1.9,1.9,0,0,0,.617,1.117,1.836,1.836,0,0,0,1.234.406,2.366,2.366,0,0,0,1.953-.875l1.2,1.422a3.363,3.363,0,0,1-1.395,1.082A4.713,4.713,0,0,1,84.5,44.156Zm-.3-6.734q-1.156,0-1.375,1.531H85.48v-.2a1.3,1.3,0,0,0-.32-.98A1.275,1.275,0,0,0,84.2,37.422Zm10.031.508-.867-.062a1.558,1.558,0,0,0-1.594.781V44H89.137V35.547h2.469l.086,1.086a2.039,2.039,0,0,1,1.852-1.242,2.567,2.567,0,0,1,.734.094Zm.336,1.766a4.989,4.989,0,0,1,.492-2.254,3.52,3.52,0,0,1,1.414-1.52,4.259,4.259,0,0,1,2.164-.531,3.887,3.887,0,0,1,2.992,1.176,4.512,4.512,0,0,1,1.094,3.2v.094a4.378,4.378,0,0,1-1.1,3.137,3.9,3.9,0,0,1-2.973,1.16,3.942,3.942,0,0,1-2.9-1.082,4.232,4.232,0,0,1-1.18-2.934Zm2.633.164a3.145,3.145,0,0,0,.367,1.719,1.223,1.223,0,0,0,1.086.547q1.406,0,1.438-2.164V39.7q0-2.273-1.453-2.273-1.32,0-1.43,1.961Zm11.109,1.766a.608.608,0,0,0-.352-.539,5.347,5.347,0,0,0-1.336-.422A6.092,6.092,0,0,1,105,40.09a2.722,2.722,0,0,1-.977-.863,2.061,2.061,0,0,1-.336-1.164,2.336,2.336,0,0,1,.961-1.918,3.958,3.958,0,0,1,2.516-.754,4.386,4.386,0,0,1,2.688.758,2.37,2.37,0,0,1,1.016,1.992h-2.641q0-1.016-1.07-1.016a1.061,1.061,0,0,0-.7.23.714.714,0,0,0-.281.574.655.655,0,0,0,.344.57,3.248,3.248,0,0,0,1.1.359,9.486,9.486,0,0,1,1.324.336,2.406,2.406,0,0,1,1.906,2.352,2.214,2.214,0,0,1-1.027,1.883,4.505,4.505,0,0,1-2.66.727,4.6,4.6,0,0,1-1.937-.391,3.24,3.24,0,0,1-1.328-1.062,2.406,2.406,0,0,1-.477-1.414h2.461a1.017,1.017,0,0,0,.391.855,1.607,1.607,0,0,0,.961.27,1.264,1.264,0,0,0,.809-.219A.7.7,0,0,0,108.309,41.625Zm3.438-1.93a4.989,4.989,0,0,1,.492-2.254,3.52,3.52,0,0,1,1.414-1.52,4.259,4.259,0,0,1,2.164-.531,3.887,3.887,0,0,1,2.992,1.176,4.512,4.512,0,0,1,1.094,3.2v.094A4.378,4.378,0,0,1,118.8,43a3.9,3.9,0,0,1-2.973,1.16,3.942,3.942,0,0,1-2.9-1.082,4.232,4.232,0,0,1-1.18-2.934Zm2.633.164a3.145,3.145,0,0,0,.367,1.719,1.223,1.223,0,0,0,1.086.547q1.406,0,1.438-2.164V39.7q0-2.273-1.453-2.273-1.32,0-1.43,1.961Z" transform="translate(1186 1459.863)" fill="#12263f"/>
    <g id="Outline" transform="translate(1216.126 1307.778)">
      <path id="Trazado_750554" data-name="Trazado 750554" d="M103.691,75.576a77.924,77.924,0,0,1-5.19-21.2l-.715-7.147h3.576a8.161,8.161,0,0,0,7.336-4.535,8.273,8.273,0,0,0,.864-3.669,8.133,8.133,0,0,0-.095-1.243l-1.638-10.644a.041.041,0,0,0,0-.007l-.871-5.664a6.416,6.416,0,0,0-12.761.919,7.311,7.311,0,0,0,2.949,5.842l1.092,7.644h-1.7a4.266,4.266,0,0,0-4.015-2.839H88.267a4.231,4.231,0,0,0-2.137.577,8.468,8.468,0,0,0,.718-3.417V21.675A5.685,5.685,0,0,0,81.169,16H75.491a5.685,5.685,0,0,0-5.678,5.678v8.518a8.468,8.468,0,0,0,.718,3.417,4.231,4.231,0,0,0-2.137-.577H64.134a4.264,4.264,0,0,0-4.259,4.259,1.42,1.42,0,0,0,.715,1.233L70.527,44.2a1.42,1.42,0,0,0,2.124-1.233V38.71h1.962l.84,1.68L74.08,52.749a1.42,1.42,0,0,0,.407,1.161l2.839,2.839a1.42,1.42,0,0,0,2.008,0l2.839-2.839a1.42,1.42,0,0,0,.407-1.161L81.207,40.39l.84-1.68h1.962v4.259A1.42,1.42,0,0,0,86.132,44.2l9.61-5.491h4.13a1.42,1.42,0,0,0,1.405-1.62l-1.188-8.317h5.118l1.453,9.442a5.289,5.289,0,0,1,.061.809,5.418,5.418,0,0,1-.565,2.4,5.335,5.335,0,0,1-4.8,2.964H88.267a1.42,1.42,0,0,0-1.42,1.42,21.32,21.32,0,0,1-.355,3.881c-.349,1.951-.615,3.916-.792,5.839-.137,1.491-.223,2.991-.256,4.476H71.216a67.2,67.2,0,0,0-1.049-10.317,21.312,21.312,0,0,1-.355-3.879,1.42,1.42,0,0,0-1.6-1.409l-11.357,1.42a1.42,1.42,0,0,0-1.233,1.233L54.362,57.165H49.937V47.819a7.1,7.1,0,0,1,5.932-7l1.4-.233-.466-2.8-1.4.234a9.944,9.944,0,0,0-8.3,9.8V62.238a4.849,4.849,0,0,0,.185,1.326,1.412,1.412,0,0,0-.185.7v4.259H41.42A1.42,1.42,0,0,0,40,69.942V86.977a1.42,1.42,0,0,0,1.42,1.42H64.134a1.42,1.42,0,0,0,1.42-1.42V69.942a1.42,1.42,0,0,0-1.42-1.42H58.455V64.263a1.412,1.412,0,0,0-.185-.7,4.856,4.856,0,0,0-.328-3.5l-.863-1.727L58.307,48.5l1.567-.2V65.683h2.839V47.949l4.311-.539a24.8,24.8,0,0,0,.348,2.78,63.838,63.838,0,0,1,1.019,11.18l-2.774,31.9-2.868,1.912a3.269,3.269,0,0,0,1.814,5.989h9.508a1.42,1.42,0,0,0,1.42-1.42V94.2L78.33,78.11,81.169,94.2v5.554a1.42,1.42,0,0,0,1.42,1.42H92.1a3.269,3.269,0,0,0,1.814-5.989l-2.867-1.912-2.776-31.9c0-1.841.089-3.718.26-5.582.169-1.843.424-3.727.759-5.6a24.668,24.668,0,0,0,.36-2.963h5.287l.744,7.429a80.756,80.756,0,0,0,5.379,21.972l.732,1.83h-9.26V81.3h11.357a1.42,1.42,0,0,0,1.318-1.947ZM69.812,40.523l-6.905-3.946a1.421,1.421,0,0,1,1.227-.706h4.259a1.421,1.421,0,0,1,1.42,1.42Zm2.839-18.848a2.843,2.843,0,0,1,2.839-2.839h5.678a2.843,2.843,0,0,1,2.839,2.839H81.756a6.226,6.226,0,0,0-4.43,1.835,3.4,3.4,0,0,1-2.423,1H72.651Zm0,5.678h1.42v2.839H76.91V27.353H74.9a6.226,6.226,0,0,0,4.431-1.835,3.4,3.4,0,0,1,2.423-1h2.251v5.678a5.678,5.678,0,0,1-11.357,0ZM78.33,53.738l-1.353-1.353,1.344-12.1a1.43,1.43,0,0,0,.009-.156,1.431,1.431,0,0,0,.009.156l1.344,12.1Zm.15-14.243a1.419,1.419,0,0,0-.15.634,1.42,1.42,0,0,0-.15-.634l-.392-.785h1.085Zm8.368,1.028V37.29a1.421,1.421,0,0,1,1.42-1.42h4.259a1.421,1.421,0,0,1,1.227.706ZM98.816,25.933a4.492,4.492,0,0,1-1.782-3.549,3.553,3.553,0,0,1,3.549-3.549,3.593,3.593,0,0,1,3.563,3.04.111.111,0,0,0,0,.015l.621,4.043ZM54.738,60l.663,1.327a2.026,2.026,0,0,1-1.812,2.932H51.963a2.028,2.028,0,0,1-2.026-2.026V60Zm-11.9,25.553V77.669l9.439,3.539a1.418,1.418,0,0,0,1,0l9.439-3.539v7.889ZM62.714,74.637l-9.937,3.727-9.937-3.727V71.361H62.714ZM49.937,68.522V66.659a4.832,4.832,0,0,0,2.026.444H53.59a4.832,4.832,0,0,0,2.026-.444v1.863ZM72.651,98.334H64.563a.43.43,0,0,1-.238-.788L67.4,95.5h5.249ZM78.33,68.522a1.42,1.42,0,0,0-1.4,1.173L72.88,92.656H68.521l2.592-29.812H85.546l2.592,29.812H83.78L79.728,69.695A1.42,1.42,0,0,0,78.33,68.522ZM92.526,97.9a.43.43,0,0,1-.43.43H84.008V95.5h5.249l3.078,2.052a.429.429,0,0,1,.191.358Z" transform="translate(-22.313 -4.749)"/>
      <path id="Trazado_750555" data-name="Trazado 750555" d="M264,80h2.839v2.839H264Z" transform="translate(-206.563 -57.396)"/>
      <path id="Trazado_750556" data-name="Trazado 750556" d="M0,0H2.839V3.149H0Z" transform="translate(37.716 11.856) rotate(-25.643)"/>
      <path id="Trazado_750557" data-name="Trazado 750557" d="M0,0H2.839V7.873H0Z" transform="translate(40.445 17.535) rotate(-25.643)"/>
      <path id="Trazado_750558" data-name="Trazado 750558" d="M0,0H2.839V4.884H0Z" transform="matrix(0.693, -0.721, 0.721, 0.693, 32.319, 25.915)"/>
      <path id="Trazado_750559" data-name="Trazado 750559" d="M0,0H2.839V10.241H0Z" transform="matrix(0.693, -0.721, 0.721, 0.693, 22.551, 16.526)"/>
      <path id="Trazado_750560" data-name="Trazado 750560" d="M0,0H2.839V4.1H0Z" transform="matrix(0.693, -0.721, 0.721, 0.693, 18.122, 12.269)"/>
      <path id="Trazado_750561" data-name="Trazado 750561" d="M48,208h2.839v2.839H48Z" transform="translate(-28.893 -162.682)"/>
      <path id="Trazado_750562" data-name="Trazado 750562" d="M16,208h2.839v2.839H16Z" transform="translate(-2.572 -162.682)"/>
      <path id="Trazado_750563" data-name="Trazado 750563" d="M0,0H2.839V7.736H0Z" transform="translate(18.556 32.049) rotate(-66.561)"/>
      <path id="Trazado_750564" data-name="Trazado 750564" d="M0,0H2.839V3.094H0Z" transform="translate(12.874 29.591) rotate(-66.561)"/>
      <path id="Trazado_750565" data-name="Trazado 750565" d="M0,0H3.024V2.839H0Z" transform="translate(18.608 58.946) rotate(-20.12)"/>
      <path id="Trazado_750566" data-name="Trazado 750566" d="M0,0H3.024V2.839H0Z" transform="translate(12.927 61.028) rotate(-20.12)"/>
      <path id="Trazado_750567" data-name="Trazado 750567" d="M0,0H5.249V2.839H0Z" transform="translate(66.115 23.86) rotate(-64.357)"/>
      <path id="Trazado_750568" data-name="Trazado 750568" d="M0,0H8.031V2.839H0Z" transform="translate(86.234 17.346) rotate(-45)"/>
      <path id="Trazado_750569" data-name="Trazado 750569" d="M384,216h14.2v2.839H384Z" transform="translate(-305.269 -169.262)"/>
      <path id="Trazado_750570" data-name="Trazado 750570" d="M480,216h2.839v2.839H480Z" transform="translate(-384.233 -169.262)"/>
      <path id="Trazado_750571" data-name="Trazado 750571" d="M0,0H3.094V2.839H0Z" transform="translate(89.568 32.071) rotate(-23.439)"/>
      <path id="Trazado_750572" data-name="Trazado 750572" d="M0,0H3.094V2.839H0Z" transform="translate(95.248 29.607) rotate(-23.439)"/>
      <path id="Trazado_750573" data-name="Trazado 750573" d="M0,0H2.839V13.609H0Z" transform="translate(79.648 58.318) rotate(-69.88)"/>
      <path id="Trazado_750574" data-name="Trazado 750574" d="M0,0H2.839V3.024H0Z" transform="translate(95.264 64.043) rotate(-69.88)"/>
    </g>
  </g>
</svg>
