<svg xmlns="http://www.w3.org/2000/svg" width="64" height="58" viewBox="0 0 64 58">
  <g id="digital-book" transform="translate(0 -3)">
    <g id="Grupo_1020864" data-name="Grupo 1020864">
      <path id="Trazado_755415" data-name="Trazado 755415" d="M59,49H5a5.006,5.006,0,0,1-5-5V8A5.006,5.006,0,0,1,5,3H59a5.006,5.006,0,0,1,5,5V44A5.006,5.006,0,0,1,59,49ZM5,5A3,3,0,0,0,2,8V44a3,3,0,0,0,3,3H59a3,3,0,0,0,3-3V8a3,3,0,0,0-3-3Z" fill="#fff"/>
      <path id="Trazado_755416" data-name="Trazado 755416" d="M40,57H24a1,1,0,0,1-.97-1.242l2-8A1,1,0,0,1,26,47H38a1,1,0,0,1,.97.758l2,8A1,1,0,0,1,40,57ZM25.281,55H38.719l-1.5-6H26.781Z" fill="#fff"/>
      <path id="Trazado_755417" data-name="Trazado 755417" d="M43,61H21a1,1,0,0,1-1-1V56a1,1,0,0,1,1-1H43a1,1,0,0,1,1,1v4A1,1,0,0,1,43,61ZM22,59H42V57H22Z" fill="#fff"/>
      <path id="Trazado_755418" data-name="Trazado 755418" d="M63,42H1a1,1,0,0,1,0-2H63a1,1,0,0,1,0,2Z" fill="#fff"/>
    </g>
    <g id="Grupo_1020869" data-name="Grupo 1020869">
      <g id="Grupo_1020865" data-name="Grupo 1020865">
        <path id="Trazado_755419" data-name="Trazado 755419" d="M20,15H17a1,1,0,0,1,0-2h3a1,1,0,0,1,0,2Z" fill="#fff"/>
        <path id="Trazado_755420" data-name="Trazado 755420" d="M17,33a1,1,0,0,1-1-1V14a1,1,0,0,1,2,0V32A1,1,0,0,1,17,33Z" fill="#fff"/>
        <path id="Trazado_755421" data-name="Trazado 755421" d="M47,15H44a1,1,0,0,1,0-2h3a1,1,0,0,1,0,2Z" fill="#fff"/>
        <path id="Trazado_755422" data-name="Trazado 755422" d="M47,33a1,1,0,0,1-1-1V14a1,1,0,0,1,2,0V32A1,1,0,0,1,47,33Z" fill="#fff"/>
        <path id="Trazado_755423" data-name="Trazado 755423" d="M32,36a.993.993,0,0,1-.407-.087A40.141,40.141,0,0,0,17,33a1,1,0,0,1,0-2,41.887,41.887,0,0,1,15,2.914A41.887,41.887,0,0,1,47,31a1,1,0,1,1,0,2,40.148,40.148,0,0,0-14.593,2.913A1,1,0,0,1,32,36Z" fill="#fff"/>
      </g>
      <g id="Grupo_1020868" data-name="Grupo 1020868">
        <g id="Grupo_1020866" data-name="Grupo 1020866">
          <path id="Trazado_755424" data-name="Trazado 755424" d="M32,32a1,1,0,0,1-1-.987c-.138-.724-3.305-3.058-6.994-3.013a6.706,6.706,0,0,0-3.491.857,1,1,0,0,1-1.029-1.715A8.641,8.641,0,0,1,23.994,26h.064a12.173,12.173,0,0,1,7.909,2.989A2.929,2.929,0,0,1,33,31a1,1,0,0,1-1,1Z" fill="#fff"/>
          <path id="Trazado_755425" data-name="Trazado 755425" d="M32,32.009A1.007,1.007,0,0,1,31,31a2.935,2.935,0,0,1,1.033-2.011A12.357,12.357,0,0,1,40.006,26a8.644,8.644,0,0,1,4.509,1.143,1,1,0,0,1-1.029,1.715A6.7,6.7,0,0,0,39.994,28h-.055c-3.69,0-6.817,2.305-6.939,3.019a.991.991,0,0,1-1,.99Z" fill="#fff"/>
        </g>
        <g id="Grupo_1020867" data-name="Grupo 1020867">
          <path id="Trazado_755426" data-name="Trazado 755426" d="M32,16a1,1,0,0,1-1-.987c-.138-.724-3.305-3.022-6.994-3.013a6.706,6.706,0,0,0-3.491.857,1,1,0,1,1-1.029-1.715A8.641,8.641,0,0,1,23.994,10h.064a12.173,12.173,0,0,1,7.909,2.989A2.929,2.929,0,0,1,33,15a1,1,0,0,1-1,1Z" fill="#fff"/>
          <path id="Trazado_755427" data-name="Trazado 755427" d="M32,16.009A1.007,1.007,0,0,1,31,15a2.935,2.935,0,0,1,1.033-2.011A12.09,12.09,0,0,1,40.006,10a8.644,8.644,0,0,1,4.509,1.143,1,1,0,0,1-1.029,1.715A6.7,6.7,0,0,0,39.994,12h-.055c-3.69,0-6.817,2.305-6.939,3.019a.991.991,0,0,1-1,.99Z" fill="#fff"/>
        </g>
        <path id="Trazado_755428" data-name="Trazado 755428" d="M32,32a1,1,0,0,1-1-1V15a1,1,0,0,1,2,0V31A1,1,0,0,1,32,32Z" fill="#fff"/>
        <path id="Trazado_755429" data-name="Trazado 755429" d="M20,29a1,1,0,0,1-1-1V12a1,1,0,0,1,2,0V28A1,1,0,0,1,20,29Z" fill="#fff"/>
        <path id="Trazado_755430" data-name="Trazado 755430" d="M44,29a1,1,0,0,1-1-1V12a1,1,0,0,1,2,0V28A1,1,0,0,1,44,29Z" fill="#fff"/>
      </g>
    </g>
  </g>
</svg>
