<svg xmlns="http://www.w3.org/2000/svg" width="295" height="351" viewBox="0 0 295 351">
  <g id="Grupo_1022496" data-name="Grupo 1022496" transform="translate(-495 -1232)">
    <path id="Trazado_750344" data-name="Trazado 750344" d="M16.253,0H278.747A16.271,16.271,0,0,1,295,16.288V334.712A16.271,16.271,0,0,1,278.747,351H16.253A16.271,16.271,0,0,1,0,334.712V16.288A16.271,16.271,0,0,1,16.253,0Z" transform="translate(495 1232)" fill="#f8cdb5"/>
    <path id="Trazado_762254" data-name="Trazado 762254" d="M74.148,0A74.148,74.148,0,1,1,0,74.148,74.148,74.148,0,0,1,74.148,0Z" transform="translate(568 1287)" fill="#fff"/>
    <path id="Trazado_762255" data-name="Trazado 762255" d="M18.18,10.172H13.867v2.719h5.094V15H11.125V3.625h7.852V5.742H13.867v2.4H18.18ZM22.734,15H20.094V3h2.641Zm9.18-1.875a1.171,1.171,0,0,0,.859-.3,1.1,1.1,0,0,0,.3-.84h2.469a2.922,2.922,0,0,1-1,2.281,3.705,3.705,0,0,1-2.566.891A3.751,3.751,0,0,1,29.07,14a4.556,4.556,0,0,1-1.062-3.2v-.109a5.149,5.149,0,0,1,.473-2.262,3.441,3.441,0,0,1,1.363-1.508,4.065,4.065,0,0,1,2.109-.527A3.658,3.658,0,0,1,34.57,7.3a3.242,3.242,0,0,1,.969,2.477H33.07a1.445,1.445,0,0,0-.32-1.008,1.106,1.106,0,0,0-.859-.352q-1.023,0-1.2,1.3a9.206,9.206,0,0,0-.055,1.141,3.616,3.616,0,0,0,.3,1.766A1.055,1.055,0,0,0,31.914,13.125ZM36.32,10.7a4.989,4.989,0,0,1,.492-2.254,3.52,3.52,0,0,1,1.414-1.52,4.259,4.259,0,0,1,2.164-.531,3.887,3.887,0,0,1,2.992,1.176,4.512,4.512,0,0,1,1.094,3.2v.094A4.378,4.378,0,0,1,43.379,14a3.9,3.9,0,0,1-2.973,1.16,3.942,3.942,0,0,1-2.9-1.082,4.232,4.232,0,0,1-1.18-2.934Zm2.633.164a3.145,3.145,0,0,0,.367,1.719,1.223,1.223,0,0,0,1.086.547q1.406,0,1.438-2.164V10.7q0-2.273-1.453-2.273-1.32,0-1.43,1.961Zm9.1-4.312.086.992a2.867,2.867,0,0,1,2.414-1.148,2.412,2.412,0,0,1,1.973.789A3.757,3.757,0,0,1,53.2,9.555V15H50.563V9.664a1.426,1.426,0,0,0-.258-.941,1.193,1.193,0,0,0-.937-.3,1.256,1.256,0,0,0-1.148.609V15H45.586V6.547Zm11.031,6.078a.608.608,0,0,0-.352-.539,5.348,5.348,0,0,0-1.336-.422,6.092,6.092,0,0,1-1.625-.574,2.722,2.722,0,0,1-.977-.863,2.061,2.061,0,0,1-.336-1.164,2.336,2.336,0,0,1,.961-1.918,3.958,3.958,0,0,1,2.516-.754,4.386,4.386,0,0,1,2.688.758,2.37,2.37,0,0,1,1.016,1.992H59q0-1.016-1.07-1.016a1.061,1.061,0,0,0-.7.23.714.714,0,0,0-.281.574.655.655,0,0,0,.344.57,3.248,3.248,0,0,0,1.1.359,9.485,9.485,0,0,1,1.324.336,2.406,2.406,0,0,1,1.906,2.352A2.214,2.214,0,0,1,60.6,14.43a4.505,4.505,0,0,1-2.66.727A4.6,4.6,0,0,1,56,14.766,3.24,3.24,0,0,1,54.672,13.7a2.406,2.406,0,0,1-.477-1.414h2.461a1.017,1.017,0,0,0,.391.855,1.607,1.607,0,0,0,.961.27,1.264,1.264,0,0,0,.809-.219A.7.7,0,0,0,59.086,12.625Zm8.8,1.461a2.714,2.714,0,0,1-2.258,1.07,2.662,2.662,0,0,1-2.105-.809,3.4,3.4,0,0,1-.715-2.324V6.547h2.633v5.492A.946.946,0,0,0,66.5,13.125a1.376,1.376,0,0,0,1.289-.648V6.547h2.648V15H67.969Zm6.477-7.539.086.992a2.906,2.906,0,0,1,2.414-1.148,2.14,2.14,0,0,1,2.164,1.273,2.813,2.813,0,0,1,2.484-1.273q2.57,0,2.641,3.109V15H81.516V9.664a1.611,1.611,0,0,0-.219-.945.931.931,0,0,0-.8-.3,1.247,1.247,0,0,0-1.164.7l.008.109V15H76.7V9.68a1.694,1.694,0,0,0-.211-.961.928.928,0,0,0-.8-.3,1.263,1.263,0,0,0-1.156.7V15H71.9V6.547ZM88.438,15H85.8V6.547h2.641Zm-2.8-10.633a1.175,1.175,0,0,1,.406-.922,1.727,1.727,0,0,1,2.109,0,1.175,1.175,0,0,1,.406.922,1.175,1.175,0,0,1-.406.922,1.727,1.727,0,0,1-2.109,0A1.175,1.175,0,0,1,85.641,4.367Zm4.086,6.344a5.164,5.164,0,0,1,.867-3.164,2.854,2.854,0,0,1,2.422-1.156,2.428,2.428,0,0,1,1.906.891V3h2.641V15H95.2l-.133-.906A2.493,2.493,0,0,1,93,15.156,2.849,2.849,0,0,1,90.609,14,5.327,5.327,0,0,1,89.727,10.711Zm2.633.164q0,2.25,1.313,2.25a1.3,1.3,0,0,0,1.25-.734V9.172a1.261,1.261,0,0,0-1.234-.75q-1.219,0-1.32,1.969Zm6.367-.18a4.989,4.989,0,0,1,.492-2.254,3.52,3.52,0,0,1,1.414-1.52,4.259,4.259,0,0,1,2.164-.531,3.887,3.887,0,0,1,2.992,1.176,4.512,4.512,0,0,1,1.094,3.2v.094a4.378,4.378,0,0,1-1.1,3.137,3.9,3.9,0,0,1-2.973,1.16,3.942,3.942,0,0,1-2.9-1.082,4.232,4.232,0,0,1-1.18-2.934Zm2.633.164a3.145,3.145,0,0,0,.367,1.719,1.223,1.223,0,0,0,1.086.547q1.406,0,1.438-2.164V10.7q0-2.273-1.453-2.273-1.32,0-1.43,1.961Zm11.8-1.93-.867-.062a1.558,1.558,0,0,0-1.594.781V15h-2.633V6.547h2.469l.086,1.086a2.039,2.039,0,0,1,1.852-1.242,2.567,2.567,0,0,1,.734.094Zm4.6,1.781a5.164,5.164,0,0,1,.867-3.164,2.854,2.854,0,0,1,2.422-1.156,2.428,2.428,0,0,1,1.906.891V3h2.641V15h-2.367l-.133-.906a2.493,2.493,0,0,1-2.062,1.063A2.849,2.849,0,0,1,118.641,14,5.327,5.327,0,0,1,117.758,10.711Zm2.633.164q0,2.25,1.313,2.25a1.3,1.3,0,0,0,1.25-.734V9.172a1.261,1.261,0,0,0-1.234-.75q-1.219,0-1.32,1.969ZM129.867,15h-2.641V6.547h2.641Zm-2.8-10.633a1.175,1.175,0,0,1,.406-.922,1.727,1.727,0,0,1,2.109,0,1.175,1.175,0,0,1,.406.922,1.175,1.175,0,0,1-.406.922,1.727,1.727,0,0,1-2.109,0A1.175,1.175,0,0,1,127.07,4.367Zm4.109,6.344a5.708,5.708,0,0,1,.422-2.266,3.4,3.4,0,0,1,1.211-1.52,3.192,3.192,0,0,1,1.836-.535,2.538,2.538,0,0,1,2.063.891l.094-.734H139.2V14.68a3.564,3.564,0,0,1-.52,1.941,3.334,3.334,0,0,1-1.5,1.266,5.528,5.528,0,0,1-2.281.441,4.769,4.769,0,0,1-1.8-.352,3.251,3.251,0,0,1-1.332-.914l1.1-1.547a2.414,2.414,0,0,0,1.938.867,1.568,1.568,0,0,0,1.75-1.8V14.32a2.472,2.472,0,0,1-1.914.836,3.055,3.055,0,0,1-2.5-1.184,4.9,4.9,0,0,1-.953-3.168Zm2.641.164a3.007,3.007,0,0,0,.391,1.645,1.232,1.232,0,0,0,1.094.605,1.4,1.4,0,0,0,1.242-.57V9a1.363,1.363,0,0,0-1.227-.578,1.241,1.241,0,0,0-1.1.629A3.429,3.429,0,0,0,133.82,10.875ZM143.469,15h-2.641V6.547h2.641Zm-2.8-10.633a1.175,1.175,0,0,1,.406-.922,1.727,1.727,0,0,1,2.109,0,1.175,1.175,0,0,1,.406.922,1.175,1.175,0,0,1-.406.922,1.727,1.727,0,0,1-2.109,0A1.175,1.175,0,0,1,140.672,4.367Zm7.484.078v2.1h1.391V8.375h-1.391v3.867a.987.987,0,0,0,.172.664.922.922,0,0,0,.68.188,3.862,3.862,0,0,0,.656-.047V14.93a4.859,4.859,0,0,1-1.484.227,2.758,2.758,0,0,1-2.008-.641,2.626,2.626,0,0,1-.648-1.945v-4.2h-1.078V6.547h1.078v-2.1ZM155.344,15a2.973,2.973,0,0,1-.25-.758,2.448,2.448,0,0,1-2.031.914,3,3,0,0,1-2.031-.723,2.3,2.3,0,0,1-.836-1.816,2.364,2.364,0,0,1,1.016-2.078,5.174,5.174,0,0,1,2.953-.7h.813V9.388q0-1.17-1.008-1.17a.824.824,0,0,0-.937.926H150.4a2.36,2.36,0,0,1,1.043-1.99,4.383,4.383,0,0,1,2.66-.765,3.843,3.843,0,0,1,2.555.789,2.743,2.743,0,0,1,.961,2.164v3.742a3.832,3.832,0,0,0,.359,1.781V15ZM153.7,13.281a1.469,1.469,0,0,0,.816-.211,1.322,1.322,0,0,0,.465-.477V11.242h-.766q-1.375,0-1.375,1.234a.754.754,0,0,0,.242.582A.876.876,0,0,0,153.7,13.281ZM161.852,15h-2.641V3h2.641ZM31.527,42.156A4.345,4.345,0,0,1,28.379,41a4.006,4.006,0,0,1-1.2-3.02v-.219a5.191,5.191,0,0,1,.48-2.289,3.516,3.516,0,0,1,1.4-1.535,4.233,4.233,0,0,1,2.188-.543A3.659,3.659,0,0,1,34.059,34.5a4.344,4.344,0,0,1,1.031,3.082V38.6H29.855a1.9,1.9,0,0,0,.617,1.117,1.836,1.836,0,0,0,1.234.406,2.366,2.366,0,0,0,1.953-.875l1.2,1.422a3.363,3.363,0,0,1-1.395,1.082A4.713,4.713,0,0,1,31.527,42.156Zm-.3-6.734q-1.156,0-1.375,1.531h2.656v-.2a1.3,1.3,0,0,0-.32-.98A1.275,1.275,0,0,0,31.23,35.422Zm9.344,4.2a.608.608,0,0,0-.352-.539,5.347,5.347,0,0,0-1.336-.422,6.092,6.092,0,0,1-1.625-.574,2.722,2.722,0,0,1-.977-.863,2.061,2.061,0,0,1-.336-1.164,2.336,2.336,0,0,1,.961-1.918,3.958,3.958,0,0,1,2.516-.754,4.386,4.386,0,0,1,2.688.758,2.37,2.37,0,0,1,1.016,1.992H40.488q0-1.016-1.07-1.016a1.061,1.061,0,0,0-.7.23.714.714,0,0,0-.281.574.655.655,0,0,0,.344.57,3.248,3.248,0,0,0,1.1.359,9.486,9.486,0,0,1,1.324.336,2.406,2.406,0,0,1,1.906,2.352,2.214,2.214,0,0,1-1.027,1.883,4.505,4.505,0,0,1-2.66.727,4.6,4.6,0,0,1-1.937-.391A3.24,3.24,0,0,1,36.16,40.7a2.406,2.406,0,0,1-.477-1.414h2.461a1.017,1.017,0,0,0,.391.855,1.607,1.607,0,0,0,.961.27A1.264,1.264,0,0,0,40.3,40.2.7.7,0,0,0,40.574,39.625Zm11.617-1.789A5.1,5.1,0,0,1,51.3,40.98a2.843,2.843,0,0,1-2.395,1.176A2.437,2.437,0,0,1,47,41.3V45.25H44.363v-11.7h2.461l.078.781a2.437,2.437,0,0,1,1.992-.937,2.866,2.866,0,0,1,2.43,1.152,5.16,5.16,0,0,1,.867,3.168Zm-2.633-.164q0-2.25-1.312-2.25a1.239,1.239,0,0,0-1.25.672v3.328a1.279,1.279,0,0,0,1.266.7q1.258,0,1.3-2.172Zm7.883,4.484A4.345,4.345,0,0,1,54.293,41a4.006,4.006,0,0,1-1.2-3.02v-.219a5.191,5.191,0,0,1,.48-2.289,3.516,3.516,0,0,1,1.4-1.535,4.233,4.233,0,0,1,2.188-.543A3.659,3.659,0,0,1,59.973,34.5,4.344,4.344,0,0,1,61,37.578V38.6H55.77a1.9,1.9,0,0,0,.617,1.117,1.836,1.836,0,0,0,1.234.406,2.366,2.366,0,0,0,1.953-.875l1.2,1.422a3.363,3.363,0,0,1-1.395,1.082A4.713,4.713,0,0,1,57.441,42.156Zm-.3-6.734q-1.156,0-1.375,1.531h2.656v-.2a1.3,1.3,0,0,0-.32-.98A1.275,1.275,0,0,0,57.145,35.422Zm10.031.508-.867-.062a1.558,1.558,0,0,0-1.594.781V42H62.082V33.547h2.469l.086,1.086a2.039,2.039,0,0,1,1.852-1.242,2.567,2.567,0,0,1,.734.094Zm.336,1.766A4.989,4.989,0,0,1,68,35.441a3.52,3.52,0,0,1,1.414-1.52,4.259,4.259,0,0,1,2.164-.531,3.887,3.887,0,0,1,2.992,1.176,4.512,4.512,0,0,1,1.094,3.2v.094A4.378,4.378,0,0,1,74.57,41a3.9,3.9,0,0,1-2.973,1.16,3.942,3.942,0,0,1-2.9-1.082,4.232,4.232,0,0,1-1.18-2.934Zm2.633.164a3.145,3.145,0,0,0,.367,1.719,1.223,1.223,0,0,0,1.086.547q1.406,0,1.438-2.164V37.7q0-2.273-1.453-2.273-1.32,0-1.43,1.961ZM71.941,30h2.781l-2.172,2.453-2.148,0ZM83.3,33.547l.086.992A2.906,2.906,0,0,1,85.8,33.391a2.14,2.14,0,0,1,2.164,1.273,2.813,2.813,0,0,1,2.484-1.273q2.57,0,2.641,3.109V42H90.449V36.664a1.611,1.611,0,0,0-.219-.945.931.931,0,0,0-.8-.3,1.247,1.247,0,0,0-1.164.7l.008.109V42H85.637V36.68a1.694,1.694,0,0,0-.211-.961.928.928,0,0,0-.8-.3,1.263,1.263,0,0,0-1.156.7V42H80.832V33.547Zm16.328,7.539a2.714,2.714,0,0,1-2.258,1.07,2.662,2.662,0,0,1-2.105-.809,3.4,3.4,0,0,1-.715-2.324V33.547h2.633v5.492a.946.946,0,0,0,1.055,1.086,1.376,1.376,0,0,0,1.289-.648v-5.93h2.648V42H99.707Zm7.563-.961a1.171,1.171,0,0,0,.859-.3,1.1,1.1,0,0,0,.3-.84h2.469a2.923,2.923,0,0,1-1,2.281,3.705,3.705,0,0,1-2.566.891A3.751,3.751,0,0,1,104.348,41a4.556,4.556,0,0,1-1.062-3.2v-.109a5.149,5.149,0,0,1,.473-2.262,3.441,3.441,0,0,1,1.363-1.508,4.065,4.065,0,0,1,2.109-.527,3.658,3.658,0,0,1,2.617.914,3.242,3.242,0,0,1,.969,2.477h-2.469a1.445,1.445,0,0,0-.32-1.008,1.106,1.106,0,0,0-.859-.352q-1.023,0-1.2,1.3a9.206,9.206,0,0,0-.055,1.141,3.616,3.616,0,0,0,.3,1.766A1.055,1.055,0,0,0,107.191,40.125Zm7.313-5.672a2.89,2.89,0,0,1,4.266-.234,3.721,3.721,0,0,1,.727,2.445V42h-2.641V36.727a1.488,1.488,0,0,0-.273-.988,1.175,1.175,0,0,0-.93-.316,1.266,1.266,0,0,0-1.148.516V42h-2.633V30H114.5Zm6.125,3.242a4.989,4.989,0,0,1,.492-2.254,3.52,3.52,0,0,1,1.414-1.52,4.259,4.259,0,0,1,2.164-.531,3.887,3.887,0,0,1,2.992,1.176,4.512,4.512,0,0,1,1.094,3.2v.094a4.378,4.378,0,0,1-1.1,3.137,3.9,3.9,0,0,1-2.973,1.16,3.942,3.942,0,0,1-2.9-1.082,4.232,4.232,0,0,1-1.18-2.934Zm2.633.164a3.145,3.145,0,0,0,.367,1.719,1.223,1.223,0,0,0,1.086.547q1.406,0,1.438-2.164V37.7q0-2.273-1.453-2.273-1.32,0-1.43,1.961Zm14.758,4.3A4.345,4.345,0,0,1,134.871,41a4.006,4.006,0,0,1-1.2-3.02v-.219a5.191,5.191,0,0,1,.48-2.289,3.516,3.516,0,0,1,1.4-1.535,4.233,4.233,0,0,1,2.188-.543,3.659,3.659,0,0,1,2.813,1.105,4.344,4.344,0,0,1,1.031,3.082V38.6h-5.234a1.9,1.9,0,0,0,.617,1.117,1.836,1.836,0,0,0,1.234.406,2.366,2.366,0,0,0,1.953-.875l1.2,1.422a3.363,3.363,0,0,1-1.395,1.082A4.713,4.713,0,0,1,138.02,42.156Zm-.3-6.734q-1.156,0-1.375,1.531H139v-.2a1.3,1.3,0,0,0-.32-.98A1.275,1.275,0,0,0,137.723,35.422Zm7.7,6.578h-2.641V30h2.641ZM64.324,67.125a1.171,1.171,0,0,0,.859-.3,1.1,1.1,0,0,0,.3-.84h2.469a2.922,2.922,0,0,1-1,2.281,3.705,3.705,0,0,1-2.566.891A3.751,3.751,0,0,1,61.48,68a4.556,4.556,0,0,1-1.062-3.2v-.109a5.149,5.149,0,0,1,.473-2.262,3.441,3.441,0,0,1,1.363-1.508,4.065,4.065,0,0,1,2.109-.527,3.658,3.658,0,0,1,2.617.914,3.242,3.242,0,0,1,.969,2.477H65.48a1.445,1.445,0,0,0-.32-1.008,1.106,1.106,0,0,0-.859-.352q-1.023,0-1.2,1.3a9.206,9.206,0,0,0-.055,1.141,3.616,3.616,0,0,0,.3,1.766A1.055,1.055,0,0,0,64.324,67.125ZM73.824,69a2.973,2.973,0,0,1-.25-.758,2.448,2.448,0,0,1-2.031.914,3,3,0,0,1-2.031-.723,2.3,2.3,0,0,1-.836-1.816,2.364,2.364,0,0,1,1.016-2.078,5.174,5.174,0,0,1,2.953-.7h.813v-.448q0-1.17-1.008-1.17a.824.824,0,0,0-.937.926H68.879a2.36,2.36,0,0,1,1.043-1.99,4.383,4.383,0,0,1,2.66-.765,3.843,3.843,0,0,1,2.555.789,2.743,2.743,0,0,1,.961,2.164v3.742a3.832,3.832,0,0,0,.359,1.781V69Zm-1.648-1.719a1.469,1.469,0,0,0,.816-.211,1.322,1.322,0,0,0,.465-.477V65.242h-.766q-1.375,0-1.375,1.234a.754.754,0,0,0,.242.582A.876.876,0,0,0,72.176,67.281Zm7.867-6.734.086.992a2.906,2.906,0,0,1,2.414-1.148,2.14,2.14,0,0,1,2.164,1.273,2.813,2.813,0,0,1,2.484-1.273q2.57,0,2.641,3.109V69H87.191V63.664a1.611,1.611,0,0,0-.219-.945.931.931,0,0,0-.8-.3,1.247,1.247,0,0,0-1.164.7l.008.109V69H82.379V63.68a1.694,1.694,0,0,0-.211-.961.928.928,0,0,0-.8-.3,1.263,1.263,0,0,0-1.156.7V69H77.574V60.547Zm19.141,4.3a5.152,5.152,0,0,1-.859,3.2A2.878,2.878,0,0,1,95.9,69.156a2.5,2.5,0,0,1-2.078-1.023L93.715,69H91.355V57h2.633v4.227a2.41,2.41,0,0,1,1.9-.836,2.879,2.879,0,0,1,2.438,1.133,5.179,5.179,0,0,1,.859,3.188Zm-2.641-.168a3.437,3.437,0,0,0-.324-1.735,1.093,1.093,0,0,0-1-.519,1.261,1.261,0,0,0-1.234.679v3.354a1.268,1.268,0,0,0,1.25.671,1.118,1.118,0,0,0,1.18-.9A6.5,6.5,0,0,0,96.543,64.676ZM103.121,69H100.48V60.547h2.641Zm-2.8-10.633a1.175,1.175,0,0,1,.406-.922,1.727,1.727,0,0,1,2.109,0,1.249,1.249,0,0,1,0,1.844,1.727,1.727,0,0,1-2.109,0A1.175,1.175,0,0,1,100.324,58.367ZM104.41,64.7a4.989,4.989,0,0,1,.492-2.254,3.52,3.52,0,0,1,1.414-1.52,4.259,4.259,0,0,1,2.164-.531,3.887,3.887,0,0,1,2.992,1.176,4.512,4.512,0,0,1,1.094,3.2v.094a4.378,4.378,0,0,1-1.1,3.137,3.9,3.9,0,0,1-2.973,1.16,3.942,3.942,0,0,1-2.9-1.082,4.232,4.232,0,0,1-1.18-2.934Zm2.633.164a3.145,3.145,0,0,0,.367,1.719,1.223,1.223,0,0,0,1.086.547q1.406,0,1.438-2.164V64.7q0-2.273-1.453-2.273-1.32,0-1.43,1.961Z" transform="translate(556 1459.863)" fill="#12263f"/>
    <g id="economy_6536321" transform="translate(597.998 1317.002)">
      <path id="Trazado_762077" data-name="Trazado 762077" d="M88.466,17.034a1.729,1.729,0,0,0-3.389-.684l-1.611,7.982a12.369,12.369,0,0,1-3.39,6.318L64.832,45.9l-2.87-2.87,7.481-7.481A1.729,1.729,0,1,0,67,33.1l-7.481,7.481L56.65,37.714l7.482-7.482a1.729,1.729,0,0,0-2.445-2.445l-7.482,7.482-2.847-2.847,7.482-7.482A1.729,1.729,0,0,0,56.4,22.5l-7.481,7.481L46.02,27.083,56.886,16.217a10.821,10.821,0,0,0,2.79,1.334c2.347.72,5.888.833,9.434-2.712a1.729,1.729,0,0,0-2.445-2.445,5.91,5.91,0,0,1-8.707.291,1.741,1.741,0,0,0-1.581-.459,2.2,2.2,0,0,0-1.088.7l-3.36,3.359a4.523,4.523,0,0,1-5.925.4l9.6-9.6a12.464,12.464,0,0,1,9.226-3.627h7.254a1.729,1.729,0,0,0,0-3.457H64.916A15.929,15.929,0,0,0,53.153,4.646L42.307,15.494a1.729,1.729,0,0,0,0,2.444l.791.791a7.914,7.914,0,0,0,4.184,2.2L43.575,24.64l-8.491-8.491a1.729,1.729,0,0,0-2.445,0l-5.45,5.45a1.729,1.729,0,0,0,2.445,2.445l4.228-4.228,37.661,37.66L52.429,76.568l-6.69-6.69,1.59-1.59.761-.761.4.4a1.745,1.745,0,0,0,2.467-.023,2.071,2.071,0,0,1,2.85-.1,1.746,1.746,0,0,0,2.47.026l6.507-6.509a1.746,1.746,0,0,0,0-2.445,2.07,2.07,0,0,1,.1-2.895,1.729,1.729,0,0,0,0-2.445L37.8,28.455a1.746,1.746,0,0,0-2.445,0,2.055,2.055,0,0,1-2.9.1,1.729,1.729,0,0,0-2.444,0l-6.507,6.507a1.746,1.746,0,0,0,.025,2.469,2.07,2.07,0,0,1-.1,2.847,1.746,1.746,0,0,0-.024,2.468l.979.979-2.351,2.351-3.23-3.23L14.77,38.907l4.173-4.173A1.729,1.729,0,0,0,16.5,32.289l-5.4,5.4a1.729,1.729,0,0,0,0,2.444l3.284,3.285L4.649,53.151A15.921,15.921,0,0,0,.011,64.913v7.162a1.729,1.729,0,1,0,3.457,0V64.883c0-.021,0-.042,0-.063A12.451,12.451,0,0,1,7.094,55.6l9.737-9.737,2.762,2.762-4.952,4.952a1.729,1.729,0,1,0,2.444,2.445L33.406,39.7a2.047,2.047,0,0,1,2.884,2.9L24.213,54.68a1.729,1.729,0,1,0,2.445,2.445L42.7,41.086a2.013,2.013,0,0,1,2.846,2.847L29.5,59.971a1.729,1.729,0,0,0,0,2.445,1.75,1.75,0,0,0,2.445,0L43.618,50.748a2.02,2.02,0,0,1,2.828.017,2.042,2.042,0,0,1,.021,2.868l-11.65,11.65a1.729,1.729,0,1,0,2.445,2.445L46.785,58.2a2.036,2.036,0,0,1,2.87.023,2.015,2.015,0,0,1,0,2.847l-19,19a12.372,12.372,0,0,1-6.319,3.389l-7.982,1.612a1.728,1.728,0,1,0,.684,3.388l7.982-1.611a15.82,15.82,0,0,0,8.08-4.334l10.2-10.2,7.912,7.912a1.746,1.746,0,0,0,2.445,0L75.189,58.7a1.746,1.746,0,0,0,0-2.445l-7.912-7.912L82.521,33.095a15.815,15.815,0,0,0,4.334-8.079ZM59.319,59.9l-4.467,4.468a5.48,5.48,0,0,0-2.368-.537h-.008a5.682,5.682,0,0,0-.733.048l.357-.357a5.5,5.5,0,0,0-2.071-9.052,5.537,5.537,0,0,0-2.826-7.3l.786-.786a5.5,5.5,0,0,0,1.151-1.693L59.4,54.946A5.557,5.557,0,0,0,59.319,59.9ZM26.972,36.486l4.47-4.47a5.538,5.538,0,0,0,4.948-.083l5.556,5.556a5.469,5.469,0,0,0-1.7,1.152l-.352.352A5.462,5.462,0,0,0,38.745,37.3a5.526,5.526,0,0,0-7.784-.048L27,41.218a5.624,5.624,0,0,0-.024-4.731Z" transform="translate(0 0)"/>
      <path id="Trazado_762078" data-name="Trazado 762078" d="M47.813,48.089a1.729,1.729,0,0,0,1.729-1.729V37.335a1.746,1.746,0,0,0-1.729-1.729h-9.1a1.729,1.729,0,0,0,0,3.457H43.64L30.717,51.986a1.729,1.729,0,0,0,2.445,2.445L46.085,41.508V46.36a1.728,1.728,0,0,0,1.728,1.729Z" transform="translate(-24.988 -29.453)"/>
      <path id="Trazado_762079" data-name="Trazado 762079" d="M399.387,382.338a1.729,1.729,0,0,0-2.445,0L384.02,395.261v-4.853a1.729,1.729,0,0,0-3.457,0v9.025a1.746,1.746,0,0,0,1.729,1.729h9.1a1.728,1.728,0,1,0,0-3.457h-4.923l12.923-12.923A1.729,1.729,0,0,0,399.387,382.338Z" transform="translate(-314.781 -315.833)"/>
      <path id="Trazado_762080" data-name="Trazado 762080" d="M123.949,154.82a1.728,1.728,0,1,0,.935-2.258A1.746,1.746,0,0,0,123.949,154.82Z" transform="translate(-102.417 -126.087)"/>
    </g>
  </g>
</svg>
