<svg xmlns="http://www.w3.org/2000/svg" width="400.096" height="584.966" viewBox="0 0 400.096 584.966">
  <g id="Grupo_1022495" data-name="Grupo 1022495" transform="translate(-179.904 -8857.184)">
    <g id="Layer_7" data-name="Layer 7" transform="translate(179.904 8857.184)">
      <g id="Grupo_1022380" data-name="Grupo 1022380">
        <g id="Grupo_1022379" data-name="Grupo 1022379">
          <g id="Grupo_1022378" data-name="Grupo 1022378">
            <path id="Trazado_750510" data-name="Trazado 750510" d="M0,536.8c0,7.6,7.4,13.762,16.514,13.762H231.223V0H16.514C7.4,0,0,6.159,0,13.762V536.791Z" fill="#ffe4b9"/>
            <path id="Trazado_750511" data-name="Trazado 750511" d="M428.795,586.467c0,7.6-10.731,13.762-23.955,13.762H93.39V49.67H404.84c13.233,0,23.955,6.159,23.955,13.762V586.461Z" transform="translate(-28.699 -15.264)" fill="#f6f6f6"/>
          </g>
          <path id="Trazado_750512" data-name="Trazado 750512" d="M213.289,173.53H93.39V276.3H213.3a49.991,49.991,0,0,0,49.992-49.992v-2.778A49.991,49.991,0,0,0,213.3,173.537Z" transform="translate(-28.699 -76.634)" fill="#ffb338"/>
        </g>
        <path id="Trazado_750513" data-name="Trazado 750513" d="M93.39,34.406,259.929,0V34.406Z" transform="translate(-28.699)" fill="#ffb338"/>
      </g>
    </g>
    <text id="Far_far_away_behind" data-name="Far far away, behind" transform="translate(287.904 8961.644)" fill="#fff" font-size="72" font-family="Roboto-Black, Roboto" font-weight="800"><tspan x="-20.848" y="68">1</tspan></text>
  </g>
</svg>
