<svg xmlns="http://www.w3.org/2000/svg" width="819.744" height="821" viewBox="0 0 819.744 821">
  <g id="Grupo_1022488" data-name="Grupo 1022488" transform="translate(-390 -13502.812)">
    <g id="Grupo_1022487" data-name="Grupo 1022487">
      <g id="Grupo_1020828" data-name="Grupo 1020828" transform="translate(390 13502.812)">
        <circle id="Elipse_8566" data-name="Elipse 8566" cx="249.873" cy="249.873" r="249.873" transform="translate(159.998 154.753)" fill="#f6f6f6"/>
        <g id="Grupo_1020824" data-name="Grupo 1020824" transform="translate(104.281 99.036)">
          <path id="Trazado_750365" data-name="Trazado 750365" d="M540.861,539.034A135.657,135.657,0,0,1,694.2,476.048c.863-9.361,1.328-18.842,1.328-28.429,0-6.736-.24-13.419-.675-20.05A135.612,135.612,0,0,1,565.884,197.738a305.184,305.184,0,0,0-43.716-25.7,135.587,135.587,0,0,1-264.455,0A305.879,305.879,0,0,0,214,197.738,135.612,135.612,0,0,1,85.025,427.569c-.428,6.631-.675,13.307-.675,20.05,0,9.586.465,19.067,1.328,28.429A135.615,135.615,0,0,1,219.113,701.04a304.806,304.806,0,0,0,40.565,23.073,135.593,135.593,0,0,1,260.525,0,304.812,304.812,0,0,0,40.565-23.073,135.634,135.634,0,0,1-19.908-162.007Z" transform="translate(-84.35 -142.028)" fill="none"/>
          <path id="Trazado_750366" data-name="Trazado 750366" d="M447.7,267.633A135.623,135.623,0,0,0,579.925,162.041a306.3,306.3,0,0,0-264.455,0A135.63,135.63,0,0,0,447.7,267.633Z" transform="translate(-142.107 -132.03)" fill="#0068cc"/>
          <path id="Trazado_750367" data-name="Trazado 750367" d="M448.352,777.46A135.63,135.63,0,0,0,318.09,875.408a306.137,306.137,0,0,0,260.525,0A135.63,135.63,0,0,0,448.352,777.46Z" transform="translate(-142.762 -293.323)" fill="#8d421b"/>
          <path id="Trazado_750368" data-name="Trazado 750368" d="M239.243,373.325A135.621,135.621,0,0,0,214.22,206.3,305.292,305.292,0,0,0,85.24,436.131a135.647,135.647,0,0,0,154-62.806Z" transform="translate(-84.572 -150.59)" fill="#ffb339"/>
          <path id="Trazado_750369" data-name="Trazado 750369" d="M840.237,575.721A135.615,135.615,0,0,0,706.8,800.713,305.426,305.426,0,0,0,840.237,575.721Z" transform="translate(-230.383 -241.701)" fill="#eb702d"/>
          <path id="Trazado_750370" data-name="Trazado 750370" d="M686.891,373.325a135.647,135.647,0,0,0,154,62.806A305.27,305.27,0,0,0,711.907,206.3a135.629,135.629,0,0,0-25.023,167.025Z" transform="translate(-230.381 -150.59)" fill="#0082ff"/>
          <path id="Trazado_750371" data-name="Trazado 750371" d="M239.463,638.707A135.657,135.657,0,0,0,86.12,575.721,305.427,305.427,0,0,0,219.555,800.713a135.634,135.634,0,0,0,19.908-162.007Z" transform="translate(-84.792 -241.701)" fill="#b3dd19"/>
        </g>
        <g id="Grupo_1020825" data-name="Grupo 1020825" transform="translate(310.836)">
          <circle id="Elipse_8567" data-name="Elipse 8567" cx="99.036" cy="99.036" r="99.036" transform="translate(0)" fill="#dee4f0"/>
          <circle id="Elipse_8568" data-name="Elipse 8568" cx="99.036" cy="99.036" r="99.036" transform="translate(0 622.928)" fill="#fce9df"/>
        </g>
        <g id="Grupo_1020826" data-name="Grupo 1020826" transform="translate(0 114.833)">
          <circle id="Elipse_8569" data-name="Elipse 8569" cx="99.036" cy="99.036" r="99.036" transform="translate(0 140.058) rotate(-45)" fill="#fff4e2"/>
          <circle id="Elipse_8570" data-name="Elipse 8570" cx="99.036" cy="99.036" r="99.036" transform="translate(539.628 451.266) rotate(-45)" fill="#f8cdb5"/>
        </g>
        <g id="Grupo_1020827" data-name="Grupo 1020827" transform="translate(0.002 114.836)">
          <circle id="Elipse_8571" data-name="Elipse 8571" cx="99.036" cy="99.036" r="99.036" transform="translate(539.624 140.058) rotate(-45)" fill="#d9ecff"/>
          <circle id="Elipse_8572" data-name="Elipse 8572" cx="99.036" cy="99.036" r="99.036" transform="translate(0 451.266) rotate(-45)" fill="#f3fadc"/>
        </g>
      </g>
      <path id="Trazado_762174" data-name="Trazado 762174" d="M-109.742-22.75l5.078,15.828L-99.6-22.75h7.219V0h-5.5V-5.312l.531-10.875L-102.852,0h-3.625l-5.516-16.2.531,10.891V0h-5.484V-22.75ZM-80.961.313a8.691,8.691,0,0,1-6.3-2.32,8.013,8.013,0,0,1-2.406-6.039v-.437a10.383,10.383,0,0,1,.961-4.578,7.031,7.031,0,0,1,2.8-3.07,8.467,8.467,0,0,1,4.375-1.086A7.318,7.318,0,0,1-75.9-15.008a8.688,8.688,0,0,1,2.063,6.164V-6.8H-84.3A3.8,3.8,0,0,0-83.07-4.562,3.673,3.673,0,0,0-80.6-3.75,4.732,4.732,0,0,0-76.7-5.5l2.406,2.844A6.726,6.726,0,0,1-77.078-.492,9.425,9.425,0,0,1-80.961.313Zm-.594-13.469q-2.312,0-2.75,3.063h5.313V-10.5a2.608,2.608,0,0,0-.641-1.961A2.549,2.549,0,0,0-81.555-13.156Zm9.172,4.578a10.327,10.327,0,0,1,1.734-6.328A5.709,5.709,0,0,1-65.8-17.219a4.855,4.855,0,0,1,3.813,1.781V-24h5.281V0h-4.734l-.266-1.812A4.986,4.986,0,0,1-65.836.313,5.7,5.7,0,0,1-70.617-2,10.655,10.655,0,0,1-72.383-8.578Zm5.266.328q0,4.5,2.625,4.5a2.592,2.592,0,0,0,2.5-1.469v-6.437a2.522,2.522,0,0,0-2.469-1.5q-2.437,0-2.641,3.938ZM-48.164,0h-5.281V-16.906h5.281Zm-5.594-21.266a2.35,2.35,0,0,1,.813-1.844,3.066,3.066,0,0,1,2.109-.719,3.066,3.066,0,0,1,2.109.719,2.35,2.35,0,0,1,.813,1.844,2.35,2.35,0,0,1-.812,1.844,3.066,3.066,0,0,1-2.109.719,3.066,3.066,0,0,1-2.109-.719A2.35,2.35,0,0,1-53.758-21.266Zm8.172,12.656a9.978,9.978,0,0,1,.984-4.508,7.04,7.04,0,0,1,2.828-3.039,8.518,8.518,0,0,1,4.328-1.062,7.774,7.774,0,0,1,5.984,2.352,9.024,9.024,0,0,1,2.188,6.4v.188a8.755,8.755,0,0,1-2.2,6.273A7.794,7.794,0,0,1-37.414.313a7.883,7.883,0,0,1-5.8-2.164A8.464,8.464,0,0,1-45.57-7.719Zm5.266.328a6.291,6.291,0,0,0,.734,3.438A2.447,2.447,0,0,0-37.414-3.75q2.813,0,2.875-4.328v-.531q0-4.547-2.906-4.547-2.641,0-2.859,3.922ZM-18.1-4.75a1.216,1.216,0,0,0-.7-1.078,10.7,10.7,0,0,0-2.672-.844,12.184,12.184,0,0,1-3.25-1.148A5.444,5.444,0,0,1-26.68-9.547a4.123,4.123,0,0,1-.672-2.328,4.673,4.673,0,0,1,1.922-3.836A7.917,7.917,0,0,1-20.4-17.219,8.771,8.771,0,0,1-15.023-15.7a4.74,4.74,0,0,1,2.031,3.984h-5.281q0-2.031-2.141-2.031a2.122,2.122,0,0,0-1.391.461,1.427,1.427,0,0,0-.562,1.148A1.31,1.31,0,0,0-21.68-11a6.5,6.5,0,0,0,2.2.719,18.971,18.971,0,0,1,2.648.672q3.812,1.313,3.813,4.7a4.428,4.428,0,0,1-2.055,3.766A9.01,9.01,0,0,1-20.4.313a9.2,9.2,0,0,1-3.875-.781A6.48,6.48,0,0,1-26.93-2.594a4.812,4.812,0,0,1-.953-2.828h4.922a2.035,2.035,0,0,0,.781,1.711,3.214,3.214,0,0,0,1.922.539,2.528,2.528,0,0,0,1.617-.437A1.4,1.4,0,0,0-18.1-4.75ZM-3.258-8.578a10.327,10.327,0,0,1,1.734-6.328A5.709,5.709,0,0,1,3.32-17.219a4.855,4.855,0,0,1,3.813,1.781V-24h5.281V0H7.68L7.414-1.812A4.986,4.986,0,0,1,3.289.313,5.7,5.7,0,0,1-1.492-2,10.655,10.655,0,0,1-3.258-8.578Zm5.266.328q0,4.5,2.625,4.5a2.592,2.592,0,0,0,2.5-1.469v-6.437a2.522,2.522,0,0,0-2.469-1.5q-2.437,0-2.641,3.938ZM23.586.313a8.691,8.691,0,0,1-6.3-2.32,8.013,8.013,0,0,1-2.406-6.039v-.437a10.383,10.383,0,0,1,.961-4.578,7.031,7.031,0,0,1,2.8-3.07,8.467,8.467,0,0,1,4.375-1.086,7.318,7.318,0,0,1,5.625,2.211,8.688,8.688,0,0,1,2.063,6.164V-6.8H20.242a3.8,3.8,0,0,0,1.234,2.234,3.673,3.673,0,0,0,2.469.813A4.732,4.732,0,0,0,27.852-5.5l2.406,2.844A6.726,6.726,0,0,1,27.469-.492,9.425,9.425,0,0,1,23.586.313Zm-.594-13.469q-2.312,0-2.75,3.063h5.313V-10.5a2.608,2.608,0,0,0-.641-1.961A2.549,2.549,0,0,0,22.992-13.156Zm33.5,4.828a10.2,10.2,0,0,1-1.773,6.289A5.686,5.686,0,0,1,49.93.313a4.874,4.874,0,0,1-3.828-1.7V6.5H40.836V-16.906h4.922l.156,1.563A4.874,4.874,0,0,1,49.9-17.219a5.732,5.732,0,0,1,4.859,2.3,10.321,10.321,0,0,1,1.734,6.336Zm-5.266-.328q0-4.5-2.625-4.5a2.478,2.478,0,0,0-2.5,1.344v6.656A2.559,2.559,0,0,0,48.633-3.75q2.516,0,2.594-4.344ZM68.336,0a5.946,5.946,0,0,1-.5-1.516A4.9,4.9,0,0,1,63.773.313a6,6,0,0,1-4.062-1.445,4.6,4.6,0,0,1-1.672-3.633A4.728,4.728,0,0,1,60.07-8.922a10.348,10.348,0,0,1,5.906-1.406H67.6v-.9q0-2.339-2.016-2.339a1.648,1.648,0,0,0-1.875,1.853H58.445a4.72,4.72,0,0,1,2.086-3.98,8.766,8.766,0,0,1,5.32-1.529,7.686,7.686,0,0,1,5.109,1.578,5.487,5.487,0,0,1,1.922,4.328v7.484A7.665,7.665,0,0,0,73.6-.266V0Zm-3.3-3.437a2.937,2.937,0,0,0,1.633-.422,2.644,2.644,0,0,0,.93-.953v-2.7H66.07q-2.75,0-2.75,2.469A1.507,1.507,0,0,0,63.8-3.883,1.753,1.753,0,0,0,65.039-3.437ZM75.18-8.578a11.415,11.415,0,0,1,.844-4.531,6.792,6.792,0,0,1,2.422-3.039,6.384,6.384,0,0,1,3.672-1.07,5.076,5.076,0,0,1,4.125,1.781l.188-1.469h4.781V-.641a7.128,7.128,0,0,1-1.039,3.883,6.667,6.667,0,0,1-3.008,2.531,11.056,11.056,0,0,1-4.562.883,9.538,9.538,0,0,1-3.6-.7,6.5,6.5,0,0,1-2.664-1.828l2.2-3.094a4.828,4.828,0,0,0,3.875,1.734q3.5,0,3.5-3.594v-.531A4.945,4.945,0,0,1,82.086.313a6.11,6.11,0,0,1-5-2.367A9.808,9.808,0,0,1,75.18-8.391Zm5.281.328a6.014,6.014,0,0,0,.781,3.289A2.465,2.465,0,0,0,83.43-3.75a2.8,2.8,0,0,0,2.484-1.141V-12a2.727,2.727,0,0,0-2.453-1.156,2.481,2.481,0,0,0-2.2,1.258A6.859,6.859,0,0,0,80.461-8.25Zm13.078-.359a9.978,9.978,0,0,1,.984-4.508,7.04,7.04,0,0,1,2.828-3.039,8.518,8.518,0,0,1,4.328-1.062,7.774,7.774,0,0,1,5.984,2.352,9.024,9.024,0,0,1,2.188,6.4v.188a8.755,8.755,0,0,1-2.2,6.273,7.794,7.794,0,0,1-5.945,2.32,7.883,7.883,0,0,1-5.8-2.164,8.464,8.464,0,0,1-2.359-5.867Zm5.266.328a6.291,6.291,0,0,0,.734,3.438,2.447,2.447,0,0,0,2.172,1.094q2.813,0,2.875-4.328v-.531q0-4.547-2.906-4.547-2.641,0-2.859,3.922ZM-94.125,37.313a8.691,8.691,0,0,1-6.3-2.32,8.013,8.013,0,0,1-2.406-6.039v-.437a10.383,10.383,0,0,1,.961-4.578,7.031,7.031,0,0,1,2.8-3.07,8.467,8.467,0,0,1,4.375-1.086,7.318,7.318,0,0,1,5.625,2.211A8.688,8.688,0,0,1-87,28.156V30.2H-97.469a3.8,3.8,0,0,0,1.234,2.234,3.673,3.673,0,0,0,2.469.813,4.732,4.732,0,0,0,3.906-1.75l2.406,2.844a6.726,6.726,0,0,1-2.789,2.164A9.425,9.425,0,0,1-94.125,37.313Zm-.594-13.469q-2.312,0-2.75,3.063h5.313V26.5a2.608,2.608,0,0,0-.641-1.961A2.549,2.549,0,0,0-94.719,23.844Zm14.672-3.75.172,1.984a5.733,5.733,0,0,1,4.828-2.3A4.823,4.823,0,0,1-71.1,21.359a7.513,7.513,0,0,1,1.352,4.75V37h-5.281V26.328a2.853,2.853,0,0,0-.516-1.883,2.385,2.385,0,0,0-1.875-.6,2.511,2.511,0,0,0-2.3,1.219V37h-5.266V20.094ZM-48.8,35.172a5.429,5.429,0,0,1-4.516,2.141A5.324,5.324,0,0,1-57.523,35.7a6.8,6.8,0,0,1-1.43-4.648V20.094h5.266V31.078a1.893,1.893,0,0,0,2.109,2.172A2.752,2.752,0,0,0-49,31.953V20.094h5.3V37h-4.937Zm12.813-15.078.172,1.984a5.733,5.733,0,0,1,4.828-2.3,4.823,4.823,0,0,1,3.945,1.578,7.513,7.513,0,0,1,1.352,4.75V37h-5.281V26.328a2.853,2.853,0,0,0-.516-1.883,2.385,2.385,0,0,0-1.875-.6,2.511,2.511,0,0,0-2.3,1.219V37h-5.266V20.094ZM-6.625,37.313a8.691,8.691,0,0,1-6.3-2.32,8.013,8.013,0,0,1-2.406-6.039v-.437a10.383,10.383,0,0,1,.961-4.578,7.031,7.031,0,0,1,2.8-3.07,8.467,8.467,0,0,1,4.375-1.086,7.318,7.318,0,0,1,5.625,2.211A8.688,8.688,0,0,1,.5,28.156V30.2H-9.969a3.8,3.8,0,0,0,1.234,2.234,3.673,3.673,0,0,0,2.469.813A4.732,4.732,0,0,0-2.359,31.5L.047,34.344a6.726,6.726,0,0,1-2.789,2.164A9.425,9.425,0,0,1-6.625,37.313Zm-.594-13.469q-2.313,0-2.75,3.063h5.313V26.5A2.608,2.608,0,0,0-5.3,24.539,2.549,2.549,0,0,0-7.219,23.844Zm14.672-3.75.172,1.984a5.733,5.733,0,0,1,4.828-2.3A4.823,4.823,0,0,1,16.4,21.359a7.513,7.513,0,0,1,1.352,4.75V37H12.469V26.328a2.853,2.853,0,0,0-.516-1.883,2.385,2.385,0,0,0-1.875-.6,2.511,2.511,0,0,0-2.3,1.219V37H2.516V20.094Zm19.344-4.2v4.2h2.781V23.75H26.8v7.734a1.975,1.975,0,0,0,.344,1.328,1.844,1.844,0,0,0,1.359.375,7.725,7.725,0,0,0,1.313-.094v3.766a9.718,9.718,0,0,1-2.969.453,5.516,5.516,0,0,1-4.016-1.281,5.252,5.252,0,0,1-1.3-3.891V23.75H19.375V20.094h2.156v-4.2Zm3.719,12.5a9.978,9.978,0,0,1,.984-4.508,7.04,7.04,0,0,1,2.828-3.039,8.518,8.518,0,0,1,4.328-1.062,7.774,7.774,0,0,1,5.984,2.352,9.024,9.024,0,0,1,2.188,6.4v.188a8.755,8.755,0,0,1-2.2,6.273,7.794,7.794,0,0,1-5.945,2.32,7.883,7.883,0,0,1-5.8-2.164,8.464,8.464,0,0,1-2.359-5.867Zm5.266.328a6.291,6.291,0,0,0,.734,3.438,2.447,2.447,0,0,0,2.172,1.094q2.813,0,2.875-4.328v-.531q0-4.547-2.906-4.547-2.641,0-2.859,3.922Zm23.594-3.859-1.734-.125q-2.484,0-3.187,1.563V37H49.188V20.094h4.938l.172,2.172A4.077,4.077,0,0,1,58,19.781a5.135,5.135,0,0,1,1.469.188Zm6.734-4.766.172,1.984a5.733,5.733,0,0,1,4.828-2.3,4.823,4.823,0,0,1,3.945,1.578,7.513,7.513,0,0,1,1.352,4.75V37H71.125V26.328a2.853,2.853,0,0,0-.516-1.883,2.385,2.385,0,0,0-1.875-.6,2.511,2.511,0,0,0-2.3,1.219V37H61.172V20.094Zm12.547,8.3a9.978,9.978,0,0,1,.984-4.508,7.04,7.04,0,0,1,2.828-3.039A8.518,8.518,0,0,1,86.8,19.781a7.774,7.774,0,0,1,5.984,2.352,9.024,9.024,0,0,1,2.188,6.4v.188a8.755,8.755,0,0,1-2.2,6.273,7.794,7.794,0,0,1-5.945,2.32,7.883,7.883,0,0,1-5.8-2.164,8.464,8.464,0,0,1-2.359-5.867Zm5.266.328a6.291,6.291,0,0,0,.734,3.438,2.447,2.447,0,0,0,2.172,1.094q2.813,0,2.875-4.328v-.531q0-4.547-2.906-4.547-2.641,0-2.859,3.922ZM-44.57,65.422a10.327,10.327,0,0,1,1.734-6.328,5.709,5.709,0,0,1,4.844-2.312,4.855,4.855,0,0,1,3.813,1.781V50H-28.9V74h-4.734l-.266-1.812a4.986,4.986,0,0,1-4.125,2.125A5.7,5.7,0,0,1-42.8,72,10.655,10.655,0,0,1-44.57,65.422Zm5.266.328q0,4.5,2.625,4.5a2.592,2.592,0,0,0,2.5-1.469V62.344a2.522,2.522,0,0,0-2.469-1.5q-2.437,0-2.641,3.938ZM-20.352,74h-5.281V57.094h5.281Zm-5.594-21.266a2.35,2.35,0,0,1,.813-1.844,3.066,3.066,0,0,1,2.109-.719,3.066,3.066,0,0,1,2.109.719,2.35,2.35,0,0,1,.813,1.844,2.35,2.35,0,0,1-.812,1.844,3.066,3.066,0,0,1-2.109.719,3.066,3.066,0,0,1-2.109-.719A2.35,2.35,0,0,1-25.945,52.734Zm8.219,12.688a11.415,11.415,0,0,1,.844-4.531,6.792,6.792,0,0,1,2.422-3.039,6.384,6.384,0,0,1,3.672-1.07,5.076,5.076,0,0,1,4.125,1.781l.188-1.469H-1.7V73.359a7.128,7.128,0,0,1-1.039,3.883,6.667,6.667,0,0,1-3.008,2.531,11.056,11.056,0,0,1-4.562.883,9.538,9.538,0,0,1-3.6-.7,6.5,6.5,0,0,1-2.664-1.828l2.2-3.094a4.828,4.828,0,0,0,3.875,1.734q3.5,0,3.5-3.594v-.531a4.945,4.945,0,0,1-3.828,1.672,6.11,6.11,0,0,1-5-2.367,9.808,9.808,0,0,1-1.906-6.336Zm5.281.328a6.014,6.014,0,0,0,.781,3.289A2.465,2.465,0,0,0-9.477,70.25a2.8,2.8,0,0,0,2.484-1.141V62a2.727,2.727,0,0,0-2.453-1.156,2.481,2.481,0,0,0-2.2,1.258A6.859,6.859,0,0,0-12.445,65.75ZM6.852,74H1.57V57.094H6.852ZM1.258,52.734a2.35,2.35,0,0,1,.813-1.844,3.066,3.066,0,0,1,2.109-.719,3.066,3.066,0,0,1,2.109.719,2.5,2.5,0,0,1,0,3.688A3.066,3.066,0,0,1,4.18,55.3a3.066,3.066,0,0,1-2.109-.719A2.35,2.35,0,0,1,1.258,52.734Zm14.969.156v4.2h2.781V60.75H16.227v7.734a1.975,1.975,0,0,0,.344,1.328,1.844,1.844,0,0,0,1.359.375,7.725,7.725,0,0,0,1.313-.094v3.766a9.718,9.718,0,0,1-2.969.453,5.516,5.516,0,0,1-4.016-1.281,5.252,5.252,0,0,1-1.3-3.891V60.75H8.8V57.094h2.156v-4.2ZM30.6,74a5.945,5.945,0,0,1-.5-1.516,4.9,4.9,0,0,1-4.062,1.828,6,6,0,0,1-4.062-1.445A4.6,4.6,0,0,1,20.3,69.234a4.728,4.728,0,0,1,2.031-4.156,10.348,10.348,0,0,1,5.906-1.406h1.625v-.9q0-2.339-2.016-2.339a1.648,1.648,0,0,0-1.875,1.853H20.711a4.72,4.72,0,0,1,2.086-3.98,8.766,8.766,0,0,1,5.32-1.529,7.686,7.686,0,0,1,5.109,1.578,5.487,5.487,0,0,1,1.922,4.328v7.484a7.665,7.665,0,0,0,.719,3.563V74Zm-3.3-3.437a2.937,2.937,0,0,0,1.633-.422,2.644,2.644,0,0,0,.93-.953v-2.7H28.336q-2.75,0-2.75,2.469a1.507,1.507,0,0,0,.484,1.164A1.753,1.753,0,0,0,27.3,70.563ZM43.617,74H38.336V50h5.281Z" transform="translate(798.476 13879.466)" fill="#12263f"/>
    </g>
  </g>
</svg>
