<svg xmlns="http://www.w3.org/2000/svg" width="855.165" height="329.307" viewBox="0 0 855.165 329.307">
  <g id="Grupo_1022499" data-name="Grupo 1022499" transform="translate(-372 -17392.408)">
    <path id="Far_far_away_behind" data-name="Far far away, behind" d="M-50.186,0V-9.953h3.063a4.651,4.651,0,0,1,2.348.591A4.123,4.123,0,0,1-43.159-7.68,5.187,5.187,0,0,1-42.578-5.2v.458a5.2,5.2,0,0,1-.571,2.468A4.088,4.088,0,0,1-44.758-.6,4.686,4.686,0,0,1-47.1,0Zm2.051-8.292v6.645h.991a2.227,2.227,0,0,0,1.839-.786,3.552,3.552,0,0,0,.649-2.249v-.526a3.609,3.609,0,0,0-.629-2.3,2.219,2.219,0,0,0-1.839-.783ZM-36.931,0a2.194,2.194,0,0,1-.2-.663A2.39,2.39,0,0,1-39,.137a2.626,2.626,0,0,1-1.8-.629,2.023,2.023,0,0,1-.714-1.586,2.09,2.09,0,0,1,.872-1.8,4.3,4.3,0,0,1,2.519-.636h.909v-.424a1.219,1.219,0,0,0-.263-.82,1.035,1.035,0,0,0-.831-.308,1.177,1.177,0,0,0-.783.239.813.813,0,0,0-.284.656h-1.976a1.984,1.984,0,0,1,.4-1.189,2.621,2.621,0,0,1,1.121-.858A4.086,4.086,0,0,1-38.2-7.533a3.228,3.228,0,0,1,2.17.687,2.4,2.4,0,0,1,.8,1.931v3.206a3.536,3.536,0,0,0,.294,1.593V0Zm-1.634-1.374a1.7,1.7,0,0,0,.807-.195,1.28,1.28,0,0,0,.547-.523V-3.363h-.738q-1.483,0-1.579,1.025l-.007.116a.791.791,0,0,0,.26.608A1.009,1.009,0,0,0-38.565-1.374Zm7.219-7.841V-7.4h1.265v1.449h-1.265v3.691a.881.881,0,0,0,.157.588.79.79,0,0,0,.6.178,3.151,3.151,0,0,0,.581-.048v1.5a4.067,4.067,0,0,1-1.2.178,1.886,1.886,0,0,1-2.119-2.1V-5.947H-34.4V-7.4h1.08V-9.215Zm1.853,5.448a4.387,4.387,0,0,1,.424-1.962,3.1,3.1,0,0,1,1.22-1.333A3.56,3.56,0,0,1-26-7.533a3.368,3.368,0,0,1,2.444.916A3.676,3.676,0,0,1-22.5-4.129l.014.506a3.866,3.866,0,0,1-.95,2.731A3.3,3.3,0,0,1-25.987.137,3.319,3.319,0,0,1-28.54-.889a3.934,3.934,0,0,1-.954-2.789Zm1.976.14a2.765,2.765,0,0,0,.4,1.612,1.308,1.308,0,0,0,1.135.558,1.311,1.311,0,0,0,1.121-.551,3.025,3.025,0,0,0,.4-1.763,2.737,2.737,0,0,0-.4-1.6A1.311,1.311,0,0,0-26-5.94a1.29,1.29,0,0,0-1.121.565A3.076,3.076,0,0,0-27.518-3.626Zm10.254,1.582a.637.637,0,0,0-.359-.571,4.077,4.077,0,0,0-1.152-.373q-2.639-.554-2.639-2.242A2.032,2.032,0,0,1-20.6-6.874a3.3,3.3,0,0,1,2.136-.66,3.547,3.547,0,0,1,2.252.663,2.09,2.09,0,0,1,.844,1.723h-1.976a.956.956,0,0,0-.273-.7,1.157,1.157,0,0,0-.854-.277,1.182,1.182,0,0,0-.772.226.712.712,0,0,0-.273.574.609.609,0,0,0,.311.53,3.2,3.2,0,0,0,1.049.349,8.571,8.571,0,0,1,1.244.332,2.044,2.044,0,0,1,1.565,1.989,1.929,1.929,0,0,1-.868,1.637,3.745,3.745,0,0,1-2.242.625A3.912,3.912,0,0,1-20.1-.195,2.77,2.77,0,0,1-21.236-1.1a2.113,2.113,0,0,1-.41-1.248h1.873a1.031,1.031,0,0,0,.39.807,1.546,1.546,0,0,0,.971.28,1.43,1.43,0,0,0,.858-.215A.67.67,0,0,0-17.264-2.044ZM-8.658-6.59a2.466,2.466,0,0,1,1.976-.943q2.406,0,2.44,2.8V0H-6.217V-4.683a1.374,1.374,0,0,0-.273-.94,1.172,1.172,0,0,0-.909-.3,1.345,1.345,0,0,0-1.258.67V0h-1.976V-10.5h1.976ZM-.667,0H-2.649V-7.4H-.667Zm-2.1-9.311a.973.973,0,0,1,.3-.731,1.117,1.117,0,0,1,.81-.287,1.12,1.12,0,0,1,.807.287.967.967,0,0,1,.3.731.97.97,0,0,1-.3.738,1.122,1.122,0,0,1-.8.287,1.122,1.122,0,0,1-.8-.287A.97.97,0,0,1-2.765-9.311ZM4.966-2.044a.637.637,0,0,0-.359-.571,4.077,4.077,0,0,0-1.152-.373Q.817-3.541.817-5.229a2.032,2.032,0,0,1,.817-1.644,3.3,3.3,0,0,1,2.136-.66,3.547,3.547,0,0,1,2.252.663,2.09,2.09,0,0,1,.844,1.723H4.891a.956.956,0,0,0-.273-.7,1.157,1.157,0,0,0-.854-.277,1.182,1.182,0,0,0-.772.226.712.712,0,0,0-.273.574.609.609,0,0,0,.311.53,3.2,3.2,0,0,0,1.049.349,8.571,8.571,0,0,1,1.244.332A2.044,2.044,0,0,1,6.887-2.126,1.929,1.929,0,0,1,6.019-.489,3.745,3.745,0,0,1,3.777.137,3.912,3.912,0,0,1,2.126-.195,2.77,2.77,0,0,1,.995-1.1a2.113,2.113,0,0,1-.41-1.248H2.458a1.031,1.031,0,0,0,.39.807,1.546,1.546,0,0,0,.971.28,1.43,1.43,0,0,0,.858-.215A.67.67,0,0,0,4.966-2.044Zm5.558-7.171V-7.4h1.265v1.449H10.524v3.691a.881.881,0,0,0,.157.588.79.79,0,0,0,.6.178,3.151,3.151,0,0,0,.581-.048v1.5a4.067,4.067,0,0,1-1.2.178,1.886,1.886,0,0,1-2.119-2.1V-5.947H7.468V-7.4h1.08V-9.215Zm1.853,5.448A4.387,4.387,0,0,1,12.8-5.729a3.1,3.1,0,0,1,1.22-1.333,3.56,3.56,0,0,1,1.849-.472,3.368,3.368,0,0,1,2.444.916A3.676,3.676,0,0,1,19.37-4.129l.014.506a3.866,3.866,0,0,1-.95,2.731A3.3,3.3,0,0,1,15.883.137,3.319,3.319,0,0,1,13.33-.889a3.934,3.934,0,0,1-.954-2.789Zm1.976.14a2.765,2.765,0,0,0,.4,1.612,1.308,1.308,0,0,0,1.135.558A1.311,1.311,0,0,0,17-2.007a3.025,3.025,0,0,0,.4-1.763,2.737,2.737,0,0,0-.4-1.6A1.311,1.311,0,0,0,15.87-5.94a1.29,1.29,0,0,0-1.121.565A3.076,3.076,0,0,0,14.352-3.626ZM16.259-10.5h2.153L16.519-8.381H14.913Zm8.5,4.956a5.367,5.367,0,0,0-.711-.055,1.447,1.447,0,0,0-1.47.759V0H20.6V-7.4h1.866l.055.882a1.831,1.831,0,0,1,1.647-1.019,2.07,2.07,0,0,1,.615.089ZM27.792,0H25.809V-7.4h1.982Zm-2.1-9.311a.973.973,0,0,1,.3-.731,1.117,1.117,0,0,1,.81-.287,1.12,1.12,0,0,1,.807.287.967.967,0,0,1,.3.731.97.97,0,0,1-.3.738,1.122,1.122,0,0,1-.8.287,1.122,1.122,0,0,1-.8-.287A.97.97,0,0,1,25.693-9.311Zm6.8,7.854a1.3,1.3,0,0,0,.889-.3,1.054,1.054,0,0,0,.355-.8h1.853a2.534,2.534,0,0,1-.41,1.377,2.706,2.706,0,0,1-1.1.971,3.455,3.455,0,0,1-1.548.345,3.211,3.211,0,0,1-2.5-1.008,3.99,3.99,0,0,1-.916-2.786v-.13a3.944,3.944,0,0,1,.909-2.728,3.174,3.174,0,0,1,2.5-1.019,3.111,3.111,0,0,1,2.225.79,2.8,2.8,0,0,1,.851,2.1H33.739a1.358,1.358,0,0,0-.355-.938,1.185,1.185,0,0,0-.9-.361,1.19,1.19,0,0,0-1.042.5A2.916,2.916,0,0,0,31.086-3.8V-3.6a2.953,2.953,0,0,0,.349,1.643A1.2,1.2,0,0,0,32.495-1.456Zm3.917-2.311a4.387,4.387,0,0,1,.424-1.962,3.1,3.1,0,0,1,1.22-1.333A3.56,3.56,0,0,1,39.9-7.533a3.368,3.368,0,0,1,2.444.916A3.676,3.676,0,0,1,43.4-4.129l.014.506a3.866,3.866,0,0,1-.95,2.731A3.3,3.3,0,0,1,39.918.137,3.319,3.319,0,0,1,37.365-.889a3.934,3.934,0,0,1-.954-2.789Zm1.976.14a2.765,2.765,0,0,0,.4,1.612,1.308,1.308,0,0,0,1.135.558,1.311,1.311,0,0,0,1.121-.551,3.025,3.025,0,0,0,.4-1.763,2.737,2.737,0,0,0-.4-1.6A1.311,1.311,0,0,0,39.9-5.94a1.29,1.29,0,0,0-1.121.565A3.076,3.076,0,0,0,38.387-3.626ZM48.641-2.044a.637.637,0,0,0-.359-.571,4.077,4.077,0,0,0-1.152-.373q-2.639-.554-2.639-2.242a2.032,2.032,0,0,1,.817-1.644,3.3,3.3,0,0,1,2.136-.66A3.547,3.547,0,0,1,49.7-6.87a2.09,2.09,0,0,1,.844,1.723H48.566a.956.956,0,0,0-.273-.7,1.157,1.157,0,0,0-.854-.277,1.182,1.182,0,0,0-.772.226.712.712,0,0,0-.273.574.609.609,0,0,0,.311.53,3.2,3.2,0,0,0,1.049.349A8.571,8.571,0,0,1,49-4.115a2.044,2.044,0,0,1,1.565,1.989,1.929,1.929,0,0,1-.868,1.637,3.745,3.745,0,0,1-2.242.625A3.912,3.912,0,0,1,45.8-.195,2.77,2.77,0,0,1,44.669-1.1a2.113,2.113,0,0,1-.41-1.248h1.873a1.031,1.031,0,0,0,.39.807,1.546,1.546,0,0,0,.971.28,1.43,1.43,0,0,0,.858-.215A.67.67,0,0,0,48.641-2.044Z" transform="translate(449.021 17718.795)" fill="#12263f"/>
    <path id="Far_far_away_behind-2" data-name="Far far away, behind" d="M-42.27,0l1.729-9.953,3.1.007a4.117,4.117,0,0,1,2.6.7,2.177,2.177,0,0,1,.786,1.962A2.507,2.507,0,0,1-35.8-5.072a1.672,1.672,0,0,1,.923.769,2.3,2.3,0,0,1,.28,1.33A2.88,2.88,0,0,1-35.7-.783,4.378,4.378,0,0,1-38.449,0Zm2.762-4.334-.472,2.687,1.579.007a2.036,2.036,0,0,0,1.237-.366,1.451,1.451,0,0,0,.595-.988,1.226,1.226,0,0,0-.167-.96,1.11,1.11,0,0,0-.885-.373Zm.246-1.449,1.36.014a2.166,2.166,0,0,0,1.241-.355,1.378,1.378,0,0,0,.578-.95q.171-1.2-1.265-1.21l-1.477-.007Zm9.837-1.75a2.967,2.967,0,0,1,1.685.5A2.83,2.83,0,0,1-26.7-5.684a4.166,4.166,0,0,1,.236,1.9A4.5,4.5,0,0,1-27.692-.926,3.465,3.465,0,0,1-30.334.137,2.958,2.958,0,0,1-32-.359,2.819,2.819,0,0,1-33.042-1.7a4.075,4.075,0,0,1-.239-1.887,4.633,4.633,0,0,1,1.244-2.912A3.393,3.393,0,0,1-29.425-7.533Zm-1.948,4.651a1.707,1.707,0,0,0,.308,1.034,1.022,1.022,0,0,0,.827.392,1.5,1.5,0,0,0,1.395-.816,4.066,4.066,0,0,0,.472-2.215,1.856,1.856,0,0,0-.318-1.048,1,1,0,0,0-.831-.406,1.5,1.5,0,0,0-1.377.809A4.024,4.024,0,0,0-31.374-2.883Zm9.693-4.651a2.967,2.967,0,0,1,1.685.5,2.83,2.83,0,0,1,1.039,1.347,4.166,4.166,0,0,1,.236,1.9A4.5,4.5,0,0,1-19.947-.926,3.465,3.465,0,0,1-22.589.137a2.958,2.958,0,0,1-1.668-.5A2.819,2.819,0,0,1-25.3-1.7a4.075,4.075,0,0,1-.239-1.887,4.633,4.633,0,0,1,1.244-2.912A3.393,3.393,0,0,1-21.68-7.533Zm-1.948,4.651a1.707,1.707,0,0,0,.308,1.034,1.022,1.022,0,0,0,.827.392A1.5,1.5,0,0,0-21.1-2.272a4.066,4.066,0,0,0,.472-2.215,1.856,1.856,0,0,0-.318-1.048,1,1,0,0,0-.831-.406,1.5,1.5,0,0,0-1.377.809A4.024,4.024,0,0,0-23.628-2.883Zm8.661-.064-.9.779L-16.239,0h-1.928l1.818-10.5h1.935l-1,5.7.376-.4L-12.841-7.4h2.475L-13.6-4.218-11.542,0h-2.112ZM-8.808,0H-10.75l1.285-7.4h1.941Zm-.431-9.276a.963.963,0,0,1,.3-.759,1.058,1.058,0,0,1,.759-.3,1.063,1.063,0,0,1,.759.267.959.959,0,0,1,.335.725.99.99,0,0,1-.284.738,1.063,1.063,0,0,1-.776.328,1.081,1.081,0,0,1-.755-.26A.954.954,0,0,1-9.239-9.276ZM-4.125-7.4l-.164.875a2.661,2.661,0,0,1,2.153-1,1.774,1.774,0,0,1,1.545.766A3.085,3.085,0,0,1-.229-4.7L-1.008,0H-2.936l.793-4.724a2.212,2.212,0,0,0,.014-.485A.783.783,0,0,0-3-5.927a1.659,1.659,0,0,0-1.36.7L-5.288,0H-7.215L-5.93-7.4Zm5,3.7A5.118,5.118,0,0,1,1.989-6.491,2.836,2.836,0,0,1,4.29-7.54a2.074,2.074,0,0,1,1.764.854L6.306-7.4,8.077-7.4,6.867-.253A3.485,3.485,0,0,1,5.609,2.085a3.912,3.912,0,0,1-2.625.834,3.647,3.647,0,0,1-1.463-.332A3.128,3.128,0,0,1,.373,1.716L1.33.54a2.055,2.055,0,0,0,1.613.841A1.9,1.9,0,0,0,4.228.988,2.1,2.1,0,0,0,4.953-.2l.109-.444A2.4,2.4,0,0,1,3.25.137a2.125,2.125,0,0,1-1.716-.8,3.454,3.454,0,0,1-.7-2.054A6.9,6.9,0,0,1,.872-3.705Zm1.894.811a1.768,1.768,0,0,0,.27,1.03.945.945,0,0,0,.783.407,1.726,1.726,0,0,0,1.395-.671l.574-3.136A1.134,1.134,0,0,0,4.7-5.934a1.512,1.512,0,0,0-1.251.6A3.116,3.116,0,0,0,2.806-3.7,7.187,7.187,0,0,0,2.765-2.894Zm11.751-.613L13.9,0h-2l1.729-9.953,3.486.007a3.488,3.488,0,0,1,2.536.9,2.777,2.777,0,0,1,.807,2.338,3.143,3.143,0,0,1-1.22,2.338A4.44,4.44,0,0,1,16.4-3.5Zm.28-1.661,1.668.014a2.109,2.109,0,0,0,1.34-.417A1.678,1.678,0,0,0,18.44-6.7a1.441,1.441,0,0,0-.229-1.135,1.24,1.24,0,0,0-.981-.451l-1.887-.007ZM24.8,0a2,2,0,0,1-.075-.67,2.505,2.505,0,0,1-1.887.807A2.27,2.27,0,0,1,21.232-.5a1.913,1.913,0,0,1-.6-1.528,2.211,2.211,0,0,1,1.015-1.856,4.608,4.608,0,0,1,2.594-.646l.9.014.1-.444a1.543,1.543,0,0,0,.021-.431.74.74,0,0,0-.243-.5.836.836,0,0,0-.55-.188,1.177,1.177,0,0,0-.766.222,1.077,1.077,0,0,0-.4.68l-1.935.007a2.15,2.15,0,0,1,.974-1.719,3.773,3.773,0,0,1,2.287-.646,2.727,2.727,0,0,1,1.969.749,2.19,2.19,0,0,1,.595,1.856l-.567,3.541-.034.438a2.111,2.111,0,0,0,.116.82L26.7,0ZM23.321-1.36a1.765,1.765,0,0,0,1.456-.725l.239-1.278-.67-.007a1.872,1.872,0,0,0-1.538.649,1.131,1.131,0,0,0-.212.554.656.656,0,0,0,.154.584A.779.779,0,0,0,23.321-1.36Zm7.793-.089A1.266,1.266,0,0,0,32-1.74a1.428,1.428,0,0,0,.465-.81l1.812-.007a2.657,2.657,0,0,1-.489,1.4,2.969,2.969,0,0,1-1.176.971,3.366,3.366,0,0,1-1.548.328,2.733,2.733,0,0,1-2.133-.93,3.469,3.469,0,0,1-.759-2.42l.021-.376.007-.075a4.624,4.624,0,0,1,1.217-2.861,3.291,3.291,0,0,1,2.55-1.015,2.666,2.666,0,0,1,1.986.817,2.885,2.885,0,0,1,.721,2.082h-1.8a1.514,1.514,0,0,0-.26-.937.987.987,0,0,0-.779-.369q-1.381-.041-1.675,2.017a6.809,6.809,0,0,0-.075,1.258Q30.157-1.47,31.114-1.449ZM38.538.137a3.218,3.218,0,0,1-1.719-.475A2.88,2.88,0,0,1,35.7-1.624a3.582,3.582,0,0,1-.287-1.8l.021-.273a4.782,4.782,0,0,1,.629-1.982,3.8,3.8,0,0,1,1.354-1.391,3.349,3.349,0,0,1,1.832-.461,2.559,2.559,0,0,1,2.164,1.051,3.6,3.6,0,0,1,.557,2.591l-.109.842H37.328A1.587,1.587,0,0,0,37.676-1.9a1.331,1.331,0,0,0,1.025.444,2.365,2.365,0,0,0,1.846-.82l.882,1.094a2.743,2.743,0,0,1-1.2.981A3.934,3.934,0,0,1,38.538.137Zm.615-6.077a1.37,1.37,0,0,0-.947.335,2.943,2.943,0,0,0-.742,1.21h2.652l.041-.178a1.812,1.812,0,0,0,.007-.52.992.992,0,0,0-.335-.619A1.05,1.05,0,0,0,39.153-5.94Z" transform="translate(648.999 17718.795)" fill="#12263f"/>
    <path id="Far_far_away_behind-3" data-name="Far far away, behind" d="M-19.158-3.507-19.773,0h-2l1.729-9.953,3.486.007a3.488,3.488,0,0,1,2.536.9,2.777,2.777,0,0,1,.807,2.338,3.143,3.143,0,0,1-1.22,2.338,4.44,4.44,0,0,1-2.833.875Zm.28-1.661,1.668.014a2.109,2.109,0,0,0,1.34-.417A1.678,1.678,0,0,0-15.234-6.7a1.441,1.441,0,0,0-.229-1.135,1.24,1.24,0,0,0-.981-.451l-1.887-.007Zm10.869-.376a3.98,3.98,0,0,0-.649-.068,1.869,1.869,0,0,0-1.634.772L-11.146,0h-1.928l1.285-7.4L-9.977-7.4l-.178.9A2.034,2.034,0,0,1-8.432-7.547a2.812,2.812,0,0,1,.67.1Zm2,5.544H-7.954l1.285-7.4h1.941Zm-.431-9.276a.963.963,0,0,1,.3-.759,1.058,1.058,0,0,1,.759-.3,1.063,1.063,0,0,1,.759.267.959.959,0,0,1,.335.725.99.99,0,0,1-.284.738,1.063,1.063,0,0,1-.776.328,1.081,1.081,0,0,1-.755-.26A.954.954,0,0,1-6.443-9.276Zm5.3,7.827A1.266,1.266,0,0,0-.25-1.74a1.428,1.428,0,0,0,.465-.81l1.812-.007a2.657,2.657,0,0,1-.489,1.4A2.969,2.969,0,0,1,.362-.185,3.366,3.366,0,0,1-1.186.144a2.733,2.733,0,0,1-2.133-.93,3.469,3.469,0,0,1-.759-2.42l.021-.376.007-.075A4.624,4.624,0,0,1-2.833-6.518,3.291,3.291,0,0,1-.284-7.533,2.666,2.666,0,0,1,1.7-6.716a2.885,2.885,0,0,1,.721,2.082H.625a1.514,1.514,0,0,0-.26-.937A.987.987,0,0,0-.414-5.94q-1.381-.041-1.675,2.017a6.809,6.809,0,0,0-.075,1.258Q-2.1-1.47-1.138-1.449ZM4.809,0H2.868L4.153-7.4H6.094ZM4.378-9.276a.963.963,0,0,1,.3-.759,1.058,1.058,0,0,1,.759-.3,1.063,1.063,0,0,1,.759.267.959.959,0,0,1,.335.725.99.99,0,0,1-.284.738,1.063,1.063,0,0,1-.776.328,1.081,1.081,0,0,1-.755-.26A.954.954,0,0,1,4.378-9.276ZM9.492-7.4l-.164.875a2.661,2.661,0,0,1,2.153-1,1.774,1.774,0,0,1,1.545.766A3.085,3.085,0,0,1,13.388-4.7L12.609,0H10.681l.793-4.724a2.212,2.212,0,0,0,.014-.485.783.783,0,0,0-.875-.718,1.659,1.659,0,0,0-1.36.7L8.33,0H6.4L7.687-7.4Zm5,3.7a5.118,5.118,0,0,1,1.118-2.786,2.836,2.836,0,0,1,2.3-1.049,2.074,2.074,0,0,1,1.764.854l.253-.718,1.771.007L20.484-.253a3.485,3.485,0,0,1-1.258,2.338,3.912,3.912,0,0,1-2.625.834,3.647,3.647,0,0,1-1.463-.332,3.128,3.128,0,0,1-1.148-.872L14.947.54a2.055,2.055,0,0,0,1.613.841A1.9,1.9,0,0,0,17.845.988,2.1,2.1,0,0,0,18.57-.2l.109-.444a2.4,2.4,0,0,1-1.812.779,2.125,2.125,0,0,1-1.716-.8,3.454,3.454,0,0,1-.7-2.054A6.9,6.9,0,0,1,14.489-3.705Zm1.894.811a1.768,1.768,0,0,0,.27,1.03.945.945,0,0,0,.783.407,1.726,1.726,0,0,0,1.395-.671L19.4-5.263a1.134,1.134,0,0,0-1.087-.671,1.512,1.512,0,0,0-1.251.6A3.116,3.116,0,0,0,16.423-3.7,7.187,7.187,0,0,0,16.382-2.894Z" transform="translate(843.072 17718.795)" fill="#12263f"/>
    <path id="Far_far_away_behind-4" data-name="Far far away, behind" d="M-32.949-3.315A3.522,3.522,0,0,1-34.135-.786a4.165,4.165,0,0,1-2.82.923,3.745,3.745,0,0,1-3.011-1.289,5.284,5.284,0,0,1-1.1-3.538V-5.3a5.966,5.966,0,0,1,.506-2.529,3.791,3.791,0,0,1,1.446-1.678,4.05,4.05,0,0,1,2.184-.584,4.058,4.058,0,0,1,2.775.923,3.785,3.785,0,0,1,1.217,2.591h-2.051a2.079,2.079,0,0,0-.537-1.4,1.987,1.987,0,0,0-1.4-.434,1.742,1.742,0,0,0-1.535.735,4.118,4.118,0,0,0-.523,2.28v.752A4.408,4.408,0,0,0-38.5-2.283a1.71,1.71,0,0,0,1.542.745,2.025,2.025,0,0,0,1.418-.434A1.961,1.961,0,0,0-35-3.315Zm.909-.451a4.387,4.387,0,0,1,.424-1.962A3.1,3.1,0,0,1-30.4-7.062a3.56,3.56,0,0,1,1.849-.472,3.368,3.368,0,0,1,2.444.916,3.676,3.676,0,0,1,1.056,2.488l.014.506a3.866,3.866,0,0,1-.95,2.731A3.3,3.3,0,0,1-28.533.137,3.319,3.319,0,0,1-31.086-.889a3.934,3.934,0,0,1-.954-2.789Zm1.976.14a2.765,2.765,0,0,0,.4,1.612,1.308,1.308,0,0,0,1.135.558,1.311,1.311,0,0,0,1.121-.551,3.025,3.025,0,0,0,.4-1.763,2.737,2.737,0,0,0-.4-1.6,1.311,1.311,0,0,0-1.135-.568,1.29,1.29,0,0,0-1.121.565A3.076,3.076,0,0,0-30.064-3.626Zm8.1-3.77.062.827a2.6,2.6,0,0,1,2.126-.964,1.973,1.973,0,0,1,1.962,1.128,2.54,2.54,0,0,1,2.222-1.128,2.206,2.206,0,0,1,1.791.7,3.221,3.221,0,0,1,.588,2.109V0H-15.2V-4.717a1.408,1.408,0,0,0-.246-.919,1.091,1.091,0,0,0-.868-.291,1.233,1.233,0,0,0-1.23.848L-17.534,0H-19.51V-4.71a1.391,1.391,0,0,0-.253-.93,1.1,1.1,0,0,0-.861-.287,1.28,1.28,0,0,0-1.217.7V0h-1.976V-7.4ZM-5.038-3.63A4.436,4.436,0,0,1-5.814-.892,2.488,2.488,0,0,1-7.909.137,2.3,2.3,0,0,1-9.721-.643V2.844H-11.7V-7.4h1.832l.068.725a2.322,2.322,0,0,1,1.873-.861A2.5,2.5,0,0,1-5.8-6.521a4.556,4.556,0,0,1,.759,2.789Zm-1.976-.144a2.911,2.911,0,0,0-.366-1.593,1.191,1.191,0,0,0-1.063-.561,1.294,1.294,0,0,0-1.278.711v3.028a1.316,1.316,0,0,0,1.292.731Q-7.014-1.456-7.014-3.773ZM-.41.137a3.631,3.631,0,0,1-2.649-1A3.548,3.548,0,0,1-4.081-3.521v-.191A4.468,4.468,0,0,1-3.65-5.7,3.161,3.161,0,0,1-2.43-7.058a3.425,3.425,0,0,1,1.8-.475,3.07,3.07,0,0,1,2.389.957,3.889,3.889,0,0,1,.872,2.714v.807h-4.71A1.835,1.835,0,0,0-1.5-1.894a1.746,1.746,0,0,0,1.22.438A2.132,2.132,0,0,0,1.5-2.283L2.475-1.2a2.966,2.966,0,0,1-1.2.981A3.947,3.947,0,0,1-.41.137ZM-.636-5.94a1.234,1.234,0,0,0-.954.4A2.062,2.062,0,0,0-2.058-4.4H.69V-4.56A1.471,1.471,0,0,0,.335-5.58,1.274,1.274,0,0,0-.636-5.94ZM6.118-9.215V-7.4H7.383v1.449H6.118v3.691a.881.881,0,0,0,.157.588.79.79,0,0,0,.6.178,3.151,3.151,0,0,0,.581-.048v1.5a4.067,4.067,0,0,1-1.2.178,1.886,1.886,0,0,1-2.119-2.1V-5.947H3.063V-7.4h1.08V-9.215ZM11.888.137a3.631,3.631,0,0,1-2.649-1A3.548,3.548,0,0,1,8.217-3.521v-.191A4.468,4.468,0,0,1,8.647-5.7a3.161,3.161,0,0,1,1.22-1.354,3.425,3.425,0,0,1,1.8-.475,3.07,3.07,0,0,1,2.389.957,3.889,3.889,0,0,1,.872,2.714v.807H10.22A1.835,1.835,0,0,0,10.8-1.894a1.746,1.746,0,0,0,1.22.438A2.132,2.132,0,0,0,13.8-2.283L14.772-1.2a2.966,2.966,0,0,1-1.2.981A3.947,3.947,0,0,1,11.888.137ZM11.662-5.94a1.234,1.234,0,0,0-.954.4A2.062,2.062,0,0,0,10.24-4.4h2.748V-4.56a1.471,1.471,0,0,0-.355-1.02A1.274,1.274,0,0,0,11.662-5.94ZM17.869-7.4l.062.854a2.582,2.582,0,0,1,2.126-.991,2.146,2.146,0,0,1,1.75.69,3.221,3.221,0,0,1,.588,2.064V0H20.419V-4.73a1.282,1.282,0,0,0-.273-.913,1.224,1.224,0,0,0-.909-.284,1.359,1.359,0,0,0-1.251.711V0H16.01V-7.4Zm9.1,5.94a1.3,1.3,0,0,0,.889-.3,1.054,1.054,0,0,0,.355-.8h1.853a2.534,2.534,0,0,1-.41,1.377,2.706,2.706,0,0,1-1.1.971A3.455,3.455,0,0,1,27,.137,3.211,3.211,0,0,1,24.5-.872a3.99,3.99,0,0,1-.916-2.786v-.13a3.944,3.944,0,0,1,.909-2.728,3.174,3.174,0,0,1,2.5-1.019,3.111,3.111,0,0,1,2.225.79,2.8,2.8,0,0,1,.851,2.1H28.212a1.358,1.358,0,0,0-.355-.938,1.185,1.185,0,0,0-.9-.361,1.19,1.19,0,0,0-1.042.5A2.916,2.916,0,0,0,25.56-3.8V-3.6a2.953,2.953,0,0,0,.349,1.643A1.2,1.2,0,0,0,26.968-1.456ZM33.277,0H31.295V-7.4h1.982Zm-2.1-9.311a.973.973,0,0,1,.3-.731,1.117,1.117,0,0,1,.81-.287,1.12,1.12,0,0,1,.807.287.967.967,0,0,1,.3.731.97.97,0,0,1-.3.738,1.122,1.122,0,0,1-.8.287,1.122,1.122,0,0,1-.8-.287A.97.97,0,0,1,31.179-9.311ZM39.19,0a2.194,2.194,0,0,1-.2-.663,2.39,2.39,0,0,1-1.866.8,2.626,2.626,0,0,1-1.8-.629,2.023,2.023,0,0,1-.714-1.586,2.09,2.09,0,0,1,.872-1.8A4.3,4.3,0,0,1,38-4.519h.909v-.424a1.219,1.219,0,0,0-.263-.82,1.035,1.035,0,0,0-.831-.308,1.177,1.177,0,0,0-.783.239.813.813,0,0,0-.284.656H34.774a1.984,1.984,0,0,1,.4-1.189,2.621,2.621,0,0,1,1.121-.858,4.086,4.086,0,0,1,1.627-.311,3.228,3.228,0,0,1,2.17.687,2.4,2.4,0,0,1,.8,1.931v3.206a3.536,3.536,0,0,0,.294,1.593V0ZM37.557-1.374a1.7,1.7,0,0,0,.807-.195,1.28,1.28,0,0,0,.547-.523V-3.363h-.738q-1.483,0-1.579,1.025l-.007.116a.791.791,0,0,0,.26.608A1.009,1.009,0,0,0,37.557-1.374Z" transform="translate(1032.63 17718.795)" fill="#12263f"/>
    <path id="Far_far_away_behind-5" data-name="Far far away, behind" d="M-45.654,0V-9.953h3.063a4.651,4.651,0,0,1,2.348.591A4.123,4.123,0,0,1-38.626-7.68,5.187,5.187,0,0,1-38.045-5.2v.458a5.2,5.2,0,0,1-.571,2.468A4.088,4.088,0,0,1-40.226-.6a4.686,4.686,0,0,1-2.345.6ZM-43.6-8.292v6.645h.991a2.227,2.227,0,0,0,1.839-.786,3.552,3.552,0,0,0,.649-2.249v-.526a3.609,3.609,0,0,0-.629-2.3,2.219,2.219,0,0,0-1.839-.783ZM-32.4,0a2.194,2.194,0,0,1-.2-.663,2.39,2.39,0,0,1-1.866.8,2.626,2.626,0,0,1-1.8-.629,2.023,2.023,0,0,1-.714-1.586,2.09,2.09,0,0,1,.872-1.8,4.3,4.3,0,0,1,2.519-.636h.909v-.424a1.219,1.219,0,0,0-.263-.82,1.035,1.035,0,0,0-.831-.308,1.177,1.177,0,0,0-.783.239.813.813,0,0,0-.284.656h-1.976a1.984,1.984,0,0,1,.4-1.189A2.621,2.621,0,0,1-35.3-7.222a4.086,4.086,0,0,1,1.627-.311,3.228,3.228,0,0,1,2.17.687,2.4,2.4,0,0,1,.8,1.931v3.206A3.536,3.536,0,0,0-30.4-.116V0Zm-1.634-1.374a1.7,1.7,0,0,0,.807-.195,1.28,1.28,0,0,0,.547-.523V-3.363h-.738Q-34.9-3.363-35-2.338L-35-2.222a.791.791,0,0,0,.26.608A1.009,1.009,0,0,0-34.033-1.374Zm7.219-7.841V-7.4h1.265v1.449h-1.265v3.691a.881.881,0,0,0,.157.588.79.79,0,0,0,.6.178,3.151,3.151,0,0,0,.581-.048v1.5a4.067,4.067,0,0,1-1.2.178,1.886,1.886,0,0,1-2.119-2.1V-5.947h-1.08V-7.4h1.08V-9.215Zm1.853,5.448a4.387,4.387,0,0,1,.424-1.962,3.1,3.1,0,0,1,1.22-1.333,3.56,3.56,0,0,1,1.849-.472,3.368,3.368,0,0,1,2.444.916,3.676,3.676,0,0,1,1.056,2.488l.014.506A3.866,3.866,0,0,1-18.9-.892,3.3,3.3,0,0,1-21.455.137,3.319,3.319,0,0,1-24.008-.889a3.934,3.934,0,0,1-.954-2.789Zm1.976.14a2.765,2.765,0,0,0,.4,1.612,1.308,1.308,0,0,0,1.135.558,1.311,1.311,0,0,0,1.121-.551,3.025,3.025,0,0,0,.4-1.763,2.737,2.737,0,0,0-.4-1.6,1.311,1.311,0,0,0-1.135-.568,1.29,1.29,0,0,0-1.121.565A3.076,3.076,0,0,0-22.986-3.626Zm10.254,1.582a.637.637,0,0,0-.359-.571,4.077,4.077,0,0,0-1.152-.373q-2.639-.554-2.639-2.242a2.032,2.032,0,0,1,.817-1.644,3.3,3.3,0,0,1,2.136-.66,3.547,3.547,0,0,1,2.252.663,2.09,2.09,0,0,1,.844,1.723h-1.976a.956.956,0,0,0-.273-.7,1.157,1.157,0,0,0-.854-.277,1.182,1.182,0,0,0-.772.226.712.712,0,0,0-.273.574.609.609,0,0,0,.311.53,3.2,3.2,0,0,0,1.049.349,8.571,8.571,0,0,1,1.244.332,2.044,2.044,0,0,1,1.565,1.989,1.929,1.929,0,0,1-.868,1.637,3.745,3.745,0,0,1-2.242.625,3.912,3.912,0,0,1-1.651-.332A2.77,2.77,0,0,1-16.7-1.1a2.113,2.113,0,0,1-.41-1.248h1.873a1.031,1.031,0,0,0,.39.807,1.546,1.546,0,0,0,.971.28,1.43,1.43,0,0,0,.858-.215A.67.67,0,0,0-12.732-2.044ZM-1.767,0a2.194,2.194,0,0,1-.2-.663,2.39,2.39,0,0,1-1.866.8,2.626,2.626,0,0,1-1.8-.629,2.023,2.023,0,0,1-.714-1.586,2.09,2.09,0,0,1,.872-1.8,4.3,4.3,0,0,1,2.519-.636h.909v-.424a1.219,1.219,0,0,0-.263-.82,1.035,1.035,0,0,0-.831-.308,1.177,1.177,0,0,0-.783.239.813.813,0,0,0-.284.656H-6.183a1.984,1.984,0,0,1,.4-1.189,2.621,2.621,0,0,1,1.121-.858,4.086,4.086,0,0,1,1.627-.311,3.228,3.228,0,0,1,2.17.687,2.4,2.4,0,0,1,.8,1.931v3.206A3.536,3.536,0,0,0,.229-.116V0ZM-3.4-1.374a1.7,1.7,0,0,0,.807-.195,1.28,1.28,0,0,0,.547-.523V-3.363h-.738q-1.483,0-1.579,1.025l-.007.116a.791.791,0,0,0,.26.608A1.009,1.009,0,0,0-3.4-1.374Zm7.93-.082a1.3,1.3,0,0,0,.889-.3,1.054,1.054,0,0,0,.355-.8H7.625a2.534,2.534,0,0,1-.41,1.377,2.706,2.706,0,0,1-1.1.971A3.455,3.455,0,0,1,4.563.137a3.211,3.211,0,0,1-2.5-1.008,3.99,3.99,0,0,1-.916-2.786v-.13a3.944,3.944,0,0,1,.909-2.728,3.174,3.174,0,0,1,2.5-1.019,3.111,3.111,0,0,1,2.225.79,2.8,2.8,0,0,1,.851,2.1H5.773a1.358,1.358,0,0,0-.355-.938,1.185,1.185,0,0,0-.9-.361,1.19,1.19,0,0,0-1.042.5A2.916,2.916,0,0,0,3.121-3.8V-3.6a2.953,2.953,0,0,0,.349,1.643A1.2,1.2,0,0,0,4.529-1.456Zm6.59-7.759V-7.4h1.265v1.449H11.119v3.691a.881.881,0,0,0,.157.588.79.79,0,0,0,.6.178,3.151,3.151,0,0,0,.581-.048v1.5a4.067,4.067,0,0,1-1.2.178,1.886,1.886,0,0,1-2.119-2.1V-5.947H8.063V-7.4h1.08V-9.215ZM17.914-.752A2.477,2.477,0,0,1,15.89.137a2.337,2.337,0,0,1-1.815-.684,2.918,2.918,0,0,1-.639-2V-7.4h1.976v4.784q0,1.157,1.053,1.157a1.426,1.426,0,0,0,1.381-.7V-7.4h1.982V0H17.968ZM25.6,0a2.194,2.194,0,0,1-.2-.663,2.39,2.39,0,0,1-1.866.8,2.626,2.626,0,0,1-1.8-.629,2.023,2.023,0,0,1-.714-1.586,2.09,2.09,0,0,1,.872-1.8,4.3,4.3,0,0,1,2.519-.636h.909v-.424a1.219,1.219,0,0,0-.263-.82,1.035,1.035,0,0,0-.831-.308,1.177,1.177,0,0,0-.783.239.813.813,0,0,0-.284.656H21.188a1.984,1.984,0,0,1,.4-1.189,2.621,2.621,0,0,1,1.121-.858,4.086,4.086,0,0,1,1.627-.311,3.228,3.228,0,0,1,2.17.687,2.4,2.4,0,0,1,.8,1.931v3.206A3.536,3.536,0,0,0,27.6-.116V0ZM23.97-1.374a1.7,1.7,0,0,0,.807-.195,1.28,1.28,0,0,0,.547-.523V-3.363h-.738q-1.483,0-1.579,1.025L23-2.222a.791.791,0,0,0,.26.608A1.009,1.009,0,0,0,23.97-1.374ZM30.909,0H28.926V-10.5h1.982ZM35.94.137a3.631,3.631,0,0,1-2.649-1,3.548,3.548,0,0,1-1.022-2.659v-.191A4.468,4.468,0,0,1,32.7-5.7a3.161,3.161,0,0,1,1.22-1.354,3.425,3.425,0,0,1,1.8-.475,3.07,3.07,0,0,1,2.389.957,3.889,3.889,0,0,1,.872,2.714v.807h-4.71a1.835,1.835,0,0,0,.578,1.162,1.746,1.746,0,0,0,1.22.438,2.132,2.132,0,0,0,1.784-.827L38.825-1.2a2.966,2.966,0,0,1-1.2.981A3.947,3.947,0,0,1,35.94.137ZM35.714-5.94a1.234,1.234,0,0,0-.954.4,2.062,2.062,0,0,0-.468,1.14h2.748V-4.56a1.471,1.471,0,0,0-.355-1.02A1.274,1.274,0,0,0,35.714-5.94Zm8.395,3.9a.637.637,0,0,0-.359-.571A4.077,4.077,0,0,0,42.6-2.987q-2.639-.554-2.639-2.242a2.032,2.032,0,0,1,.817-1.644,3.3,3.3,0,0,1,2.136-.66,3.547,3.547,0,0,1,2.252.663,2.09,2.09,0,0,1,.844,1.723H44.034a.956.956,0,0,0-.273-.7,1.157,1.157,0,0,0-.854-.277,1.182,1.182,0,0,0-.772.226.712.712,0,0,0-.273.574.609.609,0,0,0,.311.53,3.2,3.2,0,0,0,1.049.349,8.571,8.571,0,0,1,1.244.332A2.044,2.044,0,0,1,46.03-2.126a1.929,1.929,0,0,1-.868,1.637,3.745,3.745,0,0,1-2.242.625,3.912,3.912,0,0,1-1.651-.332A2.77,2.77,0,0,1,40.137-1.1a2.113,2.113,0,0,1-.41-1.248H41.6a1.031,1.031,0,0,0,.39.807,1.546,1.546,0,0,0,.971.28,1.43,1.43,0,0,0,.858-.215A.67.67,0,0,0,44.109-2.044Z" transform="translate(550.437 17402.908)" fill="#12263f"/>
    <path id="Far_far_away_behind-6" data-name="Far far away, behind" d="M-61.226-3.315A3.522,3.522,0,0,1-62.412-.786a4.165,4.165,0,0,1-2.82.923,3.745,3.745,0,0,1-3.011-1.289,5.284,5.284,0,0,1-1.1-3.538V-5.3a5.966,5.966,0,0,1,.506-2.529,3.791,3.791,0,0,1,1.446-1.678A4.05,4.05,0,0,1-65.2-10.09a4.058,4.058,0,0,1,2.775.923,3.785,3.785,0,0,1,1.217,2.591h-2.051a2.079,2.079,0,0,0-.537-1.4,1.987,1.987,0,0,0-1.4-.434,1.742,1.742,0,0,0-1.535.735,4.118,4.118,0,0,0-.523,2.28v.752a4.408,4.408,0,0,0,.489,2.358,1.71,1.71,0,0,0,1.542.745,2.025,2.025,0,0,0,1.418-.434,1.961,1.961,0,0,0,.537-1.343ZM-55.723,0a2.194,2.194,0,0,1-.2-.663,2.39,2.39,0,0,1-1.866.8,2.626,2.626,0,0,1-1.8-.629A2.023,2.023,0,0,1-60.3-2.078a2.09,2.09,0,0,1,.872-1.8,4.3,4.3,0,0,1,2.519-.636H-56v-.424a1.219,1.219,0,0,0-.263-.82A1.035,1.035,0,0,0-57.1-6.07a1.177,1.177,0,0,0-.783.239.813.813,0,0,0-.284.656h-1.976a1.984,1.984,0,0,1,.4-1.189,2.621,2.621,0,0,1,1.121-.858,4.086,4.086,0,0,1,1.627-.311,3.228,3.228,0,0,1,2.17.687,2.4,2.4,0,0,1,.8,1.931v3.206a3.536,3.536,0,0,0,.294,1.593V0Zm-1.634-1.374a1.7,1.7,0,0,0,.807-.195A1.28,1.28,0,0,0-56-2.092V-3.363h-.738q-1.483,0-1.579,1.025l-.007.116a.791.791,0,0,0,.26.608A1.009,1.009,0,0,0-57.357-1.374ZM-50.418,0H-52.4V-10.5h1.982Zm5.031.137a3.631,3.631,0,0,1-2.649-1,3.548,3.548,0,0,1-1.022-2.659v-.191A4.468,4.468,0,0,1-48.627-5.7a3.161,3.161,0,0,1,1.22-1.354,3.425,3.425,0,0,1,1.8-.475,3.07,3.07,0,0,1,2.389.957,3.889,3.889,0,0,1,.872,2.714v.807h-4.71a1.835,1.835,0,0,0,.578,1.162,1.746,1.746,0,0,0,1.22.438,2.132,2.132,0,0,0,1.784-.827L-42.5-1.2a2.966,2.966,0,0,1-1.2.981A3.947,3.947,0,0,1-45.387.137Zm-.226-6.077a1.234,1.234,0,0,0-.954.4,2.062,2.062,0,0,0-.468,1.14h2.748V-4.56a1.471,1.471,0,0,0-.355-1.02A1.274,1.274,0,0,0-45.613-5.94ZM-39.406-7.4l.062.854a2.582,2.582,0,0,1,2.126-.991,2.146,2.146,0,0,1,1.75.69,3.221,3.221,0,0,1,.588,2.064V0h-1.976V-4.73a1.282,1.282,0,0,0-.273-.913,1.224,1.224,0,0,0-.909-.284,1.359,1.359,0,0,0-1.251.711V0h-1.976V-7.4Zm5.715,3.644a4.457,4.457,0,0,1,.776-2.755,2.517,2.517,0,0,1,2.123-1.025,2.265,2.265,0,0,1,1.784.807V-10.5h1.982V0H-28.81l-.1-.786a2.325,2.325,0,0,1-1.9.923A2.511,2.511,0,0,1-32.9-.892,4.6,4.6,0,0,1-33.691-3.753Zm1.976.147a2.92,2.92,0,0,0,.362,1.6,1.18,1.18,0,0,0,1.053.555,1.322,1.322,0,0,0,1.292-.774V-5.153a1.3,1.3,0,0,0-1.278-.774Q-31.715-5.927-31.715-3.606ZM-21.208,0a2.194,2.194,0,0,1-.2-.663,2.39,2.39,0,0,1-1.866.8,2.626,2.626,0,0,1-1.8-.629,2.023,2.023,0,0,1-.714-1.586,2.09,2.09,0,0,1,.872-1.8A4.3,4.3,0,0,1-22.4-4.519h.909v-.424a1.219,1.219,0,0,0-.263-.82,1.035,1.035,0,0,0-.831-.308,1.177,1.177,0,0,0-.783.239.813.813,0,0,0-.284.656h-1.976a1.984,1.984,0,0,1,.4-1.189,2.621,2.621,0,0,1,1.121-.858,4.086,4.086,0,0,1,1.627-.311,3.228,3.228,0,0,1,2.17.687,2.4,2.4,0,0,1,.8,1.931v3.206a3.536,3.536,0,0,0,.294,1.593V0Zm-1.634-1.374a1.7,1.7,0,0,0,.807-.195,1.28,1.28,0,0,0,.547-.523V-3.363h-.738q-1.483,0-1.579,1.025l-.007.116a.791.791,0,0,0,.26.608A1.009,1.009,0,0,0-22.842-1.374Zm9.01-4.17a5.367,5.367,0,0,0-.711-.055,1.447,1.447,0,0,0-1.47.759V0h-1.976V-7.4h1.866l.055.882A1.831,1.831,0,0,1-14.42-7.533a2.07,2.07,0,0,1,.615.089ZM-10.8,0H-12.78V-7.4H-10.8Zm-2.1-9.311a.973.973,0,0,1,.3-.731,1.117,1.117,0,0,1,.81-.287,1.12,1.12,0,0,1,.807.287.967.967,0,0,1,.3.731.97.97,0,0,1-.3.738,1.122,1.122,0,0,1-.8.287,1.122,1.122,0,0,1-.8-.287A.97.97,0,0,1-12.9-9.311Zm3.418,5.544a4.387,4.387,0,0,1,.424-1.962,3.1,3.1,0,0,1,1.22-1.333,3.56,3.56,0,0,1,1.849-.472,3.368,3.368,0,0,1,2.444.916A3.676,3.676,0,0,1-2.485-4.129l.014.506a3.866,3.866,0,0,1-.95,2.731A3.3,3.3,0,0,1-5.971.137,3.319,3.319,0,0,1-8.524-.889a3.934,3.934,0,0,1-.954-2.789Zm1.976.14a2.765,2.765,0,0,0,.4,1.612,1.308,1.308,0,0,0,1.135.558A1.311,1.311,0,0,0-4.85-2.007a3.025,3.025,0,0,0,.4-1.763,2.737,2.737,0,0,0-.4-1.6A1.311,1.311,0,0,0-5.985-5.94a1.29,1.29,0,0,0-1.121.565A3.076,3.076,0,0,0-7.5-3.626Zm9.427-.127A4.457,4.457,0,0,1,2.7-6.508,2.517,2.517,0,0,1,4.823-7.533a2.265,2.265,0,0,1,1.784.807V-10.5H8.589V0H6.805l-.1-.786a2.325,2.325,0,0,1-1.9.923,2.511,2.511,0,0,1-2.1-1.029A4.6,4.6,0,0,1,1.924-3.753ZM3.9-3.606a2.92,2.92,0,0,0,.362,1.6,1.18,1.18,0,0,0,1.053.555A1.322,1.322,0,0,0,6.607-2.23V-5.153a1.3,1.3,0,0,0-1.278-.774Q3.9-5.927,3.9-3.606ZM13.525.137a3.631,3.631,0,0,1-2.649-1A3.548,3.548,0,0,1,9.854-3.521v-.191A4.468,4.468,0,0,1,10.285-5.7,3.161,3.161,0,0,1,11.5-7.058a3.425,3.425,0,0,1,1.8-.475,3.07,3.07,0,0,1,2.389.957,3.889,3.889,0,0,1,.872,2.714v.807h-4.71a1.835,1.835,0,0,0,.578,1.162,1.746,1.746,0,0,0,1.22.438,2.132,2.132,0,0,0,1.784-.827L16.41-1.2a2.966,2.966,0,0,1-1.2.981A3.947,3.947,0,0,1,13.525.137ZM13.3-5.94a1.234,1.234,0,0,0-.954.4,2.062,2.062,0,0,0-.468,1.14h2.748V-4.56a1.471,1.471,0,0,0-.355-1.02A1.274,1.274,0,0,0,13.3-5.94ZM24.579.137a3.631,3.631,0,0,1-2.649-1,3.548,3.548,0,0,1-1.022-2.659v-.191A4.468,4.468,0,0,1,21.338-5.7a3.161,3.161,0,0,1,1.22-1.354,3.425,3.425,0,0,1,1.8-.475,3.07,3.07,0,0,1,2.389.957,3.889,3.889,0,0,1,.872,2.714v.807h-4.71a1.835,1.835,0,0,0,.578,1.162,1.746,1.746,0,0,0,1.22.438,2.132,2.132,0,0,0,1.784-.827L27.463-1.2a2.966,2.966,0,0,1-1.2.981A3.947,3.947,0,0,1,24.579.137ZM24.353-5.94a1.234,1.234,0,0,0-.954.4,2.062,2.062,0,0,0-.468,1.14h2.748V-4.56a1.471,1.471,0,0,0-.355-1.02A1.274,1.274,0,0,0,24.353-5.94Zm7.068,3.527L32.8-7.4H34.86L32.365,0H30.478l-2.5-7.4h2.064ZM39.043.137a3.631,3.631,0,0,1-2.649-1,3.548,3.548,0,0,1-1.022-2.659v-.191A4.468,4.468,0,0,1,35.8-5.7a3.161,3.161,0,0,1,1.22-1.354,3.425,3.425,0,0,1,1.8-.475,3.07,3.07,0,0,1,2.389.957,3.889,3.889,0,0,1,.872,2.714v.807h-4.71a1.835,1.835,0,0,0,.578,1.162,1.746,1.746,0,0,0,1.22.438,2.132,2.132,0,0,0,1.784-.827L41.928-1.2a2.966,2.966,0,0,1-1.2.981A3.947,3.947,0,0,1,39.043.137ZM38.818-5.94a1.234,1.234,0,0,0-.954.4A2.062,2.062,0,0,0,37.4-4.4h2.748V-4.56a1.471,1.471,0,0,0-.355-1.02A1.274,1.274,0,0,0,38.818-5.94ZM45.025-7.4l.062.854a2.582,2.582,0,0,1,2.126-.991,2.146,2.146,0,0,1,1.75.69,3.221,3.221,0,0,1,.588,2.064V0H47.575V-4.73a1.282,1.282,0,0,0-.273-.913,1.224,1.224,0,0,0-.909-.284,1.359,1.359,0,0,0-1.251.711V0H43.166V-7.4Zm8.388-1.818V-7.4h1.265v1.449H53.413v3.691a.881.881,0,0,0,.157.588.79.79,0,0,0,.6.178,3.151,3.151,0,0,0,.581-.048v1.5a4.067,4.067,0,0,1-1.2.178,1.886,1.886,0,0,1-2.119-2.1V-5.947h-1.08V-7.4h1.08V-9.215Zm1.853,5.448a4.387,4.387,0,0,1,.424-1.962,3.1,3.1,0,0,1,1.22-1.333,3.56,3.56,0,0,1,1.849-.472,3.368,3.368,0,0,1,2.444.916,3.676,3.676,0,0,1,1.056,2.488l.014.506a3.866,3.866,0,0,1-.95,2.731A3.3,3.3,0,0,1,58.772.137,3.319,3.319,0,0,1,56.219-.889a3.934,3.934,0,0,1-.954-2.789Zm1.976.14a2.765,2.765,0,0,0,.4,1.612,1.308,1.308,0,0,0,1.135.558,1.311,1.311,0,0,0,1.121-.551,3.025,3.025,0,0,0,.4-1.763,2.737,2.737,0,0,0-.4-1.6,1.311,1.311,0,0,0-1.135-.568,1.29,1.29,0,0,0-1.121.565A3.076,3.076,0,0,0,57.241-3.626ZM67.495-2.044a.637.637,0,0,0-.359-.571,4.077,4.077,0,0,0-1.152-.373q-2.639-.554-2.639-2.242a2.032,2.032,0,0,1,.817-1.644,3.3,3.3,0,0,1,2.136-.66,3.547,3.547,0,0,1,2.252.663A2.09,2.09,0,0,1,69.4-5.147H67.419a.956.956,0,0,0-.273-.7,1.157,1.157,0,0,0-.854-.277,1.182,1.182,0,0,0-.772.226.712.712,0,0,0-.273.574.609.609,0,0,0,.311.53,3.2,3.2,0,0,0,1.049.349,8.571,8.571,0,0,1,1.244.332,2.044,2.044,0,0,1,1.565,1.989,1.929,1.929,0,0,1-.868,1.637,3.745,3.745,0,0,1-2.242.625,3.912,3.912,0,0,1-1.651-.332A2.77,2.77,0,0,1,63.523-1.1a2.113,2.113,0,0,1-.41-1.248h1.873a1.031,1.031,0,0,0,.39.807,1.546,1.546,0,0,0,.971.28A1.43,1.43,0,0,0,67.2-1.48.67.67,0,0,0,67.495-2.044Z" transform="translate(748.062 17402.908)" fill="#12263f"/>
    <path id="Far_far_away_behind-7" data-name="Far far away, behind" d="M-87.309-3.315A3.522,3.522,0,0,1-88.495-.786a4.165,4.165,0,0,1-2.82.923,3.745,3.745,0,0,1-3.011-1.289,5.284,5.284,0,0,1-1.1-3.538V-5.3a5.966,5.966,0,0,1,.506-2.529,3.791,3.791,0,0,1,1.446-1.678,4.05,4.05,0,0,1,2.184-.584,4.058,4.058,0,0,1,2.775.923,3.785,3.785,0,0,1,1.217,2.591h-2.051a2.079,2.079,0,0,0-.537-1.4,1.987,1.987,0,0,0-1.4-.434,1.742,1.742,0,0,0-1.535.735,4.118,4.118,0,0,0-.523,2.28v.752a4.408,4.408,0,0,0,.489,2.358,1.71,1.71,0,0,0,1.542.745A2.025,2.025,0,0,0-89.9-1.972a1.961,1.961,0,0,0,.537-1.343Zm.909-.451a4.387,4.387,0,0,1,.424-1.962,3.1,3.1,0,0,1,1.22-1.333,3.56,3.56,0,0,1,1.849-.472,3.368,3.368,0,0,1,2.444.916,3.676,3.676,0,0,1,1.056,2.488l.014.506a3.866,3.866,0,0,1-.95,2.731A3.3,3.3,0,0,1-82.893.137,3.319,3.319,0,0,1-85.446-.889,3.934,3.934,0,0,1-86.4-3.678Zm1.976.14a2.765,2.765,0,0,0,.4,1.612,1.308,1.308,0,0,0,1.135.558,1.311,1.311,0,0,0,1.121-.551,3.025,3.025,0,0,0,.4-1.763,2.737,2.737,0,0,0-.4-1.6,1.311,1.311,0,0,0-1.135-.568,1.29,1.29,0,0,0-1.121.565A3.076,3.076,0,0,0-84.424-3.626Zm8.066-3.77.062.854a2.582,2.582,0,0,1,2.126-.991,2.146,2.146,0,0,1,1.75.69,3.221,3.221,0,0,1,.588,2.064V0h-1.976V-4.73a1.282,1.282,0,0,0-.273-.913,1.224,1.224,0,0,0-.909-.284,1.359,1.359,0,0,0-1.251.711V0h-1.976V-7.4Zm8.388-1.818V-7.4h1.265v1.449H-67.97v3.691a.881.881,0,0,0,.157.588.79.79,0,0,0,.6.178,3.15,3.15,0,0,0,.581-.048v1.5a4.067,4.067,0,0,1-1.2.178,1.886,1.886,0,0,1-2.119-2.1V-5.947h-1.08V-7.4h1.08V-9.215Zm6.521,3.671a5.367,5.367,0,0,0-.711-.055,1.447,1.447,0,0,0-1.47.759V0H-65.6V-7.4h1.866l.055.882a1.831,1.831,0,0,1,1.647-1.019,2.07,2.07,0,0,1,.615.089Zm.4,1.777a4.387,4.387,0,0,1,.424-1.962,3.1,3.1,0,0,1,1.22-1.333,3.56,3.56,0,0,1,1.849-.472,3.368,3.368,0,0,1,2.444.916,3.676,3.676,0,0,1,1.056,2.488l.014.506A3.866,3.866,0,0,1-55-.892,3.3,3.3,0,0,1-57.545.137,3.319,3.319,0,0,1-60.1-.889a3.934,3.934,0,0,1-.954-2.789Zm1.976.14a2.765,2.765,0,0,0,.4,1.612,1.308,1.308,0,0,0,1.135.558,1.311,1.311,0,0,0,1.121-.551,3.025,3.025,0,0,0,.4-1.763,2.737,2.737,0,0,0-.4-1.6,1.311,1.311,0,0,0-1.135-.568,1.29,1.29,0,0,0-1.121.565A3.076,3.076,0,0,0-59.076-3.626ZM-50.743,0h-1.982V-10.5h1.982Zm7.875-2.8L-41.5-7.4h2.119l-2.974,8.545-.164.39a2.255,2.255,0,0,1-2.187,1.449,3.108,3.108,0,0,1-.875-.13V1.36l.3.007a1.625,1.625,0,0,0,.837-.171A1.123,1.123,0,0,0-44.01.629l.232-.608L-46.368-7.4h2.126ZM-30.83,0a2.194,2.194,0,0,1-.2-.663,2.39,2.39,0,0,1-1.866.8,2.626,2.626,0,0,1-1.8-.629,2.023,2.023,0,0,1-.714-1.586,2.09,2.09,0,0,1,.872-1.8,4.3,4.3,0,0,1,2.519-.636h.909v-.424a1.219,1.219,0,0,0-.263-.82A1.035,1.035,0,0,0-32.2-6.07a1.177,1.177,0,0,0-.783.239.813.813,0,0,0-.284.656h-1.976a1.984,1.984,0,0,1,.4-1.189,2.621,2.621,0,0,1,1.121-.858A4.086,4.086,0,0,1-32.1-7.533a3.228,3.228,0,0,1,2.17.687,2.4,2.4,0,0,1,.8,1.931v3.206a3.536,3.536,0,0,0,.294,1.593V0Zm-1.634-1.374a1.7,1.7,0,0,0,.807-.195,1.28,1.28,0,0,0,.547-.523V-3.363h-.738q-1.483,0-1.579,1.025l-.007.116a.791.791,0,0,0,.26.608A1.009,1.009,0,0,0-32.464-1.374ZM-25.519-7.4V.4a2.646,2.646,0,0,1-.649,1.9,2.468,2.468,0,0,1-1.873.68,4.017,4.017,0,0,1-.978-.116V1.306a3.708,3.708,0,0,0,.622.062q.9,0,.9-.95V-7.4Zm-2.14-1.914a.973.973,0,0,1,.3-.731,1.117,1.117,0,0,1,.81-.287,1.117,1.117,0,0,1,.81.287.973.973,0,0,1,.3.731.97.97,0,0,1-.3.738,1.122,1.122,0,0,1-.8.287,1.122,1.122,0,0,1-.8-.287A.97.97,0,0,1-27.658-9.311Zm8.114,8.559a2.477,2.477,0,0,1-2.023.889,2.337,2.337,0,0,1-1.815-.684,2.918,2.918,0,0,1-.639-2V-7.4h1.976v4.784q0,1.157,1.053,1.157a1.426,1.426,0,0,0,1.381-.7V-7.4h1.982V0h-1.859Zm7.41-1.292a.637.637,0,0,0-.359-.571,4.077,4.077,0,0,0-1.152-.373q-2.639-.554-2.639-2.242a2.032,2.032,0,0,1,.817-1.644,3.3,3.3,0,0,1,2.136-.66,3.547,3.547,0,0,1,2.252.663,2.09,2.09,0,0,1,.844,1.723h-1.976a.956.956,0,0,0-.273-.7,1.157,1.157,0,0,0-.854-.277,1.182,1.182,0,0,0-.772.226.712.712,0,0,0-.273.574.609.609,0,0,0,.311.53,3.2,3.2,0,0,0,1.049.349,8.571,8.571,0,0,1,1.244.332,2.044,2.044,0,0,1,1.565,1.989,1.929,1.929,0,0,1-.868,1.637,3.745,3.745,0,0,1-2.242.625,3.912,3.912,0,0,1-1.651-.332A2.77,2.77,0,0,1-16.105-1.1a2.113,2.113,0,0,1-.41-1.248h1.873a1.031,1.031,0,0,0,.39.807,1.546,1.546,0,0,0,.971.28,1.43,1.43,0,0,0,.858-.215A.67.67,0,0,0-12.134-2.044Zm5.558-7.171V-7.4h1.265v1.449H-6.576v3.691a.881.881,0,0,0,.157.588.79.79,0,0,0,.6.178,3.151,3.151,0,0,0,.581-.048v1.5a4.067,4.067,0,0,1-1.2.178,1.886,1.886,0,0,1-2.119-2.1V-5.947h-1.08V-7.4h1.08V-9.215ZM-.807.137a3.631,3.631,0,0,1-2.649-1A3.548,3.548,0,0,1-4.478-3.521v-.191A4.468,4.468,0,0,1-4.047-5.7a3.161,3.161,0,0,1,1.22-1.354,3.425,3.425,0,0,1,1.8-.475,3.07,3.07,0,0,1,2.389.957,3.889,3.889,0,0,1,.872,2.714v.807h-4.71A1.835,1.835,0,0,0-1.9-1.894a1.746,1.746,0,0,0,1.22.438,2.132,2.132,0,0,0,1.784-.827L2.078-1.2a2.966,2.966,0,0,1-1.2.981A3.947,3.947,0,0,1-.807.137ZM-1.032-5.94a1.234,1.234,0,0,0-.954.4A2.062,2.062,0,0,0-2.454-4.4H.294V-4.56A1.471,1.471,0,0,0-.062-5.58,1.274,1.274,0,0,0-1.032-5.94ZM6.535-3.753a4.457,4.457,0,0,1,.776-2.755A2.517,2.517,0,0,1,9.434-7.533a2.265,2.265,0,0,1,1.784.807V-10.5H13.2V0H11.416l-.1-.786a2.325,2.325,0,0,1-1.9.923,2.511,2.511,0,0,1-2.1-1.029A4.6,4.6,0,0,1,6.535-3.753Zm1.976.147a2.92,2.92,0,0,0,.362,1.6,1.18,1.18,0,0,0,1.053.555,1.322,1.322,0,0,0,1.292-.774V-5.153a1.3,1.3,0,0,0-1.278-.774Q8.511-5.927,8.511-3.606ZM18.136.137a3.631,3.631,0,0,1-2.649-1,3.548,3.548,0,0,1-1.022-2.659v-.191A4.468,4.468,0,0,1,14.9-5.7a3.161,3.161,0,0,1,1.22-1.354,3.425,3.425,0,0,1,1.8-.475,3.07,3.07,0,0,1,2.389.957,3.889,3.889,0,0,1,.872,2.714v.807h-4.71a1.835,1.835,0,0,0,.578,1.162,1.746,1.746,0,0,0,1.22.438,2.132,2.132,0,0,0,1.784-.827L21.021-1.2a2.966,2.966,0,0,1-1.2.981A3.947,3.947,0,0,1,18.136.137ZM17.91-5.94a1.234,1.234,0,0,0-.954.4,2.062,2.062,0,0,0-.468,1.14h2.748V-4.56a1.471,1.471,0,0,0-.355-1.02A1.274,1.274,0,0,0,17.91-5.94ZM24.384,0H22.4V-10.5h1.982ZM36.155-3.63a4.436,4.436,0,0,1-.776,2.738,2.488,2.488,0,0,1-2.1,1.029,2.3,2.3,0,0,1-1.812-.779V2.844H29.5V-7.4h1.832l.068.725a2.322,2.322,0,0,1,1.873-.861A2.5,2.5,0,0,1,35.4-6.521a4.556,4.556,0,0,1,.759,2.789ZM34.18-3.773a2.911,2.911,0,0,0-.366-1.593,1.191,1.191,0,0,0-1.063-.561,1.294,1.294,0,0,0-1.278.711v3.028a1.316,1.316,0,0,0,1.292.731Q34.18-1.456,34.18-3.773Zm7.355-1.771a5.367,5.367,0,0,0-.711-.055,1.447,1.447,0,0,0-1.47.759V0H37.379V-7.4h1.866l.055.882a1.831,1.831,0,0,1,1.647-1.019,2.07,2.07,0,0,1,.615.089Zm.4,1.777a4.387,4.387,0,0,1,.424-1.962,3.1,3.1,0,0,1,1.22-1.333,3.56,3.56,0,0,1,1.849-.472,3.368,3.368,0,0,1,2.444.916,3.676,3.676,0,0,1,1.056,2.488l.014.506a3.866,3.866,0,0,1-.95,2.731A3.3,3.3,0,0,1,45.438.137,3.319,3.319,0,0,1,42.885-.889a3.934,3.934,0,0,1-.954-2.789Zm1.976.14a2.765,2.765,0,0,0,.4,1.612,1.308,1.308,0,0,0,1.135.558,1.311,1.311,0,0,0,1.121-.551,3.025,3.025,0,0,0,.4-1.763,2.737,2.737,0,0,0-.4-1.6,1.311,1.311,0,0,0-1.135-.568,1.29,1.29,0,0,0-1.121.565A3.076,3.076,0,0,0,43.907-3.626ZM51.974-7.4l.062.854a2.582,2.582,0,0,1,2.126-.991,2.146,2.146,0,0,1,1.75.69A3.221,3.221,0,0,1,56.5-4.778V0H54.523V-4.73a1.282,1.282,0,0,0-.273-.913,1.224,1.224,0,0,0-.909-.284,1.359,1.359,0,0,0-1.251.711V0H50.114V-7.4Zm5.715,3.63a4.387,4.387,0,0,1,.424-1.962,3.1,3.1,0,0,1,1.22-1.333,3.56,3.56,0,0,1,1.849-.472,3.368,3.368,0,0,1,2.444.916,3.676,3.676,0,0,1,1.056,2.488l.014.506a3.866,3.866,0,0,1-.95,2.731A3.3,3.3,0,0,1,61.2.137,3.319,3.319,0,0,1,58.642-.889a3.934,3.934,0,0,1-.954-2.789Zm1.976.14a2.765,2.765,0,0,0,.4,1.612,1.308,1.308,0,0,0,1.135.558,1.311,1.311,0,0,0,1.121-.551,3.025,3.025,0,0,0,.4-1.763,2.737,2.737,0,0,0-.4-1.6,1.311,1.311,0,0,0-1.135-.568,1.29,1.29,0,0,0-1.121.565A3.076,3.076,0,0,0,59.664-3.626ZM61.571-10.5h2.153L61.831-8.381H60.225Zm8.347,8.456a.637.637,0,0,0-.359-.571,4.077,4.077,0,0,0-1.152-.373q-2.639-.554-2.639-2.242a2.032,2.032,0,0,1,.817-1.644,3.3,3.3,0,0,1,2.136-.66,3.547,3.547,0,0,1,2.252.663,2.09,2.09,0,0,1,.844,1.723H69.843a.956.956,0,0,0-.273-.7,1.157,1.157,0,0,0-.854-.277,1.182,1.182,0,0,0-.772.226.712.712,0,0,0-.273.574.609.609,0,0,0,.311.53,3.2,3.2,0,0,0,1.049.349,8.571,8.571,0,0,1,1.244.332,2.044,2.044,0,0,1,1.565,1.989,1.929,1.929,0,0,1-.868,1.637,3.745,3.745,0,0,1-2.242.625,3.912,3.912,0,0,1-1.651-.332A2.77,2.77,0,0,1,65.946-1.1a2.113,2.113,0,0,1-.41-1.248h1.873a1.031,1.031,0,0,0,.39.807,1.546,1.546,0,0,0,.971.28,1.43,1.43,0,0,0,.858-.215A.67.67,0,0,0,69.918-2.044Zm5.558-7.171V-7.4H76.74v1.449H75.476v3.691a.881.881,0,0,0,.157.588.79.79,0,0,0,.6.178,3.15,3.15,0,0,0,.581-.048v1.5a4.067,4.067,0,0,1-1.2.178,1.886,1.886,0,0,1-2.119-2.1V-5.947H72.42V-7.4H73.5V-9.215ZM79.926,0H77.943V-7.4h1.982Zm-2.1-9.311a.973.973,0,0,1,.3-.731,1.117,1.117,0,0,1,.81-.287,1.12,1.12,0,0,1,.807.287.967.967,0,0,1,.3.731.97.97,0,0,1-.3.738,1.122,1.122,0,0,1-.8.287,1.122,1.122,0,0,1-.8-.287A.97.97,0,0,1,77.827-9.311Zm6.8,7.854a1.3,1.3,0,0,0,.889-.3,1.054,1.054,0,0,0,.355-.8h1.853a2.534,2.534,0,0,1-.41,1.377,2.706,2.706,0,0,1-1.1.971,3.455,3.455,0,0,1-1.548.345,3.211,3.211,0,0,1-2.5-1.008,3.99,3.99,0,0,1-.916-2.786v-.13a3.944,3.944,0,0,1,.909-2.728,3.174,3.174,0,0,1,2.5-1.019,3.111,3.111,0,0,1,2.225.79,2.8,2.8,0,0,1,.851,2.1H85.873a1.358,1.358,0,0,0-.355-.938,1.185,1.185,0,0,0-.9-.361,1.19,1.19,0,0,0-1.042.5A2.916,2.916,0,0,0,83.221-3.8V-3.6a2.953,2.953,0,0,0,.349,1.643A1.2,1.2,0,0,0,84.629-1.456Zm3.917-2.311a4.387,4.387,0,0,1,.424-1.962,3.1,3.1,0,0,1,1.22-1.333,3.56,3.56,0,0,1,1.849-.472,3.368,3.368,0,0,1,2.444.916,3.676,3.676,0,0,1,1.056,2.488l.014.506A3.866,3.866,0,0,1,94.6-.892,3.3,3.3,0,0,1,92.053.137,3.319,3.319,0,0,1,89.5-.889a3.934,3.934,0,0,1-.954-2.789Zm1.976.14a2.765,2.765,0,0,0,.4,1.612,1.308,1.308,0,0,0,1.135.558,1.311,1.311,0,0,0,1.121-.551,3.025,3.025,0,0,0,.4-1.763,2.737,2.737,0,0,0-.4-1.6,1.311,1.311,0,0,0-1.135-.568,1.29,1.29,0,0,0-1.121.565A3.076,3.076,0,0,0,90.521-3.626Z" transform="translate(1131.612 17402.908)" fill="#12263f"/>
    <path id="Far_far_away_behind-8" data-name="Far far away, behind" d="M-21.749-3.507-22.364,0h-2l1.729-9.953,3.486.007a3.488,3.488,0,0,1,2.536.9,2.777,2.777,0,0,1,.807,2.338,3.143,3.143,0,0,1-1.22,2.338,4.44,4.44,0,0,1-2.833.875Zm.28-1.661,1.668.014a2.109,2.109,0,0,0,1.34-.417A1.678,1.678,0,0,0-17.825-6.7a1.441,1.441,0,0,0-.229-1.135,1.24,1.24,0,0,0-.981-.451l-1.887-.007ZM-13.627,0h-1.941l1.285-7.4h1.941Zm-.431-9.276a.963.963,0,0,1,.3-.759,1.058,1.058,0,0,1,.759-.3,1.063,1.063,0,0,1,.759.267.959.959,0,0,1,.335.725.99.99,0,0,1-.284.738,1.063,1.063,0,0,1-.776.328,1.081,1.081,0,0,1-.755-.26A.954.954,0,0,1-14.058-9.276Zm5.3,7.827a1.266,1.266,0,0,0,.889-.291A1.428,1.428,0,0,0-7.4-2.55l1.812-.007a2.657,2.657,0,0,1-.489,1.4,2.969,2.969,0,0,1-1.176.971A3.366,3.366,0,0,1-8.8.144a2.733,2.733,0,0,1-2.133-.93,3.469,3.469,0,0,1-.759-2.42l.021-.376.007-.075a4.624,4.624,0,0,1,1.217-2.861A3.291,3.291,0,0,1-7.9-7.533a2.666,2.666,0,0,1,1.986.817,2.885,2.885,0,0,1,.721,2.082h-1.8a1.514,1.514,0,0,0-.26-.937.987.987,0,0,0-.779-.369Q-9.41-5.981-9.7-3.924a6.809,6.809,0,0,0-.075,1.258Q-9.71-1.47-8.753-1.449Zm7.109-1.5-.9.779L-2.916,0H-4.843l1.818-10.5H-1.09l-1,5.7.376-.4L.482-7.4H2.957L-.277-4.218,1.781,0H-.332Zm8.463-.52H3.073l.273-1.593H7.1ZM17.011-9.953,15.89-3.391a4,4,0,0,1-1.367,2.6,4.11,4.11,0,0,1-2.816.93A3.793,3.793,0,0,1,9.878-.318,2.693,2.693,0,0,1,8.733-1.562,3.373,3.373,0,0,1,8.48-3.384L9.594-9.953h2L10.483-3.377a2.922,2.922,0,0,0-.007.718A1.212,1.212,0,0,0,11.8-1.511a1.885,1.885,0,0,0,1.388-.465,2.381,2.381,0,0,0,.7-1.408L15-9.953Zm6.911,6.275a6.109,6.109,0,0,1-.608,2.064,3.347,3.347,0,0,1-1.155,1.34,2.676,2.676,0,0,1-1.531.417,2.135,2.135,0,0,1-1.7-.8l-.677,3.5H16.328L18.1-7.4,19.875-7.4l-.13.745a2.362,2.362,0,0,1,1.887-.875,2.1,2.1,0,0,1,1.688.79,3.432,3.432,0,0,1,.643,2.068A7.991,7.991,0,0,1,23.922-3.678Zm-1.914-.14.041-.657a1.828,1.828,0,0,0-.243-1.054.871.871,0,0,0-.749-.4,1.591,1.591,0,0,0-1.388.712l-.554,3.054a1.079,1.079,0,0,0,1.087.719,1.391,1.391,0,0,0,1.162-.541A3.7,3.7,0,0,0,22.008-3.818Z" transform="translate(943.253 17402.908)" fill="#12263f"/>
    <g id="Grupo_1022358" data-name="Grupo 1022358" transform="translate(470.049 17473.896)">
      <path id="Trazado_750442" data-name="Trazado 750442" d="M398.8,154.86,398.755,170c0,2.052-1.368,4.1-4.085,5.67l.046-15.142C397.433,158.963,398.795,156.912,398.8,154.86Z" transform="translate(-231.836 -106.88)" fill="#bd5822"/>
      <path id="Trazado_750443" data-name="Trazado 750443" d="M148.33,169.882l.046-15.142c0,2.078,1.382,4.162,4.151,5.749l-.046,15.142C149.712,174.044,148.323,171.96,148.33,169.882Z" transform="translate(-148.33 -106.838)" fill="#bd5822"/>
      <path id="Trazado_750444" data-name="Trazado 750444" d="M359.238,163.5l-.04,15.142L290.01,218.515l.046-15.142Z" transform="translate(-196.357 -109.856)" fill="#bd5822"/>
      <path id="Trazado_750445" data-name="Trazado 750445" d="M224.284,203.377l-.046,15.142L154.6,178.652l.046-15.142Z" transform="translate(-150.455 -109.86)" fill="#bd5822"/>
      <path id="Trazado_750446" data-name="Trazado 750446" d="M279.866,224.33l-.046,15.142c-5.473,3.153-14.37,3.153-19.87,0L260,224.33C265.5,227.483,274.4,227.483,279.866,224.33Z" transform="translate(-186.167 -130.813)" fill="#bd5822"/>
      <path id="Trazado_750447" data-name="Trazado 750447" d="M311.165,123.894c5.5,3.153,5.539,8.259.066,11.412L242.05,175.173c-5.473,3.153-14.37,3.153-19.87,0l-69.638-39.867c-5.506-3.153-5.539-8.259-.066-11.412l69.182-39.867c5.473-3.153,14.364-3.153,19.87,0Z" transform="translate(-148.351 -81.662)" fill="#eb702d"/>
    </g>
    <g id="Grupo_1022359" data-name="Grupo 1022359" transform="translate(372 17525.949)">
      <path id="Trazado_750448" data-name="Trazado 750448" d="M250.471,234.26l-.046,15.142c0,2.052-1.368,4.1-4.085,5.67l.046-15.142C249.1,238.363,250.465,236.312,250.471,234.26Z" transform="translate(-83.506 -186.286)" fill="#0067cc"/>
      <path id="Trazado_750449" data-name="Trazado 750449" d="M0,249.282.046,234.14c0,2.078,1.382,4.162,4.151,5.749L4.151,255.03C1.382,253.444,0,251.36,0,249.282Z" transform="translate(0 -186.245)" fill="#0067cc"/>
      <path id="Trazado_750450" data-name="Trazado 750450" d="M210.918,242.91l-.046,15.142L141.69,297.919l.04-15.142Z" transform="translate(-48.031 -189.266)" fill="#0067cc"/>
      <path id="Trazado_750451" data-name="Trazado 750451" d="M75.958,282.777l-.04,15.142L6.28,258.052l.04-15.142Z" transform="translate(-2.129 -189.266)" fill="#0067cc"/>
      <path id="Trazado_750452" data-name="Trazado 750452" d="M131.536,303.73l-.046,15.142c-5.473,3.153-14.37,3.153-19.87,0l.046-15.142C117.166,306.883,126.07,306.883,131.536,303.73Z" transform="translate(-37.838 -210.22)" fill="#0067cc"/>
      <path id="Trazado_750453" data-name="Trazado 750453" d="M162.842,203.3c5.5,3.153,5.539,8.259.066,11.412L93.726,254.576c-5.473,3.153-14.37,3.153-19.87,0L4.212,214.716c-5.506-3.153-5.539-8.259-.066-11.412l69.182-39.867c5.473-3.153,14.364-3.153,19.87,0L162.835,203.3Z" transform="translate(-0.021 -161.072)" fill="#0082fe"/>
    </g>
    <g id="Grupo_1022360" data-name="Grupo 1022360" transform="translate(663.263 17476.578)">
      <path id="Trazado_750454" data-name="Trazado 750454" d="M691.111,158.95l-.046,15.142c0,2.052-1.368,4.1-4.085,5.67l.046-15.142C689.743,163.053,691.1,161,691.111,158.95Z" transform="translate(-524.139 -110.97)" fill="#8d421b"/>
      <path id="Trazado_750455" data-name="Trazado 750455" d="M440.63,173.972l.046-15.142c0,2.078,1.382,4.162,4.151,5.749l-.046,15.142C442.011,178.134,440.623,176.05,440.63,173.972Z" transform="translate(-440.63 -110.928)" fill="#8d421b"/>
      <path id="Trazado_750456" data-name="Trazado 750456" d="M651.548,167.59l-.04,15.148L582.32,222.605l.046-15.142Z" transform="translate(-488.661 -113.946)" fill="#8d421b"/>
      <path id="Trazado_750457" data-name="Trazado 750457" d="M516.588,207.467l-.039,15.142L446.91,182.742l.046-15.142Z" transform="translate(-442.759 -113.95)" fill="#8d421b"/>
      <path id="Trazado_750458" data-name="Trazado 750458" d="M572.176,228.42l-.046,15.142c-5.473,3.153-14.37,3.153-19.87,0l.046-15.142C557.806,231.573,566.71,231.573,572.176,228.42Z" transform="translate(-478.471 -134.903)" fill="#8d421b"/>
      <path id="Trazado_750459" data-name="Trazado 750459" d="M603.475,127.984c5.5,3.153,5.539,8.259.066,11.412L534.36,179.263c-5.473,3.153-14.371,3.153-19.87,0L444.852,139.4c-5.506-3.153-5.539-8.259-.066-11.412l69.182-39.867c5.473-3.153,14.364-3.153,19.87,0Z" transform="translate(-440.654 -85.752)" fill="#bd5822"/>
    </g>
    <g id="Grupo_1022361" data-name="Grupo 1022361" transform="translate(565.222 17526.389)">
      <path id="Trazado_750460" data-name="Trazado 750460" d="M542.781,234.94l-.046,15.142c0,2.052-1.368,4.1-4.085,5.67l.046-15.142C541.413,239.043,542.775,236.992,542.781,234.94Z" transform="translate(-375.816 -186.96)" fill="#cb902a"/>
      <path id="Trazado_750461" data-name="Trazado 750461" d="M292.31,249.952l.046-15.142c0,2.078,1.381,4.162,4.151,5.749l-.046,15.142C293.691,254.114,292.3,252.03,292.31,249.952Z" transform="translate(-292.31 -186.915)" fill="#cb902a"/>
      <path id="Trazado_750462" data-name="Trazado 750462" d="M503.228,243.58l-.046,15.142L434,298.589l.04-15.142Z" transform="translate(-340.341 -189.936)" fill="#cb902a"/>
      <path id="Trazado_750463" data-name="Trazado 750463" d="M368.268,283.447l-.046,15.148L298.59,258.722l.04-15.142Z" transform="translate(-294.439 -189.936)" fill="#cb902a"/>
      <path id="Trazado_750464" data-name="Trazado 750464" d="M423.846,304.4l-.046,15.142c-5.473,3.153-14.37,3.153-19.87,0l.046-15.142C409.476,307.553,418.38,307.553,423.846,304.4Z" transform="translate(-330.147 -210.89)" fill="#cb902a"/>
      <path id="Trazado_750465" data-name="Trazado 750465" d="M455.155,203.974c5.5,3.153,5.539,8.259.066,11.412L386.04,255.253c-5.473,3.153-14.37,3.153-19.87,0l-69.638-39.867c-5.506-3.153-5.539-8.259-.066-11.412l69.182-39.867c5.473-3.153,14.364-3.153,19.87,0Z" transform="translate(-292.334 -161.742)" fill="#ffb339"/>
    </g>
    <g id="Grupo_1022362" data-name="Grupo 1022362" transform="translate(860.021 17473.896)">
      <path id="Trazado_750466" data-name="Trazado 750466" d="M988.761,154.86,988.715,170c0,2.052-1.368,4.1-4.085,5.67l.046-15.142C987.393,158.963,988.755,156.912,988.761,154.86Z" transform="translate(-821.796 -106.88)" fill="#8db014"/>
      <path id="Trazado_750467" data-name="Trazado 750467" d="M738.29,169.882l.046-15.142c0,2.078,1.382,4.162,4.151,5.749l-.046,15.142C739.671,174.044,738.283,171.96,738.29,169.882Z" transform="translate(-738.29 -106.838)" fill="#8db014"/>
      <path id="Trazado_750468" data-name="Trazado 750468" d="M949.2,163.5l-.04,15.142L879.98,218.515l.04-15.142Z" transform="translate(-786.321 -109.856)" fill="#8db014"/>
      <path id="Trazado_750469" data-name="Trazado 750469" d="M814.244,203.377l-.046,15.142L744.56,178.652l.046-15.142Z" transform="translate(-740.415 -109.86)" fill="#8db014"/>
      <path id="Trazado_750470" data-name="Trazado 750470" d="M869.826,224.33l-.046,15.142c-5.473,3.153-14.37,3.153-19.87,0l.046-15.142C855.456,227.483,864.36,227.483,869.826,224.33Z" transform="translate(-776.127 -130.813)" fill="#8db014"/>
      <path id="Trazado_750471" data-name="Trazado 750471" d="M901.135,123.894c5.5,3.153,5.539,8.259.066,11.412l-69.182,39.867c-5.473,3.153-14.37,3.153-19.87,0l-69.638-39.867c-5.506-3.153-5.539-8.259-.066-11.412l69.182-39.867c5.473-3.153,14.364-3.153,19.87,0Z" transform="translate(-738.314 -81.662)" fill="#b3dd19"/>
    </g>
    <g id="Grupo_1022363" data-name="Grupo 1022363" transform="translate(761.973 17525.943)">
      <path id="Trazado_750472" data-name="Trazado 750472" d="M840.441,234.26,840.4,249.4c0,2.052-1.368,4.1-4.085,5.67l.046-15.142C839.073,238.363,840.435,236.312,840.441,234.26Z" transform="translate(-673.469 -186.28)" fill="#0082fe"/>
      <path id="Trazado_750473" data-name="Trazado 750473" d="M589.96,249.282l.046-15.142c0,2.078,1.382,4.162,4.151,5.749l-.046,15.142C591.342,253.444,589.953,251.36,589.96,249.282Z" transform="translate(-589.96 -186.238)" fill="#0082fe"/>
      <path id="Trazado_750474" data-name="Trazado 750474" d="M800.878,242.91l-.046,15.142L731.65,297.919l.046-15.142Z" transform="translate(-637.991 -189.26)" fill="#0082fe"/>
      <path id="Trazado_750475" data-name="Trazado 750475" d="M665.918,282.777l-.04,15.142L596.24,258.052l.04-15.142Z" transform="translate(-592.089 -189.26)" fill="#0082fe"/>
      <path id="Trazado_750476" data-name="Trazado 750476" d="M721.506,303.73l-.046,15.142c-5.473,3.153-14.37,3.153-19.87,0l.046-15.142C707.136,306.883,716.04,306.883,721.506,303.73Z" transform="translate(-627.801 -210.213)" fill="#0082fe"/>
      <path id="Trazado_750477" data-name="Trazado 750477" d="M752.805,203.294c5.5,3.153,5.539,8.259.066,11.412l-69.182,39.867c-5.473,3.153-14.37,3.153-19.87,0l-69.638-39.867c-5.506-3.153-5.539-8.259-.066-11.412L663.3,163.427c5.473-3.153,14.364-3.153,19.87,0Z" transform="translate(-589.984 -161.062)" fill="#a7d3ff"/>
    </g>
    <g id="Grupo_1022364" data-name="Grupo 1022364" transform="translate(1052.111 17475.457)">
      <path id="Trazado_750478" data-name="Trazado 750478" d="M1279.361,157.24l-.046,15.142c0,2.052-1.368,4.1-4.085,5.67l.046-15.142C1277.993,161.343,1279.355,159.292,1279.361,157.24Z" transform="translate(-1112.396 -109.26)" fill="#004e99"/>
      <path id="Trazado_750479" data-name="Trazado 750479" d="M1028.89,172.262l.046-15.142c0,2.078,1.381,4.162,4.151,5.749l-.046,15.142C1030.271,176.424,1028.883,174.34,1028.89,172.262Z" transform="translate(-1028.89 -109.218)" fill="#004e99"/>
      <path id="Trazado_750480" data-name="Trazado 750480" d="M1239.8,165.89l-.039,15.142L1170.57,220.9l.046-15.142Z" transform="translate(-1076.917 -112.24)" fill="#004e99"/>
      <path id="Trazado_750481" data-name="Trazado 750481" d="M1104.844,205.757,1104.8,220.9l-69.638-39.867.046-15.142Z" transform="translate(-1031.015 -112.24)" fill="#004e99"/>
      <path id="Trazado_750482" data-name="Trazado 750482" d="M1160.426,226.71l-.046,15.142c-5.473,3.153-14.37,3.153-19.87,0l.046-15.142C1146.056,229.863,1154.96,229.863,1160.426,226.71Z" transform="translate(-1066.728 -133.193)" fill="#004e99"/>
      <path id="Trazado_750483" data-name="Trazado 750483" d="M1191.735,126.274c5.5,3.153,5.539,8.259.066,11.412l-69.182,39.867c-5.473,3.153-14.37,3.153-19.87,0l-69.638-39.867c-5.506-3.153-5.539-8.259-.066-11.412l69.182-39.867c5.473-3.153,14.364-3.153,19.87,0Z" transform="translate(-1028.914 -84.042)" fill="#0067cc"/>
    </g>
    <g id="Grupo_1022365" data-name="Grupo 1022365" transform="translate(954.063 17527.51)">
      <path id="Trazado_750484" data-name="Trazado 750484" d="M1131.031,236.64l-.046,15.142c0,2.052-1.368,4.1-4.085,5.67l.046-15.142C1129.663,240.743,1131.025,238.692,1131.031,236.64Z" transform="translate(-964.065 -188.666)" fill="#996b20"/>
      <path id="Trazado_750485" data-name="Trazado 750485" d="M880.56,251.662l.046-15.142c0,2.078,1.381,4.162,4.151,5.749l-.046,15.142C881.941,255.824,880.553,253.74,880.56,251.662Z" transform="translate(-880.56 -188.625)" fill="#996b20"/>
      <path id="Trazado_750486" data-name="Trazado 750486" d="M1091.478,245.29l-.046,15.142L1022.25,300.3l.04-15.142Z" transform="translate(-928.591 -191.646)" fill="#996b20"/>
      <path id="Trazado_750487" data-name="Trazado 750487" d="M956.517,285.157l-.04,15.142L886.84,260.432l.04-15.142Z" transform="translate(-882.689 -191.646)" fill="#996b20"/>
      <path id="Trazado_750488" data-name="Trazado 750488" d="M1012.1,306.11l-.046,15.142c-5.473,3.153-14.37,3.153-19.87,0l.046-15.142C997.726,309.263,1006.63,309.263,1012.1,306.11Z" transform="translate(-918.397 -212.599)" fill="#996b20"/>
      <path id="Trazado_750489" data-name="Trazado 750489" d="M1043.405,205.684c5.5,3.153,5.539,8.259.066,11.412L974.29,256.963c-5.473,3.153-14.37,3.153-19.87,0L884.781,217.1c-5.506-3.153-5.539-8.259-.066-11.412L953.9,165.817c5.473-3.153,14.364-3.153,19.87,0Z" transform="translate(-880.584 -163.452)" fill="#cb902a"/>
    </g>
    <g id="Grupo_1022366" data-name="Grupo 1022366" transform="translate(543.729 17421.574)">
      <line id="Lnea_50514" data-name="Lnea 50514" y1="23.873" transform="translate(10.083)" fill="none" stroke="#12263f" stroke-linecap="round" stroke-miterlimit="10" stroke-width="3.68"/>
      <path id="Trazado_750498" data-name="Trazado 750498" d="M7.646.023a7.724,7.724,0,0,1,7.669,7.714,7.613,7.613,0,0,1-7.623,7.668A7.724,7.724,0,0,1,.023,7.691,7.613,7.613,0,0,1,7.646.023Z" transform="translate(0 35.151) rotate(-67.2)" fill="#eb702d"/>
    </g>
    <g id="Grupo_1022367" data-name="Grupo 1022367" transform="translate(738.718 17421.574)">
      <line id="Lnea_50515" data-name="Lnea 50515" y1="23.873" transform="translate(9.254)" fill="none" stroke="#12263f" stroke-linecap="round" stroke-miterlimit="10" stroke-width="3.68"/>
      <path id="Trazado_750499" data-name="Trazado 750499" d="M7.7.014a7.64,7.64,0,1,1,.029,15.28A7.64,7.64,0,1,1,7.7.014Z" transform="translate(0 25.338) rotate(-13.17)" fill="#bd5822"/>
    </g>
    <g id="Grupo_1022368" data-name="Grupo 1022368" transform="translate(441.439 17649.252)">
      <line id="Lnea_50516" data-name="Lnea 50516" y2="23.873" transform="translate(10.881 18.007)" fill="none" stroke="#12263f" stroke-linecap="round" stroke-miterlimit="10" stroke-width="3.68"/>
      <path id="Trazado_750500" data-name="Trazado 750500" d="M7.667.032a7.747,7.747,0,0,1,7.7,7.7,7.591,7.591,0,0,1-7.635,7.638,7.747,7.747,0,0,1-7.7-7.7A7.591,7.591,0,0,1,7.667.032Z" transform="matrix(0.689, -0.725, 0.725, 0.689, 0, 11.073)" fill="#0082fe"/>
    </g>
    <g id="Grupo_1022369" data-name="Grupo 1022369" transform="translate(638.018 17649.246)">
      <line id="Lnea_50517" data-name="Lnea 50517" y2="23.873" transform="translate(10.889 18.012)" fill="none" stroke="#12263f" stroke-linecap="round" stroke-miterlimit="10" stroke-width="3.68"/>
      <path id="Trazado_750501" data-name="Trazado 750501" d="M7.667.032a7.747,7.747,0,0,1,7.7,7.7,7.591,7.591,0,0,1-7.635,7.638,7.747,7.747,0,0,1-7.7-7.7A7.591,7.591,0,0,1,7.667.032Z" transform="matrix(0.689, -0.725, 0.725, 0.689, 0, 11.073)" fill="#ffb339"/>
    </g>
    <g id="Grupo_1022370" data-name="Grupo 1022370" transform="translate(933.88 17421.574)">
      <line id="Lnea_50518" data-name="Lnea 50518" y1="23.873" transform="translate(10.889)" fill="none" stroke="#12263f" stroke-linecap="round" stroke-miterlimit="10" stroke-width="3.68"/>
      <path id="Trazado_750502" data-name="Trazado 750502" d="M7.669.032a7.747,7.747,0,0,1,7.7,7.7,7.591,7.591,0,0,1-7.636,7.636,7.747,7.747,0,0,1-7.7-7.7A7.591,7.591,0,0,1,7.669.032Z" transform="translate(0 31.064) rotate(-45)" fill="#b3dd19"/>
    </g>
    <g id="Grupo_1022371" data-name="Grupo 1022371" transform="translate(1125.452 17421.574)">
      <line id="Lnea_50519" data-name="Lnea 50519" y1="23.873" transform="translate(10.893)" fill="none" stroke="#12263f" stroke-linecap="round" stroke-miterlimit="10" stroke-width="3.68"/>
      <path id="Trazado_750503" data-name="Trazado 750503" d="M7.669.032a7.747,7.747,0,0,1,7.7,7.7,7.591,7.591,0,0,1-7.636,7.636,7.747,7.747,0,0,1-7.7-7.7A7.591,7.591,0,0,1,7.669.032Z" transform="translate(0 31.061) rotate(-45)" fill="#0067cc"/>
    </g>
    <g id="Grupo_1022372" data-name="Grupo 1022372" transform="translate(831.768 17649.273)">
      <line id="Lnea_50520" data-name="Lnea 50520" y2="23.873" transform="translate(10.875 17.984)" fill="none" stroke="#12263f" stroke-linecap="round" stroke-miterlimit="10" stroke-width="3.68"/>
      <path id="Trazado_750504" data-name="Trazado 750504" d="M7.665.032a7.746,7.746,0,0,1,7.7,7.7,7.592,7.592,0,0,1-7.633,7.64,7.746,7.746,0,0,1-7.7-7.7A7.592,7.592,0,0,1,7.665.032Z" transform="matrix(0.665, -0.747, 0.747, 0.665, 0, 11.409)" fill="#a7d3ff"/>
    </g>
    <g id="Grupo_1022373" data-name="Grupo 1022373" transform="translate(1026.59 17651.242)">
      <line id="Lnea_50521" data-name="Lnea 50521" y2="23.873" transform="translate(8.969 16.017)" fill="none" stroke="#12263f" stroke-linecap="round" stroke-miterlimit="10" stroke-width="3.68"/>
      <path id="Trazado_750505" data-name="Trazado 750505" d="M7.7.011a7.639,7.639,0,1,1,.023,15.277A7.639,7.639,0,1,1,7.7.011Z" transform="translate(0 2.736) rotate(-10.32)" fill="#cb902a"/>
    </g>
    <path id="Trazado_750490" data-name="Trazado 750490" d="M122.568,240.1h-4.2V218.458c0-.682,0-1.409.013-2.183s.026-1.547.046-2.314.046-1.5.073-2.2.046-1.324.06-1.862c-.271.282-.509.531-.721.734s-.416.4-.635.59-.443.393-.681.6-.529.465-.859.747l-3.536,2.871-2.294-2.917,9.155-7.086h3.583V240.1Z" transform="translate(334.77 17349.592)" fill="#fff"/>
    <path id="Trazado_750491" data-name="Trazado 750491" d="M278.23,155.3h-21.8v-3.7l8.368-9.033c1.2-1.278,2.261-2.452,3.206-3.507a26.79,26.79,0,0,0,2.4-3.107,13.666,13.666,0,0,0,1.52-3.048,10.173,10.173,0,0,0,.529-3.33,7.038,7.038,0,0,0-.4-2.465,5.076,5.076,0,0,0-1.157-1.816,4.975,4.975,0,0,0-1.778-1.127,6.521,6.521,0,0,0-2.294-.38,9.024,9.024,0,0,0-4.1.911,17.058,17.058,0,0,0-3.477,2.334l-2.439-2.819a19.233,19.233,0,0,1,2.056-1.6,13.9,13.9,0,0,1,2.366-1.291,15.954,15.954,0,0,1,2.677-.865,13.182,13.182,0,0,1,2.961-.321,12.633,12.633,0,0,1,4.145.642,8.871,8.871,0,0,1,3.146,1.835,8.135,8.135,0,0,1,2,2.917,10.149,10.149,0,0,1,.707,3.874,11.624,11.624,0,0,1-.635,3.841,17.617,17.617,0,0,1-1.745,3.592,29.211,29.211,0,0,1-2.651,3.546q-1.547,1.78-3.331,3.7l-6.716,7.086v.19h16.472v3.933Z" transform="translate(285.074 17378.979)" fill="#fff"/>
    <path id="Trazado_750492" data-name="Trazado 750492" d="M421.64,213.323a8.751,8.751,0,0,1-.549,3.153,7.437,7.437,0,0,1-1.54,2.465,8.233,8.233,0,0,1-2.38,1.717,10.975,10.975,0,0,1-3.08.957v.144a10.847,10.847,0,0,1,6.432,2.668,7.447,7.447,0,0,1,2.2,5.585,10.8,10.8,0,0,1-.78,4.169,8.607,8.607,0,0,1-2.353,3.271,10.946,10.946,0,0,1-3.992,2.13,19.2,19.2,0,0,1-5.711.76,29.15,29.15,0,0,1-4.911-.4,14.786,14.786,0,0,1-4.336-1.468v-4.031a20.573,20.573,0,0,0,9.155,2.275,13.479,13.479,0,0,0,3.8-.472,7.263,7.263,0,0,0,2.644-1.35,5.174,5.174,0,0,0,1.527-2.157,8.029,8.029,0,0,0,.489-2.871,5.662,5.662,0,0,0-.635-2.76,5.223,5.223,0,0,0-1.8-1.894,8.521,8.521,0,0,0-2.856-1.1,18.635,18.635,0,0,0-3.814-.354h-3.179V220.18h3.179a11.533,11.533,0,0,0,3.444-.472,6.988,6.988,0,0,0,2.518-1.35,5.772,5.772,0,0,0,1.54-2.084,6.592,6.592,0,0,0,.529-2.655,5.437,5.437,0,0,0-.43-2.2,4.528,4.528,0,0,0-1.216-1.645,5.414,5.414,0,0,0-1.891-1.029,7.937,7.937,0,0,0-2.439-.354,11.865,11.865,0,0,0-4.508.793,17.716,17.716,0,0,0-3.715,2.071l-2.2-2.963a15.1,15.1,0,0,1,2.023-1.377,16.172,16.172,0,0,1,2.426-1.127,17.933,17.933,0,0,1,2.809-.774,16.881,16.881,0,0,1,3.166-.282,14.527,14.527,0,0,1,4.528.642A9.339,9.339,0,0,1,419,207.162a7.4,7.4,0,0,1,1.983,2.727,8.791,8.791,0,0,1,.668,3.448Z" transform="translate(236.189 17349.836)" fill="#fff"/>
    <path id="Trazado_750493" data-name="Trazado 750493" d="M569.289,147.452H564.2v7.774H560v-7.774H543.86v-3.769l15.851-23.3h4.495v23.132h5.09v3.933Zm-9.3-3.933v-8.436c0-.885.013-1.816.033-2.786s.053-1.921.086-2.845.066-1.789.106-2.6.066-1.475.086-2.012h-.218c-.112.315-.251.669-.416,1.055s-.35.773-.549,1.16-.4.76-.608,1.127a9.845,9.845,0,0,1-.575.924l-9.823,14.414h11.878Z" transform="translate(187.64 17378.896)" fill="#fff"/>
    <path id="Trazado_750494" data-name="Trazado 750494" d="M705,218.485a14.476,14.476,0,0,1,4.409.649,10.319,10.319,0,0,1,3.563,1.934,8.918,8.918,0,0,1,2.38,3.179,10.5,10.5,0,0,1,.859,4.385,13.667,13.667,0,0,1-.813,4.857,9.539,9.539,0,0,1-2.413,3.651,10.79,10.79,0,0,1-3.953,2.288,16.883,16.883,0,0,1-5.414.793q-1.22,0-2.4-.118c-.787-.079-1.547-.2-2.274-.341a14.274,14.274,0,0,1-2.069-.583,9.8,9.8,0,0,1-1.772-.832v-4.077a9.2,9.2,0,0,0,1.851.97,16.765,16.765,0,0,0,2.234.714,22.49,22.49,0,0,0,2.353.439,16.681,16.681,0,0,0,2.188.157,11.826,11.826,0,0,0,3.371-.439,6.493,6.493,0,0,0,2.512-1.363,6.058,6.058,0,0,0,1.58-2.32,9.114,9.114,0,0,0,.549-3.317,6.421,6.421,0,0,0-2.1-5.178,9.208,9.208,0,0,0-6.121-1.79c-.43,0-.9.02-1.4.059s-1,.092-1.507.151-.978.131-1.434.2-.846.138-1.183.2l-2.148-1.35,1.315-16.309h16.492v3.933H700.93L700,218.964c.509-.092,1.183-.2,2.023-.308a23.018,23.018,0,0,1,2.974-.164Z" transform="translate(136.371 17349.709)" fill="#fff"/>
    <path id="Trazado_750495" data-name="Trazado 750495" d="M847.707,140.13a49.53,49.53,0,0,1,.251-4.955,27.7,27.7,0,0,1,.886-4.726,18.872,18.872,0,0,1,1.732-4.208,12.35,12.35,0,0,1,2.8-3.376,12.66,12.66,0,0,1,4.065-2.255,17.021,17.021,0,0,1,5.546-.819c.3,0,.635.007,1,.026s.734.046,1.11.085.734.085,1.078.144a7.129,7.129,0,0,1,.919.2v3.677a9.791,9.791,0,0,0-1.89-.426,16.043,16.043,0,0,0-2.082-.144,12.715,12.715,0,0,0-3.787.511A8.993,8.993,0,0,0,856.5,125.3a8.378,8.378,0,0,0-2,2.2,12.643,12.643,0,0,0-1.3,2.832,18.853,18.853,0,0,0-.74,3.3c-.159,1.167-.265,2.386-.311,3.651h.284a8.728,8.728,0,0,1,1.157-1.6,6.7,6.7,0,0,1,1.586-1.278,8.377,8.377,0,0,1,2.043-.839,9.8,9.8,0,0,1,2.545-.308,11.526,11.526,0,0,1,4.111.7,8.305,8.305,0,0,1,3.133,2.052,9.282,9.282,0,0,1,2,3.3,13.148,13.148,0,0,1,.707,4.47,14.829,14.829,0,0,1-.74,4.857,10.27,10.27,0,0,1-2.128,3.664,9.347,9.347,0,0,1-3.345,2.314,11.458,11.458,0,0,1-4.4.806,10.853,10.853,0,0,1-4.482-.924A9.579,9.579,0,0,1,851,151.693a14.146,14.146,0,0,1-2.413-4.765,23.151,23.151,0,0,1-.886-6.778Zm11.356,11.661a6.865,6.865,0,0,0,2.618-.485,5.416,5.416,0,0,0,2.043-1.468,6.753,6.753,0,0,0,1.328-2.491,12.094,12.094,0,0,0,.469-3.566,10.3,10.3,0,0,0-.4-2.976,6.075,6.075,0,0,0-1.183-2.242,5.256,5.256,0,0,0-1.97-1.422,7.039,7.039,0,0,0-2.763-.5,7.514,7.514,0,0,0-2.928.557,7.33,7.33,0,0,0-2.261,1.449,6.418,6.418,0,0,0-1.448,2.025,5.468,5.468,0,0,0-.516,2.275,11.584,11.584,0,0,0,.443,3.166,9.449,9.449,0,0,0,1.315,2.832A7.087,7.087,0,0,0,856,151a5.8,5.8,0,0,0,3.06.793Z" transform="translate(84.643 17379.1)" fill="#fff"/>
    <path id="Trazado_750496" data-name="Trazado 750496" d="M992.438,240.106l13.458-30.723H987.87V205.45h22.468v3.435l-13.267,31.221h-4.64Z" transform="translate(37.127 17349.588)" fill="#fff"/>
    <path id="Trazado_750497" data-name="Trazado 750497" d="M1148.346,119.743a13.415,13.415,0,0,1,3.787.524,9.421,9.421,0,0,1,3.133,1.567,7.6,7.6,0,0,1,2.142,2.609,7.974,7.974,0,0,1,.787,3.651,7.942,7.942,0,0,1-1.791,5.185,9.857,9.857,0,0,1-1.983,1.849,18.113,18.113,0,0,1-2.485,1.481,29.341,29.341,0,0,1,2.71,1.632,13.855,13.855,0,0,1,2.367,2.025,9.505,9.505,0,0,1,1.672,2.524,7.473,7.473,0,0,1,.635,3.127,9.409,9.409,0,0,1-.8,3.946,8.455,8.455,0,0,1-2.248,3,10.191,10.191,0,0,1-3.464,1.894,14.3,14.3,0,0,1-4.455.662,15.657,15.657,0,0,1-4.673-.642,9.631,9.631,0,0,1-3.444-1.835,7.823,7.823,0,0,1-2.128-2.93,9.936,9.936,0,0,1-.727-3.913,9,9,0,0,1,.536-3.2,9.308,9.308,0,0,1,1.448-2.563,10.42,10.42,0,0,1,2.148-2.012,17.775,17.775,0,0,1,2.63-1.54,20.026,20.026,0,0,1-2.2-1.6,10.062,10.062,0,0,1-1.778-1.934,9.335,9.335,0,0,1-1.2-2.36,8.706,8.706,0,0,1-.443-2.858,7.5,7.5,0,0,1,2.961-6.207,9.486,9.486,0,0,1,3.146-1.567,13.179,13.179,0,0,1,3.715-.524Zm-6.7,26.4a6.69,6.69,0,0,0,.383,2.314,4.531,4.531,0,0,0,1.2,1.8,5.617,5.617,0,0,0,2.056,1.16,10.8,10.8,0,0,0,5.916,0,5.82,5.82,0,0,0,2.142-1.186,4.784,4.784,0,0,0,1.289-1.862,6.6,6.6,0,0,0,.43-2.419,5.1,5.1,0,0,0-.469-2.229,6.412,6.412,0,0,0-1.342-1.848,12.042,12.042,0,0,0-2.089-1.612,31.029,31.029,0,0,0-2.724-1.495l-.72-.334a13.045,13.045,0,0,0-4.541,3.258,6.729,6.729,0,0,0-1.527,4.444Zm6.643-22.8a6.03,6.03,0,0,0-4.026,1.259,4.493,4.493,0,0,0-1.494,3.651,5.851,5.851,0,0,0,.417,2.32,5.7,5.7,0,0,0,1.157,1.73,8.634,8.634,0,0,0,1.778,1.363c.687.406,1.448.793,2.26,1.173a19.665,19.665,0,0,0,2.162-1.141,9.009,9.009,0,0,0,1.772-1.4,5.934,5.934,0,0,0,1.183-1.776,5.725,5.725,0,0,0,.43-2.275,4.489,4.489,0,0,0-1.507-3.651,6.253,6.253,0,0,0-4.138-1.259Z" transform="translate(-13.555 17379.119)" fill="#fff"/>
  </g>
</svg>
